<svg width="33" height="32" viewBox="0 0 33 32" fill="none" xmlns="http://www.w3.org/2000/svg">
<path d="M21.834 4.00004V9.33337M11.1673 4.00004V9.33337M5.83398 14.6667H27.1673M9.83398 18.6667H9.85132M13.847 18.6667H13.8537M17.847 18.6667H17.8537M21.8535 18.6667H21.8602M17.8535 22.6667H17.8602M9.84701 22.6667H9.85367M13.847 22.6667H13.8537M5.83398 9.33337C5.83398 8.62613 6.11494 7.94785 6.61503 7.44775C7.11513 6.94766 7.79341 6.6667 8.50065 6.6667H24.5007C25.2079 6.6667 25.8862 6.94766 26.3863 7.44775C26.8864 7.94785 27.1673 8.62613 27.1673 9.33337V25.3334C27.1673 26.0406 26.8864 26.7189 26.3863 27.219C25.8862 27.7191 25.2079 28 24.5007 28H8.50065C7.79341 28 7.11513 27.7191 6.61503 27.219C6.11494 26.7189 5.83398 26.0406 5.83398 25.3334V9.33337Z" stroke="white" stroke-width="2" stroke-linecap="round" stroke-linejoin="round"/>
</svg>
