<svg width="446" height="428" viewBox="0 0 446 428" fill="none" xmlns="http://www.w3.org/2000/svg">
<g style="mix-blend-mode:multiply">
<path d="M158.892 346.989C158.892 342.686 153.943 336.852 150.543 334.513C141.133 328.056 130.325 326.731 134.092 342.192C134.428 343.58 135.29 345.161 135.537 346.502C135.753 347.683 135.713 349.439 135.737 350.684C132.105 345.544 129.072 340.116 129.575 333.571C129.663 332.438 130.014 331.009 130.253 329.867C132.281 320.169 136.575 309.713 139.137 299.848C142.984 285.009 147.239 265.781 148.212 250.567C148.236 250.248 148.412 249.051 147.933 249.051L143.822 261.646L145.738 243.296L143.511 250.248C141.564 258.453 140.534 266.89 140.805 275.351L132.592 264.663L134.579 272.406L138.347 279.462C135.234 276.429 132.44 272.749 130.676 268.782L130.261 271.664L130.948 273.435L129.718 273.004L127.938 273.843C130.189 276.708 132.927 279.007 135.88 281.106C132.217 280.132 129.056 277.977 126.158 275.623C125.225 274.856 124.291 273.052 123.006 273.571L124.778 275.902L130.397 280.827C127.531 280.579 124.849 279.103 122.367 277.762C120.97 277.003 121.05 276.501 119.342 276.149C119.222 276.125 118.879 275.192 118.344 275.631C117.809 276.07 119.949 276.772 119.709 277.418L119.741 290.022L119.039 292.353L117.801 292.752C118.32 293.638 118.887 293.175 119.717 293.167V306.313H114.513L125.632 321.902C127.46 324.28 130.014 325.837 129.862 329.173C129.814 330.171 129.255 331.424 129.128 332.517C129.056 333.148 129.766 334.178 128.761 334.529L128.489 333.707C127.052 337.865 129.726 340.172 131.083 343.572C132.464 347.045 133.949 352.432 134.699 356.12C135.976 362.402 136.248 368.707 135.88 375.069L136.711 367.271C136.854 364.788 136.208 362.346 136.423 359.863C136.463 359.361 136.527 358.419 137.245 358.634C142.721 370.16 146.728 382.34 150.95 394.385C151.621 398.137 148.58 401.409 145.331 398.368L137.844 408.409C135.162 413.167 139.289 412.943 142.266 414.851C144.996 416.599 147.51 419.943 148.276 423.096C148.34 423.367 148.635 423.399 148.212 423.719L132.313 426.041C131.347 422.888 137.062 420.789 134.907 417.828C132.025 413.869 126.318 420.789 122.998 420.286C125.823 413.797 128.098 406.989 130.197 400.228C131.299 396.668 132.512 393.02 133.334 389.388C133.438 388.918 133.981 387.361 133.422 387.146C130.732 396.444 127.276 405.584 123.764 414.611C122.591 417.628 118.663 423.511 122.199 426.169C125.169 428.396 127.22 426.145 129.718 426.289C130.301 426.321 130.309 427.279 131.211 427.566C131.874 427.773 132.592 427.71 133.278 427.686C138.65 427.51 144.613 426.177 150.04 425.818C151.605 425.403 152.658 424.102 152.594 422.481C154.095 422.721 155.58 422.849 157.112 422.753C160.688 422.537 170.506 421.029 173.818 420.007C178.999 418.411 173.755 412.304 176.333 409.08C178.097 409.575 179.893 409.567 179.741 407.284C179.589 405.017 176.652 403.58 176.269 401.673C176.085 400.771 176.492 399.158 176.436 397.969C175.886 387.361 169.74 377.456 167.257 367.151C161.925 344.985 165.246 331.025 171.711 309.953C175.032 299.121 178.967 287.691 183.437 277.299C184.123 275.694 185.057 272.565 186.502 271.871C194.292 268.104 209.841 268.91 218.493 269.349C230.298 269.939 242.351 271.664 254.1 272.095C261.891 272.382 267.582 271.879 274.789 268.926C282.636 265.709 290.25 261.351 298.057 257.983C304.235 258.717 306.166 265.047 307.491 270.211C310.373 281.457 310.604 290.868 318.37 300.43C319.424 301.731 320.877 302.689 321.763 304.158C324.708 309.043 320.797 315.604 320.805 320.704C320.805 323.131 321.994 325.781 322.393 328.183C323.646 335.686 319.624 341.337 319.177 348.362C318.977 351.443 319.64 354.524 318.139 357.461C310.923 370.344 306.158 386.834 297.378 398.616C295.686 400.89 292.158 403.86 291.001 405.943C290.282 407.228 290.242 408.146 290.945 409.439C288.079 410.684 284.934 414.436 289.237 416.12C294.105 418.027 303.915 418.331 309.191 418.107C311.442 418.012 316.088 417.748 318.091 417.142C323.623 415.473 319.735 407.475 324.596 406.637C327.095 406.206 328.228 411.203 331.525 408.665C333.983 406.773 335.332 398.137 331.501 396.572C335.053 384.392 336.872 371.445 342.149 359.839C345.493 352.488 350.625 346.318 354.026 338.839C357.777 330.594 358.807 322.317 361.992 314.199C364.769 307.119 369.215 305.331 367.052 296.679C365.982 292.385 363.277 288.354 361.72 284.203C360.235 280.252 359.166 275.335 358.91 271.121C358.847 270.091 358.743 265.278 359.038 264.679C359.094 264.568 359.365 264.344 359.453 264.408C361.201 266.994 359.413 274.417 363.923 273.388C367.012 272.677 365.52 267.178 365.759 265.094C366.158 261.638 370.189 261.479 372.711 260.265C378.921 257.28 383.966 249.25 384.125 242.362C384.173 240.183 382.697 237.533 385.626 240.015C392.442 245.81 390.958 255.788 391.788 263.722C392.826 273.707 397.495 284.131 400.352 293.789C404.399 307.478 408.039 324.855 409.316 339.071C410.17 348.553 408.749 353.749 407.209 362.713C405.397 373.281 405.581 384.727 399.626 394.034C396.33 399.182 390.327 406.158 390.966 412.767C391.245 415.689 396.21 413.757 397.798 412.744L400.552 409.607V413.446L422.047 415.378C423.516 415.266 425.703 415.681 426.956 414.787C427.858 414.148 429.399 411.147 429.518 409.95L430.692 395.91L431.945 398.073L433.813 399.174C438.298 392.525 432.264 385.988 431.777 379.339C431.171 371.126 431.833 361.324 432.073 353.039C432.456 339.693 433.39 326.3 435.074 313.034C436.103 304.948 438.131 301.691 440.956 294.532C446.384 280.755 442.058 277.522 437.141 265.494C430.452 249.131 432.416 232.225 436.798 215.583C438.466 209.237 441.012 203.187 441.651 196.602C442.417 188.708 442.792 179.944 443.295 171.946C444.508 152.63 446.32 129.706 444.389 110.581C442.194 88.8063 431.051 69.9771 409.675 62.6896C401.829 49.28 386.983 40.1088 371.378 39.2148C365.719 38.8876 360.044 39.7576 354.385 39.4942C347.816 39.1909 341.342 37.5706 334.709 38.1453C325.786 38.9275 317.253 44.9299 309.048 48.0987L291.527 54.2687C299.413 52.6643 307.387 50.2219 314.723 46.9253C317.908 45.4966 321.02 43.5011 324.221 42.1761C341.278 35.0962 365.703 44.5707 381.93 51.1318C399.522 58.2516 421.872 67.0158 433.118 82.9556C443.479 97.6343 446.224 116.982 440.286 134C439.799 134.064 440.015 133.377 440.046 133.074C440.342 130.304 441.172 127.415 441.379 124.541C441.994 116.24 441.012 107.245 437.596 99.5659C429.622 81.6785 408.869 74.1436 391.525 68.5243L403.529 83.7777C406.491 88.3354 402.675 94.3378 397.224 92.5499C394.143 91.5441 392.857 87.8166 390.407 85.9408C388.875 84.7675 386.815 84.0412 384.955 83.5942C393.775 95.0242 377.644 103.198 376.774 113.901C376.67 115.155 376.846 116.336 376.878 117.565C373.469 114.716 370.484 110.868 368.856 106.678C366.581 100.795 367.73 95.2637 366.19 89.3411C363.987 80.8564 357.825 71.2781 350.41 66.489C336.745 57.661 327.917 62.9929 313.773 65.4194C301.146 67.5905 288.406 67.7421 275.643 67.1515C283.817 75.2212 295.079 80.9761 306.326 83.4505C310.556 84.3844 314.723 84.6158 318.937 85.3582C323.192 86.1085 327.318 87.4494 331.533 88.3833C340.712 90.4107 346.786 90.1553 353.595 97.8259C361.353 106.566 359.389 112.68 360.02 123.184C360.651 133.784 367.435 143.027 366.605 153.851C366.102 160.332 363.173 165.321 360.81 171.068C357.641 178.786 354.888 188.676 347.959 193.832C340.784 199.172 327.741 200.808 323.279 208.87C320.925 213.116 320.757 215.99 316.758 219.606C307.858 227.659 299.829 223.285 289.907 225.903C280.233 228.458 274.207 239.856 266.752 246.034C259.041 252.419 250.413 256.282 240.172 255.644C232.453 255.165 225.573 251.884 217.639 253.912C213.249 255.029 208.156 259.874 203.519 256.961C199.408 254.375 203.144 249.849 204.166 246.736C206.528 239.528 203.104 232.927 202.282 225.879C200.366 209.556 213.736 196.738 212.674 180.423C212.363 175.665 210.503 170.637 206.64 167.699C209.92 176.831 208.236 186.074 205.339 195.029C202.058 205.182 195.832 214.545 196.487 225.656C196.599 227.5 197.197 229.551 197.317 231.403C198.003 241.859 195.322 249.242 191.339 258.573C185.679 271.823 179.398 285.528 173.26 298.571C170.53 304.365 167.864 310.24 164.12 315.46C161.83 318.653 156.186 323.913 155.699 327.585C155.045 332.557 157.902 334.832 159.243 339.063C160.664 343.509 160.129 347.931 158.956 352.36C158.238 352.305 158.948 351.315 158.956 351.131C159.036 349.798 158.956 348.37 158.956 347.021L158.892 346.989ZM385.905 50.1261C386.169 50.5731 386.504 50.4853 385.873 50.9722L382.449 46.5981C382.96 46.1431 385.602 49.6232 385.905 50.1261ZM422.869 108.522C423.843 103.238 422.853 98.217 423.269 93.0288C423.292 92.7095 423.356 91.7995 423.811 91.7995C423.46 96.2854 424.378 100.939 424.099 105.369C423.708 111.627 419.669 120.782 416.364 126.122C416.069 126.601 415.734 127.463 415.047 127.407C416.492 120.638 421.608 115.354 422.869 108.522ZM420.307 125.954C420.084 126.441 419.852 127.231 419.166 127.135C418.807 126.72 420.459 123.24 420.77 122.57C420.986 122.107 420.93 121.484 421.624 121.66C421.042 123.025 420.922 124.613 420.307 125.954ZM423.803 132.196C423.715 131.278 424.266 130.288 424.091 129.322C425.607 129.378 424.051 131.573 424.362 132.611C424.051 133.026 423.843 132.611 423.803 132.196ZM441.89 134.934C442.018 134.742 442.409 133.84 442.72 134.12C441.332 137.807 439.304 141.287 438.418 145.159C437.061 151.073 437.963 157.339 436.694 163.293C435.912 163.094 436.694 161.737 436.694 161.513C436.694 157.235 436.311 151.959 436.694 147.816C437.101 143.434 439.552 138.573 441.898 134.934H441.89ZM418.192 146.579C416.923 148.048 415.494 150.371 414.089 151.512C413.778 151.768 413.65 152.175 413.132 152.055C413.06 151.584 413.187 151.193 413.339 150.762C413.714 149.732 418.455 145.023 419.565 144.113C419.876 143.857 420.004 143.45 420.523 143.57C421.042 144.137 418.599 146.108 418.192 146.579ZM441.084 145.494L441.906 145.629C441.324 147.218 441.052 148.918 440.845 150.594C440.669 152.023 440.877 154.729 440.493 155.99C440.382 156.349 440.086 156.517 439.719 156.445C439.847 154.721 439.544 152.797 439.719 151.105C439.903 149.325 440.837 147.29 441.1 145.494H441.084ZM439.432 163.573L439.703 159.191H440.525C440.525 160.659 440.757 162.591 439.432 163.573ZM439.041 173.446C438.897 174.692 436.846 179.576 436.103 180.646C434.858 182.434 434.164 181.652 434.922 179.736C435.377 178.595 436.279 177.541 436.838 176.448C437.548 175.067 437.915 173.606 438.753 172.337C439.336 172.72 439.105 172.928 439.041 173.438V173.446ZM438.881 180.279C438.211 181.74 438.211 183.543 437.732 185.02C437.612 185.395 437.357 185.563 436.965 185.483C436.726 183.583 437.388 181.492 438.881 180.279ZM438.745 191.509C437.915 190.615 438.498 189.067 438.338 187.949H439.16C439.097 188.516 439.424 191.509 438.753 191.509H438.745ZM381.236 191.246C381.507 191.086 382.178 191.438 382.17 191.653C382.162 192.156 374.723 196.753 373.414 196.442L381.236 191.246ZM381.076 195.899C381.659 196.49 377.867 198.182 377.516 198.366C376.95 197.791 380.781 196.251 381.076 195.899ZM432.663 204.073C432.52 204.544 432.759 204.783 432.041 204.664C431.849 202.804 432.336 201.104 432.839 199.348L433.685 199.188C433.118 200.736 433.134 202.516 432.671 204.073H432.663ZM372.184 221.641C364.067 214.106 360.02 209.86 350.394 218.496C342.133 225.903 334.542 233.957 325.283 240.231C323.814 241.229 322.186 242.354 320.542 243.016L323.279 240.135C335.18 230.325 345.868 217.674 357.801 208.08C361.92 204.767 367.108 201.958 372.424 204.416C376.143 206.14 376.614 209.852 378.299 213.06C380.422 217.115 383.726 220.54 386.137 224.403C389.441 229.711 391.572 236.168 391.501 242.458C385.426 235.21 379.137 228.074 372.192 221.633L372.184 221.641ZM352.725 229.87C356.66 229.447 363.987 233.023 363.827 226.039C365.575 227.165 365.919 229.463 365.751 231.395C365.136 238.619 352.637 241.165 351.775 251.39C351.655 252.778 352.509 258.845 351.791 259.347C349.508 260.952 348.039 254.702 347.927 253.313C347.552 248.644 350.242 243.879 343.282 243.304C345.661 239.576 347.624 230.437 352.733 229.886L352.725 229.87ZM382.09 247.183C380.813 253.704 375.936 258.206 369.742 260.042C367.299 260.768 364.586 260.202 364.354 263.69C364.21 265.909 365.871 270.147 362.909 270.937C360.882 270.418 361.425 261.303 360.954 259.164C360.076 255.165 355.343 252.228 358.495 247.973C360.866 244.773 365.711 244.645 368.928 242.793C374.212 239.752 374.922 233.031 370.66 228.777C378.426 230.916 383.638 239.241 382.082 247.183H382.09ZM437.197 275.527C434.842 272.821 432.057 270.171 428.481 269.317C431.035 274.01 426.781 279.925 429.191 284.626C430.867 287.899 435.616 287.915 435.624 292.736L430.676 318.765C430.963 332.669 431.003 347.132 428.992 360.909C428.137 366.736 426.509 373.56 421.177 376.929C416.524 379.866 410.825 378.358 406.57 381.909C407.512 378.182 408.47 374.47 409.18 370.687C412.86 350.988 412.126 330.761 407.097 311.389C406.139 307.71 403.386 301.125 403.545 297.661C403.841 291.259 413.251 289.32 414.177 283.908C415.079 278.6 409.149 274.034 410.33 268.822C411.288 264.608 416.923 263.123 419.852 260.537C422.335 258.35 423.532 255.388 424.977 252.515L430.133 240.55C427.204 255.261 437.524 267.401 440.27 281.09L437.213 275.519L437.197 275.527ZM294.505 406.709C294.289 406.877 293.978 407.451 293.69 406.989C301.106 395.175 307.818 382.827 313.462 370.048C318.73 358.123 324.006 344.363 323.287 331.089C323.088 327.393 321.06 321.079 322.122 317.887C322.657 316.274 324.157 314.774 324.636 313.002C327.949 300.67 309.742 291.459 317.389 279.19C320.246 284.714 328.755 284.498 331.78 289.727C333.209 292.185 332.969 295.178 333.488 297.876C335.516 308.277 342.611 317.128 346.61 326.667C348.941 332.222 348.382 333.874 346.634 339.39C342.867 351.339 338.437 364.301 333.887 375.955C330.806 383.849 323.662 400.068 317.101 405.193C313.206 408.234 307.14 407.3 307.387 401.633C302.383 401.681 298.344 403.748 294.505 406.701V406.709ZM162.851 329.029C163.298 327.17 164.887 323.586 165.876 321.918C166.052 321.622 166.156 321.167 166.563 321.103L163.003 329.867C162.492 329.931 162.787 329.309 162.851 329.037V329.029ZM165.23 372.706C164.033 370.408 163.314 365.754 163.258 363.16C163.242 362.601 163.147 362.043 163.689 361.651L166.291 373.696C165.629 373.792 165.461 373.153 165.23 372.706ZM166.291 376.442C167.018 376.681 167.832 380.345 167.656 380.553C166.946 381.391 166.036 376.841 166.291 376.442ZM171.152 397.482C170.426 395.678 170.107 393.188 169.851 391.24L171.767 398.089C170.993 398.232 171.32 397.905 171.152 397.49V397.482Z" fill="black"/>
<path d="M21.9153 60.1516C21.9153 60.5507 22.5139 62.7297 22.7693 63.1288C23.0966 63.6317 23.5595 63.911 24.1023 64.1265C24.1422 62.9133 23.4558 61.8517 23.3121 60.6704C22.7135 55.6019 25.3874 51.3954 29.7295 49.0567C30.5676 49.0168 29.9211 49.3521 29.6816 49.5516C27.4307 51.4673 25.7705 53.1035 25.0122 56.1207C24.4056 58.5312 24.1981 63.8472 27.8059 63.5918C30.0009 63.4321 29.985 60.4708 31.9405 60.2952C33.8961 60.1196 33.1059 62.9771 35.5803 63.1527C37.6077 63.2964 39.0284 61.5803 39.4595 59.7445C40.2976 60.1516 39.196 61.6202 39.5951 62.2029L42.1972 59.1937L41.7901 61.3808L44.073 59.0101L45.7572 55.3544C47.4334 58.9702 45.2623 61.5883 41.9977 62.9612L28.7797 66.3136C34.1914 66.1779 39.5952 64.8529 44.6637 63.025C43.9533 66.0981 42.5086 69.3068 43.8735 72.4516C45.1665 75.4528 46.7389 75.5486 47.3775 79.9067C48.4471 87.2261 48.048 96.0621 48.7823 103.709C50.7219 123.943 54.1142 147.082 64.2752 164.794C61.8806 174.772 61.8327 185.036 63.9878 195.077C65.0574 200.074 66.8932 204.871 67.9628 209.868C68.4577 209.932 68.2102 209.277 68.1624 208.982C67.6435 205.63 66.3185 201.814 65.6241 198.366C64.1475 191.007 61.3857 175.442 64.1794 168.697C64.339 168.314 64.4827 167.795 64.9376 167.684L76.4396 199.06C76.4795 199.899 76.1522 199.244 75.9447 199.005C74.7235 197.584 73.63 196.011 72.4566 194.543C72.1373 194.152 72.0096 194.064 72.0655 194.662C74.0051 203.778 74.939 213.125 76.8067 222.248C77.8124 227.157 78.922 231.954 82.881 235.354C86.5766 238.539 90.8389 239.177 92.2118 244.653C93.1537 248.404 92.5151 254.351 97.5437 255.349C97.7433 255.564 96.3384 257.193 96.1229 257.624C95.0454 259.827 94.8458 262.596 95.6599 264.895L97.5038 264.967C98.286 266.667 97.0408 268.559 98.9086 269.724C98.5175 270.179 97.9508 270.443 97.8231 271.097C97.6075 272.222 97.7273 276.325 98.0066 277.483C98.8447 280.947 102.764 285.728 103.841 289.184C103.889 289.328 103.913 289.631 103.714 289.591L100.146 286.303L100.01 286.71L110.139 300.279C110.403 297.86 109.796 294.787 110.131 292.457C110.227 291.794 110.698 291.411 110.722 290.82C110.738 290.477 108.95 289.519 111.249 288.913V288.226C109.548 289.088 110.203 286.542 110.69 286.861L111.376 287.683C111.767 286.326 112.326 286.734 113.436 286.175C113.42 285.584 110.147 286.797 110.147 285.903V280.971C110.147 280.915 110.594 280.476 110.69 280.556L110.961 281.098L111.241 280.412C108.91 279.837 110.921 278.831 110.929 278.496C110.929 278.353 110.163 277.738 110.139 277.099L110.834 274.521L111.376 275.072C112.023 275.192 111.648 274.601 111.967 274.513C112.661 274.322 113.731 274.449 113.715 275.335C114.968 273.803 115.343 275.064 116.038 275.064C116.413 275.064 116.732 274.545 117.147 274.505C117.562 274.465 118.081 275.016 118.36 274.649C117.61 273.468 115.982 273.14 114.649 273.132C111.512 273.109 108.263 273.492 105.063 273.428C104.296 273.412 103.65 272.989 103.155 272.989C102.373 272.989 101.678 273.715 100.473 273.364C99.603 273.108 98.6771 271.193 100.281 271.504C99.0842 270.187 100.194 270.203 100.266 269.964C100.297 269.844 100.058 268.918 100.289 268.774C101.343 268.088 101.471 270.506 102.093 270.642L103.578 270.411L102.788 269.413L103.442 268.208C104.56 267.848 103.873 269.62 104.943 269.173C104.664 268.271 104.672 266.907 103.426 266.859C103.339 266.859 103.426 267.617 102.349 267.393C102.053 267.33 102.636 266.212 101.295 266.555C101.048 266.619 100.8 267.816 99.7467 267.385L99.7307 266.428C100.848 266.412 100.465 265.598 100.824 265.326C101.327 264.951 103.794 264.911 104.528 264.935C105.829 264.983 106.324 264.983 107.816 264.911C109.133 264.847 110.482 264.983 111.799 264.911C107.84 254.766 111.121 244.006 118.776 236.687C120.228 235.298 122.184 234.468 123.078 232.497C124.626 229.08 122.144 224.73 121.298 221.306C118.951 211.792 119.254 200.84 121.681 191.374C123.796 183.113 129.208 175.362 127.683 166.566L125.975 174.029C124.004 179.505 119.901 183.687 118.241 189.307C115 200.274 117.028 214.138 116.469 225.616C116.413 226.718 115.974 227.851 116.181 229.024L115.559 223.485C114.904 219.071 113.292 214.681 112.933 210.227C111.552 193.226 122.695 178.379 122.495 161.49L121.936 158.081C120.907 164.938 119.175 172.042 116.325 178.371C116.237 178.563 116.173 179.194 115.902 178.762C117.115 174.54 118.345 170.318 119.334 166.031C122.735 151.297 124.451 136.043 124.115 120.974C124.083 119.465 124.163 117.948 124.123 116.44L118.784 142.197C115.04 157.251 111.408 173.087 105.35 187.391C103.211 192.435 99.8345 199.18 93.0898 197.193C92.6348 197.057 91.5174 196.578 91.246 196.163C94.335 197.185 96.7136 194.399 98.3179 192.14C99.9063 189.897 100.928 187.343 101.934 184.797C106.052 174.372 109.908 162.918 113.507 152.263C118.48 137.568 123.07 122.714 123.03 106.973L122.471 103.014C122.144 113.239 119.622 123.679 115.679 133.082C115.407 133.729 115.319 133.681 115.343 133.018C116.277 128.708 117.243 124.398 117.993 120.048C119.63 110.621 120.859 100.947 121.378 91.3767C121.761 84.3686 121.098 76.8098 121.633 69.9852C121.729 68.756 122.024 66.984 123.022 66.1699C125.664 64.0228 127.053 67.5268 129.248 67.894C130.269 68.0616 131.187 67.0878 132.257 66.9122C136.416 66.2098 137.804 70.6477 142.115 69.3706C143.591 68.9316 144.661 67.439 145.754 66.4333L143.288 67.2554C147.008 64.3421 150.551 61.1653 153.409 57.3818C158.493 50.6451 155.899 46.3429 149.673 41.9688C144.884 38.6084 138.642 36.0063 133.422 40.1409L135.745 41.6495C137.485 43.0463 138.698 45.0897 138.626 47.3965L135.075 42.8707L131.786 41.0988C132.736 42.3759 133.35 43.8446 133.151 45.4808C131.706 43.8446 130.381 42.304 127.947 42.4717L128.218 43.5652C127.141 44.2117 126.286 43.2459 125.361 43.3018C123.134 43.4375 123.102 47.3167 123.309 48.8891C123.429 49.7831 124.115 50.5892 123.972 51.5151C121.753 48.8811 120.787 45.6405 121.09 42.2003L118.903 44.9381L119.191 43.4454L118.903 40.8274L117.251 43.9643C117.251 44.2995 116.908 43.9643 116.844 43.8366C115.144 40.2527 117.043 33.8432 116.437 29.8683L121.25 38.6084C127.308 44.9221 133.374 35.8946 140.414 36.4294C145.084 36.7886 154.343 43.5652 156.713 47.5322C158.015 49.7112 157.424 51.156 156.562 53.4228C155.899 55.1629 154.726 56.6715 153.968 58.3556L156.562 55.993C172.781 59.7046 189.192 63.5997 205.89 64.6533C209.546 64.8848 213.752 65.0684 217.4 64.9327C217.735 64.9167 218.422 65.1402 218.358 64.6613C215.173 63.8312 211.828 64.0946 208.636 63.8312C191.115 62.4184 173.651 60.0079 156.721 55.3385C158.286 53.1993 159.739 50.7409 159.683 47.9951C152.738 42.0566 144.781 32.7098 134.46 36.5012C132.472 37.2355 130.645 38.8718 128.569 39.3747C124.73 40.3006 122.83 37.9619 121.058 34.9767C118.608 30.8341 116.708 26.029 114.098 21.9263L114.258 21.2398L115.902 20.6891C114.92 20.1303 114.122 20.0665 113.156 19.3242C110.49 17.2888 109.692 13.3777 106.587 11.6456C107.529 10.7596 110.283 13.6012 110.419 13.4256C109.924 10.9671 107.816 9.06743 105.438 8.40493C102.421 7.56683 99.8265 8.40494 96.8652 8.50072C93.5208 8.60449 90.2004 7.99786 86.8559 8.21338L88.62 6.8325L89.5937 4.38206C89.0829 4.7173 88.9313 5.29997 88.3645 5.74696C85.8343 7.7584 82.0748 4.98869 80.9733 8.21338C77.9801 4.82905 69.623 6.32964 70.972 0C69.8385 0.838099 69.7587 1.96354 70.07 3.24065C70.8043 6.26578 73.8135 6.47332 76.1043 7.61473C76.4795 7.8063 77.3096 8.38898 77.557 8.76413C71.2274 7.47106 65.2968 13.218 59.2067 10.6878C59.7574 12.6912 61.8167 14.0801 63.8601 14.112C55.5031 20.0984 49.6364 33.4441 37.2884 29.8683C38.8928 32.2389 42.0456 33.3723 44.8233 33.4282C45.9887 33.4521 47.8883 32.4304 48.7424 33.8353C43.8575 40.9232 34.5027 36.581 27.5664 35.8946C19.9118 35.1443 12.1614 36.174 5.79182 40.6917L13.191 37.9539C22.2505 34.4578 31.1263 38.6643 39.8905 38.9277C42.9316 39.0155 45.8929 38.8239 48.2555 36.7247C47.9123 38.2732 47.7287 43.214 45.9248 43.5652C44.1209 43.9164 43.4344 42.8388 42.0616 42.2322C38.5415 40.6757 34.814 41.2424 31.3658 42.7031C29.4023 43.5332 27.7181 44.8583 25.7945 45.7602L29.6497 42.3599L34.2792 40.2846C27.3429 38.3291 20.1912 38.2732 13.1831 39.8696C7.86712 41.0748 -2.00648 44.2037 2.99018 51.4433C4.53069 53.6782 16.0725 62.9772 18.6826 64.5177C23.5276 67.3832 21.3565 61.5484 21.165 59.5689C20.9574 57.4217 21.3805 55.4822 21.9552 53.4388C22.7294 53.6064 21.9632 54.9633 21.9552 55.2187C21.8674 56.8151 21.9552 58.5392 21.9552 60.1516H21.9153ZM85.4751 58.643C85.4911 58.0763 85.515 57.5415 85.3473 56.9907C84.9403 55.6657 78.3393 48.1308 77.0781 47.4524C75.817 46.7739 74.7474 46.6622 73.4304 47.4045L75.0667 43.2938C73.5741 44.4512 72.0176 45.5926 70.1419 46.0316C71.6265 44.4033 70.5409 42.9586 70.4212 41.2345C70.2216 38.2812 71.5467 36.6688 73.8455 35.0724L72.6402 38.2413L72.8956 41.3702L74.2605 37.9459C77.9721 33.6517 78.89 39.5024 80.2869 42.1923C80.9653 41.8571 80.3348 40.4522 80.2869 39.8616C80.2629 39.5662 80.0873 38.8399 80.5582 38.9117C81.6597 41.9289 84.0303 44.2915 86.4568 46.303L84.8605 41.0509L84.4055 37.8182L86.6005 42.0566L89.3303 44.1159C86.6644 39.4385 91.0305 34.6893 89.458 29.8762C88.7636 27.7371 86.0658 25.143 88.3725 23.0198C88.2049 27.9845 94.7341 28.655 96.4103 32.5103C97.1765 34.2743 96.067 35.3758 96.5779 37.0041C97.1127 38.7042 101.559 40.3565 100.026 43.1661C95.7318 42.4876 94.9735 47.9552 92.3555 50.0066C91.3019 50.8287 89.6576 51.0761 88.8833 51.8743C87.2231 53.5824 88.2847 57.6852 85.507 58.627L85.4751 58.643ZM56.7163 51.3874C55.6228 52.5847 54.3936 55.2746 56.868 55.6178C59.1508 55.9371 59.7654 54.3966 62.3276 56.44C65.3926 58.8824 65.68 62.2268 71.0198 61.3089C72.5843 61.0375 73.0712 59.9041 75.1864 59.7205C77.4373 59.529 80.7338 59.8323 81.0372 62.6818C81.3085 65.236 77.6927 65.9863 77.5011 68.0856C77.3415 69.8735 79.3849 71.5657 80.2629 73.0263L79.4487 73.2977C80.6699 74.5908 81.0451 76.4506 81.963 77.9113C83.8069 80.8327 88.0293 82.1656 88.7636 85.7655C88.3007 85.7016 87.9255 84.6001 87.3987 85.079C88.3326 86.4519 87.7579 88.1441 88.0133 89.6766C88.8594 94.8249 96.1309 93.5558 98.0466 97.4509C99.0044 99.3905 98.302 101.123 99.0443 103.03C99.8265 105.042 102.357 105.928 102.461 108.242C99.0682 106.806 96.0192 104.667 93.2814 102.216C93.425 107.101 100.026 107.628 102.309 110.996C103.746 113.119 102.915 115.482 103.857 117.661C104.911 120.088 108.295 119.808 109.445 123.304C110.027 125.076 109.213 126.952 109.333 127.112C109.365 127.16 109.987 127.327 110.291 127.67C112.43 130.113 110.442 132.46 110.466 134.95C110.482 136.331 111.424 137.943 111.448 139.332C111.48 141.303 110.123 144.329 110.171 145.917C110.211 147.194 112.438 148.894 109.517 149.94C106.635 150.978 103.522 150.147 100.824 149.054L103.275 148.359C103.738 147.904 104.017 147.21 103.706 146.587C103.283 145.749 99.627 145.27 98.6292 145.215L100.417 143.858C102.508 139.069 107.705 129.65 103.674 124.965C100.681 121.492 99.8425 126.05 98.749 127.662C97.3921 129.65 94.3829 131.542 92.0602 132.06L96.8253 128.477C99.1081 125.771 96.8652 124.318 94.3909 123.296C91.254 121.995 85.5788 120.71 83.1683 123.863C82.3861 124.893 81.979 127.215 80.3906 127.407C78.1796 127.67 77.11 123.025 75.0826 124.821C72.2411 127.343 79.9756 131.143 76.8467 133.984C76.0804 134.112 76.7429 133.146 76.671 132.555C76.3278 129.794 72.265 128.764 71.371 126.321C70.932 125.116 71.0199 121.947 68.7849 123.456C67.6435 124.23 64.6823 129.466 64.1794 130.903C62.583 135.445 63.9479 139.396 66.6298 143.123L71.7861 148.511C68.4896 148.16 64.8259 147.952 61.5932 147.338C55.9899 146.276 59.4222 144.608 59.4142 141.798C59.3982 138.661 57.4347 137.56 58.9752 133.369C59.3025 132.475 60.4838 131.127 60.5636 130.552C60.6434 129.977 60.2842 129.315 60.2762 128.668C60.2443 126.114 59.8532 122.993 61.6571 120.982C61.713 120.279 61.5613 120.678 61.1862 120.782C60.5317 120.966 59.8772 121.261 59.3344 121.668C59.1508 121.732 59.1428 121.445 59.2067 121.261C59.7015 119.704 61.282 117.693 61.8806 115.985C64.1155 109.631 58.7836 106.175 59.5499 100.771C59.7095 99.6539 60.3161 98.8637 60.5716 97.8261L57.7859 101.202L55.9181 105.768C56.3012 102.28 56.3412 98.3369 58.3845 95.3597C57.9775 94.9686 56.3013 97.2754 55.6468 96.8683L60.8509 85.9011C61.3139 85.5739 63.03 88.2877 63.2615 88.6948C63.8681 89.7404 64.4188 90.8739 64.6902 92.0632L65.233 90.0118C64.9376 86.5317 63.6925 83.6343 60.9787 81.3914C59.6457 80.2819 56.5327 78.8132 55.8463 77.2089C55.4472 76.283 55.8144 75.7003 55.7345 74.8542C55.6547 74.0081 55.1519 73.3776 55.2317 72.6193C56.6285 74.0959 57.6023 76.4905 59.055 77.8394C59.5738 78.3183 60.827 79.2203 60.8509 77.9751C60.8669 77.1769 56.5008 72.1723 55.6468 71.3821C53.4358 69.3467 51.0811 68.1175 47.9761 68.5086L50.7139 69.6021C49.4128 69.5383 49.4448 70.7276 49.0058 71.1825C48.3513 71.845 46.6591 71.9887 46.7469 73.7208C42.6442 70.0571 45.0148 64.5895 46.8347 60.383C49.5087 54.229 53.771 47.5481 61.4017 47.9712L56.7562 51.4034L56.7163 51.3874ZM117.387 53.9895L122.184 56.4559C122.447 57.31 121.497 56.855 121.202 57.2541C120.779 57.8208 121.497 59.1299 121.904 59.6088C122.814 60.7023 124.483 60.6225 122.703 62.3147C120.699 64.2223 116.924 63.4401 114.529 65.1003C110.873 67.6306 111.081 75.7162 105.198 75.3491C106.691 74.1199 108.2 72.2521 108.463 70.2566C108.958 66.5051 106.835 62.2747 109.86 59.1857L107.944 59.3214L110.682 56.448L108.216 56.855C110.203 55.3944 110.283 51.5152 112.861 50.8207C114.944 50.254 116.549 52.2176 118.345 52.888L117.379 53.9816L117.387 53.9895ZM115.687 70.2327C115.064 70.7435 114.354 73.9443 113.795 75.0458C113.619 75.389 112.055 78.0709 111.504 77.5441C112.39 76.4266 113.204 75.2294 113.747 73.8964C114.609 71.7812 114.673 67.1118 117.674 67.3911C118.935 67.5029 119.47 69.1072 120.819 68.2372C120.755 71.0947 117.012 69.1471 115.695 70.2327H115.687ZM118.352 71.2464C120.284 71.6295 118.129 73.1541 116.98 72.8907L117.53 70.975L117.802 72.0685L118.352 71.2464ZM53.6992 78.2305L55.1998 77.0013L57.5225 81.9262C57.0675 82.3891 53.7311 78.9968 53.6912 78.2226L53.6992 78.2305ZM56.852 84.6719C51.8872 84.9274 52.9249 85.8533 50.8257 89.8841L50.4106 92.8933C49.2134 88.0563 49.8758 83.0117 49.3171 78.1028C51.552 80.7927 53.9147 83.6024 57.5305 84.4085C57.6023 84.8555 57.1633 84.6639 56.852 84.6799V84.6719ZM76.9823 140.553C75.825 140.745 75.2183 139.707 74.1967 139.372C72.2331 138.717 69.3197 139.412 68.1065 137.249C67.6595 136.45 67.1327 134.295 68.4896 134.263C68.4018 139.986 77.118 134.974 76.9823 140.561V140.553ZM90.6793 141.655C91.0704 139.348 94.2632 139.1 95.7079 137.783C96.6019 136.969 96.3384 135.684 97.5277 135.908C97.7512 139.723 92.5311 139.037 90.6793 141.663V141.655ZM90.6793 162.344C86.7122 163.182 80.3587 163.278 76.4875 162.008C71.4509 160.356 68.33 156.182 67.6595 150.97C70.078 153.779 71.8659 157.371 75.4099 158.967C79.1773 160.66 88.58 160.364 92.5231 158.991C95.7318 157.874 98.1104 155.719 100.258 153.165C100.513 158.241 95.0054 161.434 90.6713 162.344H90.6793ZM109.62 186.489L111.496 183.576L105.709 196.546C105.055 197.536 104.791 199.005 103.833 199.739L109.62 186.489ZM110.131 194.527C109.477 196.722 107.968 198.973 106.571 200.824C107.513 198.637 108.686 196.418 110.131 194.527Z" fill="black"/>
<path d="M213.417 129.331L214.79 132.476C216.338 137.401 217.495 142.485 218.302 147.594C220.265 160.029 220.92 172.761 217.775 185.061C214.726 196.994 206.161 212.047 208.332 224.411C208.651 226.223 209.45 228.011 209.849 229.751C209.897 229.951 210.32 230.741 209.721 230.693C209.442 230.669 208.364 229.073 208.165 228.69C202.306 217.347 213.792 197.018 216.897 185.556C220.01 174.086 219.06 159.862 217.487 148.136C216.633 141.759 215.324 135.461 213.417 129.331Z" fill="black"/>
<path d="M90.1279 264.935L88.5076 264.911C87.1347 259.563 86.8474 253.769 84.1415 248.868C81.1403 243.424 75.7925 239.265 73.2782 233.431C70.7798 227.636 70.5005 220.7 69.3032 214.538L74.4595 230.062C77.3808 236.951 82.3057 242.786 85.3229 249.61C87.446 254.431 88.8907 259.827 90.1279 264.943V264.935Z" fill="black"/>
<path d="M124.371 166.031C123.868 165.951 124.076 164.634 124.1 164.251C124.267 161.705 124.73 159.119 124.914 156.573C126.143 139.843 126.239 121.804 125.185 105.074C125.137 104.251 123.972 94.5215 124.507 94.5215C128.075 118.172 127.963 142.373 124.363 166.023L124.371 166.031Z" fill="black"/>
<path d="M131.77 148.231C131.275 148.128 131.259 147.697 131.211 147.282C130.677 142.508 131.108 136.306 130.956 131.374C130.844 127.59 130.477 123.671 130.389 119.888C130.333 117.469 130.453 115.035 130.405 112.616L131.73 119.09C133.055 128.748 132.816 138.557 131.77 148.223V148.231Z" fill="black"/>
<path d="M264.373 59.1938L255.697 60.7902C245.568 62.227 235.447 64.0468 225.198 64.398L231.176 63.121C242.175 61.341 253.278 60.2155 264.373 59.2018V59.1938Z" fill="black"/>
<path d="M174.513 130.975L174.529 149.749C173.739 155.144 174.258 162.408 171.903 167.412C171.712 167.82 171.951 168.091 171.233 167.955C171.624 163.493 172.717 159.127 173.148 154.665C173.627 149.637 173.811 144.361 173.987 139.34C174.074 136.858 173.675 133.729 173.979 131.382C174.026 130.983 174.186 130.536 174.529 130.975H174.513Z" fill="black"/>
<path d="M156.976 148.223C157.606 145.206 158.604 142.301 159.083 139.244C160.041 133.226 159.921 126.257 159.722 120.135C159.698 119.425 159.466 118.738 159.426 117.972C159.402 117.533 159.227 116.096 159.714 115.905L160.552 126.441C160.552 132.443 160.296 138.573 158.764 144.4C158.684 144.695 157.646 149.006 156.984 148.231L156.976 148.223Z" fill="black"/>
<path d="M15.3378 64.1268C15.3697 64.7014 14.5715 64.2864 14.324 64.1826C9.47904 62.235 4.25087 57.1666 1.77648 52.6169C0.331762 49.9669 -1.09699 47.0136 1.23372 44.3955C1.28959 45.2815 0.667001 46.0797 0.5792 47.0295C0.124232 51.9304 5.71957 57.1266 9.19169 60.0001C11.0355 61.5247 13.1666 63.1769 15.3457 64.1188L15.3378 64.1268Z" fill="black"/>
<path d="M346.291 161.929L346.858 153.301C346.371 151.313 346.69 149.286 346.554 147.274C346.522 146.803 345.7 142.198 346.147 142.198C347.161 147.394 348.175 152.862 347.624 158.193C347.512 159.279 347.129 161.187 346.291 161.929Z" fill="black"/>
<path d="M124.922 211.784C124.179 211.912 124.451 211.648 124.299 211.185C122.679 206.133 122.439 197.576 125.744 193.154C125.616 194.551 124.993 195.828 124.73 197.209C123.82 202.03 124.083 206.987 124.922 211.784Z" fill="black"/>
<path d="M142.458 387.944C141.747 388.096 141.875 387.665 141.723 387.186C140.622 383.586 139.44 378.278 138.746 374.535C138.443 372.906 138.211 371.246 138.075 369.594L138.882 370.288L142.458 387.944Z" fill="black"/>
<path d="M141.915 393.971L142.729 393.148V394.793L142.186 394.513C142.306 395.359 141.955 396.333 141.069 395.719C140.853 395.216 140.55 394.785 140.398 394.25C139.856 392.398 139.528 388.679 139.44 386.699C139.417 386.18 139.385 385.813 139.864 385.486C140.406 385.494 141.795 392.949 141.923 393.971H141.915Z" fill="black"/>
<path d="M148.492 284.659C149.234 282.448 150.456 280.436 151.238 278.225C152.619 274.306 153.577 269.485 153.968 265.343C154.215 262.788 154.135 260.226 154.247 257.672C154.263 257.337 154.04 256.65 154.518 256.714C154.702 266.181 154.119 276.709 148.5 284.659H148.492Z" fill="black"/>
<path d="M136.974 320.002L136.735 319.076L140.813 298.092C140.75 305.491 138.634 312.834 136.974 320.002Z" fill="black"/>
<path d="M350.393 139.188L350.936 141.247L351.487 154.809H350.665C350.96 153.915 350.393 152.534 350.393 151.927V139.188Z" fill="black"/>
<path d="M225.469 200.833C224.407 203.602 223.066 206.779 222.731 209.74C222.635 210.626 222.835 211.624 222.731 212.478C222.683 212.853 222.571 213.292 222.188 212.885C221.254 209.246 222.739 205.518 224.327 202.293C224.439 202.07 225.014 200.362 225.469 200.833Z" fill="black"/>
<path d="M215.332 219.454C214.614 219.662 214.518 218.568 214.374 218.081C213.033 213.532 214.207 208.726 215.739 204.384C215.46 207.282 214.215 210.355 214.207 213.292C214.207 215.351 215.077 217.443 215.324 219.454H215.332Z" fill="black"/>
<path d="M125.201 264.935L123.253 264.775C122.734 262.668 122.016 260.561 122.191 258.358L125.201 264.927V264.935Z" fill="black"/>
<path d="M171.088 186.592C171.719 186.999 171.343 187.183 171.311 187.63C171.256 188.54 170.409 194.774 169.715 194.806C169.124 194.423 169.38 194.207 169.428 193.704C169.555 192.315 170.146 189.011 170.529 187.678C170.641 187.279 170.721 186.864 171.088 186.6V186.592Z" fill="black"/>
<path d="M145.746 295.626C145.906 295.777 144.988 299.194 144.788 299.728C144.661 300.072 143.336 303.041 142.737 302.466C143.607 300.239 144.677 298.036 144.932 295.618H145.754L145.746 295.626Z" fill="black"/>
<path d="M229.3 206.859C229.452 207.969 228.183 208.064 227.808 209.062C227.56 209.717 227.824 211.177 226.978 211.233C225.613 210.555 227.544 206.372 229.3 206.851V206.859Z" fill="black"/>
<path d="M143.823 289.591C143.36 289.662 143.527 288.928 143.543 288.625C143.639 286.789 144.605 284.155 145.267 282.399C145.659 281.369 146.066 279.956 146.84 279.182C146.145 282.734 143.879 285.895 143.823 289.591Z" fill="black"/>
<path d="M162.732 140.011H161.909C161.582 139.692 161.806 134.607 163.003 134.256L162.732 140.011Z" fill="black"/>
<path d="M127.668 261.646L128.705 264.312C128.769 264.735 128.458 265.166 128.53 265.566C128.633 266.092 129.759 266.284 128.897 266.843C127.348 265.669 127.716 263.371 127.668 261.646Z" fill="black"/>
<path d="M125.95 267.474C126.11 267.641 126.03 268.16 126.286 268.383C126.509 268.575 127.14 268.088 127.387 268.639C126.765 270.315 125.017 269.429 125.16 267.801L124.378 267.673C124.434 266.971 125.695 267.202 125.95 267.474Z" fill="black"/>
<path d="M353.411 150.97C353.586 149.78 352.972 148.12 353.818 147.138C354.297 147.138 354.792 151.113 353.411 150.97Z" fill="black"/>
<path d="M141.907 311.238C141.093 311.453 141.333 310.559 141.349 309.992C141.38 309.234 141.532 308.013 142.043 307.406C142.825 307.398 141.875 310.759 141.899 311.238H141.907Z" fill="black"/>
<path d="M331.764 160.148C331.732 160.436 331.333 160.915 331.485 161.377H331.213C330.926 160.771 331.485 159.901 331.485 159.598V152.334H331.756C331.557 154.824 332.027 157.706 331.756 160.14L331.764 160.148Z" fill="black"/>
<path d="M342.172 142.477C342.523 143.371 342.468 144.185 342.18 145.087C342.06 145.47 342.348 145.574 341.629 145.486C341.414 144.608 340.767 142.573 342.172 142.477Z" fill="black"/>
<path d="M138.619 394.521C138.818 394.729 139.289 397.842 138.076 397.53C138.148 396.7 137.972 395.734 138.076 394.92C138.124 394.545 138.236 394.106 138.619 394.513V394.521Z" fill="black"/>
<path d="M113.946 288.258L113.978 289.016L115.063 289.312H112.605L112.597 288.226L113.946 288.258Z" fill="black"/>
<path d="M415.59 352.879C415.207 353.27 415.088 352.847 415.04 352.464C414.928 351.53 415.335 350.485 415.335 349.455C415.335 346.829 414.297 343.58 415.726 341.106C416.229 341.433 416.109 341.832 416.149 342.319C416.428 345.863 416.668 349.431 415.582 352.879H415.59Z" fill="black"/>
<path d="M416.141 315.349C416.675 315.916 414.544 318.877 414.033 319.396C413.714 319.723 413.826 319.859 413.131 319.731C412.884 319.491 415.295 314.455 416.141 315.349Z" fill="black"/>
<path d="M414.225 364.389C414.401 366.465 413.898 368.556 412.98 370.416C412.788 370.807 413.044 371.102 412.309 370.966C412.98 368.947 413.299 366.896 413.69 364.804C413.77 364.357 413.515 364.333 414.225 364.397V364.389Z" fill="black"/>
<path d="M415.662 321.989C416.157 321.447 416.756 321.71 416.692 322.588C416.66 323.043 415.191 325.733 414.912 325.757C414.305 325.342 414.601 325.214 414.697 324.727C414.768 324.352 415.503 322.165 415.662 321.989Z" fill="black"/>
<path d="M414.473 310.432C414.952 311.621 414.88 312.819 414.354 313.976C414.162 314.391 414.393 314.654 413.683 314.519C414.218 313.098 413.843 311.837 413.683 310.416L414.481 310.44L414.473 310.432Z" fill="black"/>
<path d="M410.394 294.252L409.301 297.078L408.478 297.261C408.383 296 408.838 294.188 410.394 294.252Z" fill="black"/>
<path d="M430.667 261.095C429.901 261.231 430.205 260.936 430.053 260.497C429.311 258.445 429.366 255.62 429.303 253.433L429.877 257.926L430.667 261.103V261.095Z" fill="black"/>
<path d="M416.013 327.673C417.498 327.361 415.933 330.562 415.191 330.41C414.305 330.227 415.598 327.761 416.013 327.673Z" fill="black"/>
<path d="M410.936 304.389C411.415 305.698 411.846 307.071 411.759 308.5C410.936 307.774 410.529 305.85 410.41 304.772C410.354 304.23 410.458 304.373 410.936 304.389Z" fill="black"/>
<path d="M319.711 366.848C317.636 372.212 316.71 378.031 313.909 383.091C313.517 383.379 312.967 385.087 312.456 384.919C311.809 384.704 312.256 384.313 312.36 384.017C313.158 381.75 314.611 379.164 315.529 376.77C316.583 374.016 317.524 369.945 318.873 367.511C319.081 367.128 319.105 366.72 319.703 366.84L319.711 366.848Z" fill="black"/>
<path d="M325.467 321.375C325.355 322.604 324.126 322.971 324.078 324.257C324.022 325.637 325.602 327.8 325.722 329.485C325.762 330.011 325.834 330.331 325.331 330.682L323.296 323.722C323.344 322.612 324.317 321.455 325.467 321.375Z" fill="black"/>
<path d="M324.644 355.074C324.285 357.317 323.231 360.582 322.194 362.625C321.994 363.016 321.938 363.407 321.355 363.296C322.194 360.997 322.872 358.451 323.694 356.184C323.854 355.745 323.982 354.899 324.636 355.082L324.644 355.074Z" fill="black"/>
<path d="M310.397 391.504L310.381 392.581L306.566 392.877L306.685 392.039L307.013 391.823L310.397 391.504Z" fill="black"/>
<path d="M312.312 387.122C312.959 387.768 310.125 389.939 309.303 389.588C308.68 388.95 312.017 386.826 312.312 387.122Z" fill="black"/>
<path d="M325.188 349.862L323.958 354.236C323.184 353.685 323.727 352.712 323.902 351.993C323.958 351.77 324.605 349.232 325.188 349.862Z" fill="black"/>
<path d="M361.624 210.69L367.578 208.288L369.015 208.639C368.991 209.126 362.598 210.698 361.624 210.69Z" fill="black"/>
<path d="M371.49 212.062C370.827 213.156 368.864 213.348 367.65 213.427C368.473 212.326 370.205 212.086 371.49 212.062Z" fill="black"/>
<path d="M365.184 257.536C364.753 257.209 365.184 257.033 365.591 256.985C366.366 256.898 367.068 257.033 367.938 256.866C369.295 256.602 370.891 255.636 372.176 255.078C372.927 255.445 372.001 256.179 371.626 256.443C371.298 256.674 369.383 257.536 369.159 257.536H365.184Z" fill="black"/>
<path d="M377.517 240.008C377.644 240.718 377.397 240.495 376.966 240.678C376.152 241.014 374.388 241.564 375.234 240.279L377.517 240.008Z" fill="black"/>
<path d="M352.245 241.157C353.243 241.005 354.337 241.452 353.411 242.338C352.964 242.761 349.811 243.663 349.571 242.881C349.308 242.003 351.623 241.261 352.237 241.157H352.245Z" fill="black"/>
<path d="M352.765 237.861C353.523 237.621 354.321 237.837 354.768 238.499C353.714 240.287 351.128 238.38 352.765 237.861Z" fill="black"/>
<path d="M85.4751 111.515C84.9563 112.625 83.6153 111.818 82.873 111.842C81.6278 111.882 80.223 112.265 78.906 112.058L80.9573 111.515H85.4751Z" fill="black"/>
<path d="M90.9497 115.626C88.3556 114.732 85.8014 114.916 83.1355 114.804C82.8002 114.788 82.1138 115.011 82.1776 114.533C84.6919 114.588 87.4058 114.325 89.8642 114.924C90.2633 115.019 90.838 115.155 90.9417 115.618L90.9497 115.626Z" fill="black"/>
<path d="M88.4839 100.285L83.5511 99.1915C85.1874 99.2394 87.3425 98.8164 88.4839 100.285Z" fill="black"/>
<path d="M97.7983 157.275C95.284 160.245 91.0536 161.649 87.2463 161.929C82.6806 162.264 76.774 162.12 73.1423 159.055L78.2347 160.811C83.854 161.322 90.2235 161.538 95.3319 158.792C96.2099 158.321 96.8804 157.563 97.7904 157.283L97.7983 157.275Z" fill="black"/>
</g>
</svg>
