<svg width="36" height="37" viewBox="0 0 36 37" fill="none" xmlns="http://www.w3.org/2000/svg">
<path d="M27.0005 3.50003C27.3679 3.50008 27.7225 3.63496 27.997 3.8791C28.2716 4.12324 28.447 4.45965 28.49 4.82453L28.5005 5.00003V11C28.5004 11.3674 28.3656 11.722 28.1214 11.9966C27.8773 12.2711 27.5409 12.4465 27.176 12.4895L27.0005 12.5H22.5005V14H27.0005C27.214 14.0001 27.4251 14.0458 27.6195 14.134C27.814 14.2222 27.9874 14.3509 28.1281 14.5115C28.2688 14.6721 28.3736 14.8609 28.4355 15.0653C28.4974 15.2696 28.515 15.4848 28.487 15.6965L28.457 15.8645L26.957 21.8645C26.8825 22.1608 26.7194 22.4273 26.4894 22.6283C26.2594 22.8293 25.9735 22.9554 25.67 22.9895L25.5005 23H22.5005V32C22.5004 32.3674 22.3656 32.722 22.1214 32.9966C21.8773 33.2711 21.5409 33.4465 21.176 33.4895L21.0005 33.5H15.0005C14.6331 33.5 14.2785 33.3651 14.0039 33.121C13.7294 32.8768 13.554 32.5404 13.511 32.1755L13.5005 32V23H10.5005C10.1331 23 9.77848 22.8651 9.50393 22.621C9.22938 22.3768 9.05397 22.0404 9.01099 21.6755L9.00049 21.5V15.5C9.00054 15.1326 9.13542 14.778 9.37956 14.5035C9.6237 14.2289 9.96011 14.0535 10.325 14.0105L10.5005 14H13.5005V12.5C13.5004 10.1715 14.4028 7.93349 16.0182 6.25632C17.6335 4.57916 19.8361 3.59335 22.163 3.50603L22.5005 3.50003H27.0005Z" fill="#2D2D2D"/>
</svg>
