<svg width="1769" height="354" viewBox="0 0 1769 354" fill="none" xmlns="http://www.w3.org/2000/svg">
<path d="M816.592 55.4756C804.836 73.3179 798.621 94.0746 798.621 115.548C798.621 175.816 847.662 224.856 907.938 224.856C968.213 224.856 1017.25 175.815 1017.25 115.548C1017.25 96.8162 1012.44 78.3626 1003.34 62.1338L1008.32 59.3066C1017.91 76.3966 1022.98 95.8306 1022.98 115.548C1022.98 178.976 971.373 230.585 907.938 230.585C844.502 230.585 792.893 178.976 792.893 115.548C792.893 92.9392 799.444 71.0828 811.823 52.3018L816.592 55.4756ZM923.248 184.724C923.248 195.566 916.714 204.818 906.549 208.444L906.062 208.612C903.338 209.525 900.571 209.971 897.858 209.971C890.408 209.971 883.317 206.635 878.415 200.51L877.948 199.908L868.217 187.037C865.641 183.618 864.599 179.283 865.341 175.075L865.418 174.669C866.277 170.475 868.84 166.825 872.48 164.604L872.836 164.393H872.837L900.23 148.669L900.351 169.501L885.035 178.293L884.543 178.575L884.885 179.028L892.409 188.987V188.988C893.781 190.799 895.396 191.544 896.861 191.761C898.129 191.948 899.262 191.737 900.007 191.521L900.302 191.429H900.303C901.718 190.95 905.126 189.315 905.126 184.724V128.931L923.248 118.119V184.724ZM807.936 21.9736C816.842 30.6989 828.592 35.5008 841.08 35.501V35.502L889.899 35.5166C890.748 35.5629 897.911 36.1045 905.408 39.916L906.138 40.2969C912.878 43.9144 917.757 49.1917 920.585 55.6924L920.812 56.2139L921.299 55.9229C929.757 50.8834 938.146 45.9138 940.951 44.3096L941.796 43.8379C942.245 43.6023 942.682 43.3663 943.109 43.1338L944.36 42.4492C947.397 40.7897 950.445 39.126 954.396 37.8711C958.342 36.6173 963.207 35.7666 969.857 35.7666H988.58C1001.14 35.7666 1012.96 30.9336 1021.91 22.1621L1034.29 34.5381C1022.02 46.6138 1005.82 53.2627 988.58 53.2627H969.857C969.003 53.2627 968.203 53.278 967.449 53.3086C966.837 53.3335 966.256 53.3692 965.701 53.4141C965.053 53.4666 964.441 53.5327 963.859 53.6123C963.537 53.6564 963.224 53.7054 962.919 53.7578C962.337 53.8578 961.785 53.9728 961.255 54.1025C960.998 54.1653 960.747 54.2301 960.5 54.2998C960.336 54.3461 960.174 54.3941 960.014 54.4434C959.781 54.5147 959.553 54.5904 959.327 54.668C959.245 54.6962 959.162 54.7229 959.081 54.752C958.539 54.9455 958.012 55.1583 957.49 55.3867C957.134 55.5426 956.779 55.7055 956.424 55.877C955.987 56.0878 955.549 56.3115 955.102 56.5449C954.702 56.7538 954.296 56.973 953.878 57.1992L952.756 57.8066L952.755 57.8076C952.303 58.0566 951.843 58.308 951.373 58.5615L949.929 59.3301L949.924 59.333C948.528 60.0886 936.339 67.3258 924.5 74.3838L924.342 74.4775L924.283 74.6514C924.206 74.8772 924.035 75.1202 923.677 75.3486L923.512 75.4463L923.507 75.4482L912.066 81.7939L912.061 81.7969C911.95 81.8601 911.844 81.9256 911.747 81.9854L911.606 82.0723L864.127 108.371L863.869 108.514V127.169L864.627 126.713L904.884 102.478L905.126 102.332V91.2559L923.249 81.1016V91.4277L924.008 90.9688L946.826 77.1689L946.827 77.1699C952.207 73.9338 958.885 73.7639 964.405 76.6992L964.936 76.9932C970.381 80.1289 973.767 85.894 973.879 92.1416L973.88 92.748L973.494 117.027C973.401 123.09 970.175 128.748 965.039 131.923L964.536 132.223L964.532 132.225L928.463 153.309L928.34 132.473L955.133 116.725L955.375 116.583L955.379 116.302L955.735 93.8535L955.75 92.9482L954.977 93.418L923.493 112.516L898.54 127.403L898.537 127.404L866.828 146.542C862.662 149.039 857.489 149.185 853.216 146.956L852.806 146.733C848.448 144.265 845.738 139.63 845.738 134.623V106.027C845.738 101.135 848.315 96.6094 852.497 94.1025L852.906 93.8662L903.88 65.6113H904.956L904.793 64.9854C903.812 61.2315 901.594 58.4396 898.038 56.4189H898.037C894.145 54.1994 889.991 53.6384 889 53.5293L888.973 53.5254H841.081C823.777 53.5254 807.501 46.8555 795.189 34.7197L807.936 21.9736ZM907.938 0.5C931.721 0.500098 954.527 7.68616 973.922 21.2852L970.607 25.9668C952.473 13.2597 931.208 6.44664 909.004 6.23535L907.938 6.23047C904.469 6.23047 901.024 6.39112 897.612 6.70801C897.166 6.74945 896.72 6.79401 896.275 6.84082C895.511 6.92122 894.748 7.00927 893.987 7.10547C892.933 7.23875 891.882 7.38731 890.835 7.55078C888.609 7.89818 886.4 8.31323 884.21 8.7959C883.696 8.90917 883.183 9.02581 882.671 9.14648C881.023 9.535 879.385 9.96194 877.76 10.4268C877.426 10.5223 877.092 10.62 876.759 10.7188C875.391 11.1244 874.031 11.5571 872.681 12.0166C872.249 12.1635 871.818 12.3124 871.388 12.4648C870.894 12.6397 870.403 12.8189 869.912 13.001C868.106 13.6709 866.318 14.3894 864.549 15.1562C864.024 15.3835 863.502 15.6148 862.98 15.8506C862.257 16.1779 861.537 16.5139 860.82 16.8574C860.223 17.1436 859.628 17.435 859.036 17.7324C858.787 17.8576 858.538 17.9832 858.289 18.1104C857.299 18.6171 856.315 19.1395 855.339 19.6777C854.532 20.1227 853.73 20.5796 852.933 21.0459C851.663 21.7885 850.405 22.558 849.161 23.3545C848.755 23.6143 848.35 23.8761 847.947 24.1416C846.207 25.2884 844.493 26.4887 842.808 27.7412L839.37 23.1562C859.314 8.33019 883.005 0.5 907.938 0.5Z" fill="#EA5505" stroke="white"/>
<path d="M35.4111 185.091V176.384C49.2229 176.384 56.1481 173.701 56.1481 168.325V129.166L22.3548 73.2113C15.7394 62.3149 8.24256 56.8619 0 56.8619V47.7476H68.9721V56.8619C59.1701 56.8619 54.2499 58.7216 54.2499 62.4603C54.2499 63.826 55.354 66.2475 57.5817 69.6859L84.7114 114.676L109.982 69.9182C110.66 67.8358 111.047 65.0755 111.047 61.6274C111.047 58.4504 105.633 56.8619 94.8911 56.8619V47.7476H144.792V56.8619C137.334 56.8619 131.891 59.1381 128.443 63.7097L90.7263 128.333V169.158C90.7263 174.001 97.3416 176.384 110.63 176.384V185.091H35.4111Z" fill="white"/>
<path d="M218.15 177.869C225.453 177.869 231.468 176.319 236.156 173.181C240.853 170.082 244.563 165.8 247.246 160.318C249.929 154.865 251.789 148.434 252.806 141.024C253.871 133.644 254.394 125.701 254.394 117.265C254.394 109.391 253.871 101.71 252.806 94.2228C251.789 86.7648 249.861 80.1108 247.023 74.3187C244.185 68.4879 240.204 63.8387 235.138 60.284C229.995 56.7681 223.293 55.0247 215.012 55.0247C207.447 55.0247 201.355 56.6518 196.812 59.9837C192.231 63.3059 188.754 67.7712 186.333 73.3696C183.911 78.9679 182.323 85.4087 181.567 92.673C180.812 99.9373 180.434 107.579 180.434 115.599C180.434 124.336 180.957 132.472 182.09 140.075C183.194 147.717 185.161 154.303 187.999 159.902C190.836 165.5 194.652 169.888 199.495 173.104C204.299 176.28 210.547 177.869 218.15 177.869ZM289.815 115.706C289.815 127.435 287.955 137.809 284.207 146.768C280.468 155.776 275.315 163.34 268.777 169.471C262.23 175.602 254.51 180.29 245.58 183.477C236.649 186.615 226.964 188.203 216.445 188.203C206.537 188.203 197.229 186.877 188.492 184.194C179.823 181.472 172.22 177.268 165.711 171.554C159.241 165.8 154.137 158.468 150.389 149.499C146.64 140.492 144.79 129.789 144.79 117.372C144.79 104.809 146.563 93.9903 150.166 84.9535C153.759 75.9071 158.786 68.4589 165.179 62.5506C171.61 56.6907 179.223 52.3709 187.999 49.6104C196.774 46.85 206.236 45.4844 216.445 45.4844C226.547 45.4844 236.049 46.9663 244.98 49.9108C253.871 52.9037 261.62 57.3298 268.284 63.1994C274.899 69.0592 280.129 76.3624 284.023 85.1377C287.878 93.913 289.815 104.093 289.815 115.706Z" fill="white"/>
<path d="M417.423 73.2113C417.423 62.3149 410.498 56.8619 396.696 56.8619V47.7476H446.636V56.8619C435.323 56.8619 429.647 62.3149 429.647 73.2113V134.958C429.647 142.978 428.891 150.281 427.38 156.828C425.86 163.366 423.06 168.965 418.983 173.585C414.895 178.234 409.403 181.837 402.517 184.365C395.592 186.941 386.778 188.191 375.998 188.191C367.862 188.191 360.336 187.058 353.527 184.781C346.679 182.515 340.809 179.377 335.889 175.367C331.007 171.357 327.191 166.543 324.392 160.945C321.632 155.346 320.266 149.254 320.266 142.639V70.1024C320.266 61.2884 313.835 56.8619 301.011 56.8619V47.7476H373.499V56.8619C360.675 56.8619 354.244 61.2884 354.244 70.1024V137.457C354.244 141.883 354.621 146.377 355.376 151.036C356.132 155.647 357.614 159.811 359.764 163.56C361.885 167.269 364.878 170.369 368.694 172.79C372.481 175.173 377.431 176.384 383.523 176.384C395.592 176.384 404.261 173.091 409.52 166.436C414.818 159.811 417.423 150.164 417.423 137.457V73.2113Z" fill="white"/>
<path fill-rule="evenodd" clip-rule="evenodd" d="M418.983 173.585C423.06 168.965 425.86 163.366 427.38 156.828C428.891 150.281 429.647 142.978 429.647 134.958V73.2113C429.647 62.3149 435.323 56.8619 446.636 56.8619V47.7476H396.696V56.8619C410.498 56.8619 417.423 62.3149 417.423 73.2113V137.457C417.423 150.164 414.818 159.811 409.52 166.436C404.261 173.091 395.592 176.384 383.523 176.384C377.431 176.384 372.481 175.173 368.694 172.79C364.878 170.369 361.885 167.269 359.764 163.56C357.614 159.811 356.132 155.647 355.376 151.036C354.621 146.377 354.244 141.883 354.244 137.457V70.1024C354.244 61.2884 360.675 56.8619 373.499 56.8619V47.7476H301.011V56.8619C313.835 56.8619 320.266 61.2884 320.266 70.1024V142.639C320.266 149.254 321.632 155.346 324.392 160.945C327.191 166.543 331.007 171.357 335.889 175.367C340.809 179.377 346.679 182.515 353.527 184.781C360.336 187.058 367.862 188.191 375.998 188.191C386.778 188.191 395.592 186.941 402.517 184.365C409.403 181.837 414.895 178.234 418.983 173.585Z" fill="white"/>
<path d="M573.653 187.581L485.571 94.9655V153.613C485.571 168.819 492.651 176.384 506.724 176.384V185.091H455.157V176.384C466.732 176.384 472.563 168.819 472.563 153.613V63.7098C472.563 59.1381 465.792 56.8619 452.242 56.8619V47.7476H491.401L569.081 131.025V77.7831C569.081 63.826 562.117 56.8619 548.15 56.8619V47.7476H599.533V56.8619C586.97 56.8619 580.694 63.826 580.694 77.7831V185.73L573.653 187.581Z" fill="white"/>
<path fill-rule="evenodd" clip-rule="evenodd" d="M573.653 187.581L580.694 185.73V77.7831C580.694 63.826 586.97 56.8619 599.533 56.8619V47.7476H548.15V56.8619C562.117 56.8619 569.081 63.826 569.081 77.7831V131.025L491.401 47.7476H452.242V56.8619C465.792 56.8619 472.563 59.1381 472.563 63.7098V153.613C472.563 168.819 466.732 176.384 455.157 176.384V185.091H506.724V176.384C492.651 176.384 485.571 168.819 485.571 153.613V94.9655L573.653 187.581Z" fill="white"/>
<path d="M726.729 187.409C723.969 186.276 721.354 184.755 718.855 182.828C716.366 180.9 714.245 178.896 712.424 176.813C707.581 180.407 702.021 183.206 695.783 185.211C689.459 187.216 683.027 188.203 676.412 188.203C655.83 188.203 639.897 182.45 628.622 170.914C617.387 159.369 611.75 142.003 611.75 118.815C611.75 108.18 612.961 98.378 615.383 89.4187C617.804 80.4109 621.552 72.6915 626.657 66.1827C631.761 59.7126 638.308 54.6469 646.25 50.976C654.202 47.3052 663.617 45.4844 674.514 45.4844C677.691 45.4844 681.061 45.678 684.655 46.0945C688.248 46.5109 691.803 47.1502 695.251 48.0607C698.689 48.9712 701.982 50.1432 705.091 51.5767C708.191 53.0586 710.913 54.7923 713.257 56.8747C716.744 51.5088 721.547 47.9057 727.746 46.0945C732.899 57.5624 735.427 73.941 735.427 95.2012H720.715C717.267 81.1278 712.579 71.0256 706.641 64.9333C700.694 58.8797 692.636 55.8576 682.388 55.8576C675.502 55.8576 669.826 57.4075 665.4 60.5069C661.012 63.616 657.486 67.6936 654.958 72.7302C652.382 77.7668 650.639 83.5492 649.66 90.1354C648.672 96.683 648.217 103.337 648.217 110.108C648.217 116.316 648.411 123.319 648.827 131.038C649.244 138.748 650.493 146.012 652.575 152.792C654.658 159.563 657.874 165.277 662.3 169.888C666.726 174.508 672.925 176.813 680.945 176.813C689.381 176.813 695.706 174.808 699.9 170.76C704.103 166.672 706.225 159.708 706.225 149.8C706.225 136.743 699.261 130.205 685.304 130.205V121.498H752V130.205C739.97 130.205 733.994 134.893 733.994 144.317V187.409H726.729Z" fill="white"/>
<path d="M1159 93.0018C1157.92 87.5188 1156.52 82.5353 1154.88 77.9934C1153.27 73.4899 1151.24 69.5914 1148.84 66.2882C1146.44 63.0234 1143.69 60.4787 1140.62 58.7119C1137.55 56.9162 1134.06 56.0519 1130.27 56.0519C1122.32 56.0519 1116.13 57.6651 1111.74 60.8915C1107.39 64.0795 1105.18 68.3142 1105.18 73.5283C1105.18 77.206 1105.97 80.2402 1107.47 82.5736C1108.96 84.8974 1111.14 86.9908 1114.03 88.8344C1116.88 90.7069 1120.41 92.3969 1124.61 93.9717C1128.77 95.5849 1133.46 97.3902 1138.67 99.4451C1144.56 101.779 1149.97 104.102 1154.88 106.426C1159.83 108.75 1164.03 111.563 1167.52 114.866C1171 118.17 1173.7 122.145 1175.62 126.793C1177.57 131.479 1178.5 137.374 1178.5 144.499C1178.5 151.365 1177.38 157.434 1175.13 162.801C1172.85 168.169 1169.66 172.701 1165.49 176.494C1161.3 180.239 1156.3 183.13 1150.48 185.117C1144.67 187.105 1138.26 188.084 1131.28 188.084C1126.22 188.084 1121.3 187.48 1116.58 186.241C1111.85 185.012 1107.72 182.832 1104.16 179.682C1101.43 181.593 1098.57 183.322 1095.65 184.82C1092.69 186.318 1089.65 187.556 1086.49 188.497C1084.85 183.735 1083.68 178.895 1083.01 174.017C1082.34 169.177 1082 164.155 1082 158.941C1082 155.379 1082.08 151.884 1082.3 148.475C1082.48 145.018 1082.86 141.532 1083.42 137.97H1096.78C1096.78 142.512 1097.34 147.082 1098.5 151.739C1099.67 156.387 1101.58 160.66 1104.16 164.568C1106.75 168.505 1110.16 171.655 1114.33 174.132C1118.49 176.61 1123.56 177.839 1129.45 177.839C1134.77 177.839 1139.24 177.243 1142.88 176.081C1146.51 174.92 1149.48 173.306 1151.69 171.242C1153.98 169.216 1155.63 166.815 1156.64 164.194C1157.66 161.486 1158.18 158.672 1158.18 155.638C1158.18 150.875 1156.94 146.862 1154.47 143.635C1152.03 140.409 1147.98 137.855 1142.39 135.944C1134.03 133.053 1126.33 130.201 1119.35 127.397C1112.38 124.613 1106.34 121.242 1101.2 117.344C1096.07 113.436 1092.05 108.827 1089.16 103.459C1086.31 98.1392 1084.85 91.571 1084.85 83.7739C1084.85 77.8781 1085.98 72.5585 1088.26 67.8246C1090.51 63.1002 1093.55 59.1248 1097.37 55.8216C1101.2 52.5664 1105.7 50.0505 1110.85 48.3221C1115.98 46.6321 1121.42 45.7773 1127.16 45.7773C1132.22 45.7773 1137.1 46.6704 1141.75 48.5524C1146.4 50.3865 1150.3 53.4978 1153.45 57.8861C1154.95 55.1494 1157.17 52.9025 1160.02 51.0972C1162.9 49.34 1165.79 48.0244 1168.64 47.1986C1170.71 53.7666 1171.98 61.1893 1172.47 69.4761C1172.92 77.7726 1173.18 85.6079 1173.18 93.0018H1159Z" fill="white"/>
<path d="M1214.45 185.01V176.378C1228.7 176.378 1235.83 170.636 1235.83 159.123V66.2869C1235.83 62.1963 1233.01 60.1412 1227.39 60.1412C1223.15 60.1412 1219.48 60.8519 1216.4 62.3115C1213.32 63.7422 1210.66 65.8739 1208.41 68.7642C1206.16 71.6546 1204.25 75.2554 1202.67 79.5669C1201.06 83.8784 1199.67 88.9101 1198.44 94.6427L1185.71 92.8085L1191.46 47.1973C1195.02 47.7638 1198.92 48.1767 1203.16 48.436C1207.4 48.6953 1210.78 48.8489 1213.21 48.8489H1294.34C1297.38 48.8489 1301.06 48.6953 1305.44 48.436C1309.83 48.1767 1313.81 47.7638 1317.37 47.1973V92.1747L1305.44 93.183C1304.77 82.3804 1302.49 74.3143 1298.58 68.9946C1294.68 63.6268 1287.93 60.967 1278.33 60.967C1272.44 60.967 1269.51 62.7628 1269.51 66.2869V159.123C1269.51 170.636 1276.75 176.378 1291.27 176.378V185.01H1214.45Z" fill="white"/>
<path d="M1400.12 177.847C1407.39 177.847 1413.36 176.311 1418.01 173.2C1422.66 170.127 1426.34 165.883 1429 160.448C1431.66 155.042 1433.5 148.666 1434.56 141.32C1435.56 134.003 1436.05 126.129 1436.05 117.765C1436.05 109.958 1435.56 102.344 1434.56 94.9212C1433.5 87.5274 1431.59 80.9306 1428.77 75.1884C1425.96 69.4078 1422.02 64.7986 1416.95 61.2745C1411.89 57.7889 1405.26 56.0605 1397.04 56.0605C1389.54 56.0605 1383.5 57.6736 1378.96 60.9768C1374.46 64.2704 1371.01 68.6973 1368.61 74.2475C1366.21 79.7976 1364.63 86.183 1363.88 93.3848C1363.13 100.587 1362.76 108.163 1362.76 116.114C1362.76 124.775 1363.29 132.841 1364.37 140.379C1365.49 147.955 1367.44 154.485 1370.26 160.035C1373.07 165.585 1376.86 169.935 1381.63 173.123C1386.43 176.273 1392.61 177.847 1400.12 177.847ZM1471.2 116.219C1471.2 127.848 1469.36 138.132 1465.65 147.014C1461.93 155.944 1456.83 163.444 1450.34 169.522C1443.85 175.6 1436.16 180.248 1427.35 183.407C1418.5 186.518 1408.9 188.093 1398.47 188.093C1388.64 188.093 1379.37 186.777 1370.75 184.118C1362.12 181.419 1354.62 177.252 1348.16 171.587C1341.72 165.883 1336.69 158.614 1332.97 149.722C1329.27 140.792 1327.42 130.181 1327.42 117.871C1327.42 105.417 1329.19 94.6907 1332.75 85.7317C1336.31 76.7631 1341.27 69.379 1347.64 63.5216C1354.02 57.7121 1361.56 53.4295 1370.26 50.6928C1378.96 47.9562 1388.34 46.6023 1398.47 46.6023C1408.48 46.6023 1417.89 48.0714 1426.75 50.9906C1435.56 53.9577 1443.25 58.3458 1449.85 64.1648C1456.42 69.9742 1461.6 77.2146 1465.46 85.9143C1469.29 94.614 1471.2 104.706 1471.2 116.219Z" fill="white"/>
<path d="M1604.47 187.477L1517.18 95.6587V153.801C1517.18 168.877 1524.19 176.376 1538.15 176.376V185.009H1487.02V176.376C1498.51 176.376 1504.24 168.877 1504.24 153.801V64.672C1504.24 60.1397 1497.53 57.8831 1484.14 57.8831V48.8472H1522.96L1599.96 131.408V78.6242C1599.96 64.7872 1593.06 57.8831 1579.22 57.8831V48.8472H1630.16V57.8831C1617.71 57.8831 1611.48 64.7872 1611.48 78.6242V185.642L1604.47 187.477Z" fill="white"/>
<path fill-rule="evenodd" clip-rule="evenodd" d="M1604.47 187.477L1611.48 185.642V78.6242C1611.48 64.7872 1617.71 57.8831 1630.16 57.8831V48.8472H1579.22V57.8831C1593.06 57.8831 1599.96 64.7872 1599.96 78.6242V131.408L1522.96 48.8472H1484.14V57.8831C1497.53 57.8831 1504.24 60.1397 1504.24 64.672V153.801C1504.24 168.877 1498.51 176.376 1487.02 176.376V185.009H1538.15V176.376C1524.19 176.376 1517.18 168.877 1517.18 153.801V95.6587L1604.47 187.477Z" fill="white"/>
<path d="M1643.7 185.009V176.376C1656.04 176.376 1662.19 172.401 1662.19 164.488V73.3044C1662.19 63.0202 1655.55 57.8831 1642.27 57.8831V48.8472H1760.17L1761.82 89.0908L1749.29 90.1469C1748.05 82.5994 1746.28 76.7901 1743.96 72.7763C1741.6 68.7241 1738.82 65.7954 1735.52 63.923C1732.25 62.0889 1728.47 60.9943 1724.23 60.6582C1719.99 60.3221 1715.27 60.1395 1710.05 60.1395C1705.51 60.1395 1702.02 60.7733 1699.59 62.0888C1697.11 63.3947 1695.87 65.2768 1695.87 67.7158V103.686C1695.87 106.989 1697.44 108.593 1700.6 108.593C1703.9 108.593 1706.9 108.411 1709.64 107.998C1712.38 107.585 1714.82 106.644 1716.92 105.223C1719.05 103.792 1720.78 101.622 1722.17 98.7699C1723.55 95.8796 1724.42 91.9811 1724.83 87.0263H1736.76V141.865H1724.83C1724.42 137.218 1723.75 133.463 1722.77 130.582C1721.83 127.731 1720.48 125.512 1718.79 124.015C1717.06 122.517 1714.89 121.499 1712.3 120.942C1709.72 120.375 1706.57 120.039 1702.85 119.924C1698.2 120.298 1695.87 122.181 1695.87 125.436V163.845C1695.87 170.413 1701.02 173.716 1711.29 173.716C1719.62 173.716 1726.33 173.073 1731.32 171.767C1736.31 170.451 1740.36 168.502 1743.55 165.804C1746.7 163.134 1749.21 159.764 1751.12 155.635C1753.03 151.544 1755.03 146.599 1757.09 140.857L1768.79 142.509L1763.05 185.009H1643.7Z" fill="white"/>
<path d="M639.771 280.1C638.574 278.022 637.426 275.599 636.34 272.817C635.246 270.035 634.246 267.279 633.332 264.528H649.576C650.42 267.136 651.358 269.771 652.374 272.411C653.396 275.059 654.538 277.622 655.804 280.1H639.771ZM667.093 335.558V353.538H651.264V335.558H626.371V326.011H651.264V313.65H631.864V304.11H651.264V293.061H629.011V283.81H660.655C662.203 280.872 663.765 277.686 665.351 274.271C666.929 270.857 668.29 267.637 669.414 264.628H685.971C684.915 267.707 683.635 270.957 682.127 274.371C680.611 277.786 679.009 280.936 677.321 283.81H688.08V293.061H667.093V304.11H685.759V313.65H667.093V326.011H691.776V335.558H667.093ZM608.227 286.631C606.259 283.014 604.469 279.35 602.853 275.629C601.226 271.911 599.718 268.145 598.312 264.324H616.034C617.37 268.145 618.814 271.911 620.362 275.629C621.909 279.35 623.629 283.014 625.527 286.631H608.227ZM621.417 336.058C619.94 341.817 618.214 347.543 616.244 353.232H598.212C600.462 347.607 602.492 341.903 604.329 336.106C606.157 330.315 607.665 324.401 608.861 318.376H625.215C624.159 324.401 622.893 330.299 621.417 336.058ZM609.071 313.556C606.821 310.071 604.767 306.391 602.899 302.5C601.04 298.618 599.398 294.836 598 291.147H615.822C617.228 294.898 618.87 298.718 620.728 302.602C622.589 306.485 624.543 310.141 626.581 313.556H609.071Z" fill="white"/>
<path d="M775.636 313.554C775.636 312.21 774.932 311.546 773.526 311.546H733.013C732.451 311.546 731.895 311.782 731.333 312.25C730.763 312.718 730.489 313.218 730.489 313.75V340.877C730.489 341.479 730.661 342.066 731.013 342.636C731.365 343.206 731.927 343.488 732.701 343.488H773.205C774.058 343.488 774.666 343.238 775.058 342.738C775.44 342.238 775.636 341.581 775.636 340.777V313.554ZM748.733 275.98C746.555 280.599 744.256 285.005 741.826 289.194C739.404 293.372 736.709 297.617 733.755 301.897H783.018C784.355 301.897 785.605 302.179 786.761 302.749C787.925 303.319 788.887 304.077 789.667 305.016C790.293 305.82 790.809 306.702 791.191 307.672C791.581 308.648 791.769 309.672 791.769 310.742V344.792C791.769 347.074 790.925 348.918 789.245 350.324C788.401 351.128 787.395 351.731 786.237 352.129C785.073 352.537 783.863 352.731 782.596 352.731H722.894C721.2 352.731 719.794 352.395 718.668 351.731C717.551 351.058 716.667 350.152 716.035 349.012C715.473 348.074 715.051 347.028 714.769 345.848C714.487 344.684 714.347 343.488 714.347 342.286V317.571H702.534C705.556 314.219 708.346 310.922 710.917 307.672C713.487 304.429 715.941 301.117 718.302 297.733C720.66 294.35 722.91 290.866 725.052 287.28C727.201 283.699 729.357 279.927 731.537 275.98H704.222V266.331H796.2V275.98H748.733Z" fill="white"/>
<path d="M881.649 331.037C881.649 330.637 881.453 330.215 881.07 329.779C880.678 329.349 880.28 329.129 879.858 329.129H839.878C839.596 329.129 839.244 329.309 838.824 329.677C838.402 330.051 838.19 330.403 838.19 330.731V341.888C838.19 342.358 838.432 342.788 838.924 343.194C839.416 343.592 839.948 343.794 840.51 343.794H880.07C880.492 343.794 880.858 343.631 881.178 343.294C881.492 342.96 881.649 342.592 881.649 342.186V331.037ZM896.414 288.743C894.798 290.017 892.548 290.649 889.663 290.649H822.048C818.742 290.649 816.352 289.783 814.875 288.038C813.469 286.5 812.765 284.054 812.765 280.702V268.952H828.377V279.5C828.377 280.172 828.603 280.672 829.065 281.008C829.517 281.344 830.065 281.508 830.697 281.508H847.895V264.63H863.927V281.508H882.071C882.421 281.508 882.789 281.32 883.179 280.954C883.563 280.586 883.757 280.132 883.757 279.602V268.952H899.266V282.11C899.266 285.054 898.314 287.266 896.414 288.743ZM846.739 307.933C845.683 309.871 844.518 311.847 843.252 313.855C841.988 315.863 840.682 317.84 839.346 319.786H886.499C889.593 319.786 892.094 320.488 893.994 321.894C894.978 322.628 895.728 323.52 896.258 324.558C896.782 325.599 897.048 326.887 897.048 328.427V344.499C897.048 347.179 896.274 349.249 894.728 350.725C893.18 352.203 890.93 352.937 887.977 352.937H832.493C829.471 352.937 827.041 352.265 825.212 350.929C823.314 349.319 822.368 346.875 822.368 343.592V334.654H807.601C812.031 330.637 815.985 326.349 819.462 321.792C822.946 317.238 826.094 312.621 828.907 307.933H810.023V298.588H901.799V307.933H846.739Z" fill="white"/>
<path d="M978.588 319.478V311.345H985.87V306.118H979.222V298.179H985.87V292.757H969.307V298.179H975.955V306.118H969.307V310.439C970.291 310.439 971.417 310.375 972.681 310.235C973.947 310.103 975.111 309.939 976.167 309.734V317.875C971.877 318.611 967.446 319.211 962.876 319.682C958.297 320.15 953.657 320.456 948.952 320.588V312.751C950.006 312.619 951.289 312.485 952.797 312.345C954.313 312.211 955.703 312.047 956.969 311.845V306.118H951.063V298.179H956.969V292.757H949.264V284.216H970.681V278.693H951.165V270.856H970.681V265.028H986.082V270.856H1004.54V278.693H986.082V284.216H1007.49V292.757H998.42V298.179H1005.07V306.118H998.42V311.345H1007.49V319.478H978.588ZM1006.97 353.435H989.559C987.589 353.435 985.972 353.215 984.714 352.779C983.448 352.349 982.424 351.731 981.652 350.927C980.174 349.247 979.432 346.536 979.432 342.786V332.237H973.423C973.073 334.245 972.705 336.261 972.315 338.27C971.931 340.278 971.345 342.222 970.573 344.09C969.939 345.832 969.134 347.473 968.15 349.013C967.166 350.559 965.97 352.029 964.564 353.435H945.256C947.296 351.965 949.124 350.357 950.742 348.615C952.359 346.872 953.765 345.028 954.961 343.09C955.945 341.418 956.719 339.676 957.281 337.863C957.843 336.057 958.195 334.183 958.337 332.237H947.264V323.698H1008.44V332.237H994.309V343.488C994.309 343.894 994.449 344.23 994.731 344.496C995.011 344.762 995.325 344.894 995.683 344.894H1008.86L1006.97 353.435ZM947.578 284.318C947.506 286.794 947.398 289.342 947.264 291.953C947.124 294.569 946.976 297.123 946.842 299.639C946.702 302.148 946.522 304.476 946.312 306.618H939.349C939.561 304.344 939.755 301.898 939.927 299.287C940.107 296.679 940.279 294.101 940.459 291.553C940.631 289.006 940.756 286.53 940.828 284.116C940.898 281.707 940.935 279.559 940.935 277.685H947.686C947.686 279.629 947.648 281.841 947.578 284.318ZM916.457 306.618C916.247 304.882 916.043 302.788 915.825 300.343C915.621 297.897 915.403 295.351 915.199 292.709C914.981 290.06 914.809 287.42 914.667 284.772C914.527 282.121 914.417 279.763 914.355 277.685H921.105C921.167 279.629 921.277 281.903 921.417 284.514C921.559 287.13 921.715 289.794 921.895 292.507C922.067 295.217 922.261 297.811 922.474 300.287C922.684 302.766 922.896 304.882 923.106 306.618H916.457ZM937.553 346.606C936.147 342.722 935.029 338.84 934.185 334.949C933.271 338.168 932.302 341.3 931.278 344.348C930.262 347.395 929.082 350.427 927.748 353.435H913.613C916.075 348.145 918.043 343.254 919.519 338.77C920.997 334.285 922.154 329.729 922.998 325.104C923.7 321.29 924.2 317.369 924.474 313.353C924.754 309.336 924.896 304.914 924.896 300.093V265.028H937.873V306.118C937.873 308.062 937.819 310.001 937.717 311.947C937.607 313.891 937.483 315.797 937.349 317.673H942.092C943.92 327.518 946.522 337.159 949.898 346.606H937.553Z" fill="white"/>
<path d="M1075.75 325.806V353.637H1059.39V325.806H1020.79V316.165H1059.39V293.163H1041.46C1041.18 294.367 1040.85 295.623 1040.45 296.929C1040.07 298.233 1039.69 299.507 1039.3 300.742C1038.92 301.984 1038.54 303.14 1038.19 304.21C1037.84 305.282 1037.49 306.218 1037.13 307.024H1020.37C1021.13 304.68 1021.96 302.102 1022.84 299.287C1023.72 296.475 1024.59 293.561 1025.43 290.544C1026.27 287.53 1027.08 284.452 1027.85 281.301C1028.62 278.153 1029.26 275.075 1029.75 272.058H1045.78C1045.5 273.935 1045.19 275.865 1044.84 277.841C1044.49 279.817 1044.13 281.771 1043.78 283.716H1059.39V265.028H1075.75V283.716H1107.7V293.163H1075.75V316.165H1113.3V325.806H1075.75Z" fill="white"/>
<path d="M1204.65 332.34V353.436H1190.09V264.324H1204.65V276.982H1218.15V286.123H1204.65V299.89H1215.72V309.133H1204.65V323.097H1219.2V332.34H1204.65ZM1184.35 327.667C1183.46 327.901 1182.53 328.121 1181.55 328.323C1180.85 332.942 1179.82 337.332 1178.49 341.481C1177.15 345.637 1175.25 349.583 1172.79 353.334H1156.76C1158.87 349.989 1160.68 346.521 1162.19 342.943C1163.7 339.356 1164.84 335.52 1165.62 331.433C1163.79 331.839 1161.94 332.206 1160.09 332.542C1158.22 332.878 1156.36 333.144 1154.54 333.348V323.901C1156.72 323.635 1158.91 323.331 1161.09 322.995C1163.27 322.667 1165.37 322.26 1167.41 321.79C1167.77 319.65 1168.01 317.54 1168.15 315.462C1168.29 313.384 1168.33 311.275 1168.26 309.133H1157.81V299.89H1168.68V286.225H1155.6V290.445H1148.74V307.423C1149.86 307.095 1150.99 306.743 1152.11 306.369C1153.24 306.001 1154.33 305.619 1155.38 305.211V314.962C1154.4 315.432 1153.31 315.846 1152.11 316.212C1150.92 316.588 1149.79 316.94 1148.74 317.268V344.599C1148.74 347.005 1148.01 348.981 1146.52 350.521C1145.04 352.13 1143.04 352.936 1140.51 352.936H1127.33L1125.11 343.693H1131.65C1132.36 343.693 1132.99 343.443 1133.55 342.943C1134.11 342.435 1134.39 341.787 1134.39 340.98V321.79C1131.58 322.729 1128.66 323.503 1125.64 324.105V314.362C1127.11 314.026 1128.6 313.674 1130.07 313.298C1131.54 312.939 1132.99 312.485 1134.39 311.947V290.445H1125.43V281.006H1134.39V264.324H1148.74V281.006H1155.18V276.888H1168.68V264.324H1183.03V304.509C1183.03 306.861 1182.99 309.203 1182.92 311.547C1182.85 313.892 1182.7 316.236 1182.49 318.58C1183.76 318.51 1185.28 318.244 1187.03 317.776V326.815C1186.12 327.151 1185.22 327.433 1184.35 327.667Z" fill="white"/>
</svg>
