<svg width="144" height="144" viewBox="0 0 144 144" fill="none" xmlns="http://www.w3.org/2000/svg">
<path fill-rule="evenodd" clip-rule="evenodd" d="M72.001 12.001C67.2271 12.001 62.6487 13.8974 59.2731 17.2731C55.8974 20.6487 54.001 25.2271 54.001 30.001V63.7367C52.8719 64.1274 52.0659 65.3126 51.583 67.2923C51.1818 69.4505 49.9784 71.4545 47.9727 73.3043H45.265C45.4656 73.9209 45.5659 74.3834 45.5659 74.6917C45.7665 75 45.8667 75.4625 45.8667 76.0791C45.8667 75.7708 45.6662 76.5415 45.265 78.3914C46.4684 78.3914 47.5716 77.9289 48.5744 77.004C49.5773 76.0791 50.0787 75.3083 50.0787 74.6917C50.0787 74.3834 49.9784 74.0751 49.7778 73.7668C49.5773 73.4585 49.477 72.996 49.477 72.3794C49.8781 72.3794 50.2793 71.9169 50.6804 70.992L52.1847 68.6797C52.5858 69.9129 53.0872 70.5295 53.6889 70.5295C53.8008 70.5295 53.9048 70.5235 54.001 70.5116V77.4185C53.6559 77.3101 53.2511 77.0177 52.7864 76.5415C52.5858 76.8499 52.4855 77.1582 52.4855 77.4665V77.929C52.4855 78.295 52.4984 78.6413 52.5241 78.9678C52.0085 79.4079 51.5084 79.865 51.0246 80.3381C50.8826 79.6963 50.8682 79.2016 50.9813 78.8539C50.5801 78.8539 50.3796 79.3163 50.3796 80.2413V80.9886C49.1866 82.2288 48.1015 83.5705 47.137 84.9991C47.016 85.1041 46.8934 85.2139 46.7693 85.3284C45.967 85.945 45.4656 86.8699 45.265 88.1031C45.2778 88.1031 45.2905 88.103 45.303 88.1027C44.9351 88.8207 44.5952 89.5553 44.2846 90.3051C41.7573 96.4064 41.314 103.171 43.0232 109.55C44.7325 115.929 48.4988 121.566 53.7381 125.586C58.9775 129.606 65.397 131.786 72.001 131.786C76.5457 131.786 81.0029 130.754 85.0483 128.8H89.1898C89.1898 128.183 89.0895 127.875 88.889 127.875V126.95H90.6941C90.6941 126.074 90.5928 125.587 90.3903 125.489C95.5638 121.475 99.2833 115.878 100.979 109.55C102.688 103.171 102.245 96.4064 99.7174 90.3051C97.651 85.3164 94.2859 80.9992 90.001 77.7855V30.001C90.001 25.2271 88.1046 20.6487 84.7289 17.2731C81.3533 13.8974 76.7749 12.001 72.001 12.001ZM90.3903 125.489C90.3078 125.449 90.2085 125.473 90.0924 125.563C89.6912 125.563 89.4907 125.254 89.4907 124.638C89.6912 124.638 89.9921 124.484 90.3932 124.175C90.5938 123.867 90.7944 123.713 90.9949 123.713C91.1955 123.713 91.3961 123.559 91.5966 123.25C91.5966 122.017 91.4964 121.092 91.2958 120.475C91.0952 119.859 90.9949 119.242 90.9949 118.626C91.5966 118.934 92.0981 119.396 92.4992 120.013C92.9003 120.321 93.3015 120.475 93.7026 120.475L94.3043 118.626C94.7055 117.701 94.9061 116.776 94.9061 115.851V114.001C93.9032 114.001 92.4992 115.08 90.6941 117.238C90.6941 116.93 90.5938 116.776 90.3932 116.776V115.851C89.1898 115.851 87.7858 116.313 86.1813 117.238C84.5767 117.855 83.7744 118.934 83.7744 120.475C83.7744 121.709 84.3761 122.942 85.5796 124.175C84.9779 124.792 84.1756 125.717 83.1727 126.95C82.4468 128.066 81.9673 128.677 81.7339 128.783L81.6684 128.8H85.0483C86.8815 127.914 88.63 126.84 90.2638 125.586C90.3061 125.554 90.3483 125.521 90.3903 125.489ZM66.001 71.5054C65.5767 71.6487 65.2836 72.0942 65.1214 72.8419C64.9209 73.4585 64.5197 73.7668 63.918 73.7668C63.5169 73.7668 63.3163 73.4585 63.3163 72.8419C63.3163 72.2252 63.1157 71.9169 62.7146 71.9169C62.3134 72.2252 62.1129 72.996 62.1129 74.2292C62.1129 75.1541 61.812 75.6166 61.2103 75.6166C61.2103 76.8499 61.5112 77.3123 62.1129 77.004C62.9152 76.3874 63.3163 76.8499 63.3163 78.3914H62.1129C61.9123 78.3914 61.5112 78.5455 60.9095 78.8539C60.3078 79.1622 59.8063 79.3163 59.4052 79.3163C59.004 79.3163 58.8035 79.1622 58.8035 78.8539C58.8035 78.2372 59.004 78.0831 59.4052 78.3914C59.8063 78.3914 60.0069 78.0831 60.0069 77.4665C60.0069 76.8499 59.8063 76.5415 59.4052 76.5415C59.004 76.5415 58.8035 76.8499 58.8035 77.4665C59.0041 78.0831 58.7032 78.3914 57.9009 78.3914V82.0911C57.9009 83.941 57.7003 84.8659 57.2992 84.8659C56.8981 84.8659 56.6975 85.1742 56.6975 85.7908V87.1782C56.8981 87.4865 56.9983 87.7948 56.9983 88.1031C56.7978 88.4114 56.4969 88.5656 56.0958 88.5656C55.6947 88.5656 55.3938 88.2573 55.1932 87.6407C54.9927 86.7157 54.6918 86.2533 54.2907 86.2533C54.0901 86.2533 53.7892 86.5616 53.3881 87.1782C53.1875 87.7948 52.8867 88.1031 52.4855 88.1031C52.0844 88.1031 51.583 87.4865 50.9813 86.2533C50.7807 86.5616 50.6804 87.024 50.6804 87.6407V89.4905C49.2764 88.8739 48.5744 87.7948 48.5744 86.2533C47.371 86.2533 46.669 86.5616 46.4684 87.1782C46.2721 87.7817 45.8837 88.0899 45.303 88.1027C45.8531 87.0294 46.4659 85.9932 47.137 84.9991C47.994 84.2555 48.774 83.7486 49.477 83.4785C49.477 84.0951 49.2764 84.4034 48.8753 84.4034C48.6747 84.4034 48.5744 84.7117 48.5744 85.3284C48.5744 85.945 49.0758 86.2533 50.0787 86.2533C50.4798 85.6367 50.6804 84.8659 50.6804 83.9409C50.6804 83.3243 50.5801 82.7077 50.3796 82.0911V80.9886C50.5912 80.7686 50.8063 80.5517 51.0246 80.3381C51.1344 80.8345 51.3206 81.4188 51.583 82.0911C52.3852 83.3243 52.7864 84.2493 52.7864 84.8659H56.9983C56.9983 83.3243 56.7978 82.2453 56.3966 81.6287L55.1932 79.7788C54.7921 79.7788 54.5915 80.0871 54.5915 80.7037C54.5915 81.3204 54.7921 81.7828 55.1932 82.0911C55.5944 82.0911 55.7949 82.3994 55.7949 83.016C53.8268 83.016 52.7365 81.6666 52.5241 78.9678C53.0032 78.5588 53.4957 78.1645 54.001 77.7855V77.4185C54.1027 77.4505 54.1993 77.4665 54.2907 77.4665H54.8924C55.0929 77.1582 55.3938 77.004 55.7949 77.004C55.7949 77.6206 55.8952 77.929 56.0958 77.929C56.4969 77.929 56.8981 78.0831 57.2992 78.3914C57.7003 78.0831 57.9009 77.3123 57.9009 76.0791V72.8419C57.9009 72.2252 58.0012 71.7628 58.2018 71.4545L59.1043 70.0671C59.3049 70.3754 59.6058 70.5295 60.0069 70.5295C60.6086 70.5295 61.6115 69.7588 63.0154 68.2172C64.0525 67.0216 65.0477 65.9548 66.001 65.0168V67.9636C65.8394 68.4046 65.6465 68.7975 65.4223 69.1422V70.0671C65.4223 70.3754 65.5226 70.5295 65.7231 70.5295C65.83 70.5295 65.9226 70.5077 66.001 70.4639V71.5054ZM64.5905 84.8659C65.4876 83.8003 66.001 82.4372 66.001 81.001V71.5054C66.1016 71.4714 66.2095 71.4545 66.3249 71.4545C66.5254 71.4545 66.6257 71.6086 66.6257 71.9169H67.5283V68.6797C66.9266 68.6797 66.5254 68.988 66.3249 69.6046C66.3249 70.057 66.2169 70.3434 66.001 70.4639V67.9636C66.1284 67.6156 66.2364 67.2377 66.3249 66.8298C66.726 65.5966 67.1271 64.5175 67.5283 63.5926C67.0317 64.0288 66.5226 64.5035 66.001 65.0168V60.001H78.001V81.001C78.001 83.1446 79.1446 85.1253 81.001 86.1971C84.4325 88.1783 87.1145 91.2365 88.6308 94.8973C90.1472 98.5581 90.4132 102.617 89.3877 106.444C89.1095 107.482 88.7405 108.488 88.2877 109.45C88.2874 109.426 88.2872 109.401 88.2872 109.376V107.989C88.4878 107.372 88.5881 106.756 88.5881 106.139C88.5881 104.906 88.187 104.289 87.3847 104.289C87.3847 105.523 87.1841 106.139 86.783 106.139H85.8804C85.6798 105.831 85.4793 105.677 85.2787 105.677V110.764H87.602C87.0068 111.798 86.3097 112.771 85.5206 113.669C85.5599 113.48 85.5796 113.282 85.5796 113.076C85.379 113.384 85.1784 113.539 84.9778 113.539C84.7773 113.847 84.3761 114.001 83.7744 114.001C83.3733 114.001 83.1727 113.693 83.1727 113.076C83.1727 112.459 83.3733 112.151 83.7744 112.151C84.1756 112.151 84.3761 111.843 84.3761 111.226C83.975 111.535 83.4736 111.997 82.8719 112.614C82.4707 112.922 82.0696 113.384 81.6684 114.001C81.2673 114.001 81.0667 113.693 81.0667 113.076C81.0667 112.459 80.8662 112.151 80.465 112.151C80.2645 112.151 79.9636 112.614 79.5625 113.539C79.3619 114.155 79.061 114.772 78.6599 115.388C78.2588 115.388 77.9579 115.234 77.7573 114.926C77.7573 114.309 77.5568 114.001 77.1556 114.001C76.5539 114.001 75.9522 114.618 75.3505 115.851L74.1471 117.701C74.1471 118.009 74.2474 118.317 74.4479 118.626C74.6485 118.934 74.7488 119.242 74.7488 119.551C74.7488 119.559 74.7488 119.567 74.7487 119.575C74.0512 119.682 73.3457 119.749 72.6355 119.774C72.5862 119.009 72.2878 118.626 71.7402 118.626C71.7402 119.018 71.7295 119.404 71.7081 119.783C67.8491 119.72 64.1094 118.419 61.0433 116.066C57.8997 113.654 55.6399 110.272 54.6143 106.444C54.1862 104.847 53.9832 103.208 54.0022 101.576L57.2992 97.3524C58.7032 95.8108 59.8063 94.4234 60.6086 93.1902C61.6115 91.6487 62.2132 90.8779 62.4137 90.8779C62.8149 90.8779 63.0154 91.1862 63.0154 91.8028C63.216 92.4194 63.6172 92.7277 64.2189 92.7277C64.2189 91.8028 64.0183 91.3403 63.6172 91.3403C63.216 91.3403 63.0154 91.032 63.0154 90.4154L63.6172 89.4905C63.8177 89.1822 64.0183 89.0281 64.2189 89.0281L64.8206 88.1031C65.2217 88.1031 65.4223 88.4114 65.4223 89.0281C65.4223 89.3364 65.6229 89.4905 66.024 89.4905C66.024 88.8739 65.9237 88.5656 65.7231 88.5656V87.1782C65.7231 86.5616 65.9237 85.7908 66.3249 84.8659H64.5905ZM63.2709 86.0317C63.3012 85.678 63.3163 85.2894 63.3163 84.8659H64.5905C64.2148 85.3122 63.7717 85.7063 63.2709 86.0317ZM60.3052 88.1031C61.139 87.3904 62.0406 86.7516 63.001 86.1971C63.0927 86.1442 63.1827 86.089 63.2709 86.0317C63.191 86.9654 63.0055 87.6559 62.7146 88.1031C62.3134 88.4114 61.9123 88.8739 61.5112 89.4905C61.11 89.4905 60.9095 89.3364 60.9095 89.0281C60.9095 88.4114 60.7089 88.1031 60.3077 88.1031C60.3069 88.1031 60.306 88.1031 60.3052 88.1031ZM60.3052 88.1031C60.0131 88.1041 59.8278 88.2692 59.7493 88.5986C59.9311 88.4297 60.1164 88.2645 60.3052 88.1031ZM58.8545 89.4905C59.1421 89.183 59.4405 88.8855 59.7493 88.5986C59.7205 88.7196 59.7061 88.8627 59.7061 89.0281V90.4154C59.9066 90.7237 60.0069 91.032 60.0069 91.3403C60.0069 92.2653 59.8063 92.7277 59.4052 92.7277C59.2046 92.7277 59.1043 91.6487 59.1043 89.4905H58.8545ZM56.798 92.1487C56.9315 91.622 56.9983 90.7359 56.9983 89.4905H58.8545C58.0887 90.3094 57.3999 91.1992 56.798 92.1487ZM56.798 92.1487C56.6785 92.3372 56.5625 92.528 56.4499 92.7211C56.5945 92.6842 56.7105 92.4934 56.798 92.1487ZM55.9164 93.7055C55.817 93.5019 55.6762 93.3302 55.4941 93.1902C55.0929 92.8819 54.8924 92.2653 54.8924 91.3403C55.2935 91.6487 55.5944 91.957 55.7949 92.2653C55.9955 92.5736 56.1961 92.7277 56.3966 92.7277C56.4148 92.7277 56.4326 92.7255 56.4499 92.7211C56.2622 93.0431 56.0843 93.3713 55.9164 93.7055ZM55.9164 93.7055C56.036 93.9502 56.0958 94.241 56.0958 94.5776C56.0958 94.8859 55.8952 95.5025 55.4941 96.4274C55.1563 96.9466 54.8186 97.3565 54.4808 97.6571C54.7018 96.7194 54.9988 95.7963 55.3712 94.8973C55.5388 94.4924 55.7208 94.095 55.9164 93.7055ZM54.4808 97.6571C54.1776 98.9437 54.0176 100.258 54.0022 101.576L53.6889 101.977C52.4855 103.21 51.4827 103.827 50.6804 103.827C49.8781 103.827 49.477 102.748 49.477 100.59C49.477 99.3564 49.9784 98.2773 50.9813 97.3524C51.9841 96.4274 52.6861 95.965 53.0872 95.965C53.4884 95.965 53.6889 96.2733 53.6889 96.8899C53.6889 97.5065 53.8895 97.8148 54.2907 97.8148C54.354 97.7661 54.4174 97.7135 54.4808 97.6571ZM81.3657 117.158C79.3387 118.393 77.0893 119.213 74.7487 119.575C74.7435 120.484 74.4427 120.938 73.8462 120.938C73.2445 120.938 72.8434 120.63 72.6428 120.013C72.6428 119.93 72.6404 119.85 72.6355 119.774C72.4244 119.782 72.2128 119.786 72.001 119.786C71.9033 119.786 71.8056 119.785 71.7081 119.783C71.544 122.688 70.7525 125.231 69.3334 127.412C69.9351 127.412 70.3362 127.567 70.5368 127.875C70.9379 127.875 71.3391 128.029 71.7402 128.337C71.7402 127.412 71.9408 126.95 72.342 126.95H73.5454C73.9465 126.642 74.0468 126.333 73.8462 126.025C73.8462 125.408 74.0468 125.1 74.4479 125.1C74.6485 125.1 74.7488 125.254 74.7488 125.563H75.3505C75.9522 125.563 76.1528 125.254 75.9522 124.638C75.9522 124.021 76.2531 123.713 76.8548 123.713H78.0582C78.0582 122.479 78.4593 121.863 79.2616 121.863C79.6628 121.863 79.8633 122.171 79.8633 122.788C79.8633 123.404 80.2645 123.713 81.0667 123.713V120.475C81.0667 119.551 81.2673 119.088 81.6684 119.088C82.0696 119.088 82.2701 118.78 82.2701 118.163C82.2701 117.547 82.0696 117.238 81.6684 117.238C81.5501 117.238 81.4492 117.211 81.3657 117.158ZM81.3657 117.158C81.9139 116.824 82.4457 116.46 82.9587 116.066C83.0202 116.019 83.0814 115.971 83.1423 115.923C83.2487 115.9 83.3591 115.876 83.4736 115.851C84.6427 115.337 85.325 114.61 85.5206 113.669C84.8017 114.487 84.0064 115.242 83.1423 115.923C81.9428 116.183 81.251 116.313 81.0667 116.313C81.0667 116.748 81.1664 117.029 81.3657 117.158ZM87.602 110.764H88.5881C88.3956 110.468 88.2955 110.03 88.2877 109.45C88.0771 109.898 87.8483 110.336 87.602 110.764ZM54.001 68.5867C54.5952 68.4693 54.8924 68.8086 54.8924 69.6046C54.8924 70.1353 54.5952 70.4376 54.001 70.5116V68.5867ZM54.001 68.5867C53.9048 68.6057 53.8008 68.6367 53.6889 68.6797C52.8867 68.6797 52.4855 68.3714 52.4855 67.7548C52.4855 67.5101 52.9907 67.2655 54.001 67.0208V68.5867ZM54.001 67.0208V63.7367C54.2786 63.6406 54.5757 63.5926 54.8924 63.5926V66.8298C54.561 66.8935 54.2639 66.9572 54.001 67.0208ZM70.04 48.001H78.001V44.1681C78.0198 44.1688 78.0389 44.1692 78.0582 44.1692L78.001 44.0813V30.001C78.001 28.4097 77.3688 26.8836 76.2436 25.7583C75.1184 24.6331 73.5923 24.001 72.001 24.001C70.4097 24.001 68.8836 24.6331 67.7584 25.7583C66.6331 26.8836 66.001 28.4097 66.001 30.001V40.3515C65.8742 40.4301 65.7816 40.4695 65.7231 40.4695C65.5226 40.4695 65.0211 40.007 64.2189 39.0821C64.2189 40.007 64.3192 40.6236 64.5197 40.9319C64.9209 40.9319 65.2217 41.2402 65.4223 41.8569C65.4223 42.1652 65.1214 42.3193 64.5197 42.3193H62.7146C62.7146 43.5526 63.0154 44.1692 63.6172 44.1692H66.001V48.001H67.251C67.2353 48.099 67.2274 48.2091 67.2274 48.3313C67.428 48.9479 67.1271 49.2563 66.3249 49.2563H65.7231C65.7231 48.9479 65.6229 48.7938 65.4223 48.7938V52.031C66.2246 52.031 66.726 51.7227 66.9266 51.1061C67.1271 50.1812 67.428 49.4104 67.8291 48.7938C68.2303 49.1021 68.4308 49.5646 68.4308 50.1812C68.6314 50.4895 68.9323 50.6437 69.3334 50.6437C69.3334 50.027 69.534 49.2563 69.9351 48.3313C69.9718 48.2186 70.0067 48.1085 70.04 48.001ZM70.04 48.001C70.3712 46.9316 70.5368 46.1168 70.5368 45.5566C70.3362 45.5566 70.1357 45.8649 69.9351 46.4815C69.7345 46.7898 69.4337 47.0981 69.0325 47.4064H67.8291C67.5075 47.4064 67.3148 47.6046 67.251 48.001H70.04ZM66.001 44.1692H67.5283C66.9266 42.936 66.6257 42.1652 66.6257 41.8569C66.6257 41.5485 66.9266 40.6236 67.5283 39.0821C66.8179 39.7373 66.3088 40.1604 66.001 40.3515V44.1692ZM76.8548 42.3193L78.001 44.0813V44.1681C77.2368 44.1392 76.8548 43.5229 76.8548 42.3193ZM75.6514 40.4695C76.0525 40.4695 76.4536 41.0861 76.8548 42.3193L75.6514 40.4695ZM100.021 45.0941C100.021 44.4775 99.82 44.1692 99.4189 44.1692L99.118 45.5566C99.118 46.4815 99.3186 47.0981 99.7197 47.4064C100.321 47.4064 100.723 47.2523 100.923 46.944L101.826 45.5566C102.227 45.5566 102.427 45.8649 102.427 46.4815C102.227 47.0981 101.926 47.4064 101.525 47.4064C101.324 47.4064 101.224 47.7147 101.224 48.3313C101.425 48.6396 101.725 48.7938 102.127 48.7938H103.33V44.1692H102.427C102.427 43.8609 102.327 43.7067 102.127 43.7067C101.725 43.7067 101.425 44.015 101.224 44.6316L100.622 45.5566C100.221 45.5566 100.021 45.4024 100.021 45.0941ZM62.7146 62.2052C62.514 61.8969 62.3135 61.7428 62.1129 61.7428C60.9095 61.1261 60.408 60.8178 60.6086 60.8178C60.2075 60.8178 59.9066 60.972 59.7061 61.2803H59.1043L58.5026 60.3554C58.3021 60.0471 58.2018 59.4304 58.2018 58.5055C58.6029 58.5055 58.8035 58.8138 58.8035 59.4304C58.8035 60.047 59.004 60.3554 59.4052 60.3554C59.8063 60.0471 60.0069 59.7387 60.0069 59.4304C60.2075 58.8138 60.6086 58.5055 61.2103 58.5055V53.8809C61.6115 53.8809 62.1129 54.6517 62.7146 56.1932C62.9152 55.8849 63.216 55.7307 63.6172 55.7307C64.62 55.7307 65.1214 56.8098 65.1214 58.968C65.1214 61.1261 64.62 62.2052 63.6172 62.2052H62.7146ZM100.923 88.5656C100.723 88.2573 100.422 88.1031 100.021 88.1031C100.021 89.0281 100.221 89.7988 100.622 90.4154C101.425 91.032 102.026 91.3403 102.427 91.3403C102.227 90.1071 101.725 89.1822 100.923 88.5656ZM78.6599 52.956C78.2588 52.3393 78.0582 51.5686 78.0582 50.6437H80.1642L80.7659 52.956V52.031C80.9664 51.7227 81.0667 51.2603 81.0667 50.6437V48.7938C80.8662 49.1021 80.6656 49.2563 80.465 49.2563H80.1642C79.5625 49.2563 79.1613 48.9479 78.9607 48.3313C78.9607 47.7147 78.6599 47.4064 78.0582 47.4064C78.2587 48.023 78.359 48.6396 78.359 49.2563C78.359 50.1812 77.9579 50.6437 77.1556 50.6437C76.5539 50.3354 76.1528 50.4895 75.9522 51.1061C76.3533 51.7227 77.2559 52.3393 78.6599 52.956ZM85.5796 47.4064C86.1813 47.4064 86.4821 46.7898 86.4821 45.5566C86.081 45.5566 85.7801 45.7107 85.5796 46.019H84.677C84.2759 46.019 83.8747 45.5566 83.4736 44.6316C83.0724 43.7067 82.7716 43.2443 82.571 43.2443V43.7067C82.571 43.3984 82.7716 44.3233 83.1727 46.4815C83.1727 47.0981 82.9722 47.4064 82.571 47.4064C82.3704 47.4064 82.2701 47.7147 82.2701 48.3313L82.8719 49.2563C83.0724 49.5646 83.1727 49.8729 83.1727 50.1812L83.7744 51.1061L85.2787 49.7187C85.2787 49.1021 84.8776 48.9479 84.0753 49.2563C83.4736 49.5646 83.1727 49.2563 83.1727 48.3313C83.1727 47.7147 83.3733 47.4064 83.7744 47.4064H85.5796ZM104.533 61.7428C104.533 62.976 104.333 63.5926 103.932 63.5926C103.531 63.5926 103.33 63.9009 103.33 64.5175C103.33 66.0591 103.531 66.8298 103.932 66.8298C104.333 66.8298 104.533 67.1381 104.533 67.7548C104.533 69.2963 103.932 70.992 102.728 72.8419V70.5295C102.728 68.6797 102.829 66.8298 103.029 64.98C103.23 62.8218 103.731 61.7428 104.533 61.7428ZM73.8462 81.6287C73.0439 81.6287 72.6428 81.1662 72.6428 80.2413C72.6428 79.6246 72.7431 78.8539 72.9437 77.929C73.1442 77.004 73.3448 76.5415 73.5454 76.5415C73.7459 76.5415 73.8462 77.004 73.8462 77.929V81.6287ZM84.3761 76.5415C83.5739 77.4665 83.1727 78.0831 83.1727 78.3914C83.1727 78.6997 83.5739 79.1622 84.3761 79.7788V76.5415ZM74.1471 42.3193L74.4479 44.1692C74.8491 44.1692 75.0497 44.4775 75.0497 45.0941C75.0497 45.4024 75.2502 45.5566 75.6514 45.5566L75.9522 42.3193H74.1471ZM91.5966 99.2022V102.439H92.8001V99.2022H91.5966ZM69.6342 81.6287C70.6371 81.3203 71.3391 80.2413 71.7402 78.3914C70.3362 78.3914 69.6342 79.4705 69.6342 81.6287ZM55.7949 63.5926H56.9983C57.6001 63.5926 57.9009 63.2843 57.9009 62.6677C57.9009 62.3594 57.8006 62.2052 57.6001 62.2052C56.9984 62.2052 56.3966 62.0511 55.7949 61.7428V63.5926ZM80.1642 52.956C80.0839 53.0793 79.9877 53.1779 79.8754 53.2519C79.9075 53.0546 80.0037 52.956 80.1642 52.956ZM79.8754 53.2519C79.8673 53.3013 79.8633 53.3568 79.8633 53.4184H79.5625H79.2616C79.5023 53.4184 79.7069 53.3629 79.8754 53.2519Z" fill="#F4C256"/>
</svg>
