<svg width="144" height="144" viewBox="0 0 144 144" fill="none" xmlns="http://www.w3.org/2000/svg">
<path fill-rule="evenodd" clip-rule="evenodd" d="M43.6445 12.1088C44.1687 11.7548 44.4308 11.4008 44.4308 11.0469C44.2561 11.0469 43.994 11.2239 43.6445 11.5778C43.1203 11.9318 42.8582 12.1972 42.8582 12.3742C43.2077 12.3742 43.4698 12.2857 43.6445 12.1088ZM48.8867 16.8872L49.673 16.0908H50.1973C50.2098 16.1035 50.2223 16.1157 50.2349 16.1275L51.3433 16.1999C51.453 16.1121 51.5078 15.9872 51.5078 15.8253C51.5078 15.9641 51.5735 16.0969 51.7048 16.2236L60.1574 16.7759V15.5599C60.1574 15.3829 60.9438 15.0289 62.5164 14.498C63.9143 14.144 65.3123 13.967 66.7102 13.967C68.4576 13.967 69.3313 14.4095 69.3313 15.2944C69.3313 15.9019 69.0096 16.5745 68.3663 17.3123L72.6614 17.5929C72.5124 17.6795 72.3635 17.7982 72.2145 17.9491C72.1848 17.9942 72.1545 18.0387 72.1235 18.0825H58.5965C56.3312 18.0814 54.1062 18.5095 52.032 19.3249V18.48H54.6531V17.224C54.5665 17.2008 54.4791 17.177 54.391 17.1527C53.5271 16.9936 52.8573 16.8166 52.3817 16.6218L51.2457 16.3563C50.8962 17.0642 50.5467 17.6836 50.1973 18.2146C49.673 18.7455 48.9741 19.188 48.1004 19.5419C48.2751 18.657 48.6246 18.1261 49.1488 17.9491C49.4983 17.7721 49.8478 17.5066 50.1973 17.1527C50.1973 16.7987 50.0225 16.6217 49.673 16.6217C49.3236 16.6217 49.1488 16.7987 49.1488 17.1527C48.9741 17.5066 48.6246 17.6836 48.1004 17.6836L48.8867 16.8872ZM49.8843 20.3383C50.5779 19.9529 51.2954 19.6145 52.032 19.3249V20.3383C52.2068 20.3383 52.3815 20.2498 52.5562 20.0729H52.8184C53.3426 20.0729 53.6921 20.2498 53.8668 20.6038C53.8668 21.1347 54.1289 21.4002 54.6531 21.4002V19.2764C54.6531 18.7455 54.8279 18.48 55.1774 18.48C55.5268 18.48 55.7016 18.657 55.7016 19.011C55.5268 19.5419 55.5268 19.9844 55.7016 20.3383H57.5363V19.8074C57.5363 19.6304 57.449 19.5419 57.2742 19.5419C57.2742 18.657 57.6237 18.3031 58.3227 18.48C59.0216 18.657 59.5458 18.5685 59.8953 18.2146L64.3512 19.2764C64.3512 19.6304 64.4386 19.8959 64.6133 20.0729C64.788 20.2498 64.8754 20.5153 64.8754 20.8693C64.8754 20.6923 64.4386 20.9578 63.5649 21.6657C62.6912 22.5506 61.9922 23.347 61.468 24.0549H58.3227C58.3227 24.7628 58.4974 25.0283 58.8469 24.8513C59.1964 24.8513 59.3711 25.0283 59.3711 25.3823C59.1964 25.5592 58.8469 25.6477 58.3227 25.6477C57.6237 25.8247 57.2742 26.1787 57.2742 26.7096C57.2742 27.2405 57.449 27.5945 57.7984 27.7715C58.1479 27.9485 58.3227 28.3024 58.3227 28.8334C57.6237 28.8334 57.0995 28.6564 56.75 28.3024C56.4005 27.9485 56.051 27.7715 55.7016 27.7715L55.1774 28.8334C54.8279 29.3643 54.6531 29.8952 54.6531 30.4262V31.4881C55.3521 31.4881 56.051 31.2226 56.75 30.6916C57.449 30.1607 58.1479 29.5413 58.8469 28.8334L61.2059 26.4441C61.2059 26.0902 61.0311 25.9132 60.6816 25.9132C60.3322 25.9132 60.1574 25.7362 60.1574 25.3823C60.5069 25.3823 61.0311 25.1168 61.7301 24.5858C62.2543 24.2319 62.6912 24.0549 63.0406 24.0549C63.0406 24.7628 62.9533 25.2053 62.7785 25.3823L62.2543 25.9132C63.128 25.9132 64.4386 25.1168 66.186 23.524C67.9334 21.9311 68.9818 21.1347 69.3313 21.1347C69.3313 20.9577 69.4187 20.7808 69.5934 20.6038V20.3383C69.5934 19.9844 69.4186 19.6304 69.0692 19.2764H69.5934H69.8555C69.8555 19.4534 69.9429 19.5419 70.1176 19.5419C70.4671 19.5419 70.7292 19.4534 70.9039 19.2764C71.3836 18.9526 71.7902 18.5546 72.1235 18.0825H85.4045C89.7721 18.0818 93.9895 19.6765 97.2641 22.5667C100.539 25.4571 102.645 29.4443 103.187 33.7787L104.858 47.1468L114.507 105.053C114.936 107.62 114.799 110.25 114.108 112.759C113.417 115.268 112.188 117.597 110.505 119.582C108.823 121.568 106.728 123.164 104.367 124.258C102.006 125.352 99.4337 125.919 96.8314 125.919H47.1641C44.5617 125.919 41.9905 125.352 39.6293 124.258C37.2679 123.164 35.1732 121.568 33.4909 119.582C31.8086 117.597 30.5792 115.268 29.888 112.759C29.1968 110.25 29.0606 107.62 29.4887 105.053L39.143 47.1478L40.8082 33.7787C40.8951 33.0828 41.0224 32.3959 41.1884 31.721C41.57 31.5657 42.0392 31.4881 42.5961 31.4881H43.6445C43.6445 30.0722 43.994 29.4528 44.6929 29.6298C45.3919 29.8068 45.7414 29.4528 45.7414 28.5679C45.7414 27.506 45.4793 26.9751 44.9551 26.9751C44.4308 28.7449 43.8192 29.6298 43.1203 29.6298C42.7708 29.6298 42.5961 29.4528 42.5961 29.0988C43.1203 28.7449 43.4698 28.2139 43.6445 27.506C43.8192 26.9751 44.0814 26.4441 44.4308 25.9132C44.2253 25.9132 43.8688 26.1273 43.3612 26.5557C44.2773 25.0788 45.4104 23.7317 46.7343 22.5637C47.4863 21.9003 48.2881 21.3052 49.1299 20.782C49.0275 21.9215 48.5096 22.57 47.5762 22.7275C46.353 23.0815 45.654 23.8779 45.4793 25.1168C46.5277 25.1168 47.314 25.0283 47.8383 24.8513C48.1877 24.6743 48.6246 24.4089 49.1488 24.0549C49.1488 24.7628 48.9741 25.0283 48.6246 24.8513C48.2751 24.8513 48.1004 25.0283 48.1004 25.3823C48.2751 25.3823 48.6246 25.2938 49.1488 25.1168C49.4983 24.9398 49.8478 24.8513 50.1973 24.8513C50.5467 24.8513 50.8088 24.9398 50.9836 25.1168C50.9836 24.2319 50.8088 23.7009 50.4594 23.524C49.9352 23.347 49.4983 23.0815 49.1488 22.7275C49.4983 22.1966 49.9352 21.8427 50.4594 21.6657C50.8088 21.4887 50.9836 21.0462 50.9836 20.3383H49.8843ZM49.8843 20.3383C49.6295 20.4799 49.378 20.6278 49.1299 20.782C49.1425 20.6416 49.1488 20.4937 49.1488 20.3383H49.8843ZM43.3612 26.5557C43.0056 26.8558 42.5758 27.2611 42.0718 27.7715C40.6739 29.0103 39.975 29.8067 39.975 30.1607V31.4881C39.975 32.019 39.8002 32.373 39.4507 32.5499L39.975 33.3464C40.0878 32.5462 40.4923 32.0044 41.1884 31.721C41.6387 29.8899 42.3739 28.1474 43.3612 26.5557ZM72.6614 17.5929C72.8619 17.4764 73.0624 17.4182 73.2629 17.4182C73.6124 17.4182 73.8745 17.5066 74.0493 17.6836L72.6614 17.5929ZM41.8097 47.9472C41.8097 47.5932 41.635 47.4163 41.2855 47.4163H39.4507C40.1497 47.0623 40.6739 46.5314 41.0234 45.8234C41.1981 45.2925 41.7224 44.85 42.5961 44.4961C42.5961 45.204 42.334 45.558 41.8097 45.558C41.8097 46.0889 41.9845 46.3544 42.3339 46.3544C42.6834 46.5314 42.8582 46.8853 42.8582 47.4163V47.9472C42.8582 48.3012 42.5961 48.4781 42.0718 48.4781C41.7224 48.4781 41.635 48.3012 41.8097 47.9472ZM39.975 50.0709C39.4507 50.2479 39.0139 50.3364 38.6644 50.3364L38.9265 49.2746H39.975C40.3244 49.2746 40.5866 49.363 40.7613 49.54C40.7613 49.894 40.4992 50.0709 39.975 50.0709ZM46.2656 61.4862C46.7898 61.4862 47.1393 61.3092 47.314 60.9552C47.314 60.6013 47.4888 60.4243 47.8383 60.4243C47.8383 60.6013 47.7509 60.7782 47.5762 60.9552V61.4862C47.4014 61.6632 47.314 61.8401 47.314 62.0171C47.4888 62.1941 47.7509 62.3711 48.1004 62.5481C48.2638 62.6308 48.4082 62.7136 48.5334 62.7964L47.443 69.3362C47.0076 70.4463 46.7898 71.2807 46.7898 71.8395C46.8498 71.9002 46.92 71.9505 47.0005 71.9904L46.7499 73.4934C46.427 73.4596 46.2656 73.2622 46.2656 72.9014C46.2656 72.5474 46.353 72.2819 46.5277 72.105V71.3086C46.5277 70.9546 46.353 70.7776 46.0035 70.7776C46.0035 71.1316 45.9161 71.4855 45.7414 71.8395V72.6359C45.5667 72.8129 45.4793 73.0784 45.4793 73.4323C45.3045 73.2553 45.0424 73.1668 44.6929 73.1668C44.1687 73.1668 43.7319 73.4323 43.3824 73.9633C43.0329 74.4942 42.8582 75.0251 42.8582 75.5561C42.8582 76.264 43.0329 76.618 43.3824 76.618C43.7319 76.618 44.1687 76.1755 44.6929 75.2906C45.2172 74.5827 45.654 74.2287 46.0035 74.2287H46.6273L41.1635 107C41.0182 107.871 41.0644 108.764 41.299 109.616C41.5336 110.467 41.951 111.258 42.522 111.932C43.093 112.606 43.804 113.147 44.6056 113.519C45.4071 113.89 46.28 114.083 47.1634 114.082H50.9836V115.377C50.9836 116.084 51.3331 116.438 52.032 116.438V115.908C51.8573 115.908 51.7699 115.819 51.7699 115.642C51.7699 115.288 51.8573 115.023 52.032 114.846V114.082H57.2414L55.9637 115.377C55.7889 115.377 55.7016 115.111 55.7016 114.58C55.1773 114.58 54.9152 114.669 54.9152 114.846C54.7405 115.023 54.4784 115.2 54.1289 115.377C53.7794 115.377 53.6047 115.2 53.6047 114.846C53.6047 114.669 53.4299 114.58 53.0805 114.58L53.8668 115.908C53.8668 116.084 53.6921 116.35 53.3426 116.704C52.8184 117.235 52.2941 117.5 51.7699 117.5C51.5952 117.5 51.5078 117.412 51.5078 117.235H50.9836C50.9836 117.589 50.8088 117.943 50.4594 118.297C50.1099 118.828 49.7604 119.093 49.4109 119.093H48.3625L47.8383 119.624C47.4888 119.978 47.314 120.421 47.314 120.951H46.2656V117.5C46.2656 117.323 45.9161 117.589 45.2172 118.297C44.5182 119.182 43.8192 119.801 43.1203 120.155C42.9455 120.155 42.8582 120.067 42.8582 119.89H42.3339C41.8097 119.89 41.5476 120.155 41.5476 120.686C41.3729 121.217 41.0234 121.659 40.4992 122.013C40.3244 122.013 40.1497 121.925 39.975 121.748H39.4507C39.276 121.748 39.1013 122.456 38.9265 123.872H44.4308C45.654 122.81 46.2656 121.836 46.2656 120.951V122.279C46.2656 122.633 46.1782 122.81 46.0035 122.81C45.654 122.81 45.4793 122.987 45.4793 123.341C45.4793 123.695 45.654 123.872 46.0035 123.872C47.9256 123.872 49.3236 123.518 50.1973 122.81C50.8962 122.102 51.9447 121.748 53.3426 121.748H54.1289C54.1289 121.925 54.3036 122.013 54.6531 122.013C54.6531 120.951 55.0026 120.244 55.7016 119.89C56.2258 119.536 56.4879 119.093 56.4879 118.562V117.235C56.4879 116.704 56.6626 116.438 57.0121 116.438H59.3711C59.3711 115.908 59.5458 115.554 59.8953 115.377C60.2448 115.2 60.4195 114.846 60.4195 114.315C60.4195 114.233 60.4148 114.155 60.4054 114.082H65.7794C65.7303 114.236 65.6911 114.402 65.6617 114.58C66.0003 114.374 66.2864 114.209 66.52 114.082H67.8504C68.0426 114.209 68.2741 114.374 68.545 114.58C68.5726 114.412 68.6068 114.246 68.6476 114.082H74.022C73.9604 114.672 73.7948 115.103 73.525 115.377L72.4766 116.438H71.1661C71.3408 116.615 71.4282 116.881 71.4282 117.235C71.4282 117.589 71.2534 117.854 70.9039 118.031C70.5545 118.208 70.3797 118.562 70.3797 119.093C70.3797 118.916 70.4671 119.182 70.6418 119.89C70.8166 120.597 71.3408 120.951 72.2145 120.951V118.297C72.564 118.297 73.0882 118.12 73.7872 117.766C73.7872 117.943 74.0493 118.031 74.5735 118.031C75.0977 118.031 75.3598 117.766 75.3598 117.235C75.3598 117.058 75.1851 116.792 74.8356 116.438C75.0103 116.261 75.3598 116.173 75.884 116.173H76.4082C76.4082 116.35 76.4956 116.438 76.6704 116.438C76.6704 115.908 76.7577 115.642 76.9325 115.642C77.1072 115.642 77.3693 115.465 77.7188 115.111C77.7188 116.527 78.0683 117.235 78.7672 117.235C79.8157 117.235 80.3399 116.615 80.3399 115.377C80.3399 114.709 80.2623 114.278 80.1071 114.082H88.1631H95.0181V114.58H97.1149C97.2043 114.399 97.3051 114.224 97.4174 114.054C97.6299 114.034 97.8411 114.002 98.0499 113.96C98.5111 113.865 98.9612 113.718 99.3906 113.519C100.005 113.234 100.565 112.85 101.051 112.383C101.071 112.786 101.156 112.987 101.309 112.987C101.309 113.138 101.372 112.776 101.498 111.903C102.034 111.263 102.431 110.521 102.667 109.721C102.949 109.598 103.282 109.536 103.668 109.536H104.192C104.192 109.713 104.279 109.802 104.454 109.802C104.454 108.563 104.629 107.943 104.978 107.943C105.328 108.12 105.765 108.032 106.289 107.678C106.289 107.147 106.114 106.882 105.765 106.882C105.415 107.059 105.24 106.97 105.24 106.616C105.24 106.262 105.502 105.908 106.027 105.554C106.551 105.2 106.9 104.758 107.075 104.227C106.201 104.227 105.59 104.404 105.24 104.758C104.891 105.112 104.367 105.289 103.668 105.289C103.493 105.289 103.406 105.2 103.406 105.023H102.619C102.619 105.242 102.614 105.441 102.603 105.621L100.305 91.8304L97.9013 77.4071V76.3525H100.784C100.61 75.6446 100.348 75.2021 99.9981 75.0251C99.4739 74.8482 99.1244 74.4942 98.9497 73.9633C99.2992 73.7863 99.5613 73.5208 99.736 73.1668C99.736 72.8129 99.9981 72.6359 100.522 72.6359C100.872 72.6359 101.047 72.9014 101.047 73.4323C100.872 74.1402 100.959 74.4942 101.309 74.4942C101.483 74.3172 101.571 74.0517 101.571 73.6978V72.9014C101.396 72.7244 101.309 72.4589 101.309 72.105C101.309 71.751 101.483 71.574 101.833 71.574H103.143C103.493 71.574 103.668 71.397 103.668 71.0431V70.2467C103.493 70.0697 103.406 69.8927 103.406 69.7157C103.58 69.5388 103.842 69.4503 104.192 69.4503C104.541 69.6272 104.716 69.5388 104.716 69.1848C104.716 68.8308 104.541 68.5654 104.192 68.3884C103.668 68.2114 103.406 68.0344 103.406 67.8575C103.231 67.8575 103.056 67.9459 102.881 68.1229C102.707 68.4769 102.445 68.7424 102.095 68.9193C101.92 68.9193 101.746 68.8308 101.571 68.6539H101.047V69.1848V69.4503C100.872 69.4503 100.784 69.5388 100.784 69.7157H99.736V71.3086C99.736 71.6625 99.4739 71.8395 98.9497 71.8395C98.2507 72.0165 97.9013 72.4589 97.9013 73.1668V75.0251C97.9013 75.4865 97.827 75.8351 97.6786 76.071L97.1149 72.6884V72.6359H97.1062L94.2877 55.7225C94.6557 55.4251 95.0738 55.1341 95.5423 54.8494H97.9013C97.7265 54.4955 97.6392 54.23 97.6392 54.053C97.4644 53.876 97.377 53.6105 97.377 53.2566C97.377 53.4336 97.5518 52.9911 97.9013 51.9292C96.8528 51.9292 95.8918 52.1947 95.0181 52.7257C94.2517 53.1914 93.8214 53.589 93.7273 53.9185H86.8926V53.2566C86.8926 52.5487 87.0674 52.1062 87.4169 51.9292C87.7663 52.1062 88.1158 52.1947 88.4653 52.1947C88.64 52.1947 88.7274 52.3717 88.7274 52.7257C89.0769 52.7257 89.339 52.6372 89.5137 52.4602H90.038C90.3874 52.4602 90.8243 52.6372 91.3485 52.9911C91.5233 52.8142 91.6106 52.6372 91.6106 52.4602V52.1947C91.6106 50.2479 90.6496 49.2746 88.7274 49.2746C88.7274 49.6285 88.9022 49.8055 89.2516 49.8055C89.6011 49.9825 89.7759 50.2479 89.7759 50.6019C89.7759 50.9558 89.6011 51.1328 89.2516 51.1328L88.2032 50.0709C87.8537 49.717 87.679 49.0976 87.679 48.2127H91.3485C91.3485 48.5666 91.698 49.0976 92.397 49.8055C92.9212 50.6904 93.0959 51.3098 92.9212 51.6638C93.2707 51.6638 93.4454 51.3983 93.4454 50.8674V49.8055C93.2707 49.4515 93.1833 49.0976 93.1833 48.7436C93.1833 48.2127 93.358 47.7702 93.7075 47.4163C94.5812 47.4163 95.0181 47.5932 95.0181 47.9472C95.0181 48.3012 94.9307 48.4781 94.7559 48.4781C94.4065 48.4781 94.2317 48.6551 94.2317 49.0091C94.9307 48.8321 95.717 48.4781 96.5907 47.9472C97.2897 47.5932 97.7265 47.0623 97.9013 46.3544C97.377 46.3544 97.0276 46.5313 96.8528 46.8853C96.6781 47.2393 96.0665 47.4163 95.0181 47.4163C95.0181 46.5314 94.4065 45.9119 93.1833 45.558V46.6199C93.1833 46.9738 93.0959 47.2393 92.9212 47.4163C92.397 46.7083 91.9601 46.3544 91.6106 46.3544C91.2611 46.3544 90.999 46.5313 90.8243 46.8853C90.4748 47.2393 90.2127 47.4163 90.038 47.4163C89.6885 47.4163 89.4264 47.1508 89.2516 46.6199C89.0769 46.2659 88.8148 46.0889 88.4653 46.0889C88.1158 46.0889 87.8537 46.1774 87.679 46.3544C87.679 46.5314 87.7663 46.7083 87.9411 46.8853V47.6817C87.9411 48.0357 87.7663 48.2127 87.4169 48.2127C87.0674 48.2127 86.8926 48.7436 86.8926 49.8055V51.9292C86.1937 51.9292 85.9316 52.1062 86.1063 52.4602C86.1063 52.8141 85.9316 52.9911 85.5821 52.9911C85.2326 52.9911 85.0579 52.8141 85.0579 52.4602C85.0579 52.1062 85.2326 51.9292 85.5821 51.9292C85.9316 52.1062 86.1063 52.0177 86.1063 51.6638C86.1063 51.4868 85.9316 51.3983 85.5821 51.3983C85.2326 51.3983 84.7958 51.4868 84.2715 51.6638C83.7473 51.8408 83.3978 51.9292 83.2231 51.9292H82.1747C82.1747 52.8141 82.5241 53.0796 83.2231 52.7257C83.7473 52.5487 84.0094 52.8141 84.0094 53.5221C83.6396 53.5221 83.4002 53.6542 83.2913 53.9185H60.0247C59.9373 53.8312 59.8068 53.7875 59.6332 53.7875C59.2837 53.9645 59.109 53.876 59.109 53.5221C59.109 52.9911 59.5458 52.7257 60.4195 52.7257C60.9438 52.7257 61.3806 52.8142 61.7301 52.9911C62.0796 53.3451 62.5164 53.6105 63.0406 53.7875L62.2543 52.4602C62.2543 52.2832 62.5164 51.8408 63.0406 51.1328C62.3417 51.1328 62.0796 51.3098 62.2543 51.6638C62.2543 52.0177 62.0796 52.1947 61.7301 52.1947C61.5554 52.1947 61.3806 51.4868 61.2059 50.0709H61.7301C61.9048 50.2479 62.1669 50.3364 62.5164 50.3364C62.8659 50.3364 63.3027 50.2479 63.827 50.0709H65.1375C65.6617 50.0709 65.9238 50.2479 65.9238 50.6019C65.7491 50.9558 65.9239 51.1328 66.4481 51.1328L65.9238 50.0709C65.7491 49.717 65.6617 49.363 65.6617 49.0091C65.6617 48.6551 65.8365 48.3896 66.186 48.2127L66.7102 47.9472C66.7102 47.5932 66.3607 47.4163 65.6617 47.4163C65.487 48.4781 64.8754 49.0976 63.827 49.2746C63.827 48.7436 64.0891 48.3896 64.6133 48.2127C64.9628 48.0357 65.1375 47.5932 65.1375 46.8853C64.788 46.5313 64.5259 46.3544 64.3512 46.3544C63.827 46.3544 63.4775 46.7083 63.3027 47.4163C63.128 48.3011 62.8659 48.9206 62.5164 49.2746C62.1669 49.2746 61.9922 49.0976 61.9922 48.7436C61.9922 48.3896 61.8175 48.2127 61.468 48.2127C61.2932 48.2127 60.5943 48.9206 59.3711 50.3364C57.9732 51.7523 57.1869 52.6372 57.0121 52.9911C56.4879 52.6372 56.1384 52.1947 55.9637 51.6638C55.7889 51.3098 55.3521 51.1328 54.6531 51.1328C54.6531 52.0177 55.0026 52.4602 55.7016 52.4602C56.2258 52.4602 56.4879 52.9026 56.4879 53.7875H56.2258C56.1754 53.8385 56.125 53.8822 56.0747 53.9185H55.2403C55.1104 53.83 55.002 53.6979 54.9152 53.5221C54.7405 53.1681 54.391 52.9911 53.8668 52.9911C53.8668 53.4109 53.7576 53.72 53.5392 53.9185H51.7602C51.7192 53.6542 51.5477 53.5221 51.2457 53.5221C51.1389 53.5221 50.7712 53.6542 50.1425 53.9185H50.0135L50.0038 53.9772C49.6274 54.1372 49.1677 54.3395 48.6246 54.5839C47.0519 55.4688 46.2656 56.6192 46.2656 58.0351C46.2656 58.389 46.4403 58.566 46.7898 58.566C47.1393 58.566 47.314 59.0085 47.314 59.8933C47.314 60.2473 47.1393 60.4243 46.7898 60.4243C46.4403 60.4243 46.2656 60.7783 46.2656 61.4862ZM50.0038 53.9772L48.9172 60.4941L48.5334 62.7964C48.6759 62.8906 48.7937 62.9848 48.8867 63.079C49.0614 63.256 49.2362 63.3445 49.4109 63.3445C50.1099 63.3445 50.4594 62.9905 50.4594 62.2826C50.4594 61.3977 50.2846 60.8667 49.9351 60.6898C49.5857 60.5128 49.4109 60.3358 49.4109 60.1588C49.5857 59.9818 49.9352 60.1588 50.4594 60.6898C50.9836 61.2207 51.5078 61.4862 52.032 61.4862C52.032 60.6013 51.6825 59.8049 50.9836 59.0969C50.9836 58.92 51.071 58.743 51.2457 58.566V58.0351C51.2457 57.6811 51.071 57.5041 50.7215 57.5041C50.372 57.5041 50.1973 57.2387 50.1973 56.7077H54.6531V57.7696C54.6531 58.3005 54.8279 58.566 55.1774 58.566C55.5268 58.566 55.7016 58.3005 55.7016 57.7696C55.7016 56.8847 55.6142 56.2653 55.4395 55.9113C55.2647 55.5573 55.0026 55.2034 54.6531 54.8494C55.3521 54.8494 55.7016 55.0264 55.7016 55.3804C55.5268 55.7343 55.6142 55.9113 55.9637 55.9113C56.3132 55.7343 56.4879 55.2919 56.4879 54.5839C56.384 54.2683 56.4345 54.0465 56.6393 53.9185H57.5131C57.5286 53.9555 57.5363 54.0004 57.5363 54.053V54.5839C57.5363 54.9379 57.449 55.2919 57.2742 55.6458C57.0995 55.9998 56.8374 56.6192 56.4879 57.5041C57.1869 57.5041 57.5363 57.2387 57.5363 56.7077H59.109C59.2837 56.7077 59.5458 56.5307 59.8953 56.1768C60.0701 55.8228 60.1574 55.5573 60.1574 55.3804V54.3185C60.1574 54.1403 60.1132 54.007 60.0247 53.9185H57.5131C57.4766 53.8312 57.397 53.7875 57.2742 53.7875C56.9907 53.7875 56.7791 53.8312 56.6393 53.9185H56.0747C55.9503 54.0082 55.8259 54.053 55.7016 54.053C55.5257 54.053 55.3719 54.0082 55.2403 53.9185H53.5392C53.4813 53.9711 53.4158 54.0159 53.3426 54.053C52.9931 54.23 52.6436 54.4955 52.2941 54.8494C51.9447 54.6724 51.7699 54.407 51.7699 54.053C51.7699 54.0049 51.7667 53.9601 51.7602 53.9185H50.1425C50.0976 53.9374 50.0513 53.957 50.0038 53.9772ZM83.2913 53.9185C83.2458 54.0288 83.2231 54.1621 83.2231 54.3185C83.2231 55.0264 83.0484 55.4688 82.6989 55.6458C82.3494 55.6458 82.1747 55.4688 82.1747 55.1149C82.1747 54.7609 81.9999 54.5839 81.6504 54.5839C81.1262 54.5839 80.7767 54.7609 80.602 55.1149C80.4273 55.6458 80.0778 55.9113 79.5536 55.9113C79.3788 55.9113 79.2915 55.8228 79.2915 55.6458H78.5051V57.5041C79.0294 57.5041 79.3788 57.3271 79.5536 56.9732C79.5536 56.6192 79.7283 56.4422 80.0778 56.4422C80.2525 56.4422 80.3399 56.5307 80.3399 56.7077V57.2386C79.9904 57.5926 79.7283 58.0351 79.5536 58.566C79.2041 59.2739 78.8546 59.8933 78.5051 60.4243C79.7283 59.7164 81.0389 58.8315 82.4368 57.7696C83.66 56.8847 84.5337 56.4422 85.0579 56.4422C85.4074 56.4422 85.6695 56.5307 85.8442 56.7077L86.6305 55.9113C86.8053 55.7343 86.8926 55.4688 86.8926 55.1149V53.9185H83.2913ZM94.1425 54.8511C94.1 54.7467 94.0424 54.6576 93.9696 54.5839C93.7949 54.407 93.7075 54.23 93.7075 54.053C93.7075 54.0095 93.7141 53.9647 93.7273 53.9185H93.9871L94.1425 54.8511ZM94.1425 54.8511C94.202 54.9974 94.2317 55.1738 94.2317 55.3804C94.2314 55.3804 94.231 55.3804 94.2307 55.3804L94.1425 54.8511ZM94.2307 55.3804L94.2877 55.7225C93.283 56.5344 92.6528 57.3938 92.397 58.3005C91.8727 59.7164 90.9117 60.4243 89.5137 60.4243V58.566C90.9117 58.389 91.6106 58.212 91.6106 58.0351C91.6106 57.6811 91.2611 57.5041 90.5622 57.5041C89.8632 57.6811 89.5137 57.5041 89.5137 56.9732C89.5137 56.6192 89.8632 56.4422 90.5622 56.4422C91.0864 56.4422 91.5233 56.7962 91.8727 57.5041L93.1833 56.1768C93.5324 55.6464 93.8815 55.3809 94.2307 55.3804ZM97.1062 72.6359H96.0665V74.4942H97.1149V72.6884L97.1062 72.6359ZM97.6786 76.071C97.5993 76.197 97.4988 76.2908 97.377 76.3525L96.5907 75.5561C96.416 75.3791 96.0665 75.2906 95.5423 75.2906C95.3675 75.2906 95.2802 75.4676 95.2802 75.8215V76.8834C95.2802 77.4144 95.1928 78.1223 95.0181 79.0072C94.4938 79.0072 94.2317 79.1842 94.2317 79.5381C94.2317 79.8921 94.4938 80.0691 95.0181 80.0691C95.5423 80.0691 95.8918 79.8921 96.0665 79.5381C96.2412 79.1842 96.5907 79.0072 97.1149 79.0072C97.1149 79.7151 97.377 80.0691 97.9013 80.0691V77.4071L97.6786 76.071ZM102.603 105.621C102.552 106.461 102.383 106.882 102.095 106.882C101.92 106.882 101.746 106.793 101.571 106.616C101.396 106.439 101.134 106.262 100.784 106.085C100.784 107.324 100.522 108.032 99.9981 108.209C99.2992 108.386 98.775 108.917 98.4255 109.802C98.076 109.802 97.9013 109.625 97.9013 109.271C97.9013 109.094 97.7265 109.005 97.377 109.005C97.2023 109.005 96.7655 109.625 96.0665 110.864C95.3675 112.279 95.0181 113.164 95.0181 113.518V114.082H96.8321C97.0279 114.083 97.2232 114.073 97.4174 114.054C97.744 113.561 98.1674 113.117 98.6876 112.722C99.3866 112.368 99.9108 112.014 100.26 111.66C100.61 111.66 100.872 111.837 101.047 112.191C101.047 112.259 101.048 112.323 101.051 112.383C101.199 112.24 101.341 112.09 101.474 111.932C101.482 111.922 101.49 111.913 101.498 111.903C101.52 111.75 101.545 111.58 101.571 111.395C101.69 110.546 102.056 109.988 102.667 109.721C102.677 109.686 102.687 109.651 102.697 109.616C102.932 108.764 102.978 107.871 102.833 107L102.603 105.621ZM80.1071 114.082C80.0977 114.071 80.0879 114.059 80.0778 114.049C80.4273 113.518 80.7767 112.899 81.1262 112.191C81.301 111.483 81.5631 111.041 81.9126 110.864C82.262 110.864 82.4368 110.952 82.4368 111.129C82.4368 111.483 82.6115 111.66 82.961 111.66C83.3105 111.66 83.4852 111.483 83.4852 111.129C83.3105 110.775 83.3979 110.598 83.7473 110.598H84.5337C84.7084 110.775 84.8831 110.864 85.0579 110.864C85.0579 109.448 85.4947 108.474 86.3684 107.943C87.2421 107.412 87.679 106.616 87.679 105.554C87.3295 105.731 87.0674 105.82 86.8926 105.82C86.7179 105.82 86.5432 105.908 86.3684 106.085C86.0189 106.085 85.8442 105.908 85.8442 105.554C85.8442 105.2 85.5821 105.023 85.0579 105.023V106.085C85.0579 106.262 84.7084 106.616 84.0094 107.147C83.1357 107.855 82.5241 108.209 82.1747 108.209C81.9999 108.209 81.9126 108.12 81.9126 107.943H81.3883C81.3883 108.828 80.8641 109.625 79.8157 110.333C78.5925 111.218 77.7188 112.279 77.1946 113.518C76.8451 113.518 76.6704 113.341 76.6704 112.987C76.6704 112.81 76.4956 112.722 76.1461 112.722C75.7967 112.722 75.6219 112.81 75.6219 112.987C75.6219 113.341 75.5345 113.518 75.3598 113.518H74.0493C74.0493 113.72 74.0402 113.908 74.022 114.082H80.1071ZM68.6476 114.082C68.8646 113.212 69.2672 112.405 69.8555 111.66H70.6418C70.6418 111.837 70.7292 111.925 70.9039 111.925C71.2534 111.925 71.865 111.66 72.7387 111.129C73.4377 110.775 73.8745 110.333 74.0493 109.802C74.0493 109.271 74.224 109.005 74.5735 109.005C74.923 109.005 75.0977 109.094 75.0977 109.271C75.0977 109.625 75.2724 109.802 75.6219 109.802C76.1461 109.802 76.4956 109.536 76.6704 109.005C76.8451 108.474 76.9325 108.032 76.9325 107.678C76.9325 107.501 76.7577 107.147 76.4082 106.616C76.0588 106.262 75.7093 106.085 75.3598 106.085C75.0103 106.085 74.8356 106.262 74.8356 106.616C74.8356 106.97 75.0103 107.059 75.3598 106.882C75.7093 106.882 75.884 107.059 75.884 107.412C75.884 107.766 75.7093 107.943 75.3598 107.943C74.6609 107.943 74.224 107.766 74.0493 107.412C73.8745 107.059 73.525 106.882 73.0008 106.882C73.0008 107.766 72.7387 108.209 72.2145 108.209C71.5155 108.386 71.1661 108.917 71.1661 109.802C71.6903 109.802 72.0398 109.625 72.2145 109.271C72.2145 108.917 72.3892 108.74 72.7387 108.74L72.2145 109.802C71.865 110.51 71.5155 110.864 71.1661 110.864C70.6418 110.864 70.3797 110.687 70.3797 110.333C70.3797 109.979 70.0302 109.802 69.3313 109.802V111.66C68.6323 112.191 67.9334 112.545 67.2344 112.722C66.5075 112.869 66.0225 113.323 65.7794 114.082H66.52C66.8893 113.883 67.1274 113.784 67.2344 113.784C67.3414 113.784 67.5468 113.883 67.8504 114.082H68.6476ZM60.4054 114.082H57.2414L57.5363 113.784C58.2353 113.253 59.0216 112.633 59.8953 111.925L61.9922 110.333C62.6912 109.979 63.128 109.802 63.3027 109.802C63.6522 109.802 63.827 109.89 63.827 110.067C63.827 110.421 64.0017 110.687 64.3512 110.864C64.8754 110.864 65.0502 110.51 64.8754 109.802C64.7007 109.094 64.788 108.74 65.1375 108.74C65.6617 108.74 65.9238 109.094 65.9238 109.802C65.9238 109.979 65.5744 110.421 64.8754 111.129C65.0502 111.483 65.2249 111.66 65.3996 111.66C65.5744 111.837 65.6617 112.191 65.6617 112.722C65.3123 112.545 65.0502 112.368 64.8754 112.191C64.7007 112.014 64.4386 111.925 64.0891 111.925C63.7396 111.925 63.6522 112.191 63.827 112.722C64.0017 113.253 63.9143 113.518 63.5649 113.518C63.2154 113.518 63.0406 113.341 63.0406 112.987C63.0406 112.81 62.8659 112.722 62.5164 112.722L61.9922 113.253C61.8175 113.607 61.5554 113.784 61.2059 113.784C61.0311 113.784 60.9438 113.695 60.9438 113.518H60.1574C60.2916 113.654 60.3743 113.842 60.4054 114.082ZM52.032 114.082V114.049C52.032 113.695 51.8573 113.518 51.5078 113.518C51.1583 113.518 50.9836 113.695 50.9836 114.049V114.082H52.032ZM46.6273 74.2287H47.0519C47.2267 74.4057 47.4014 74.4942 47.5762 74.4942L48.1004 74.2287H48.3625V73.9633C48.3625 73.4323 48.013 73.2553 47.314 73.4323C47.0901 73.489 46.9021 73.5094 46.7499 73.4934L46.6273 74.2287ZM47.0005 71.9904C47.1547 72.0668 47.3466 72.105 47.5762 72.105C48.2751 72.105 48.7993 71.928 49.1488 71.574C49.3236 71.2201 49.4983 70.9546 49.673 70.7776C50.0225 70.7776 50.1973 70.8661 50.1973 71.0431C50.1973 71.397 50.372 71.574 50.7215 71.574L50.9836 70.7776C50.9836 69.7157 51.4204 68.6539 52.2941 67.592C52.9931 66.7071 53.5173 66.2646 53.8668 66.2646C53.8668 65.3797 53.6921 64.9373 53.3426 64.9373C53.1678 64.9373 52.731 65.7337 52.032 67.3265C51.1583 68.9193 50.6341 69.7157 50.4594 69.7157C50.2846 69.3618 50.1973 68.7424 50.1973 67.8575V66.2646C50.1973 66.0876 50.1099 65.9992 49.9351 65.9992H49.4109C48.8867 65.9992 48.3625 66.7956 47.8383 68.3884C47.758 68.5712 47.6824 68.7482 47.6114 68.9193H47.5762L47.565 69.0318C47.5226 69.1355 47.482 69.237 47.443 69.3362L47.0005 71.9904ZM74.8356 28.8334C74.8356 26.8866 75.5345 25.2053 76.9325 23.7894L77.9809 23.2585C77.6314 23.2585 77.2819 23.4355 76.9325 23.7894C76.4082 23.7894 76.0588 23.7009 75.884 23.524C75.5345 23.524 75.1851 23.4355 74.8356 23.2585C74.8356 23.7894 74.6609 24.0549 74.3114 24.0549H73.2629C72.9135 24.2319 72.8261 24.4089 73.0008 24.5858C73.0008 24.9398 72.8261 25.1168 72.4766 25.1168C72.3019 25.1168 72.2145 25.0283 72.2145 24.8513H71.6903C71.1661 24.8513 70.9913 25.0283 71.1661 25.3823C71.1661 25.7362 70.9039 25.9132 70.3797 25.9132H69.3313C69.3313 26.6211 68.9818 26.9751 68.2828 26.9751C67.9334 26.9751 67.7586 26.7981 67.7586 26.4441C67.7586 26.0902 67.4091 25.9132 66.7102 25.9132V27.7715C66.7102 28.3024 66.5354 28.5679 66.186 28.5679C65.8365 28.5679 65.6617 28.7449 65.6617 29.0988C65.6617 29.4528 65.8365 29.6298 66.186 29.6298C66.5354 29.6298 66.7102 29.8067 66.7102 30.1607C66.5354 30.1607 65.8365 30.2492 64.6133 30.4262C63.3901 30.7801 62.7785 31.3111 62.7785 32.019C62.9533 31.842 63.128 31.7535 63.3027 31.7535C63.4775 31.5766 63.827 31.4881 64.3512 31.4881C64.7007 31.4881 64.8754 31.665 64.8754 32.019C64.8754 32.373 64.7007 32.5499 64.3512 32.5499C64.0017 32.5499 63.827 32.7269 63.827 33.0809C64.1764 32.9039 64.6133 32.6384 65.1375 32.2845C65.487 32.1075 65.8365 31.842 66.186 31.4881C66.5354 31.4881 66.7102 31.665 66.7102 32.019C66.7102 32.373 66.8849 32.5499 67.2344 32.5499C67.4091 32.5499 67.6713 32.2845 68.0207 31.7535C68.1955 31.3996 68.4576 31.0456 68.8071 30.6916C69.1565 30.6916 69.4187 30.7801 69.5934 30.9571C69.5934 31.3111 69.7681 31.4881 70.1176 31.4881C70.6418 31.4881 71.1661 31.1341 71.6903 30.4262L72.7387 29.3643C72.7387 29.1873 72.6513 29.0103 72.4766 28.8334C72.3019 28.6564 72.2145 28.4794 72.2145 28.3024C72.2145 27.7715 72.4766 27.506 73.0008 27.506C73.525 27.506 73.8745 27.683 74.0493 28.0369C74.0493 28.5679 74.3114 28.8334 74.8356 28.8334ZM91.0864 41.8414C91.4359 41.8414 92.0475 41.5759 92.9212 41.045C93.7949 40.514 94.2317 39.8946 94.2317 39.1867C94.2317 37.9478 93.8822 37.3284 93.1833 37.3284C92.4843 37.3284 91.6106 37.6824 90.5622 38.3903L87.4169 41.045C86.1937 41.9299 85.2326 42.7263 84.5337 43.4342C83.66 44.3191 83.1357 44.7616 82.961 44.7616C82.6115 44.7616 82.4368 44.5846 82.4368 44.2306C82.262 43.8767 81.9126 43.6997 81.3883 43.6997C81.3883 44.2306 81.5631 44.4961 81.9126 44.4961C82.262 44.4961 82.4368 44.6731 82.4368 45.027L81.9126 45.558C81.7378 45.7349 81.5631 45.8234 81.3883 45.8234L80.8641 46.3544C80.5146 46.3544 80.3399 46.1774 80.3399 45.8234C80.3399 45.6465 80.1652 45.558 79.8157 45.558C79.8157 45.9119 79.903 46.0889 80.0778 46.0889V46.8853C80.0778 47.2393 79.903 47.6817 79.5536 48.2127H82.1747C82.1747 47.3278 82.3494 46.7083 82.6989 46.3544C83.0484 46.1774 83.3979 45.9119 83.7473 45.558C84.0968 45.558 84.2715 45.6465 84.2715 45.8234C84.2715 46.1774 84.4463 46.3544 84.7958 46.3544C85.1452 46.3544 85.32 46.1774 85.32 45.8234V45.027C85.1452 44.85 85.0579 44.6731 85.0579 44.4961C85.0579 43.9651 85.2326 43.6997 85.5821 43.6997C85.7568 43.6997 85.8442 44.3191 85.8442 45.558H87.679C87.679 44.3191 87.8537 43.6997 88.2032 43.6997C88.3779 43.6997 88.5527 43.7882 88.7274 43.9651C88.9022 44.1421 89.1643 44.3191 89.5137 44.4961C89.5137 43.9651 89.339 43.6112 88.9895 43.4342C88.64 43.2572 88.4653 42.9918 88.4653 42.6378C88.4653 42.4608 88.64 42.1069 88.9895 41.5759C89.339 41.222 89.6885 40.9565 90.038 40.7795C90.3874 40.7795 90.5622 40.9565 90.5622 41.3104C90.5622 41.6644 90.7369 41.8414 91.0864 41.8414ZM66.7102 84.5821C66.0112 84.5821 65.5744 84.8475 65.3996 85.3785C65.2249 85.9094 64.8754 86.2634 64.3512 86.4403H61.2059C61.2059 87.3252 60.6817 87.8562 59.6332 88.0332C58.5848 88.2101 58.0606 88.5641 58.0606 89.095C58.0606 89.449 58.1479 89.7145 58.3227 89.8914V90.3237C57.6402 90.5251 57.009 90.8462 56.4535 91.2628C56.4389 91.2705 56.4273 91.2793 56.4187 91.2891C56.2249 91.4367 56.0405 91.5959 55.8665 91.7658C55.8115 91.6895 55.7565 91.5956 55.7016 91.4843C55.5268 91.3073 55.2647 91.2188 54.9152 91.2188C54.7405 91.2188 54.4784 91.8382 54.1289 93.0771C53.7794 94.3159 53.0805 94.9354 52.032 94.9354V98.652C52.731 98.652 53.0805 98.475 53.0805 98.121V97.3246C52.9057 97.1476 52.8184 96.9707 52.8184 96.7937C53.4623 96.7937 53.8838 96.5684 54.0828 96.1177C54.1135 99.3598 56.7512 101.979 60.0005 101.979C63.2689 101.979 65.9185 99.3289 65.9185 96.0605V96.0005C65.9185 92.9268 63.5752 90.4003 60.5776 90.1103C60.8735 90.0364 61.0829 89.875 61.2059 89.626C61.3806 89.272 61.7301 89.095 62.2543 89.095C62.6038 89.095 62.8659 89.1835 63.0406 89.3605V88.0332C63.5649 87.6792 64.0891 87.2368 64.6133 86.7058C64.9628 86.3519 65.3996 85.9979 65.9238 85.6439C66.2733 85.29 66.5354 84.936 66.7102 84.5821ZM60.169 90.0848C60.3064 90.0887 60.4426 90.0972 60.5776 90.1103C60.4529 90.1414 60.3128 90.1569 60.1574 90.1569C60.1574 90.1355 60.1613 90.1115 60.169 90.0848ZM60.169 90.0848C60.113 90.0833 60.0569 90.0825 60.0005 90.0825C59.9299 90.0825 59.8596 90.0837 59.7896 90.0862C60.0518 89.8097 60.3491 89.3908 60.6816 88.8296C61.2059 87.9447 61.5554 87.5907 61.7301 87.7677C61.7301 88.1217 61.468 88.5641 60.9438 89.095C60.483 89.5617 60.2248 89.8916 60.169 90.0848ZM59.7896 90.0862C59.2817 90.104 58.7902 90.1858 58.3227 90.3237V90.6879C58.3227 91.3958 58.1479 91.8382 57.7984 92.0152C57.449 92.0152 57.2742 91.8382 57.2742 91.4843C57.2742 91.3073 57.0995 91.2188 56.75 91.2188C56.6078 91.2188 56.5089 91.2335 56.4535 91.2628C56.4419 91.2715 56.4303 91.2803 56.4187 91.2891C56.38 91.3333 56.4031 91.3984 56.4879 91.4843C56.4879 91.8382 56.4005 92.0152 56.2258 92.0152C56.106 92.0152 55.9863 91.9321 55.8665 91.7658C54.7658 92.8405 54.0825 94.3407 54.0825 96.0005V96.0605C54.0825 96.0796 54.0826 96.0987 54.0828 96.1177C54.0998 96.0792 54.1151 96.0391 54.1289 95.9973C54.3036 95.6433 54.6531 95.2893 55.1774 94.9354H56.4879C56.4879 94.2275 56.3132 93.8735 55.9637 93.8735C55.6142 94.0505 55.4395 93.962 55.4395 93.608C55.6142 93.2541 55.7889 92.9886 55.9637 92.8116C56.4879 92.2807 56.8374 92.0152 57.0121 92.0152C57.3616 92.1922 57.5363 92.3692 57.5363 92.5462C57.5363 92.9001 57.7111 93.0771 58.0606 93.0771C58.41 93.0771 58.7595 92.9001 59.109 92.5462L60.1574 92.0152C60.1574 90.9533 59.8953 90.4224 59.3711 90.4224C59.4989 90.3577 59.6384 90.2456 59.7896 90.0862ZM43.3824 61.2207C44.4308 61.7516 44.9551 62.1056 44.9551 62.2826C45.3045 62.6365 45.8288 62.8135 46.5277 62.8135C47.0519 62.8135 47.314 63.079 47.314 63.6099C47.314 63.9639 47.1393 64.1409 46.7898 64.1409H44.4308V62.2826C43.6819 62.5354 43.2451 62.698 43.1203 62.7702C42.9955 62.698 42.5586 62.5354 41.8097 62.2826C41.8097 62.8135 41.9845 63.079 42.3339 63.079C42.6834 63.256 42.8582 63.5214 42.8582 63.8754C42.8582 64.2294 42.7708 64.4948 42.5961 64.6718C42.5961 65.0258 42.9455 65.1143 43.6445 64.9373C44.3435 64.7603 44.6929 64.9373 44.6929 65.4682C44.3435 65.6452 43.9066 65.8222 43.3824 65.9992C42.334 66.3531 41.8097 66.7956 41.8097 67.3265C41.8097 67.6805 41.9845 67.8575 42.3339 67.8575C42.6834 67.8575 42.8582 68.0344 42.8582 68.3884C42.8582 68.5654 42.7708 68.6539 42.5961 68.6539C42.0718 68.6539 41.4603 68.7424 40.7613 68.9193C40.7613 67.8575 41.0234 67.1495 41.5476 66.7956C41.8971 66.6186 42.0718 66.0877 42.0718 65.2028V64.4063C41.8971 64.0524 41.635 63.8754 41.2855 63.8754C40.936 63.8754 40.8487 64.2294 41.0234 64.9373C41.1981 65.6452 41.0234 65.9992 40.4992 65.9992C39.975 65.9992 39.7129 65.6452 39.7129 64.9373C39.7129 64.4063 39.8876 63.9639 40.2371 63.6099C40.4118 63.433 40.4992 63.256 40.4992 63.079C40.1497 63.079 39.975 63.256 39.975 63.6099C39.8002 63.9639 39.4507 64.1409 38.9265 64.1409C39.1013 63.7869 39.7129 62.9905 40.7613 61.7516C41.4257 60.9442 41.7869 60.4438 41.845 60.2503C41.9786 60.4458 42.4911 60.7693 43.3824 61.2207ZM41.8097 60.1588C41.8097 60.1853 41.8215 60.2158 41.845 60.2503C41.8634 60.1893 41.8516 60.1588 41.8097 60.1588ZM43.1203 62.8135C43.1702 62.8135 43.1702 62.7991 43.1203 62.7702C43.0704 62.7991 43.0704 62.8135 43.1203 62.8135ZM85.0579 118.562C84.7084 118.916 84.0968 119.093 83.2231 119.093V122.81C83.7473 122.81 84.1842 122.987 84.5337 123.341C84.7084 123.695 85.4947 123.872 86.8926 123.872C86.8926 123.695 86.98 123.518 87.1548 123.341V122.81C87.1548 122.102 87.0674 121.571 86.8926 121.217L85.8442 120.155C87.2421 120.155 87.9411 119.801 87.9411 119.093C87.9411 118.385 87.5042 118.031 86.6305 118.031C85.9316 118.031 85.4074 118.208 85.0579 118.562ZM82.1747 38.1248C80.7767 38.1248 79.903 37.5054 79.5536 36.2665C79.7283 36.0895 79.9904 36.0011 80.3399 36.0011C80.8641 36.0011 81.2136 36.178 81.3883 36.532C81.3883 36.8859 81.6504 37.0629 82.1747 37.0629C82.1747 36.532 82.3494 36.2665 82.6989 36.2665C83.0484 36.2665 83.2231 36.0895 83.2231 35.7356C83.2231 35.3816 83.0484 35.2046 82.6989 35.2046C82.3494 35.2046 82.262 35.3816 82.4368 35.7356C82.4368 36.0895 82.262 36.2665 81.9126 36.2665C81.5631 36.2665 81.3883 36.0895 81.3883 35.7356C81.2136 35.3816 80.7767 35.2046 80.0778 35.2046C79.5536 35.2046 79.2041 35.3816 79.0293 35.7356C78.6799 36.2665 78.5051 37.9478 78.5051 40.7795C78.1557 40.9565 77.8062 40.9565 77.4567 40.7795C76.9325 40.7795 76.6704 41.045 76.6704 41.5759L79.5536 41.8414V40.514C79.5536 40.1601 79.7283 39.9831 80.0778 39.9831C80.4273 39.9831 80.7767 40.0716 81.1262 40.2486C81.301 40.6025 81.4757 40.7795 81.6504 40.7795L82.1747 38.1248ZM71.9524 71.0431C71.9524 71.397 72.1271 71.574 72.4766 71.574C73.0008 71.574 73.1756 71.2201 73.0008 70.5121C72.8261 69.9812 73.1756 69.7157 74.0493 69.7157V67.592H74.3114C74.4861 67.592 74.6609 67.6805 74.8356 67.8575V72.6359H74.5027C73.7427 72.2808 72.8947 72.0825 72.0005 72.0825C71.7419 72.0825 71.4871 72.0991 71.2372 72.1313L71.4282 70.7776C71.7776 70.7776 71.9524 70.8661 71.9524 71.0431ZM70.3159 72.3257C70.6139 72.2374 70.9217 72.1719 71.2372 72.1313L71.1661 72.6359H74.5027C76.5205 73.5787 77.9185 75.6263 77.9185 78.0005V78.0605C77.9185 81.3289 75.2689 83.9785 72.0005 83.9785C68.7321 83.9785 66.0825 81.3289 66.0825 78.0605V78.0005C66.0825 75.6924 67.4038 73.6929 69.3313 72.7172V73.4323C69.3313 73.3033 69.1919 73.3624 68.9131 73.6099C68.3182 73.8764 68.0207 74.0827 68.0207 74.2287C68.1955 74.0517 68.3702 73.9633 68.545 73.9633C68.6869 73.8195 68.8096 73.7017 68.9131 73.6099C69.0391 73.5534 69.1785 73.4942 69.3313 73.4323H70.3797C70.2298 73.1286 70.2085 72.7597 70.3159 72.3257ZM70.3159 72.3257C69.9737 72.4271 69.6445 72.5587 69.3313 72.7172V71.574C70.0302 71.574 70.3797 71.751 70.3797 72.105C70.3549 72.1803 70.3336 72.2539 70.3159 72.3257ZM40.7613 56.7077C41.635 56.7077 42.2466 56.5307 42.5961 56.1768C42.9455 55.8228 43.295 55.6458 43.6445 55.6458V51.9292H41.8097C41.9845 52.1062 42.0718 52.4602 42.0718 52.9911C42.0718 53.876 41.8971 54.4955 41.5476 54.8494C41.0234 55.2034 40.7613 55.8228 40.7613 56.7077ZM83.7473 99.4484C84.0968 98.9174 84.7958 98.652 85.8442 98.652V101.307C85.4947 101.307 85.32 101.13 85.32 100.776C85.1452 100.599 84.8831 100.51 84.5337 100.51C84.1842 100.51 84.0094 100.687 84.0094 101.041C84.0094 101.395 84.0968 101.572 84.2715 101.572C84.3981 101.7 84.4788 101.828 84.5137 101.957C84.3446 101.971 84.1734 101.979 84.0005 101.979C83.3634 101.979 82.7497 101.878 82.1747 101.692V100.51C82.8736 100.51 83.3979 100.156 83.7473 99.4484ZM82.1747 103.165V101.692C79.7997 100.922 78.0825 98.6918 78.0825 96.0605V96.0005C78.0825 92.7321 80.7321 90.0825 84.0005 90.0825C87.2689 90.0825 89.9185 92.7321 89.9185 96.0005V96.0605C89.9185 99.156 87.5419 101.696 84.5137 101.957C84.527 102.005 84.5337 102.054 84.5337 102.103C84.0094 102.103 83.66 102.28 83.4852 102.634C83.1357 102.988 82.6989 103.165 82.1747 103.165ZM63.0406 33.3464H60.1574C60.3322 33.5233 60.4195 33.7888 60.4195 34.1428V34.9392C60.2448 35.2931 60.1574 35.6471 60.1574 36.0011C60.1574 36.709 60.5069 37.0629 61.2059 37.0629C61.2059 36.355 61.3806 36.0011 61.7301 36.0011H62.5164C62.6912 36.178 62.8659 36.2665 63.0406 36.2665V33.3464ZM69.3313 82.7238C69.3313 82.1928 69.6808 81.9273 70.3797 81.9273V78.2108C71.0787 78.2108 71.6903 78.0338 72.2145 77.6798C72.7387 77.5029 73.1756 77.4144 73.525 77.4144C73.8745 77.4144 74.224 77.5914 74.5735 77.9453C74.7482 78.2993 74.8356 78.6532 74.8356 79.0072H71.6903C71.3408 79.0072 71.1661 79.2727 71.1661 79.8036C71.1661 80.1575 71.2534 80.423 71.4282 80.6V81.3964L70.9039 81.9273C70.3797 82.4583 69.8555 82.7238 69.3313 82.7238ZM91.6106 30.1607C92.4843 30.1607 92.9212 29.5413 92.9212 28.3024C92.9212 27.0636 92.4843 26.4441 91.6106 26.4441C90.7369 26.4441 90.3001 27.0636 90.3001 28.3024C90.3001 29.5413 90.7369 30.1607 91.6106 30.1607ZM98.6876 115.908C98.3381 116.438 97.9013 116.881 97.377 117.235C97.0276 117.235 96.8528 117.058 96.8528 116.704C96.8528 116.527 96.6781 116.438 96.3286 116.438L96.0665 119.093H97.9013C98.076 118.208 98.5128 117.589 99.2118 117.235C99.9108 116.881 100.435 116.261 100.784 115.377C99.736 115.377 99.0371 115.554 98.6876 115.908ZM112.842 50.0709C113.715 50.0709 114.152 49.4515 114.152 48.2127C114.152 46.9738 113.715 46.3544 112.842 46.3544C112.143 46.3544 111.793 46.9738 111.793 48.2127C111.793 49.4515 112.143 50.0709 112.842 50.0709ZM91.0864 111.66C91.0864 112.899 90.6496 113.518 89.7759 113.518C88.9022 113.518 88.4653 112.899 88.4653 111.66C88.4653 110.598 88.9022 110.067 89.7759 110.067C90.6496 110.067 91.0864 110.598 91.0864 111.66ZM100.784 122.013C101.134 121.305 101.483 120.509 101.833 119.624C102.008 118.916 102.532 118.474 103.406 118.297V120.951C103.056 120.951 102.794 121.128 102.619 121.482C102.27 121.836 101.658 122.013 100.784 122.013ZM97.9013 99.4484H95.0181C95.0181 98.9174 95.2802 98.5635 95.8044 98.3865C96.1539 98.2095 96.3286 97.8556 96.3286 97.3246V97.0591C96.1539 97.0591 96.0665 96.9707 96.0665 96.7937L96.5907 96.5282C96.7654 96.5282 97.0276 96.9706 97.377 97.8555L97.9013 99.4484ZM68.545 122.013C68.545 121.482 68.7197 121.128 69.0692 120.951C69.4186 120.774 69.5934 120.42 69.5934 119.89V119.359C69.5934 119.182 69.506 119.093 69.3313 119.093C68.1081 119.093 67.4965 119.713 67.4965 120.951C67.4965 121.659 67.846 122.013 68.545 122.013ZM63.827 107.943H61.9922V106.085C63.3901 106.085 64.0891 106.439 64.0891 107.147C64.0891 107.501 64.0017 107.766 63.827 107.943ZM76.6704 76.618C75.7967 76.441 75.0977 76.264 74.5735 76.087C74.0493 75.91 73.525 75.6446 73.0008 75.2906C73.0008 75.8215 73.3503 76.264 74.0493 76.618C74.5735 77.1489 74.7482 77.4144 74.5735 77.4144C74.923 77.4144 75.3598 77.3259 75.884 77.1489C76.4082 77.1489 76.6704 76.9719 76.6704 76.618ZM73.0008 50.0709C73.6998 50.0709 74.0493 50.3364 74.0493 50.8674C74.0493 51.3983 73.9619 51.8408 73.7872 52.1947C73.7872 52.5487 73.6998 52.8142 73.525 52.9911C73.1756 52.9911 73.0008 52.7257 73.0008 52.1947V50.0709ZM63.827 52.9911H65.6617C65.487 51.9293 64.8754 51.3098 63.827 51.1328V52.9911ZM63.0406 119.093C63.0406 119.624 63.3027 119.89 63.827 119.89C64.3512 119.89 64.6133 119.624 64.6133 119.093C64.6133 118.562 64.3512 118.297 63.827 118.297C63.3027 118.297 63.0406 118.562 63.0406 119.093ZM109.958 81.9273H108.91V80.0691H109.958V81.9273ZM48.1004 44.4961C48.4499 45.7349 49.1488 46.3544 50.1973 46.3544C50.0225 45.4695 49.3236 44.85 48.1004 44.4961ZM76.6704 50.0709C75.7967 50.2479 75.1851 50.8674 74.8356 51.9292C76.0588 51.9292 76.6704 51.3098 76.6704 50.0709ZM60.1574 111.66C59.9827 110.598 59.3711 109.979 58.3227 109.802C58.4974 110.864 59.109 111.483 60.1574 111.66ZM45.4793 18.48C45.654 19.5419 46.2656 20.1613 47.314 20.3383C47.1393 19.2764 46.5277 18.657 45.4793 18.48ZM50.1973 19.5419C51.071 19.188 51.6826 18.5685 52.032 17.6836C50.8088 17.6836 50.1973 18.303 50.1973 19.5419ZM47.8383 102.899C48.013 102.899 48.1004 103.342 48.1004 104.227C47.5762 104.227 47.314 104.05 47.314 103.696C47.314 103.165 47.4888 102.899 47.8383 102.899ZM73.525 121.748C73.3882 121.748 73.2781 121.775 73.1949 121.829C73.2969 121.799 73.407 121.772 73.525 121.748ZM73.1949 121.829C72.5413 122.024 72.2145 122.351 72.2145 122.81C72.7387 122.81 73.0008 122.633 73.0008 122.279C73.0008 122.063 73.0655 121.914 73.1949 121.829ZM42.5961 11.3123C42.5961 11.1354 42.4213 11.0469 42.0718 11.0469L42.3339 11.3123C42.4373 11.3123 42.5253 11.3278 42.5981 11.3587C42.612 11.5203 42.6987 11.6818 42.8582 11.8433C42.8582 11.5939 42.7715 11.4324 42.5981 11.3587C42.5967 11.3433 42.5961 11.3278 42.5961 11.3123Z" fill="#F4C256"/>
</svg>
