<svg width="144" height="144" viewBox="0 0 144 144" fill="none" xmlns="http://www.w3.org/2000/svg">
<path fill-rule="evenodd" clip-rule="evenodd" d="M55.8984 31.5624C62.3379 24.2868 70.8956 17.8449 81.319 12.6357C82.2335 12.1787 83.2496 11.963 84.2709 12.009C85.2922 12.055 86.2849 12.3612 87.1546 12.8986C88.0243 13.4359 88.7424 14.1866 89.2405 15.0794C89.7387 15.9721 90.0004 16.9774 90.001 17.9997C90.001 26.7166 90.8996 32.5899 92.874 38.0664V39.0891H93.2568C93.8687 40.6659 94.5719 42.2222 95.371 43.8177L97.351 47.6997L98.365 49.7697C100.873 55.1517 102.001 59.7177 102.001 65.9997C102.001 73.9562 98.8403 81.5868 93.2142 87.2129C88.7066 91.7205 82.9123 94.6455 76.6945 95.6304C76.6032 95.361 76.5238 95.055 76.4565 94.7122C76.2678 93.9437 75.8904 93.5594 75.3243 93.5594C75.1356 93.5594 74.8525 93.7515 74.4751 94.1358C74.4751 94.9043 74.6638 95.3847 75.0412 95.5768C75.2091 95.6338 75.3522 95.7077 75.4703 95.7985C75.1119 95.8402 74.7522 95.8756 74.3916 95.9044C74.1486 95.5906 73.9877 95.1932 73.909 94.7122C73.1541 94.7122 72.7767 94.9043 72.7767 95.2886C72.7767 95.6729 72.588 95.865 72.2106 95.865C71.6445 95.865 71.0784 95.5768 70.5122 95.0004C69.9461 94.424 69.6631 93.7515 69.6631 92.983C69.6631 92.2145 69.8518 91.7341 70.2292 91.542C70.6066 91.542 70.7953 91.3498 70.7953 90.9656C70.2292 90.5813 69.6631 90.0049 69.0969 89.2364C68.7195 88.6599 68.3421 88.3717 67.9647 88.3717C67.5873 88.3717 67.2099 88.5639 66.8325 88.9481C66.455 89.3324 65.7946 89.5246 64.851 89.5246C64.851 90.2931 65.1341 90.9656 65.7002 91.542L66.5494 92.6948C66.172 92.6948 65.7946 92.5027 65.4172 92.1184C65.2285 91.7341 65.0397 91.542 64.851 91.542C64.851 91.9262 65.0397 92.3105 65.4172 92.6948C65.7946 93.0791 65.9833 93.7515 65.9833 94.7122C66.172 94.7122 66.2663 94.6161 66.2663 94.424H66.8325C66.6437 94.424 66.9268 94.8083 67.6816 95.5768C67.7389 95.6234 67.7979 95.6687 67.8586 95.7125C61.4326 94.8167 55.4283 91.8534 50.7878 87.2129C46.3401 82.7652 43.4332 77.0648 42.4106 70.9409C42.5931 71.0334 42.808 71.0796 43.0554 71.0796C43.9989 71.0796 44.4707 70.4071 44.4707 69.0622C44.4707 67.9094 43.9989 67.333 43.0554 67.333C42.6192 67.333 42.2838 67.4562 42.0493 67.7026C42.0172 67.137 42.001 66.5692 42.001 65.9997C42.001 63.7115 42.167 61.4417 42.4947 59.1973C42.66 59.2413 42.8469 59.2633 43.0554 59.2633C43.9989 59.2633 44.4707 58.5908 44.4707 57.2459C44.4707 56.1453 44.0408 55.5701 43.1809 55.5202C43.1902 55.4794 43.1995 55.4386 43.2089 55.3978C43.7269 55.2011 44.0531 54.7604 44.1877 54.0756C43.9473 54.1106 43.7179 54.1543 43.4994 54.2068C44.5327 50.1928 46.0919 46.2803 48.1505 42.5113V45.7178C47.6551 45.8859 47.3765 46.2746 47.3146 46.8841L47.3013 46.8706V47.1588C47.3013 47.0627 47.3057 46.9711 47.3146 46.8841L48.4336 48.0234C48.811 48.0234 48.9997 47.8312 48.9997 47.447C49.1884 47.0627 49.4714 46.8706 49.8489 46.8706C50.7924 46.8706 51.1698 47.3509 50.9811 48.3116C50.7924 49.4644 50.8867 50.0408 51.2641 50.0408C51.6416 50.0408 51.8303 49.8487 51.8303 49.4644C51.8303 49.2723 52.019 49.1762 52.3964 49.1762C52.7738 49.1762 52.9625 49.3683 52.9625 49.7526C52.9625 49.9447 52.7738 50.0408 52.3964 50.0408C52.019 50.2329 51.8303 50.5211 51.8303 50.9054C51.8303 51.0975 52.1133 51.1936 52.6795 51.1936C53.0569 51.1936 53.623 50.8093 54.3778 50.0408C54.7552 50.4251 54.9439 50.9054 54.9439 51.4818V54.0756C57.5858 54.0756 59.2842 54.2678 60.039 54.652C60.039 55.0363 59.8503 55.2285 59.4729 55.2285C59.0955 55.2285 58.9068 55.6127 58.9068 56.3813C59.4729 56.3813 59.756 56.1891 59.756 55.8049C59.756 55.4206 59.9447 55.2285 60.3221 55.2285C60.1334 55.2285 60.3221 55.6127 60.8882 56.3813C61.643 57.3419 62.0204 57.9183 62.0204 58.1105C62.0204 58.4948 61.8317 58.879 61.4543 59.2633C61.0769 59.6476 60.8882 60.0318 60.8882 60.4161C61.0769 60.4161 61.2656 60.32 61.4543 60.1279H62.3035C62.6809 60.1279 62.7753 60.32 62.5866 60.7043C62.5866 61.0886 62.7753 61.2807 63.1527 61.2807C63.5301 61.2807 63.7188 61.0886 63.7188 60.7043C63.7188 60.5122 63.9075 60.4161 64.2849 60.4161C64.6623 60.4161 64.851 60.7043 64.851 61.2807V62.4335C65.0397 62.4335 65.1341 62.3374 65.1341 62.1453H65.7002C66.6438 62.1453 67.2099 62.5296 67.3986 63.2981C67.5873 64.0667 68.1534 64.4509 69.0969 64.4509C69.4744 64.4509 69.6631 64.2588 69.6631 63.8745C69.6631 63.4903 70.0405 63.2981 70.7953 63.2981C70.7953 63.8745 70.6066 64.1627 70.2292 64.1627C69.8518 64.3549 69.6631 64.7391 69.6631 65.3155V65.6037C69.8518 65.7959 69.9461 65.988 69.9461 66.1802C70.1348 66.1802 70.5122 66.4683 71.0784 67.0447L73.3428 68.774C74.2864 69.3504 75.1356 69.9268 75.8904 70.5032C76.6452 71.0796 77.2113 71.3678 77.5887 71.3678L77.0226 70.7914C76.8339 70.5993 76.7396 70.1189 76.7396 69.3504C77.117 69.3504 77.6831 69.5425 78.4379 69.9268C79.1928 70.5032 79.6645 70.7914 79.8532 70.7914C79.6645 71.1757 79.3815 71.3678 79.004 71.3678C78.8153 71.3678 78.721 71.5599 78.721 71.9442L81.2685 74.538C82.0234 75.3066 82.7782 75.979 83.533 76.5554C84.2878 77.1319 85.0427 77.42 85.7975 77.42V76.2672C85.7975 75.6908 85.6088 75.1144 85.2314 74.538L84.6653 73.3852C84.2878 73.3852 83.9104 73.5773 83.533 73.9616C83.1917 74.3091 82.6962 74.4995 82.0464 74.5327L81.8616 74.188C81.926 73.803 82.1058 73.5354 82.4008 73.3852C82.7782 73.1931 82.9669 72.8088 82.9669 72.2324C82.9669 71.656 82.5895 71.2717 81.8346 71.0796C81.2685 71.0796 80.8911 70.9835 80.7024 70.7914C80.7024 70.4071 80.8911 70.215 81.2685 70.215C81.6459 70.4071 81.8346 70.1189 81.8346 69.3504H79.2684L72.7593 57.2076C72.9538 57.2331 73.1483 57.2459 73.3428 57.2459C73.7203 57.2459 73.8146 57.5341 73.6259 58.1105C73.6259 58.879 73.8146 59.2633 74.192 59.2633C74.5694 59.2633 74.7581 58.9751 74.7581 58.3987C74.7581 57.6301 74.4751 57.0537 73.909 56.6695C73.5315 56.4773 73.1541 56.1891 72.7767 55.8049C72.7767 55.2285 73.0598 55.0363 73.6259 55.2285C74.3807 55.4206 74.7581 55.2284 74.7581 54.652C74.7581 54.2678 74.5694 54.0756 74.192 54.0756C74.0033 54.0756 73.909 53.7874 73.909 53.211C74.4751 53.211 74.7581 53.4032 74.7581 53.7874C74.9468 54.1717 75.3243 54.3638 75.8904 54.3638C75.8904 54.1717 75.9847 54.0756 76.1734 54.0756H76.7396C76.7396 54.652 76.5508 55.0363 76.1734 55.2285C75.9847 55.4206 75.8904 55.7088 75.8904 56.093C76.4565 56.093 76.7396 56.2852 76.7396 56.6695V57.2459C76.7396 57.6301 76.6452 58.0144 76.4565 58.3987C76.2678 58.7829 76.1734 59.0712 76.1734 59.2633C76.5508 59.2633 76.6452 59.0712 76.4565 58.6869C76.4565 58.4947 76.6452 58.3987 77.0226 58.3987C77.4 58.3987 77.6831 58.4947 77.8718 58.6869C78.0605 59.0712 78.2492 59.2633 78.4379 59.2633C78.6266 59.2633 78.9097 58.9751 79.2871 58.3987C79.6645 58.7829 79.8532 59.3593 79.8532 60.1279V62.4335C79.8532 63.3942 80.325 63.6824 81.2685 63.2981C82.4008 63.106 82.9669 63.4903 82.9669 64.4509C82.7782 64.4509 82.6838 64.547 82.6838 64.7391V65.3155H84.6653C84.854 64.9313 84.854 64.4509 84.6653 63.8745C84.6653 63.4903 84.854 63.2981 85.2314 63.2981C85.6088 63.2981 85.7975 63.5863 85.7975 64.1627V66.4683C86.3636 66.4683 86.6467 66.1801 86.6467 65.6037C86.8354 65.2195 87.2128 65.0273 87.7789 65.0273H88.062C88.2507 65.2195 88.4394 65.3155 88.6281 65.3155V63.2981H85.7975V61.8571C86.1749 61.2807 86.8354 61.0886 87.7789 61.2807C88.7224 61.4728 89.1942 61.1846 89.1942 60.4161C89.5716 61.1846 90.0434 61.9532 90.6095 62.7217C91.1756 63.4903 91.9305 64.0667 92.874 64.4509C92.6853 63.4903 92.3079 62.9139 91.7418 62.7217C91.3643 62.5296 90.9869 62.2414 90.6095 61.8571C90.6095 61.4728 90.7982 61.2807 91.1756 61.2807C91.553 61.2807 91.7418 61.4728 91.7418 61.8571C91.9305 62.2414 92.3079 62.4335 92.874 62.4335C89.666 59.1672 87.0241 57.1498 84.9483 56.3813C82.8725 55.6127 81.8346 54.556 81.8346 53.211C80.7024 53.4032 80.0419 54.0756 79.8532 55.2285H78.4379C77.4944 54.2678 77.0226 53.211 77.0226 52.0582C77.7774 52.0582 77.9662 52.3464 77.5887 52.9228C77.4 53.6914 77.7774 54.0756 78.721 54.0756V52.0582C77.9662 51.8661 77.3057 51.5779 76.7396 51.1936C76.1734 50.8093 75.513 50.4251 74.7581 50.0408V52.0582H72.7767C72.7767 51.6739 72.9654 51.2897 73.3428 50.9054C73.7203 50.5211 73.909 50.0408 73.909 49.4644L73.0598 49.1762C73.0598 48.9841 72.2106 48.4076 70.5122 47.447C68.8139 46.6784 67.9647 46.0059 67.9647 45.4295C67.9647 45.0453 67.776 44.8531 67.3986 44.8531H66.8325C66.8325 45.0453 66.7381 45.1413 66.5494 45.1413C66.172 45.1413 65.9833 44.7571 65.9833 43.9885H65.4172C65.2285 43.7964 65.0397 43.7003 64.851 43.7003V42.2593C63.7188 42.0672 62.3979 41.2026 60.8882 39.6655C59.3785 38.3205 58.6237 37.456 58.6237 37.0717C58.2463 37.0717 58.0576 37.1677 58.0576 37.3599C58.0576 37.7441 57.8689 37.9363 57.4915 37.9363C57.1141 37.552 56.9254 37.2638 56.9254 37.0717C56.9254 36.4953 57.0197 35.8228 57.2084 35.0543C57.3971 34.2857 57.7745 33.9014 58.3407 33.9014C58.7181 33.9014 58.9068 34.0936 58.9068 34.4778C58.9068 34.8621 59.2842 35.0543 60.039 35.0543C60.039 34.4779 59.8503 33.9975 59.4729 33.6133C59.0955 33.229 58.9068 32.6526 58.9068 31.884H58.0576C57.8689 32.0762 57.5858 32.1722 57.2084 32.1722C56.5222 32.1722 56.0855 31.969 55.8984 31.5624ZM54.5155 33.177L54.3778 33.0368C54.0004 33.0368 53.8117 33.1329 53.8117 33.325C53.8117 33.7093 53.623 33.9014 53.2456 33.9014V32.7486C53.4343 32.3644 53.7173 31.9801 54.0948 31.5958C53.906 31.2116 53.623 30.9234 53.2456 30.7312C53.0569 30.7312 52.9625 30.5391 52.9625 30.1548C52.9625 29.9627 53.0569 29.8666 53.2456 29.8666H56.0762C55.8875 30.0587 55.7931 30.443 55.7931 31.0194C55.7931 31.229 55.8282 31.41 55.8984 31.5624C55.426 32.0962 54.965 32.6344 54.5155 33.177ZM54.5155 33.177L54.9439 33.6133C55.5101 34.1897 55.7931 34.5739 55.7931 34.7661L55.227 34.1897C55.0383 33.9975 54.7552 33.9014 54.3778 33.9014C54.0004 33.9014 53.8117 34.0936 53.8117 34.4778C53.8117 35.0542 54.0004 35.5346 54.3778 35.9189C54.9439 36.3031 55.227 36.6874 55.227 37.0717C55.227 37.456 55.0383 37.6481 54.6609 37.6481C54.2835 37.6481 54.0948 37.8402 54.0948 38.2245C54.0948 38.4166 54.1891 38.6088 54.3778 38.8009C54.7552 39.1852 54.9439 39.5694 54.9439 39.9537L54.6609 40.2419C54.2835 40.2419 53.9061 40.0498 53.5286 39.6655L52.9625 39.0891V41.1065H55.7931C55.9818 41.1065 56.0762 41.2026 56.0762 41.3947C56.0762 41.9711 55.6988 42.1632 54.9439 41.9711C54.1891 41.779 53.8117 41.9711 53.8117 42.5475C53.8117 42.9318 54.0948 43.1239 54.6609 43.1239C55.0383 43.1239 55.6044 42.7397 56.3592 41.9711C57.1141 43.1239 58.2463 43.9885 59.756 44.5649C59.5672 44.5649 59.0955 44.8531 58.3407 45.4295C57.5858 46.1981 57.2084 46.7745 57.2084 47.1588H57.4915C57.6802 47.1588 58.0576 47.0627 58.6237 46.8706C59.1898 46.6784 59.5672 46.5824 59.756 46.5824H60.039C60.039 47.1588 59.6616 47.543 58.9068 47.7352L58.0576 48.3116C57.6802 48.3116 57.0197 48.0234 56.0762 47.447C55.3214 46.8706 54.9439 46.102 54.9439 45.1413H52.3964C51.4937 43.8546 50.1591 42.8316 48.3928 42.0725C50.106 39.0029 52.1517 36.0301 54.5155 33.177ZM48.3928 42.0725C48.3113 42.2185 48.2305 42.3648 48.1505 42.5113V41.9711C48.2321 42.0044 48.3129 42.0382 48.3928 42.0725ZM43.4994 54.2068C41.3163 54.7309 40.2248 56.1282 40.2248 58.3987H41.6401C41.7767 58.8159 42.0616 59.0821 42.4947 59.1973C42.6748 57.9636 42.9038 56.7375 43.1809 55.5202C43.14 55.5178 43.0982 55.5166 43.0554 55.5166C42.1119 55.5166 41.6401 56.093 41.6401 57.2459C41.2627 57.2459 41.074 57.0537 41.074 56.6695C41.2627 55.9009 41.7345 55.5166 42.4893 55.5166C42.7603 55.5166 43.0002 55.477 43.2089 55.3978C43.3006 54.9998 43.3974 54.6028 43.4994 54.2068ZM42.0493 67.7026C41.7765 67.9891 41.6401 68.4423 41.6401 69.0622C41.6401 70.0545 41.8969 70.6807 42.4106 70.9409C42.2322 69.8729 42.1112 68.792 42.0493 67.7026ZM72.674 95.9922C72.6065 96.0459 72.5464 96.0995 72.4937 96.1532C72.4937 96.5375 72.305 96.7296 71.9275 96.7296C70.155 96.7296 68.7987 96.3906 67.8586 95.7125C69.2234 95.9027 70.6072 95.9997 72.001 95.9997C72.2256 95.9997 72.4499 95.9972 72.674 95.9922ZM72.674 95.9922C72.8479 95.8537 73.0709 95.7153 73.3428 95.5768C73.4781 95.7145 73.5891 95.8399 73.6759 95.9529C73.3427 95.9716 73.0086 95.9847 72.674 95.9922ZM73.6759 95.9529C73.8313 96.1553 73.909 96.3182 73.909 96.4414C73.909 96.8257 73.7203 97.21 73.3428 97.5942C73.1541 98.1706 73.0598 98.5549 73.0598 98.7471C73.6259 98.7471 73.8146 98.5549 73.6259 98.1706C73.6259 97.7864 73.909 97.5942 74.4751 97.5942H75.8904C76.1229 96.5227 76.9308 96.5714 77.3057 96.7296C77.0629 96.4825 76.8592 96.1161 76.6945 95.6304C76.2882 95.6948 75.88 95.7508 75.4703 95.7985C75.7504 96.0138 75.8904 96.3242 75.8904 96.7296C75.2306 96.6177 74.731 96.3426 74.3916 95.9044C74.1535 95.9234 73.9149 95.9396 73.6759 95.9529ZM93.2568 39.0891H94.0062C95.7046 39.0891 96.6481 38.4166 96.8368 37.0717H95.7046C94.9498 37.0717 94.3836 36.8795 94.0062 36.4953L92.874 35.9189V38.0664C92.9974 38.4086 93.125 38.7493 93.2568 39.0891ZM18.1808 100.543C18.5377 99.1172 19.4057 97.8718 20.6201 97.0434C21.8346 96.215 23.3108 95.8612 24.7688 96.0493L25.4588 96.1813L39.1814 99.6119C39.1522 99.6117 39.1226 99.6116 39.0926 99.6116C39.0926 100.572 39.2813 101.053 39.6587 101.053C39.6587 101.437 39.5643 101.725 39.3756 101.917C39.3756 102.109 39.2813 102.398 39.0926 102.782H41.6401C43.5272 103.935 44.6594 105.184 45.0368 106.529C45.603 108.066 46.6408 108.834 48.1505 108.834V106.817C47.5844 106.625 47.0183 106.529 46.4521 106.529C46.2634 106.529 46.0747 106.432 45.886 106.24C45.886 105.856 46.2634 105.664 47.0183 105.664C47.7731 105.856 48.1505 105.664 48.1505 105.088C48.1505 104.703 47.7731 104.511 47.0183 104.511C46.2634 104.511 45.7917 104.895 45.603 105.664L44.1877 104.223C43.8102 103.646 43.4328 103.358 43.0554 103.358C43.0554 102.974 43.1498 102.686 43.3385 102.494C43.5272 102.302 43.6215 102.109 43.6215 101.917C43.6215 101.341 42.8667 100.764 41.3571 100.188L41.3645 100.158L50.9811 102.562V103.07C50.9811 103.454 51.3585 104.031 52.1133 104.799C52.302 104.607 52.5851 104.511 52.9625 104.511C53.5286 104.511 54.4722 104.991 55.7931 105.952C57.3028 107.105 58.7181 108.066 60.039 108.834C59.6616 108.258 59.2842 107.585 58.9068 106.817C58.7181 106.24 58.435 105.76 58.0576 105.376V104.799C58.0576 104.607 58.152 104.511 58.3407 104.511C58.7181 104.511 58.9068 104.703 58.9068 105.088C59.0955 105.472 59.4729 105.664 60.039 105.664V104.826L71.9972 107.816L82.4968 105.191C82.6785 105.506 83.1183 105.664 83.8161 105.664L83.6304 104.908L84.7511 104.627C84.6939 104.982 84.6653 105.423 84.6653 105.952C84.6653 106.529 84.854 106.817 85.2314 106.817C85.6088 106.817 85.7975 106.529 85.7975 105.952V104.799H90.6095C90.6095 105.376 90.4208 105.664 90.0434 105.664C89.666 105.664 89.4773 105.856 89.4773 106.24V106.817C89.666 107.009 89.7603 107.201 89.7603 107.393C89.0055 108.162 88.6281 109.026 88.6281 109.987C89.1942 109.987 89.7603 109.699 90.3264 109.122C90.8926 108.546 91.27 108.354 91.4587 108.546C91.4587 108.738 91.27 108.93 90.8926 109.122C90.5152 109.314 90.3264 109.891 90.3264 110.852C90.3264 111.62 90.7039 112.004 91.4587 112.004C91.6474 112.004 91.8361 111.908 92.0248 111.716C92.2135 111.524 92.4966 111.332 92.874 111.14L93.7232 110.563C93.7232 110.179 93.6288 109.795 93.4401 109.411C93.2514 109.218 93.1571 109.026 93.1571 108.834C93.5345 108.834 93.7232 109.026 93.7232 109.411C93.9119 109.795 94.2893 109.987 94.8554 109.987C94.8554 109.218 94.6667 108.834 94.2893 108.834C93.9119 108.834 93.7232 108.642 93.7232 108.258C93.7232 107.297 93.9119 106.817 94.2893 106.817C94.6667 106.817 94.8554 106.625 94.8554 106.24C94.8554 104.793 94.1029 103.602 92.598 102.666L97.686 101.394V103.646C98.0634 103.646 98.4408 103.839 98.8182 104.223C99.1957 104.607 99.8561 104.799 100.8 104.799C100.8 103.839 100.517 103.166 99.9505 102.782C99.6004 102.425 99.4127 101.821 99.3873 100.968L118.542 96.1796C120.026 95.8114 121.594 96.0232 122.927 96.772C124.259 97.5208 125.256 98.75 125.713 100.209C126.17 101.667 126.053 103.245 125.386 104.621C124.719 105.996 123.553 107.065 122.124 107.61L121.458 107.82L96.7352 114L121.459 120.181C122.944 120.552 124.231 121.477 125.056 122.766C125.882 124.054 126.184 125.61 125.9 127.114C125.617 128.618 124.769 129.957 123.531 130.857C122.292 131.756 120.757 132.149 119.239 131.953L118.543 131.821L74.9212 120.916C75.0012 120.827 75.0412 120.739 75.0412 120.65V120.074C75.2299 119.882 75.6073 119.786 76.1734 119.786H77.0226C77.2113 119.978 77.4944 120.074 77.8718 120.074C77.8718 119.306 77.5887 118.921 77.0226 118.921H75.3243C74.9468 118.921 74.7581 118.729 74.7581 118.345C74.7581 117.961 74.9468 117.768 75.3243 117.768H76.1734C76.5508 117.768 76.7396 117.672 76.7396 117.48C76.7396 116.904 76.4565 116.616 75.8904 116.616C75.3243 116.616 74.9468 116.904 74.7581 117.48L73.909 118.345C73.909 118.729 74.0033 118.921 74.192 118.921C74.5694 118.921 74.7581 119.113 74.7581 119.498C74.5694 119.882 74.192 120.17 73.6259 120.362C73.516 120.4 73.4167 120.451 73.3282 120.518L71.9972 120.185L67.8429 121.223L67.6816 120.074C67.3042 120.074 67.1155 120.17 67.1155 120.362C67.1155 120.747 66.9268 120.939 66.5494 120.939C65.9833 120.939 65.7946 120.554 65.9833 119.786C66.172 119.209 65.7946 118.921 64.851 118.921L64.568 116.616C64.3793 116.808 64.1906 116.904 64.0019 116.904V122.091H64.3709L59.5749 123.29C59.3182 122.813 59.1898 122.509 59.1898 122.38C59.1898 122.188 59.4729 121.707 60.039 120.939H56.3592C55.7931 120.939 55.5101 121.323 55.5101 122.091H57.2084C57.7745 122.091 58.0576 122.188 58.0576 122.38C57.8689 122.764 57.5858 122.956 57.2084 122.956C57.0374 123.13 56.9438 123.462 56.9278 123.952L44.3608 127.094C44.4341 126.824 44.4707 126.501 44.4707 126.126C44.4707 124.973 43.9989 124.397 43.0554 124.397C42.3006 124.397 41.8288 124.685 41.6401 125.262V126.126C41.6401 126.703 41.8288 127.183 42.2062 127.567C42.2238 127.585 42.2411 127.603 42.2582 127.62L25.4582 131.82C23.9746 132.188 22.4064 131.976 21.0737 131.227C19.741 130.479 18.7444 129.249 18.2873 127.791C17.8301 126.332 17.947 124.754 18.614 123.378C19.281 122.003 20.4478 120.934 21.8762 120.39L22.5422 120.18L31.8698 117.848C31.7786 117.99 31.733 118.156 31.733 118.345C31.733 118.729 31.9217 118.825 32.2991 118.633C32.6765 118.633 32.9596 118.729 33.1483 118.921C33.1483 119.113 33.054 119.306 32.8652 119.498V120.362C32.8652 120.747 33.054 120.939 33.4314 120.939H34.8467C35.2241 120.939 35.4128 121.131 35.4128 121.515C35.4128 121.707 35.3184 121.995 35.1297 122.38V123.532L35.4128 124.109V121.515V117.768H34.8467C34.658 117.768 34.5636 117.864 34.5636 118.057C34.2444 117.894 33.9928 117.663 33.8085 117.363L47.2592 114L22.5428 107.821C20.9993 107.435 19.6726 106.451 18.8545 105.086C18.0365 103.721 17.7942 102.087 18.1808 100.543ZM33.8085 117.363L31.8698 117.848C31.9642 117.7 32.1073 117.578 32.2991 117.48C32.8652 117.288 33.1483 117.096 33.1483 116.904C33.337 116.904 33.5257 117 33.7144 117.192C33.7436 117.251 33.7749 117.308 33.8085 117.363ZM42.2582 127.62C42.6097 127.969 42.8755 128.144 43.0554 128.144C43.736 128.144 44.1712 127.794 44.3608 127.094L42.2582 127.62ZM57.2381 123.875C57.1399 123.947 57.0357 124.025 56.9254 124.109C56.9254 124.055 56.9262 124.003 56.9278 123.952L57.2381 123.875ZM57.2381 123.875C57.812 123.454 58.1795 123.244 58.3407 123.244C58.4346 123.244 58.622 123.316 58.9029 123.458L57.2381 123.875ZM58.9029 123.458L59.5749 123.29C59.6994 123.522 59.8541 123.795 60.039 124.109C59.5651 123.819 59.1864 123.603 58.9029 123.458ZM64.3709 122.091H67.9647L67.8429 121.223L64.3709 122.091ZM73.3282 120.518C72.9605 120.793 72.7767 121.317 72.7767 122.091C73.7203 121.899 74.2864 121.611 74.4751 121.227C74.6787 121.123 74.8274 121.02 74.9212 120.916L73.3282 120.518ZM99.3873 100.968C99.3854 100.902 99.3844 100.834 99.3844 100.764C99.3844 100.188 99.4787 99.8038 99.6674 99.6116H97.686V101.394L99.3873 100.968ZM92.598 102.666C92.5042 102.607 92.4075 102.55 92.3079 102.494C90.6095 101.725 89.666 101.341 89.4773 101.341C89.0999 101.341 88.9111 101.533 88.9111 101.917C88.9111 102.302 88.7224 102.59 88.345 102.782C87.9676 102.398 87.5902 102.109 87.2128 101.917C86.8354 101.725 86.6467 101.341 86.6467 100.764C86.0806 100.764 85.7031 100.957 85.5144 101.341C85.3257 101.725 85.0427 101.917 84.6653 101.917C84.4765 101.917 84.2878 101.821 84.0991 101.629H83.8161C83.8161 100.668 84.0991 100.188 84.6653 100.188C85.4201 100.188 85.7975 99.7077 85.7975 98.7471C85.0427 98.7471 84.5709 98.9392 84.3822 99.3235C84.1935 99.8999 83.8161 100.38 83.2499 100.764C82.9669 100.092 82.1177 99.2658 80.9855 101.341C80.9855 101.725 80.7968 101.821 80.4193 101.629C80.0419 101.629 79.8532 101.821 79.8532 102.205V103.358C79.8532 103.55 79.9476 103.839 80.1363 104.223C80.5137 104.607 80.7968 104.799 80.9855 104.799C81.3629 104.799 81.5516 104.607 81.5516 104.223C81.7403 104.031 82.0234 103.839 82.4008 103.646C82.5895 103.646 82.6838 103.743 82.6838 103.935C82.6838 104.127 82.5895 104.223 82.4008 104.223V104.799C82.4008 104.949 82.4328 105.08 82.4968 105.191L83.6304 104.908L83.2499 103.358L82.9669 103.07C82.7782 103.07 82.6838 103.166 82.6838 103.358V102.494V101.917C82.6838 101.725 82.7782 101.629 82.9669 101.629C83.7217 101.629 84.0048 101.917 83.8161 102.494C83.8161 103.262 84.0048 103.743 84.3822 103.935C84.7596 103.935 84.854 103.743 84.6653 103.358C84.6653 102.974 85.0427 102.782 85.7975 102.782C85.4201 103.166 85.137 103.55 84.9483 103.935C84.8635 104.107 84.7977 104.338 84.7511 104.627L92.598 102.666ZM60.039 104.826V103.646H59.1898C59.1898 103.839 59.0955 103.935 58.9068 103.935C58.3407 103.935 57.9632 103.646 57.7745 103.07C57.5858 102.686 57.2084 102.494 56.6423 102.494C56.2649 102.494 56.0762 102.686 56.0762 103.07C56.0762 103.454 55.8875 103.646 55.5101 103.646C55.1326 103.454 54.9439 102.974 54.9439 102.205C54.9439 101.629 54.6609 101.341 54.0948 101.341C54.0948 100.572 54.3778 100.284 54.9439 100.476C55.6988 100.861 56.0762 100.572 56.0762 99.6116H54.9439C54.1891 99.6116 53.623 99.5156 53.2456 99.3235L52.1133 98.7471C51.9246 98.9392 51.8303 99.1313 51.8303 99.3235C51.8303 99.7077 52.019 99.8038 52.3964 99.6116C52.7738 99.6116 52.9625 99.8038 52.9625 100.188C52.9625 100.572 52.7738 100.764 52.3964 100.764C52.019 100.764 51.8303 100.572 51.8303 100.188C52.019 99.8038 51.7359 99.6116 50.9811 99.6116V97.306C50.9811 96.1532 50.7924 95.5768 50.415 95.5768H50.1319C50.1319 96.5375 49.9432 97.21 49.5658 97.5942L48.4336 98.7471C48.0561 98.7471 47.8674 98.5549 47.8674 98.1706C47.8674 97.7864 48.0561 97.4982 48.4336 97.306C48.811 97.306 48.9997 97.1139 48.9997 96.7296C46.9239 96.7296 45.886 97.7864 45.886 99.8999V100.188C45.886 100.38 45.9804 100.572 46.1691 100.764C47.3013 100.38 47.7731 100.188 47.5844 100.188H48.1505C48.5279 100.38 48.811 100.476 48.9997 100.476C48.9997 100.092 49.094 99.8999 49.2827 99.8999C49.6601 99.8999 50.0376 99.8038 50.415 99.6116C50.7924 99.9959 50.9811 100.476 50.9811 101.053V102.562L60.039 104.826ZM41.3645 100.158L41.9232 97.8824C41.9232 96.7296 41.8288 96.0572 41.6401 95.865C41.6401 95.0965 41.4514 94.7122 41.074 94.7122L40.5079 95.2886V97.5942C40.5079 98.9392 40.6022 99.7077 40.7909 99.8999C40.6082 99.7138 40.0717 99.6179 39.1814 99.6119L41.3645 100.158ZM41.3571 129.873L41.9232 129.297C41.9232 128.528 41.6401 128.144 41.074 128.144C40.6966 128.144 40.5079 128.432 40.5079 129.008L41.3571 129.873ZM64.0019 74.538C64.0019 72.4245 63.247 70.5993 61.7374 69.0622H62.3035C62.6809 69.0622 62.964 68.9661 63.1527 68.774C63.3414 68.774 63.6244 68.6779 64.0019 68.4858C64.0019 69.0622 64.1906 69.3504 64.568 69.3504H65.7002C66.0776 69.5425 66.172 69.7346 65.9833 69.9268C65.9833 70.3111 66.172 70.5032 66.5494 70.5032C66.7381 70.5032 66.8325 70.4071 66.8325 70.215H67.3986C67.9647 70.215 68.1534 70.4071 67.9647 70.7914C67.9647 71.1757 68.2478 71.3678 68.8139 71.3678H69.9461C69.9461 72.1363 70.3235 72.5206 71.0784 72.5206C71.4558 72.5206 71.6445 72.3285 71.6445 71.9442C71.6445 71.5599 72.0219 71.3678 72.7767 71.3678V73.3852C72.7767 73.9616 72.9654 74.2498 73.3428 74.2498C73.7203 74.2498 73.909 74.442 73.909 74.8262C73.909 75.2105 73.7203 75.4026 73.3428 75.4026C72.9654 75.4026 72.7767 75.5948 72.7767 75.979C72.9654 75.979 73.7203 76.0751 75.0412 76.2672C76.3621 76.6515 77.0226 77.2279 77.0226 77.9965C76.6452 77.6122 76.0791 77.42 75.3243 77.42C74.9468 77.42 74.7581 77.6122 74.7581 77.9965C74.7581 78.3807 74.9468 78.5729 75.3243 78.5729C75.7017 78.5729 75.8904 78.765 75.8904 79.1493C75.3243 79.1493 74.4751 78.5729 73.3428 77.42C72.9654 77.42 72.7767 77.6122 72.7767 77.9965C72.7767 78.3807 72.588 78.5729 72.2106 78.5729C72.0219 78.5729 71.7388 78.2847 71.3614 77.7083C71.1727 77.324 70.8896 76.9397 70.5122 76.5554C70.1348 76.5554 69.8518 76.6515 69.6631 76.8436C69.6631 77.2279 69.4744 77.42 69.0969 77.42C68.5308 77.42 67.9647 77.0358 67.3986 76.2672L66.2663 75.1144C66.2663 74.9223 66.3607 74.7302 66.5494 74.538C66.7381 74.3459 66.8325 74.1537 66.8325 73.9616C66.8325 73.3852 66.5494 73.097 65.9833 73.097C65.4172 73.097 65.0397 73.2892 64.851 73.6734C64.851 74.2498 64.568 74.538 64.0019 74.538ZM60.6051 68.4858L61.7374 69.0622C61.36 68.6779 60.9826 68.4858 60.6051 68.4858ZM87.4958 48.3116C86.9297 48.888 86.5523 49.1762 86.3636 49.1762C85.9862 48.7919 85.7031 48.6958 85.5144 48.888V48.5998C85.5144 48.0234 85.7975 47.7352 86.3636 47.7352C85.9862 47.543 84.9483 46.5824 83.2499 44.8531C81.7403 43.3161 80.608 42.3554 79.8532 41.9711C79.8532 43.5082 80.1363 44.2767 80.7024 44.2767H80.9855C81.3629 44.2767 81.6459 44.3728 81.8346 44.5649C81.8346 44.9492 81.4572 45.0453 80.7024 44.8531C79.9476 44.8531 79.5702 45.0453 79.5702 45.4295C79.5702 45.8138 80.2306 46.3902 81.5516 47.1588C83.0612 48.1194 84.0991 48.6958 84.6653 48.888C84.4765 49.0801 84.2878 49.1762 84.0991 49.1762C83.9104 49.3683 83.8161 49.6565 83.8161 50.0408C83.8161 49.8487 84.0048 49.7526 84.3822 49.7526H84.6653C85.0427 49.7526 85.4201 50.0408 85.7975 50.6172C86.1749 51.1936 86.458 51.4818 86.6467 51.4818C86.6467 50.7133 86.8354 49.7526 87.2128 48.5998L87.4958 48.3116ZM87.4958 48.3116L88.062 47.7352V47.447C87.8733 47.6391 87.6846 47.9273 87.4958 48.3116ZM69.38 114.886C69.5687 114.118 70.0405 113.734 70.7953 113.734C72.1162 113.734 72.7767 114.79 72.7767 116.904V118.057C72.588 117.864 72.3993 117.768 72.2106 117.768H71.9275C71.3614 117.768 70.984 117.961 70.7953 118.345C70.7953 118.729 70.5122 118.921 69.9461 118.921C70.1348 118.729 70.2292 118.345 70.2292 117.768C70.2292 117.192 69.8518 116.904 69.0969 116.904C68.3421 117.096 67.9647 117 67.9647 116.616V115.175C67.9647 114.79 67.6816 114.598 67.1155 114.598C66.7381 114.79 66.5494 114.694 66.5494 114.31L67.9647 112.869C68.7195 112.293 69.38 112.004 69.9461 112.004C69.9461 112.389 69.8518 112.773 69.6631 113.157C69.4744 113.541 69.38 114.118 69.38 114.886ZM56.0762 84.6251L56.6423 87.5071C56.831 87.5071 57.0197 87.315 57.2084 86.9307C57.5858 86.7386 57.9632 86.6425 58.3407 86.6425C58.7181 86.6425 58.9068 86.8347 58.9068 87.2189V88.66L62.0204 88.3717C62.0204 87.7953 61.7374 87.5071 61.1713 87.5071C60.7938 87.6993 60.4164 87.6993 60.039 87.5071C60.039 84.8173 59.9447 83.088 59.756 82.3195C59.5672 81.7431 59.2842 81.4549 58.9068 81.4549C57.9632 81.4549 57.3971 81.647 57.2084 82.0313C57.0197 82.4156 56.7367 82.6077 56.3592 82.6077C55.9818 82.6077 55.7931 82.4156 55.7931 82.0313C55.9818 81.647 55.8875 81.4549 55.5101 81.4549C55.1326 81.4549 54.9439 81.647 54.9439 82.0313C54.9439 82.4156 55.1326 82.6077 55.5101 82.6077C55.8875 82.6077 56.0762 82.8959 56.0762 83.4723C56.6423 83.4723 56.9254 83.2802 56.9254 82.8959C57.1141 82.5116 57.4915 82.3195 58.0576 82.3195C58.435 82.3195 58.7181 82.4156 58.9068 82.6077C58.7181 83.9527 57.7745 84.6251 56.0762 84.6251ZM91.7418 69.3504C91.7418 70.1189 91.9305 70.4071 92.3079 70.215C92.6853 70.215 92.874 70.4071 92.874 70.7914C92.6853 70.7914 92.3079 70.6953 91.7418 70.5032C91.3643 70.3111 90.9869 70.215 90.6095 70.215C90.2321 70.215 89.949 70.3111 89.7603 70.5032C89.7603 69.5425 89.949 68.9661 90.3264 68.774C90.8926 68.5818 91.3643 68.2936 91.7418 67.9094C91.3643 67.333 90.8926 66.9487 90.3264 66.7566C89.949 66.5644 89.7603 66.0841 89.7603 65.3155H91.7418C91.7418 66.8526 92.3079 67.7172 93.4401 67.9094C94.7611 68.2936 95.5159 69.1583 95.7046 70.5032C94.5723 70.5032 93.7232 70.4071 93.1571 70.215C92.7796 70.0229 92.3079 69.7346 91.7418 69.3504ZM89.7603 120.074C89.7603 118.345 89.1942 117.096 88.062 116.327C87.1184 115.559 86.6467 114.886 86.6467 114.31C86.6467 113.926 86.8354 113.734 87.2128 113.734C88.1563 114.886 88.8168 115.847 89.1942 116.616C89.7603 117.384 90.7982 118.537 92.3079 120.074C92.6853 120.074 92.874 119.882 92.874 119.498C92.6853 119.113 92.4022 118.921 92.0248 118.921C91.8361 118.921 91.7418 118.729 91.7418 118.345C91.9305 118.153 92.2135 118.057 92.5909 118.057H93.7232V120.939H92.874C92.874 121.131 92.7796 121.227 92.5909 121.227C92.2135 121.227 91.9305 121.035 91.7418 120.65L91.1756 120.074C90.7982 120.074 90.6095 120.17 90.6095 120.362C90.6095 120.747 90.4208 120.939 90.0434 120.939L89.7603 120.074ZM96.5538 122.668C96.1764 122.668 95.8933 122.764 95.7046 122.956C95.7046 122.38 95.6102 121.803 95.4215 121.227C95.2328 120.843 95.1385 120.458 95.1385 120.074C94.7611 120.074 94.5724 120.266 94.5724 120.65V121.515C94.7611 121.707 94.8554 121.995 94.8554 122.38C94.8554 122.956 94.478 123.148 93.7232 122.956C92.9683 122.764 92.5909 122.956 92.5909 123.532L92.874 123.821C93.0627 124.013 93.2514 124.109 93.4401 124.109C93.6288 124.109 93.8175 124.013 94.0062 123.821H95.1385C95.5159 123.821 95.9877 124.205 96.5538 124.973C97.1199 125.934 97.5917 126.415 97.9691 126.415C98.3465 126.415 98.5352 126.03 98.5352 125.262C98.5352 124.685 98.3465 124.109 97.9691 123.532C97.5917 122.956 97.1199 122.668 96.5538 122.668ZM54.9439 109.987C54.9439 110.948 55.227 111.428 55.7931 111.428C56.5479 111.428 56.9254 111.908 56.9254 112.869C55.9818 112.869 55.5101 113.157 55.5101 113.734C55.5101 114.502 55.0383 114.886 54.0948 114.886V112.004C53.5286 112.004 53.1512 111.812 52.9625 111.428C52.9625 111.236 52.7738 111.044 52.3964 110.852C52.019 110.852 51.8303 111.044 51.8303 111.428C51.8303 111.812 51.6416 112.004 51.2641 112.004L50.9811 111.716C50.9811 111.524 51.1698 111.236 51.5472 110.852L52.1133 110.275H52.6795C52.8682 110.467 53.1512 110.563 53.5286 110.563C53.5286 110.179 54.0004 109.987 54.9439 109.987ZM79.8532 79.4375H76.7396V82.6077C76.9283 82.6077 77.117 82.5116 77.3057 82.3195H78.1549C78.5323 82.3195 78.721 82.7038 78.721 83.4723C79.4758 83.4723 79.8532 83.088 79.8532 82.3195C79.8532 81.9352 79.7589 81.5509 79.5702 81.1667V80.3021C79.5702 79.9178 79.6645 79.6296 79.8532 79.4375ZM92.874 51.1936C92.874 51.9622 92.6853 52.2504 92.3079 52.0582C91.9305 52.0582 91.7418 52.2504 91.7418 52.6346C91.7418 52.8268 92.0248 52.8268 92.5909 52.6346C93.1571 52.6346 93.5345 52.8268 93.7232 53.211C93.5345 53.0189 93.0627 53.3071 92.3079 54.0756C91.553 54.8442 90.9869 55.2285 90.6095 55.2285C90.6095 54.652 90.4208 54.2678 90.0434 54.0756C89.8547 54.0756 89.7603 53.8835 89.7603 53.4992C89.7603 53.115 89.949 52.9228 90.3264 52.9228C90.7039 53.1149 90.8926 53.0189 90.8926 52.6346C90.7039 52.2504 90.2321 52.0582 89.4773 52.0582C88.9112 52.0582 88.6281 51.8661 88.6281 51.4818C88.6281 51.2897 88.8168 51.1936 89.1942 51.1936H92.874ZM60.8882 117.192C60.8882 117.576 60.6995 117.864 60.3221 118.057C59.9447 117.672 59.6616 117.192 59.4729 116.616C59.2842 116.231 58.8124 116.039 58.0576 116.039V118.057C58.2463 118.057 58.3407 117.961 58.3407 117.768H58.9068C59.6616 117.768 59.9447 117.961 59.756 118.345C59.756 118.729 59.9447 118.921 60.3221 118.921H61.4543C61.8317 119.113 62.1148 119.306 62.3035 119.498C62.4922 119.882 62.6809 120.074 62.8696 120.074C62.8696 119.69 62.6809 119.113 62.3035 118.345C61.9261 117.768 61.7374 117.288 61.7374 116.904C61.36 116.904 61.0769 117 60.8882 117.192ZM64.851 98.4588C64.851 97.8824 65.2285 97.5942 65.9833 97.5942V99.8999C65.9833 100.476 65.7946 100.764 65.4172 100.764C65.0397 100.38 64.851 99.6117 64.851 98.4588ZM73.909 100.764H75.8904V98.7471C74.7581 98.9392 74.0977 99.6117 73.909 100.764ZM82.6838 86.6425V84.6251H83.8161V86.6425H82.6838ZM39.9417 122.091V124.109H41.074V122.091H39.9417ZM68.864 122.956C68.8074 123.303 68.6963 123.688 68.5308 124.109L68.8139 122.956H68.864ZM70.7324 123.308C70.5227 123.202 70.2606 123.084 69.9461 122.956H68.864C68.9366 122.511 68.9199 122.127 68.8139 121.803C68.8139 121.227 69.1913 120.939 69.9461 120.939V122.668L70.7324 123.308ZM71.3614 123.821C71.3614 123.693 71.1517 123.522 70.7324 123.308L71.3614 123.821ZM92.874 91.542C92.6853 92.8869 91.9305 93.5594 90.6095 93.5594C90.7982 92.5987 91.553 91.9262 92.874 91.542ZM62.0204 97.5942C62.964 97.7864 63.6244 98.4588 64.0019 99.6116C62.6809 99.6116 62.0204 98.9392 62.0204 97.5942ZM73.909 41.1065C74.0977 39.9537 74.7581 39.2812 75.8904 39.0891C75.7017 40.2419 75.0412 40.9144 73.909 41.1065ZM95.7046 63.2981C95.5159 64.4509 94.8554 65.1234 93.7232 65.3155C93.9119 64.1627 94.5723 63.4903 95.7046 63.2981ZM50.1319 108.834H48.9997V109.987L50.9811 109.411C50.9811 109.026 50.698 108.834 50.1319 108.834ZM90.6095 64.4509C89.666 64.0667 89.0055 63.3942 88.6281 62.4335C89.949 62.4335 90.6095 63.106 90.6095 64.4509ZM58.0576 66.4683C58.435 66.0841 59.0955 65.8919 60.039 65.8919C60.039 65.5077 59.756 65.3155 59.1898 65.3155H58.0576V66.4683ZM74.7581 104.799L75.8904 106.817H74.7581V104.799ZM97.686 55.8049C97.686 55.4206 97.403 55.2285 96.8368 55.2285C96.8368 56.1891 97.403 56.6695 98.5352 56.6695L98.2521 56.3813C97.8747 56.3813 97.686 56.1891 97.686 55.8049ZM99.3844 55.2285C99.007 55.2285 98.8182 55.4206 98.8182 55.8049L99.3844 55.2285ZM98.8182 55.8049C98.7257 55.899 98.6559 55.9932 98.6087 56.0874C98.7484 56.0643 98.8182 55.9702 98.8182 55.8049ZM98.6087 56.0874C98.5597 56.1854 98.5352 56.2833 98.5352 56.3813V56.093C98.5616 56.093 98.5861 56.0912 98.6087 56.0874ZM67.9534 123.06C67.8477 123.106 67.7571 123.167 67.6816 123.244C67.8326 123.244 67.9232 123.183 67.9534 123.06ZM67.9534 123.06C68.1119 122.991 68.3044 122.956 68.5308 122.956H67.9647C67.9647 122.994 67.9609 123.029 67.9534 123.06ZM86.6467 109.987V105.664H87.7789V109.987H86.6467Z" fill="#F4C256"/>
</svg>
