<svg width="36" height="37" viewBox="0 0 36 37" fill="none" xmlns="http://www.w3.org/2000/svg">
<path d="M24.7505 11.75V11.765M6.00049 12.5C6.00049 10.9087 6.63263 9.38261 7.75785 8.25739C8.88307 7.13217 10.4092 6.50003 12.0005 6.50003H24.0005C25.5918 6.50003 27.1179 7.13217 28.2431 8.25739C29.3683 9.38261 30.0005 10.9087 30.0005 12.5V24.5C30.0005 26.0913 29.3683 27.6175 28.2431 28.7427C27.1179 29.8679 25.5918 30.5 24.0005 30.5H12.0005C10.4092 30.5 8.88307 29.8679 7.75785 28.7427C6.63263 27.6175 6.00049 26.0913 6.00049 24.5V12.5ZM13.5005 18.5C13.5005 19.6935 13.9746 20.8381 14.8185 21.682C15.6624 22.5259 16.807 23 18.0005 23C19.194 23 20.3386 22.5259 21.1825 21.682C22.0264 20.8381 22.5005 19.6935 22.5005 18.5C22.5005 17.3066 22.0264 16.162 21.1825 15.318C20.3386 14.4741 19.194 14 18.0005 14C16.807 14 15.6624 14.4741 14.8185 15.318C13.9746 16.162 13.5005 17.3066 13.5005 18.5Z" stroke="#2D2D2D" stroke-width="3" stroke-linecap="round" stroke-linejoin="round"/>
</svg>
