<svg width="1769" height="354" viewBox="0 0 1769 354" fill="none" xmlns="http://www.w3.org/2000/svg">
<path d="M107.138 57.5742C104.458 56.7846 100.529 56.3876 95.3911 56.3636V48.248H144.292V56.3658C136.981 56.4661 131.534 58.7806 128.043 63.4091L128.026 63.4327L128.011 63.4582L90.2944 128.081L90.2263 128.198V128.333V169.159C90.2263 170.496 90.6877 171.673 91.5987 172.668C92.4997 173.653 93.8224 174.441 95.5247 175.058C98.8378 176.258 103.717 176.854 110.13 176.883V184.592H35.9111V176.883C42.5886 176.851 47.6801 176.18 51.14 174.837C52.9168 174.147 54.294 173.268 55.2296 172.178C56.1735 171.079 56.6481 169.788 56.6481 168.326V129.166V129.027L56.5761 128.908L22.7828 72.9533L22.7822 72.9523C16.2587 62.2072 8.79751 56.5857 0.5 56.3689V48.248H68.4721V56.364C63.7987 56.3947 60.2128 56.86 57.7578 57.7921C56.4833 58.2761 55.4819 58.8975 54.796 59.679C54.1013 60.4705 53.7499 61.4051 53.7499 62.4608C53.7499 63.2554 54.0643 64.2834 54.6261 65.5052C55.1936 66.7393 56.0389 68.2241 57.1577 69.9515L84.2832 114.935L84.7256 115.668L85.1468 114.922L110.417 70.1645L110.442 70.121L110.457 70.0735C111.156 67.9254 111.547 65.109 111.547 61.6278C111.547 60.6698 111.131 59.8442 110.364 59.168C109.611 58.5045 108.521 57.9815 107.138 57.5742Z" fill="#2B1D1C" stroke="#2B1D1C"/>
<path d="M235.421 59.8713L235.426 59.8747C240.563 63.4789 244.599 68.194 247.474 74.0999C250.338 79.947 252.279 86.6532 253.302 94.1542C254.37 101.665 254.895 109.369 254.895 117.265C254.895 125.721 254.371 133.687 253.301 141.095C252.279 148.545 250.406 155.028 247.695 160.538C244.976 166.094 241.209 170.446 236.432 173.598C236.432 173.598 236.432 173.598 236.432 173.598L236.157 173.181L235.421 59.8713ZM235.421 59.8713C230.171 56.2822 223.362 54.5247 215.013 54.5247M235.421 59.8713L215.013 54.5247M215.013 54.5247C207.382 54.5247 201.174 56.1658 196.518 59.5798M215.013 54.5247L196.518 59.5798M196.518 59.5798C191.858 62.9594 188.328 67.4988 185.875 73.1711C183.429 78.8244 181.83 85.3162 181.071 92.6213C180.313 99.9044 179.935 107.564 179.935 115.599C179.935 124.355 180.458 132.516 181.596 140.148L196.518 59.5798ZM283.746 146.575L283.746 146.576C280.032 155.524 274.918 163.028 268.436 169.106C261.941 175.188 254.282 179.841 245.414 183.005C236.542 186.123 226.913 187.703 216.446 187.703C206.583 187.703 197.325 186.383 188.641 183.716C180.036 181.014 172.496 176.844 166.043 171.179C159.636 165.481 154.573 158.214 150.851 149.306C147.134 140.374 145.291 129.741 145.291 117.372C145.291 104.854 147.057 94.1014 150.631 85.1387L150.631 85.1381C154.199 76.1552 159.186 68.7718 165.517 62.9191C171.892 57.1114 179.44 52.8271 188.149 50.0874C196.871 47.3439 206.282 45.9844 216.446 45.9844C226.498 45.9844 235.946 47.4587 244.822 50.3851C253.653 53.3578 261.342 57.751 267.953 63.5737C274.509 69.3815 279.699 76.6239 283.566 85.3393C287.388 94.0394 289.315 104.148 289.315 115.706C289.315 127.383 287.464 137.689 283.746 146.575Z" fill="#2B1D1C" stroke="#2B1D1C"/>
<path d="M418.607 173.254L418.606 173.255C414.583 177.831 409.166 181.392 402.344 183.896L402.342 183.897C395.492 186.445 386.744 187.691 375.997 187.691C367.907 187.691 360.435 186.564 353.684 184.308L353.683 184.307C346.886 182.058 341.073 178.947 336.206 174.981C331.379 171.016 327.607 166.259 324.839 160.723C322.115 155.199 320.765 149.183 320.765 142.639V70.1028C320.765 65.5562 319.095 62.0804 315.73 59.7654C312.484 57.5331 307.719 56.4209 301.51 56.3647V48.248H372.998V56.3647C366.788 56.4209 362.024 57.5331 358.778 59.7654C355.412 62.0804 353.743 65.5562 353.743 70.1028V137.457C353.743 141.912 354.123 146.433 354.882 151.117L354.882 151.118C355.647 155.784 357.148 160.006 359.329 163.809C361.493 167.592 364.544 170.75 368.426 173.213L368.427 173.214C372.317 175.661 377.367 176.884 383.522 176.884C395.674 176.884 404.52 173.567 409.91 166.748C415.307 159.999 417.922 150.222 417.922 137.457V73.2118C417.922 67.6504 416.149 63.4007 412.544 60.5583C409.048 57.8018 403.904 56.4294 397.195 56.3648V48.248H446.135V56.366C440.65 56.4445 436.425 57.8263 433.552 60.5906C430.588 63.4418 429.146 67.6812 429.146 73.2118V134.958C429.146 142.947 428.393 150.212 426.892 156.716C425.388 163.181 422.625 168.702 418.607 173.254Z" fill="#2B1D1C" stroke="#2B1D1C"/>
<path d="M490.504 171.042C494.072 174.876 499.346 176.793 506.224 176.881V184.592H455.658V176.88C461.319 176.773 465.664 174.836 468.598 171.005C471.598 167.088 473.063 161.266 473.063 153.613V63.7102C473.063 61.0957 471.099 59.2618 467.644 58.0981C464.264 56.9599 459.285 56.3909 452.742 56.3635V48.248H491.185L568.716 131.367L569.582 132.295V131.026V77.7836C569.582 70.7282 567.821 65.3481 564.207 61.7355C560.679 58.2086 555.465 56.447 548.651 56.3654V48.248H599.033V56.3661C592.906 56.4568 588.209 58.2264 585.032 61.7545C581.777 65.3679 580.195 70.7403 580.195 77.7836V185.345L573.812 187.022L485.933 94.6214L485.071 93.7147V94.966V153.613C485.071 161.285 486.856 167.122 490.504 171.042Z" fill="#2B1D1C" stroke="#2B1D1C"/>
<path d="M712.8 176.484L712.496 176.137L712.125 176.412C707.331 179.969 701.821 182.745 695.631 184.734C689.356 186.724 682.976 187.703 676.412 187.703C655.925 187.703 640.136 181.98 628.98 170.566C617.869 159.148 612.25 141.929 612.25 118.815C612.25 108.218 613.456 98.4602 615.865 89.5491L615.865 89.5485C618.271 80.5979 621.992 72.9414 627.049 66.492C632.101 60.0883 638.584 55.0702 646.46 51.43C654.332 47.7961 663.672 45.9844 674.513 45.9844C677.67 45.9844 681.021 46.1767 684.597 46.5911C688.17 47.0052 691.7 47.6405 695.122 48.544C698.533 49.4473 701.798 50.6093 704.879 52.0293C707.943 53.4946 710.622 55.2033 712.924 57.2485L713.359 57.6346L713.676 57.1472C717.019 52.0022 721.587 48.5154 727.468 46.7C732.419 57.9635 734.887 73.9593 734.926 94.7012H721.106C717.659 80.7924 712.974 70.7154 706.999 64.5843L706.998 64.5829C700.938 58.4145 692.74 55.3576 682.388 55.3576C675.427 55.3576 669.644 56.9246 665.112 60.0973L665.11 60.0989C660.655 63.2556 657.076 67.396 654.512 72.5041C651.907 77.5974 650.15 83.4332 649.165 90.0618C648.173 96.6361 647.716 103.315 647.716 110.108C647.716 116.326 647.911 123.338 648.328 131.065L648.827 131.038L648.328 131.065C648.746 138.812 650.002 146.117 652.097 152.939L652.097 152.939C654.199 159.774 657.451 165.56 661.939 170.234C666.482 174.976 672.825 177.313 680.945 177.313C689.451 177.313 695.924 175.292 700.247 171.119L700.248 171.118C704.596 166.89 706.724 159.757 706.724 149.8C706.724 143.186 704.959 138.133 701.34 134.741C697.812 131.436 692.606 129.785 685.803 129.708V121.998H751.499V129.708C745.678 129.771 741.214 130.953 738.177 133.334C735.029 135.801 733.493 139.492 733.493 144.317V186.909H726.828C724.145 185.798 721.598 184.313 719.16 182.432C716.695 180.524 714.598 178.541 712.8 176.484Z" fill="#2B1D1C" stroke="#2B1D1C"/>
<path d="M1172.68 92.5018H1159.41C1158.33 87.1544 1156.96 82.2798 1155.35 77.8248L1172.68 92.5018ZM1172.68 92.5018C1172.67 85.2667 1172.41 77.6072 1171.97 69.5035C1171.5 61.4484 1170.28 54.2245 1168.31 47.8193M1172.68 92.5018L1168.31 47.8193M1154.47 143.635L1154.87 143.331C1154.87 143.331 1154.87 143.331 1154.87 143.332C1157.41 146.66 1158.68 150.785 1158.68 155.638C1158.68 158.732 1158.15 161.605 1157.11 164.37L1157.11 164.373C1156.07 167.07 1154.37 169.535 1152.03 171.612C1149.75 173.737 1146.71 175.38 1143.03 176.558L1143.03 176.558C1139.33 177.74 1134.81 178.339 1129.45 178.339C1123.49 178.339 1118.33 177.095 1114.08 174.562C1109.85 172.05 1106.38 168.849 1103.74 164.844C1101.13 160.89 1099.2 156.565 1098.01 151.862L1098.01 151.861C1096.88 147.335 1096.32 142.889 1096.28 138.47H1083.85C1083.33 141.871 1082.97 145.2 1082.8 148.501L1082.8 148.507L1082.8 148.507C1082.58 151.902 1082.5 155.386 1082.5 158.941C1082.5 164.134 1082.83 169.133 1083.5 173.948L1083.5 173.949C1084.15 178.638 1085.26 183.293 1086.81 187.879C1089.77 186.965 1092.63 185.786 1095.43 184.373C1098.33 182.887 1101.16 181.17 1103.88 179.272L1104.2 179.047L1104.49 179.308C1108 182.404 1112.05 184.547 1116.7 185.757L1116.71 185.757C1121.39 186.984 1126.26 187.584 1131.28 187.584C1138.21 187.584 1144.57 186.612 1150.32 184.644L1150.32 184.644C1156.08 182.677 1161.02 179.82 1165.16 176.123C1169.27 172.381 1172.42 167.909 1174.67 162.606C1176.89 157.31 1178 151.309 1178 144.499C1178 137.413 1177.08 131.589 1175.16 126.985L1175.16 126.984C1173.27 122.398 1170.61 118.482 1167.17 115.229C1163.73 111.967 1159.57 109.183 1154.67 106.878L1154.67 106.878C1149.76 104.56 1144.37 102.24 1138.49 99.9101C1134.09 98.1752 1130.06 96.6184 1126.41 95.2043C1125.73 94.9444 1125.07 94.6893 1124.43 94.4389C1120.21 92.857 1116.64 91.1525 1113.76 89.254L1142.55 135.471M1154.47 143.635C1152.03 140.409 1147.98 137.855 1142.39 135.944M1154.47 143.635C1156.94 146.862 1158.18 150.875 1158.18 155.638C1158.18 158.672 1157.66 161.486 1156.64 164.194L1154.47 143.635ZM1142.39 135.944L1142.55 135.471M1142.39 135.944L1142.55 135.471C1142.55 135.471 1142.55 135.471 1142.55 135.471M1142.39 135.944C1134.03 133.053 1126.33 130.201 1119.35 127.397C1112.38 124.613 1106.34 121.242 1101.2 117.344M1142.55 135.471C1134.2 132.583 1126.51 129.734 1119.54 126.933L1119.54 126.933C1112.6 124.163 1106.6 120.814 1101.51 116.946M1101.2 117.344L1101.51 116.946M1101.2 117.344L1101.51 116.945C1101.51 116.946 1101.51 116.946 1101.51 116.946M1101.2 117.344C1096.07 113.436 1092.05 108.827 1089.16 103.459M1101.51 116.946L1088.26 67.8246C1085.98 72.5585 1084.85 77.8781 1084.85 83.7739C1084.85 91.571 1086.31 98.1392 1089.16 103.459M1089.16 103.459L1089.6 103.223M1089.16 103.459L1089.6 103.222C1089.6 103.222 1089.6 103.222 1089.6 103.223M1089.6 103.223C1086.8 97.9925 1085.35 91.5102 1085.35 83.7739C1085.35 77.9428 1086.46 72.6992 1088.71 68.0419L1088.71 68.0393C1090.93 63.3778 1093.93 59.4587 1097.7 56.2013C1101.48 52.9906 1105.91 50.5057 1111 48.7966C1116.09 47.1243 1121.47 46.2773 1127.16 46.2773C1132.16 46.2773 1136.97 47.1595 1141.56 49.0159L1141.56 49.0177C1146.12 50.8136 1149.95 53.8608 1153.04 58.1776L1153.51 58.8231L1153.89 58.1262C1155.34 55.4753 1157.49 53.2882 1160.28 51.5219C1162.97 49.8821 1165.66 48.6362 1168.31 47.8193M1089.6 103.223L1168.31 47.8193" fill="#2B1D1C" stroke="#2B1D1C"/>
<path d="M1214.95 184.51V176.876C1221.89 176.81 1227.2 175.364 1230.8 172.457C1234.51 169.463 1236.33 164.988 1236.33 159.122V66.2868C1236.33 64.1137 1235.57 62.4125 1234.01 61.2759C1232.48 60.1607 1230.25 59.6412 1227.39 59.6412C1223.1 59.6412 1219.35 60.3605 1216.19 61.8588C1213.03 63.3248 1210.31 65.508 1208.02 68.4569C1205.72 71.397 1203.79 75.0462 1202.2 79.3937C1200.62 83.6196 1199.26 88.5232 1198.05 94.0813L1186.27 92.3837L1191.89 47.7708C1195.33 48.2994 1199.07 48.6872 1203.13 48.935C1207.37 49.1943 1210.76 49.3488 1213.21 49.3488H1294.34C1297.39 49.3488 1301.08 49.1945 1305.47 48.9351C1309.64 48.689 1313.44 48.3046 1316.87 47.7812V91.7151L1305.91 92.6418C1305.2 82.0532 1302.91 74.0464 1298.98 68.6998C1294.95 63.1514 1288.01 60.467 1278.33 60.467C1275.35 60.467 1273.04 60.9184 1271.45 61.8777C1269.83 62.8612 1269.01 64.3565 1269.01 66.2868V159.122C1269.01 164.991 1270.86 169.467 1274.64 172.459C1278.3 175.366 1283.71 176.811 1290.77 176.876V184.51H1214.95Z" fill="#2B1D1C" stroke="#2B1D1C"/>
<path d="M1435.05 141.391L1435.05 141.388C1436.06 134.045 1436.55 126.148 1436.55 117.765C1436.55 109.938 1436.06 102.301 1435.05 94.8542L1435.05 94.8508C1433.99 87.4157 1432.07 80.7673 1429.22 74.9699C1426.37 69.1144 1422.38 64.4384 1417.24 60.8642L1417.24 60.863C1412.07 57.3031 1405.33 55.5607 1397.04 55.5607C1389.47 55.5607 1383.32 57.1883 1378.66 60.5727L1378.66 60.5738C1374.09 63.9242 1370.58 68.4244 1368.15 74.0492C1365.72 79.6543 1364.14 86.0908 1363.38 93.3333C1362.63 100.554 1362.26 108.148 1362.26 116.114C1362.26 124.795 1362.79 132.886 1363.88 140.45L1363.88 140.452C1365.01 148.07 1366.97 154.653 1369.81 160.261C1372.66 165.882 1376.51 170.3 1381.35 173.539L1381.35 173.541C1386.26 176.759 1392.55 178.348 1400.12 178.348C1407.46 178.348 1413.54 176.797 1418.29 173.616C1423.01 170.49 1426.75 166.177 1429.44 160.669C1432.14 155.205 1433.99 148.776 1435.05 141.391ZM1465.19 146.821L1465.19 146.822C1461.5 155.693 1456.44 163.132 1450 169.157C1443.56 175.186 1435.93 179.799 1427.19 182.936C1418.39 186.026 1408.85 187.593 1398.47 187.593C1388.68 187.593 1379.47 186.284 1370.9 183.64C1362.34 180.962 1354.89 176.828 1348.49 171.211C1342.11 165.564 1337.12 158.361 1333.43 149.53C1329.76 140.675 1327.92 130.133 1327.92 117.871C1327.92 105.462 1329.68 94.8021 1333.22 85.9167L1333.22 85.9166C1336.75 77.0103 1341.67 69.6916 1347.98 63.8906C1354.3 58.1331 1361.77 53.886 1370.41 51.1701C1379.05 48.4503 1388.38 47.1025 1398.47 47.1025C1408.44 47.1025 1417.79 48.5641 1426.59 51.4652C1435.35 54.4123 1442.98 58.7678 1449.52 64.54C1456.03 70.297 1461.16 77.4762 1465 86.1161C1468.8 94.7403 1470.7 104.761 1470.7 116.22C1470.7 127.796 1468.87 138.012 1465.19 146.821Z" fill="#2B1D1C" stroke="#2B1D1C"/>
<path d="M1522.07 171.083C1525.6 174.885 1530.83 176.785 1537.65 176.874V184.509H1487.52V176.872C1493.14 176.765 1497.44 174.844 1500.33 171.046C1503.3 167.161 1504.74 161.388 1504.74 153.801V64.6725C1504.74 62.0778 1502.79 60.2586 1499.37 59.1046C1496.02 57.9762 1491.1 57.4121 1484.64 57.3846V49.3477H1522.75L1599.6 131.75L1600.46 132.678V131.409V78.6247C1600.46 71.6294 1598.72 66.2943 1595.14 62.7117C1591.64 59.2149 1586.47 57.4683 1579.72 57.3866V49.3477H1629.66V57.3873C1623.59 57.478 1618.93 59.2326 1615.78 62.7305C1612.55 66.3139 1610.98 71.6413 1610.98 78.6247V185.257L1604.63 186.919L1517.54 95.3147L1516.68 94.4075V95.6592V153.801C1516.68 161.408 1518.45 167.196 1522.07 171.083Z" fill="#2B1D1C" stroke="#2B1D1C"/>
<path d="M1744.39 72.525L1744.39 72.5263C1746.71 76.5338 1748.47 82.2581 1749.71 89.6104L1761.3 88.6332L1759.69 49.3477H1642.77V57.386C1649.22 57.4492 1654.16 58.7421 1657.52 61.3422C1660.99 64.028 1662.69 68.0465 1662.69 73.3049V164.489C1662.69 168.599 1661.08 171.737 1657.85 173.82C1654.73 175.824 1650.16 176.822 1644.2 176.875V184.509H1762.61L1768.23 142.935L1757.42 141.409C1755.41 146.998 1753.45 151.829 1751.58 155.846C1749.64 160.034 1747.08 163.465 1743.87 166.186L1743.87 166.186C1740.61 168.944 1736.49 170.922 1731.45 172.251L1731.45 172.251C1726.4 173.573 1719.64 174.217 1711.29 174.217C1706.12 174.217 1702.15 173.388 1699.46 171.665C1696.73 169.919 1695.37 167.285 1695.37 163.846V125.436C1695.37 123.673 1696.01 122.238 1697.31 121.208C1698.58 120.197 1700.44 119.617 1702.81 119.426L1702.84 119.424L1702.87 119.425C1706.6 119.54 1709.78 119.878 1712.41 120.454M1744.39 72.525L1712.3 120.942M1744.39 72.525C1742 68.4157 1739.16 65.4144 1735.76 63.4885L1735.76 63.4875M1744.39 72.525L1735.76 63.4875M1712.41 120.454C1712.41 120.454 1712.41 120.454 1712.41 120.454L1712.3 120.942M1712.41 120.454C1712.41 120.453 1712.41 120.453 1712.4 120.453L1712.3 120.942M1712.41 120.454C1715.07 121.025 1717.32 122.075 1719.12 123.637L1719.12 123.641C1720.9 125.213 1722.28 127.516 1723.24 130.424M1712.3 120.942C1714.89 121.499 1717.06 122.517 1718.79 124.015C1720.48 125.513 1721.83 127.731 1722.77 130.583M1723.24 130.424C1723.24 130.423 1723.24 130.423 1723.24 130.422L1722.77 130.583M1723.24 130.424C1724.2 133.262 1724.87 136.909 1725.29 141.366M1723.24 130.424C1723.24 130.425 1723.24 130.426 1723.24 130.426L1722.77 130.583M1722.77 130.583L1725.29 141.366M1725.29 141.366H1724.83V141.866L1725.33 141.822C1725.32 141.669 1725.3 141.517 1725.29 141.366ZM1725.29 141.366H1736.26V87.5268M1725.29 141.366L1736.26 87.5268M1736.26 87.5268H1725.29C1724.86 92.295 1724 96.1095 1722.62 98.9862L1722.62 98.9898C1721.2 101.896 1719.42 104.145 1717.2 105.638C1717.2 105.638 1717.2 105.638 1717.2 105.638L1716.92 105.223L1736.26 87.5268ZM1735.76 63.4875C1732.43 61.6135 1728.57 60.5013 1724.27 60.1602M1735.76 63.4875L1724.27 60.1602M1724.27 60.1602C1720.02 59.823 1715.28 59.64 1710.05 59.64M1724.27 60.1602L1710.05 59.64M1710.05 59.64C1705.48 59.64 1701.9 60.2757 1699.35 61.6481L1710.05 59.64Z" fill="#2B1D1C" stroke="#2B1D1C"/>
<path d="M923.249 81.102V90.541V91.4276L924.008 90.9688L946.827 77.1697C952.38 73.8292 959.317 73.7559 964.935 76.9925L965.185 76.5593L964.935 76.9926C970.556 80.2294 973.983 86.2684 973.88 92.7474L973.495 117.027V117.027C973.399 123.285 969.963 129.112 964.536 132.222L964.532 132.225L928.464 153.309L928.341 132.473L955.133 116.725L955.375 116.582L955.379 116.302L955.735 93.8531L955.75 92.9484L954.976 93.4177L923.493 112.515L923.49 112.517L898.54 127.403L898.538 127.404L866.828 146.542C862.528 149.119 857.155 149.192 852.806 146.733C848.448 144.265 845.739 139.63 845.739 134.623V106.027C845.739 100.976 848.483 96.318 852.906 93.8663L852.664 93.429L852.906 93.8663L903.879 65.6115H904.309H904.956L904.793 64.985C903.811 61.2312 901.594 58.4396 898.038 56.419C894.146 54.1987 889.991 53.6376 889 53.5286L888.973 53.5257H888.945H841.081C823.777 53.5257 807.5 46.8569 795.189 34.7215L807.933 21.9768C816.84 30.7018 828.593 35.5015 841.081 35.5015C841.081 35.5015 841.081 35.5015 841.081 35.5015L889.899 35.517C890.776 35.5648 898.382 36.1401 906.138 40.2968C912.879 43.9144 917.757 49.1917 920.585 55.6924L920.811 56.2132L921.299 55.9225C930.965 50.1629 940.542 44.4951 941.796 43.8376L941.796 43.8375C942.559 43.4367 943.291 43.0359 943.993 42.6506C944.117 42.583 944.239 42.5158 944.361 42.4493C947.397 40.7898 950.445 39.126 954.395 37.871C958.342 36.6172 963.207 35.7667 969.858 35.7667H988.58C1001.14 35.7667 1012.96 30.9362 1021.92 22.1645L1034.29 34.5394C1022.03 46.6152 1005.82 53.2624 988.58 53.2624H969.858C965.495 53.2624 962.548 53.6639 960.013 54.443C957.498 55.2162 955.413 56.3553 952.796 57.7852L952.756 57.8067L952.754 57.8076C951.851 58.3056 950.915 58.8113 949.929 59.3303L949.924 59.3331C948.528 60.0887 936.339 67.3257 924.5 74.3838L924.342 74.4777L924.283 74.6511C924.194 74.9092 923.985 75.1903 923.512 75.4456L923.507 75.4484L912.067 81.7936L912.061 81.7971C911.952 81.8592 911.839 81.9289 911.736 81.9921C911.687 82.0223 911.641 82.051 911.598 82.0768L864.127 108.371L863.869 108.514V108.808V126.284V127.168L864.627 126.712L904.884 102.477L905.126 102.331V102.049V91.2559L923.249 81.102Z" fill="white" stroke="white"/>
<path d="M900.302 191.429L900.303 191.429C901.719 190.95 905.126 189.316 905.126 184.724V128.932L923.249 118.12V184.724C923.249 195.738 916.505 205.112 906.062 208.613C903.339 209.525 900.572 209.971 897.859 209.971C890.168 209.971 882.861 206.416 877.948 199.908L877.948 199.908L868.218 187.038C868.218 187.038 868.217 187.038 868.217 187.038C865.559 183.509 864.534 179.003 865.418 174.669C866.305 170.34 869.007 166.59 872.837 164.393L872.837 164.393L900.231 148.671L900.352 169.501L885.035 178.294L884.544 178.576L884.885 179.029L892.41 188.988L892.41 188.988C893.782 190.799 895.397 191.545 896.862 191.761C898.311 191.975 899.584 191.67 900.302 191.429Z" fill="white" stroke="white"/>
<path d="M907.937 230.585C844.501 230.585 792.893 178.976 792.893 115.548C792.893 92.9393 799.442 71.0823 811.822 52.3013L816.592 55.4755C804.836 73.3178 798.621 94.0746 798.621 115.548C798.621 175.816 847.662 224.856 907.937 224.856C968.213 224.856 1017.25 175.816 1017.25 115.548C1017.25 96.8165 1012.44 78.3617 1003.34 62.133L1008.32 59.3066C1017.91 76.3964 1022.98 95.8309 1022.98 115.548C1022.98 178.976 971.373 230.585 907.937 230.585Z" fill="white" stroke="white"/>
<path d="M907.937 6.23045C884.261 6.23045 861.744 13.6685 842.807 27.7403L839.369 23.1552C859.313 8.32909 883.004 0.5 907.937 0.5C931.72 0.5 954.528 7.68557 973.923 21.2852L970.608 25.9666C952.183 13.056 930.527 6.23045 907.937 6.23045Z" fill="white" stroke="white"/>
<path d="M636.806 272.635L636.805 272.634C635.802 270.082 634.877 267.552 634.026 265.028H649.212C650.03 267.533 650.933 270.059 651.907 272.591L651.907 272.591C652.836 274.997 653.863 277.333 654.992 279.6H640.061C638.93 277.603 637.841 275.287 636.806 272.635ZM667.093 335.058H666.593V335.558V353.038H651.764V335.558V335.058H651.264H626.871V326.511H651.264H651.764V326.011V313.65V313.15H651.264H632.364V304.61H651.264H651.764V304.11V293.061V292.561H651.264H629.511V284.31H660.655H660.956L661.097 284.043C662.65 281.096 664.216 277.902 665.805 274.482L665.805 274.481C667.331 271.18 668.655 268.057 669.76 265.128H685.269C684.263 267.995 683.065 271.01 681.67 274.169C680.16 277.568 678.567 280.701 676.889 283.557L676.447 284.31H677.321H687.58V292.561H667.093H666.593V293.061V304.11V304.61H667.093H685.259V313.15H667.093H666.593V313.65V326.011V326.511H667.093H691.276V335.058H667.093ZM619.901 275.821C621.348 279.305 622.948 282.739 624.703 286.131H608.525C606.619 282.612 604.882 279.047 603.311 275.43L603.311 275.429C601.784 271.939 600.362 268.405 599.03 264.824H615.679C616.986 268.539 618.394 272.203 619.901 275.821ZM615.888 352.732H598.949C601.096 347.317 603.04 341.829 604.805 336.257L604.805 336.256C606.599 330.577 608.085 324.779 609.271 318.876H624.619C623.586 324.685 622.357 330.375 620.932 335.934C619.489 341.565 617.805 347.167 615.888 352.732ZM620.277 302.818L620.278 302.818C622.007 306.429 623.819 309.845 625.704 313.056H609.344C607.163 309.657 605.168 306.071 603.349 302.284C601.61 298.65 600.061 295.106 598.727 291.647H615.476C616.86 295.308 618.467 299.034 620.277 302.818Z" fill="#2B1D1C" stroke="#2B1D1C"/>
<path d="M748.415 275.48H748.732H795.699V266.831H704.721V275.48H731.536H732.384L731.974 276.222C729.792 280.172 727.632 283.95 725.481 287.536L748.415 275.48ZM748.415 275.48L748.28 275.767C746.107 280.374 743.815 284.767 741.393 288.943L741.393 288.943C738.978 293.109 736.29 297.343 733.343 301.613L732.802 302.397H733.754H783.018C784.281 302.397 785.455 302.663 786.539 303.197L786.54 303.198C787.64 303.737 788.544 304.449 789.277 305.329M748.415 275.48L789.277 305.329M789.277 305.329C789.873 306.096 790.363 306.935 790.725 307.855L790.726 307.857C791.092 308.771 791.269 309.732 791.269 310.742V344.792C791.269 346.932 790.485 348.634 788.924 349.941L788.911 349.951L788.9 349.962C788.111 350.714 787.168 351.279 786.074 351.655L786.071 351.656C784.964 352.045 783.81 352.23 782.596 352.23H722.893C721.265 352.23 719.953 351.908 718.923 351.301C717.881 350.673 717.06 349.831 716.472 348.77L716.468 348.762L716.464 348.755C715.93 347.864 715.526 346.866 715.255 345.731L715.254 345.73C714.982 344.605 714.846 343.449 714.846 342.285V317.571V317.071H714.346L789.277 305.329ZM775.451 343.046L775.454 343.041C775.918 342.433 776.135 341.662 776.135 340.777V313.554C776.135 312.799 775.936 312.143 775.452 311.683C774.972 311.228 774.298 311.046 773.525 311.046H733.012C732.301 311.046 731.636 311.347 731.014 311.865C730.37 312.393 729.988 313.022 729.988 313.75V340.877C729.988 341.58 730.19 342.256 730.587 342.898C731.046 343.642 731.786 343.987 732.7 343.987H773.205C774.158 343.987 774.935 343.703 775.451 343.046Z" fill="#2B1D1C" stroke="#2B1D1C"/>
<path d="M843.251 313.855C844.518 311.847 845.682 309.871 846.738 307.933L843.251 313.855ZM843.251 313.855C842.095 315.692 840.904 317.501 839.687 319.286L843.251 313.855ZM881.446 329.449L881.446 329.449L881.439 329.442C880.995 328.955 880.473 328.629 879.857 328.629H839.877C839.403 328.629 838.932 328.917 838.493 329.301L838.491 329.303C838.036 329.706 837.689 330.185 837.689 330.731V341.888C837.689 342.556 838.041 343.115 838.605 343.58L838.608 343.583C839.177 344.043 839.818 344.294 840.509 344.294H880.069C880.641 344.294 881.135 344.064 881.54 343.639L881.542 343.637C881.931 343.223 882.148 342.736 882.148 342.186V331.037C882.148 330.469 881.871 329.934 881.446 329.449ZM896.106 288.348L896.104 288.35C894.605 289.531 892.479 290.149 889.662 290.149H822.047C818.819 290.149 816.6 289.304 815.256 287.715L815.25 287.708L815.243 287.701C813.96 286.297 813.264 284.001 813.264 280.702V269.452H827.876V279.499C827.876 280.296 828.152 280.962 828.768 281.41C829.319 281.819 829.975 282.008 830.696 282.008H847.894H848.394V281.508V265.13H863.426V281.508V282.008H863.926H882.07C882.603 282.008 883.089 281.723 883.52 281.318L883.524 281.315C884.006 280.853 884.256 280.268 884.256 279.601V269.452H898.765V282.11C898.765 284.938 897.857 286.987 896.106 288.348ZM846.738 307.433H846.441L846.299 307.693C845.248 309.621 844.089 311.588 842.828 313.588L842.828 313.589C841.568 315.591 840.266 317.561 838.933 319.503L838.395 320.286H839.345H886.498C889.518 320.286 891.904 320.971 893.695 322.296C894.618 322.984 895.317 323.817 895.811 324.785C896.291 325.737 896.547 326.943 896.547 328.427V344.498C896.547 347.078 895.806 349.004 894.382 350.363C892.958 351.723 890.85 352.437 887.976 352.437H832.492C829.55 352.437 827.238 351.785 825.521 350.536C823.777 349.049 822.867 346.77 822.867 343.592V334.653V334.153H822.367H808.884C812.954 330.37 816.613 326.35 819.858 322.096C823.353 317.527 826.512 312.895 829.335 308.19L829.789 307.433H828.906H810.522V299.088H901.298V307.433H846.738Z" fill="#2B1D1C" stroke="#2B1D1C"/>
<mask id="path-18-inside-1_479_68" fill="white">
<path d="M978.588 319.477V311.344H985.871V306.118H979.222V298.179H985.871V292.756H969.307V298.179H975.956V306.118H969.307V310.438C970.291 310.438 971.418 310.374 972.682 310.234C973.948 310.102 975.112 309.938 976.168 309.734V317.875C971.878 318.611 967.447 319.211 962.877 319.681C958.298 320.149 953.658 320.455 948.953 320.587V312.75C950.007 312.618 951.289 312.484 952.798 312.344C954.314 312.21 955.704 312.046 956.97 311.844V306.118H951.063V298.179H956.97V292.756H949.265V284.215H970.681V278.693H951.165V270.856H970.681V265.027H986.083V270.856H1004.55V278.693H986.083V284.215H1007.49V292.756H998.42V298.179H1005.07V306.118H998.42V311.344H1007.49V319.477H978.588ZM1006.97 353.435H989.559C987.589 353.435 985.973 353.215 984.715 352.779C983.449 352.349 982.425 351.731 981.653 350.927C980.174 349.246 979.432 346.536 979.432 342.786V332.237H973.424C973.074 334.245 972.706 336.261 972.316 338.269C971.932 340.277 971.345 342.222 970.573 344.09C969.939 345.832 969.135 347.472 968.151 349.012C967.167 350.559 965.971 352.029 964.565 353.435H945.257C947.297 351.965 949.125 350.357 950.743 348.614C952.359 346.872 953.766 345.028 954.962 343.09C955.946 341.418 956.72 339.675 957.282 337.863C957.844 336.057 958.196 334.183 958.338 332.237H947.265V323.698H1008.44V332.237H994.31V343.488C994.31 343.894 994.45 344.23 994.732 344.496C995.012 344.762 995.326 344.894 995.684 344.894H1008.87L1006.97 353.435ZM947.579 284.317C947.507 286.794 947.399 289.342 947.265 291.952C947.125 294.569 946.977 297.123 946.843 299.639C946.703 302.147 946.523 304.476 946.313 306.618H939.35C939.562 304.344 939.756 301.897 939.928 299.287C940.108 296.679 940.28 294.101 940.46 291.552C940.632 289.006 940.756 286.53 940.828 284.115C940.898 281.707 940.936 279.559 940.936 277.685H947.687C947.687 279.629 947.649 281.841 947.579 284.317ZM916.458 306.618C916.248 304.882 916.044 302.787 915.826 300.343C915.622 297.897 915.403 295.351 915.199 292.708C914.981 290.06 914.809 287.42 914.667 284.771C914.527 282.121 914.417 279.763 914.355 277.685H921.106C921.168 279.629 921.278 281.903 921.418 284.513C921.56 287.13 921.716 289.794 921.896 292.506C922.068 295.217 922.262 297.811 922.474 300.287C922.684 302.765 922.896 304.882 923.106 306.618H916.458ZM937.554 346.606C936.148 342.722 935.03 338.839 934.185 334.949C933.271 338.167 932.303 341.3 931.279 344.348C930.263 347.394 929.083 350.427 927.749 353.435H913.613C916.076 348.144 918.044 343.254 919.52 338.769C920.998 334.285 922.154 329.728 922.998 325.104C923.7 321.289 924.2 317.369 924.474 313.353C924.754 309.336 924.896 304.914 924.896 300.093V265.027H937.874V306.118C937.874 308.062 937.82 310 937.718 311.946C937.608 313.891 937.484 315.797 937.35 317.673H942.092C943.92 327.518 946.523 337.159 949.899 346.606H937.554Z"/>
</mask>
<path d="M978.588 319.477V311.344H985.871V306.118H979.222V298.179H985.871V292.756H969.307V298.179H975.956V306.118H969.307V310.438C970.291 310.438 971.418 310.374 972.682 310.234C973.948 310.102 975.112 309.938 976.168 309.734V317.875C971.878 318.611 967.447 319.211 962.877 319.681C958.298 320.149 953.658 320.455 948.953 320.587V312.75C950.007 312.618 951.289 312.484 952.798 312.344C954.314 312.21 955.704 312.046 956.97 311.844V306.118H951.063V298.179H956.97V292.756H949.265V284.215H970.681V278.693H951.165V270.856H970.681V265.027H986.083V270.856H1004.55V278.693H986.083V284.215H1007.49V292.756H998.42V298.179H1005.07V306.118H998.42V311.344H1007.49V319.477H978.588ZM1006.97 353.435H989.559C987.589 353.435 985.973 353.215 984.715 352.779C983.449 352.349 982.425 351.731 981.653 350.927C980.174 349.246 979.432 346.536 979.432 342.786V332.237H973.424C973.074 334.245 972.706 336.261 972.316 338.269C971.932 340.277 971.345 342.222 970.573 344.09C969.939 345.832 969.135 347.472 968.151 349.012C967.167 350.559 965.971 352.029 964.565 353.435H945.257C947.297 351.965 949.125 350.357 950.743 348.614C952.359 346.872 953.766 345.028 954.962 343.09C955.946 341.418 956.72 339.675 957.282 337.863C957.844 336.057 958.196 334.183 958.338 332.237H947.265V323.698H1008.44V332.237H994.31V343.488C994.31 343.894 994.45 344.23 994.732 344.496C995.012 344.762 995.326 344.894 995.684 344.894H1008.87L1006.97 353.435ZM947.579 284.317C947.507 286.794 947.399 289.342 947.265 291.952C947.125 294.569 946.977 297.123 946.843 299.639C946.703 302.147 946.523 304.476 946.313 306.618H939.35C939.562 304.344 939.756 301.897 939.928 299.287C940.108 296.679 940.28 294.101 940.46 291.552C940.632 289.006 940.756 286.53 940.828 284.115C940.898 281.707 940.936 279.559 940.936 277.685H947.687C947.687 279.629 947.649 281.841 947.579 284.317ZM916.458 306.618C916.248 304.882 916.044 302.787 915.826 300.343C915.622 297.897 915.403 295.351 915.199 292.708C914.981 290.06 914.809 287.42 914.667 284.771C914.527 282.121 914.417 279.763 914.355 277.685H921.106C921.168 279.629 921.278 281.903 921.418 284.513C921.56 287.13 921.716 289.794 921.896 292.506C922.068 295.217 922.262 297.811 922.474 300.287C922.684 302.765 922.896 304.882 923.106 306.618H916.458ZM937.554 346.606C936.148 342.722 935.03 338.839 934.185 334.949C933.271 338.167 932.303 341.3 931.279 344.348C930.263 347.394 929.083 350.427 927.749 353.435H913.613C916.076 348.144 918.044 343.254 919.52 338.769C920.998 334.285 922.154 329.728 922.998 325.104C923.7 321.289 924.2 317.369 924.474 313.353C924.754 309.336 924.896 304.914 924.896 300.093V265.027H937.874V306.118C937.874 308.062 937.82 310 937.718 311.946C937.608 313.891 937.484 315.797 937.35 317.673H942.092C943.92 327.518 946.523 337.159 949.899 346.606H937.554Z" fill="#2B1D1C" stroke="#2B1D1C" stroke-width="2" mask="url(#path-18-inside-1_479_68)"/>
<path d="M1075.75 325.306H1075.25V325.806V353.137H1059.89V325.806V325.306H1059.39H1021.29V316.665H1059.39H1059.89V316.165V293.162V292.662H1059.39H1041.46H1041.07L1040.97 293.048C1040.7 294.242 1040.36 295.489 1039.97 296.785L1039.97 296.788C1039.59 298.09 1039.21 299.361 1038.82 300.591L1038.82 300.594C1038.44 301.832 1038.06 302.984 1037.71 304.053L1037.71 304.054C1037.41 304.983 1037.11 305.804 1036.8 306.524H1021.05C1021.76 304.355 1022.52 301.993 1023.32 299.437L1023.32 299.435C1024.2 296.619 1025.07 293.7 1025.91 290.679C1026.75 287.659 1027.56 284.575 1028.34 281.42C1029.08 278.406 1029.69 275.454 1030.17 272.558H1045.2C1044.94 274.249 1044.66 275.983 1044.35 277.753C1043.99 279.729 1043.64 281.682 1043.29 283.626L1043.18 284.215H1043.78H1059.39H1059.89V283.715V265.527H1075.25V283.715V284.215H1075.75H1107.2V292.662H1075.75H1075.25V293.162V316.165V316.665H1075.75H1112.8V325.306H1075.75Z" fill="#2B1D1C" stroke="#2B1D1C"/>
<path d="M1154.88 305.936V314.644C1154 315.047 1153.03 315.409 1151.97 315.734L1151.96 315.735C1150.77 316.111 1149.65 316.463 1148.59 316.79L1148.24 316.9V317.268V344.599C1148.24 346.895 1147.54 348.74 1146.16 350.175L1146.16 350.174L1146.15 350.183C1144.79 351.672 1142.93 352.436 1140.51 352.436H1127.73L1125.75 344.193H1131.65C1132.49 344.193 1133.24 343.892 1133.88 343.316L1133.89 343.314C1134.56 342.706 1134.89 341.92 1134.89 340.98V321.79V321.097L1134.24 321.316C1131.63 322.185 1128.93 322.913 1126.14 323.492V314.76C1127.49 314.45 1128.84 314.127 1130.19 313.783C1131.68 313.42 1133.15 312.959 1134.57 312.414L1134.89 312.291V311.947V290.445V289.945H1134.39H1125.93V281.506H1134.39H1134.89V281.006V264.824H1148.24V281.006V281.506H1148.74H1155.18H1155.68V281.006V277.388H1168.68H1169.18V276.888V264.824H1182.53V304.509C1182.53 306.855 1182.49 309.192 1182.42 311.532C1182.35 313.866 1182.2 316.201 1182 318.535L1181.94 319.111L1182.52 319.079C1183.68 319.015 1185.02 318.796 1186.53 318.421V326.464C1185.75 326.743 1184.97 326.982 1184.22 327.184C1183.34 327.415 1182.42 327.633 1181.45 327.833L1181.11 327.903L1161.09 322.995M1154.88 305.936C1154.03 306.252 1153.16 306.553 1152.27 306.844C1151.14 307.219 1150.01 307.573 1148.88 307.903L1148.24 308.09V307.423V290.445V289.945H1148.74H1155.1V286.225V285.725H1155.6H1168.68H1169.18V286.225V299.89V300.39H1168.68H1158.31V308.633H1168.26H1168.74L1168.76 309.117C1168.83 311.276 1168.79 313.401 1168.65 315.495C1168.51 317.589 1168.26 319.716 1167.91 321.872L1167.85 322.203L1167.53 322.278C1165.47 322.75 1163.35 323.159 1161.16 323.489M1154.88 305.936C1155.05 305.874 1155.21 305.811 1155.38 305.747V305.211C1155.22 305.275 1155.05 305.339 1154.88 305.402M1161.16 323.489C1161.16 323.489 1161.16 323.489 1161.16 323.489L1161.09 322.995M1161.16 323.489C1161.16 323.489 1161.16 323.489 1161.16 323.489L1161.09 322.995M1161.16 323.489C1159.12 323.803 1157.08 324.089 1155.04 324.343V323.901H1154.54C1156.72 323.635 1158.91 323.331 1161.09 322.995M1148.74 307.423V306.902C1148.69 306.916 1148.65 306.929 1148.6 306.943L1148.74 307.423ZM1148.74 307.423H1149.24V307.275C1149.07 307.325 1148.91 307.374 1148.74 307.423ZM1204.65 331.84H1204.15V332.34V352.936H1190.59V264.824H1204.15V276.982V277.482H1204.65H1217.65V285.623H1204.65H1204.15V286.123V299.89V300.39H1204.65H1215.22V308.633H1204.65H1204.15V309.133V323.097V323.597H1204.65H1218.7V331.84H1204.65ZM1155.04 333.29C1154.87 333.31 1154.7 333.329 1154.54 333.348V332.845C1154.7 332.826 1154.87 332.807 1155.04 332.787V333.29ZM1160 332.05L1160.09 332.542L1160 332.049C1160 332.05 1160 332.05 1160 332.05ZM1155.6 290.445H1155.1L1155.6 289.945V290.445ZM1157.81 299.89H1158.31L1157.81 300.39V299.89ZM1157.81 309.133V308.633L1158.31 309.133H1157.81Z" fill="#2B1D1C" stroke="#2B1D1C"/>
</svg>
