<svg width="49" height="48" viewBox="0 0 49 48" fill="none" xmlns="http://www.w3.org/2000/svg">
<path d="M22.2569 19.6726L22.2588 19.6745C22.2783 19.6517 22.2984 19.6284 22.3184 19.6056L23.8222 17.9692C23.8951 17.8896 23.926 17.8147 23.9253 17.7424C25.4566 15.9695 27.0306 14.1525 27.2133 13.9571C27.3452 13.8198 27.469 13.6874 27.5881 13.5582C28.2854 12.8093 28.669 12.3964 30.0671 11.9253L33.0874 10.9065C35.9155 9.95293 38.2064 7.96517 39.5383 5.30906L36.7234 3.92969C35.767 5.83709 34.1214 7.2653 32.0901 7.94993L29.0698 8.96779C26.9102 9.69662 26.0823 10.586 25.2826 11.4467C25.1748 11.5626 25.0631 11.6823 24.9438 11.806C24.7753 11.9815 23.5345 13.4117 22.2857 14.8559C21.4671 13.9564 20.3776 13.3689 19.0772 13.1547C17.5781 12.907 16.3019 13.2376 16.1607 13.2764L8.28489 15.9294C6.2651 16.6101 4.10345 16.4708 2.19742 15.5372L0.752441 18.4197C3.4315 19.732 6.47053 19.9282 9.31013 18.9705L17.0293 16.3677C17.1912 16.3322 17.8793 16.1984 18.6088 16.3377C19.2713 16.4641 19.7593 16.7773 20.1052 17.3033L20.0156 17.3334L13.3009 24.6391C12.7 25.2936 12.5011 26.2198 12.7836 27.057L14.3242 31.6274C14.604 32.456 15.3154 33.0717 16.1807 33.2343C17.0461 33.3969 17.9396 33.0823 18.5123 32.4131L22.5968 27.6286L25.8193 23.8921L29.8688 19.1271L31.0214 22.7344L27.5165 26.7466L28.7225 30.2547L33.5003 24.8125C34.2278 23.9973 34.4747 22.8482 34.1442 21.8135L32.8979 17.9117C32.556 16.8409 31.6531 16.0404 30.5422 15.823C29.4313 15.6054 28.2841 16.005 27.5485 16.865L24.612 20.311L24.0572 18.6665L21.5502 21.4186L22.1478 23.1908L16.9598 29.2542L16.0181 26.4608L22.2569 19.6726Z" fill="#F25522"/>
<path d="M26.6031 36.4061C26.8334 37.0882 26.409 37.5004 26.2163 37.6464C26.0228 37.7915 25.5095 38.0867 24.9113 37.6825L23.1605 36.4991L25.1904 34.2237L23.9857 30.7175L20.3174 34.8287C19.8016 35.4076 19.56 36.1779 19.6535 36.9422C19.7466 37.7065 20.1675 38.3932 20.8081 38.8256L23.0715 40.3547C24.2361 41.1418 25.6341 41.3166 26.8995 40.8895C27.3467 40.7389 27.7764 40.5134 28.1739 40.2142C29.699 39.0645 30.2934 37.1612 29.6884 35.3661L26.0509 24.5791L23.5814 27.4429L26.6031 36.4061Z" fill="#F25522"/>
<path d="M7.95312 37.0467L7.78521 37.1718C7.58647 36.9074 7.43587 36.8144 7.33154 36.8913L6.57392 37.4543L5.97684 38.9032C5.8612 39.1869 5.86239 39.4078 5.98164 39.5664L5.80552 39.6975L4.81438 38.3778L4.99102 38.2465C5.13168 38.4346 5.23807 38.5016 5.31037 38.448C5.3371 38.428 5.36794 38.3724 5.40272 38.2801L5.88313 37.1156L4.65453 37.2749C4.60433 37.2915 4.54539 37.3244 4.47909 37.3739C4.41758 37.4193 4.46435 37.5453 4.61906 37.7514L4.44226 37.8826L3.72559 36.9275L3.90154 36.7964C4.00862 36.9389 4.13112 37.0112 4.26904 37.0112L6.06131 36.8044L6.85028 36.2182C6.94399 36.1484 6.89585 35.9872 6.70499 35.7336L6.87375 35.6084L7.95312 37.0467Z" fill="#F25522"/>
<path d="M5.55342 33.7161C5.47169 33.5616 5.3713 33.4517 5.25222 33.3875C5.13366 33.3232 5.00054 33.2931 4.85405 33.2979C4.7074 33.3018 4.54943 33.3347 4.37948 33.3955C4.2102 33.4565 4.03476 33.5348 3.85487 33.6291C3.68679 33.7175 3.52883 33.8145 3.38097 33.9203C3.23312 34.026 3.11267 34.1412 3.02033 34.2662C2.92781 34.3908 2.8723 34.5274 2.85431 34.6752C2.83615 34.8224 2.87299 34.9838 2.96602 35.159C3.051 35.3197 3.15413 35.4294 3.27595 35.4883C3.39776 35.5473 3.53226 35.5713 3.67874 35.5593C3.8254 35.5473 3.97994 35.5091 4.1439 35.4434C4.30718 35.3785 4.47456 35.3009 4.64589 35.2106C4.83195 35.113 4.99986 35.0098 5.14977 34.9014C5.29968 34.7922 5.41944 34.6766 5.50716 34.5541C5.59488 34.4316 5.64645 34.3017 5.65981 34.1638C5.67386 34.026 5.6384 33.8768 5.55342 33.7161ZM3.42586 32.8984C3.67686 32.7664 3.91843 32.6902 4.15195 32.6681C4.38479 32.646 4.60375 32.6701 4.80848 32.7397C5.01322 32.8093 5.1986 32.9205 5.36599 33.0729C5.5332 33.2263 5.67592 33.413 5.79294 33.6352C5.90413 33.8453 5.97969 34.0574 6.01909 34.2709C6.05935 34.485 6.05404 34.6932 6.00436 34.8947C5.95484 35.0962 5.85444 35.2862 5.70453 35.4655C5.55462 35.6456 5.34731 35.8043 5.08158 35.9441C4.81311 36.0846 4.5628 36.1683 4.32928 36.1937C4.09644 36.2192 3.88091 36.1971 3.68406 36.1269C3.48669 36.0571 3.31004 35.9454 3.15345 35.7902C2.99617 35.6362 2.86031 35.4508 2.74654 35.2353C2.63347 35.0218 2.55911 34.8044 2.52296 34.5835C2.48681 34.362 2.49418 34.1479 2.54575 33.9424C2.59663 33.7361 2.69429 33.5434 2.83821 33.3628C2.98281 33.1834 3.17812 33.0282 3.42586 32.8984Z" fill="#F25522"/>
<path d="M1.39477 30.0208C1.14446 30.0998 1.06822 30.2965 1.16793 30.6117L0.958399 30.678L0.599121 29.5402L0.808487 29.4739C0.890211 29.7316 1.05623 29.8214 1.30705 29.7424L2.72668 29.2934C2.91068 29.2351 3.08338 29.199 3.24529 29.1863C3.4072 29.1729 3.55574 29.1962 3.6916 29.2551C3.82747 29.3148 3.94928 29.4138 4.05773 29.5522C4.16618 29.6908 4.25921 29.8836 4.33682 30.1286C4.39576 30.3146 4.42317 30.4933 4.42043 30.6659C4.41718 30.8379 4.38702 30.9952 4.33014 31.1358C4.27326 31.2763 4.19085 31.3988 4.08189 31.5025C3.97343 31.6063 3.84288 31.6819 3.6904 31.73L2.0232 32.2575C1.81984 32.3218 1.76416 32.5005 1.8565 32.7929L1.64714 32.859L1.1251 31.2068L1.33463 31.1404C1.42767 31.4336 1.57553 31.5474 1.77821 31.4831L3.32633 30.994C3.42792 30.9611 3.5297 30.9196 3.63009 30.8687C3.73118 30.8178 3.81684 30.7543 3.88709 30.678C3.95733 30.6023 4.00685 30.512 4.03494 30.4077C4.06304 30.3032 4.05499 30.1814 4.01096 30.0422C3.92461 29.7678 3.786 29.5945 3.59531 29.5229C3.40531 29.4513 3.16357 29.4613 2.8718 29.5536L1.39477 30.0208Z" fill="#F25522"/>
<path d="M3.43972 25.6603L1.50816 28.0516L2.90894 27.8582C3.27164 27.808 3.4303 27.6166 3.38541 27.2825L3.59289 27.2537L3.75753 28.4758L3.55005 28.5046C3.51253 28.2303 3.31311 28.1177 2.9504 28.1672L0.802802 28.4638C0.694351 28.4785 0.661626 28.6464 0.704458 28.967L0.486873 28.9971L0.361802 28.0696L2.10318 25.9547L0.831585 26.1301C0.499036 26.1755 0.354434 26.3643 0.398636 26.695L0.181051 26.725L0.0170898 25.507L0.23536 25.4775C0.274766 25.7755 0.461516 25.9012 0.79475 25.855L3.37204 25.4996L3.43972 25.6603Z" fill="#F25522"/>
<path d="M3.46433 22.1502C3.43554 22.2158 3.39682 22.2775 3.34799 22.3356C3.29899 22.3931 3.24879 22.4433 3.1974 22.4843C3.27963 22.6027 3.34251 22.7378 3.38466 22.8891C3.42749 23.0411 3.44565 23.1963 3.43965 23.355C3.42149 23.8468 3.26901 24.2229 2.98118 24.4833C2.69403 24.7443 2.27034 24.8661 1.71232 24.8486C1.45601 24.8406 1.22112 24.8046 1.00696 24.7396C0.7928 24.6754 0.609996 24.5796 0.458028 24.4525C0.306231 24.3254 0.189727 24.1653 0.108689 23.9733C0.0278219 23.7805 -0.00832841 23.5537 0.00160864 23.2926C0.0043499 23.217 0.0124008 23.136 0.0257644 23.0503C0.0384427 22.9654 0.057803 22.8818 0.0826456 22.7993C0.106803 22.7178 0.138156 22.6402 0.175677 22.5672C0.213198 22.4935 0.257915 22.43 0.31017 22.3751C0.18373 22.2888 0.101319 22.1704 0.0632844 22.0205C0.344263 21.9067 0.740547 21.8577 1.25248 21.8738L1.2398 22.2252C0.897141 22.2975 0.650084 22.4019 0.498972 22.5398C0.347689 22.677 0.267339 22.8677 0.257916 23.1127C0.25192 23.2773 0.284127 23.4137 0.355057 23.5222C0.425987 23.6299 0.521075 23.7163 0.640148 23.7812C0.759221 23.8462 0.897826 23.8922 1.05442 23.9203C1.2117 23.9484 1.37155 23.9652 1.53499 23.9699C1.68422 23.9747 1.85213 23.9747 2.03887 23.9705C2.22562 23.9666 2.40158 23.9425 2.56622 23.8977C2.73087 23.8535 2.87067 23.7805 2.98581 23.6781C3.10163 23.5758 3.16262 23.4285 3.16981 23.2371C3.17718 23.0356 3.13383 22.8831 3.04012 22.7793C2.94571 22.6756 2.7797 22.6201 2.54155 22.6128C2.22699 22.6033 2.06355 22.7653 2.05155 23.0987L1.84202 23.0918L1.90027 21.4971L2.11049 21.5038C2.09969 21.7909 2.20746 21.9381 2.4331 21.9447L3.47101 21.977L3.46433 22.1502Z" fill="#F25522"/>
<path d="M42.3735 10.1215C42.4599 10.0172 42.5334 9.91539 42.5937 9.81499C42.6533 9.71527 42.6961 9.6183 42.7215 9.52321C42.7468 9.42813 42.753 9.33853 42.7397 9.25355C42.7256 9.16857 42.6895 9.09095 42.6312 9.01934C42.5094 8.8708 42.3841 8.78103 42.2563 8.7483C42.1285 8.71609 42.0154 8.73956 41.9171 8.81923C41.8474 8.87611 41.802 8.93624 41.7806 8.9998C41.7598 9.06354 41.7538 9.13704 41.7631 9.21877C41.7725 9.30032 41.7939 9.39215 41.828 9.49444C41.8621 9.5962 41.8996 9.71203 41.9404 9.84052C41.9867 9.98564 42.0255 10.1229 42.0569 10.25C42.0884 10.3778 42.0997 10.4996 42.091 10.6148C42.0824 10.7306 42.0482 10.8416 41.9901 10.9487C41.9318 11.0558 41.8347 11.1642 41.7002 11.2733C41.571 11.3777 41.4386 11.4507 41.3027 11.4902C41.1675 11.5296 41.0324 11.5398 40.8972 11.5195C40.762 11.4988 40.6308 11.45 40.5043 11.3717C40.3777 11.2934 40.2607 11.1897 40.1543 11.0592C40.0767 10.9648 40.013 10.8637 39.9641 10.7566C39.9146 10.6502 39.8925 10.5392 39.898 10.4248C39.8197 10.4026 39.744 10.3759 39.6703 10.3444C39.5968 10.3124 39.5272 10.2741 39.4609 10.2299C39.5259 10.1263 39.5994 10.0305 39.6804 9.94348C39.7621 9.85645 39.8517 9.77284 39.9494 9.69317C40.0171 9.63903 40.0846 9.58747 40.1523 9.53864C40.2198 9.49049 40.2914 9.44423 40.3671 9.40003L40.5718 9.64846C40.4862 9.71802 40.4086 9.79906 40.3383 9.89192C40.2688 9.98444 40.2165 10.0853 40.1831 10.1938C40.1488 10.3016 40.1409 10.414 40.1582 10.5291C40.1757 10.6449 40.2292 10.758 40.3196 10.8671C40.4012 10.9668 40.4809 11.0417 40.5585 11.0919C40.6361 11.1414 40.7111 11.1723 40.7846 11.1831C40.8583 11.1937 40.9278 11.1884 40.9942 11.1663C41.0598 11.1442 41.1213 11.1108 41.1782 11.0645C41.2693 10.9915 41.3255 10.9065 41.3488 10.8116C41.3716 10.7165 41.3582 10.6021 41.3087 10.4676C41.2344 10.2682 41.1708 10.0814 41.1173 9.90802C41.063 9.73532 41.0336 9.57085 41.0289 9.41545C41.0236 9.25954 41.0497 9.11426 41.1065 8.97908C41.1634 8.84321 41.2652 8.71609 41.4124 8.59702C41.5236 8.50673 41.6413 8.44641 41.7651 8.41626C41.889 8.3861 42.0108 8.38148 42.132 8.40289C42.2524 8.42431 42.3682 8.46989 42.4792 8.53945C42.5897 8.60901 42.6895 8.69742 42.7777 8.8045C42.8546 8.8989 42.9122 9.00392 42.9483 9.11906C42.9845 9.23419 42.9859 9.35463 42.9511 9.48038C43.0259 9.46702 43.1024 9.47302 43.18 9.49924C43.2576 9.52596 43.3258 9.55936 43.3854 9.60083C43.293 9.73943 43.1719 9.87667 43.0227 10.0125C42.8741 10.1484 42.7295 10.2728 42.5903 10.3859L42.3735 10.1215Z" fill="#F25522"/>
<path d="M41.356 12.5193L41.5353 12.4115C41.7133 12.7047 41.9229 12.7795 42.1624 12.6356L44.0965 11.4718C44.1817 11.4202 44.1896 11.3366 44.1193 11.2208C44.0665 11.1332 44.0055 11.0663 43.9367 11.0214C43.8683 10.976 43.79 10.9479 43.7018 10.9371C43.6141 10.9264 43.515 10.9324 43.4052 10.9539C43.2956 10.9753 43.1737 11.0094 43.0386 11.0561L42.9174 10.7705L43.9392 10.3174C43.9721 10.3977 44.0129 10.4834 44.0599 10.5744C44.1073 10.6654 44.1467 10.7363 44.1776 10.7872L45.1922 12.459C45.2304 12.5212 45.2792 12.5962 45.34 12.6833C45.4003 12.7701 45.4586 12.8465 45.5141 12.9127L44.5771 13.4769L44.4071 13.244C44.6241 13.0941 44.7632 12.9463 44.826 12.7982C44.8882 12.6511 44.8596 12.479 44.7397 12.281C44.6662 12.1599 44.5918 12.121 44.5175 12.1658L42.584 13.3297C42.3438 13.4743 42.3151 13.6958 42.4965 13.995L42.3171 14.1027L41.356 12.5193Z" fill="#F25522"/>
<path d="M43.516 16.2955C43.5802 16.4581 43.6684 16.5771 43.7796 16.6541C43.8906 16.7305 44.0191 16.7745 44.1658 16.786C44.3116 16.7973 44.473 16.7819 44.6476 16.7384C44.823 16.6962 45.005 16.6374 45.1945 16.5624C45.3711 16.4921 45.5383 16.4125 45.697 16.3236C45.8549 16.2338 45.9868 16.132 46.0926 16.0176C46.1976 15.9031 46.2671 15.7734 46.3014 15.6281C46.3355 15.4835 46.3161 15.3189 46.2425 15.1349C46.1755 14.9663 46.0852 14.8464 45.9701 14.7748C45.8556 14.7026 45.7251 14.6644 45.5779 14.661C45.4307 14.6571 45.2727 14.6785 45.1033 14.7266C44.9333 14.7742 44.7588 14.8337 44.5787 14.9046C44.3832 14.9822 44.2052 15.0667 44.0447 15.159C43.8833 15.2514 43.7529 15.3537 43.6525 15.4662C43.5514 15.5786 43.4872 15.703 43.4584 15.8389C43.4296 15.9741 43.449 16.1267 43.516 16.2955ZM45.5417 17.3354C45.2781 17.4398 45.0298 17.49 44.7956 17.4867C44.5612 17.484 44.3464 17.4365 44.1511 17.3454C43.9549 17.2544 43.7822 17.1238 43.6323 16.9546C43.483 16.7846 43.3612 16.5831 43.2689 16.3503C43.1813 16.1294 43.1291 15.9105 43.1123 15.6931C43.0964 15.4762 43.1238 15.2701 43.1954 15.0746C43.2663 14.88 43.3861 14.7013 43.5547 14.5387C43.7227 14.3759 43.9461 14.2395 44.2252 14.129C44.5071 14.0173 44.7648 13.9609 44.9997 13.9609C45.2339 13.9604 45.4453 14.0051 45.6334 14.0956C45.8222 14.1859 45.9855 14.3164 46.1246 14.4871C46.2639 14.657 46.379 14.8558 46.4693 15.0826C46.5584 15.3062 46.6086 15.5312 46.6206 15.7553C46.6326 15.9795 46.6017 16.191 46.5289 16.3904C46.4559 16.5898 46.3381 16.7712 46.1755 16.9352C46.0129 17.0985 45.8015 17.2323 45.5417 17.3354Z" fill="#F25522"/>
<path d="M44.5531 20.9714L46.3214 18.4597L44.9367 18.7441C44.5773 18.8185 44.432 19.02 44.499 19.3499L44.2935 19.3921L44.0479 18.184L44.2533 18.1412C44.309 18.4129 44.5157 18.5127 44.8743 18.439L46.998 18.0026C47.1057 17.9805 47.1271 17.8106 47.0629 17.4934L47.2784 17.4492L47.4645 18.3667L45.8668 20.5907L47.1244 20.3323C47.4544 20.2647 47.5856 20.0673 47.5193 19.7401L47.7348 19.6965L47.9792 20.8998L47.7636 20.944C47.704 20.6496 47.5092 20.5364 47.1801 20.6041L44.6302 21.1275L44.5531 20.9714Z" fill="#F25522"/>
<path d="M44.731 21.763L44.9403 21.7549C44.9504 22.052 45.0522 22.1966 45.2449 22.1886L47.46 22.1015C47.7097 22.0916 47.8289 21.9263 47.8174 21.6064L48.0369 21.5977L48.1354 24.44L47.1595 24.5183L47.1234 24.2171C47.3055 24.1803 47.4446 24.1314 47.5411 24.0718C47.6367 24.0117 47.7064 23.9413 47.7486 23.8597C47.7907 23.7787 47.8142 23.687 47.8188 23.5846C47.8234 23.4816 47.8234 23.3678 47.8195 23.2426C47.8154 23.1336 47.7967 23.0498 47.7633 22.9918C47.7297 22.9335 47.6829 22.9054 47.6233 22.908L46.7494 22.9428C46.6697 22.9455 46.6315 22.9849 46.6342 23.0613C46.637 23.1403 46.6442 23.2131 46.657 23.2787C46.669 23.3444 46.6939 23.4012 46.7298 23.4514C46.7667 23.5016 46.821 23.5412 46.8919 23.5719C46.9628 23.602 47.0579 23.6195 47.1784 23.6248L47.1883 23.912L45.8559 23.9647L45.8465 23.6776C45.9589 23.6635 46.05 23.6428 46.1189 23.6175C46.1878 23.5914 46.24 23.5571 46.2755 23.5143C46.3103 23.4715 46.333 23.4187 46.3444 23.3551C46.3558 23.2921 46.3611 23.2159 46.3618 23.1269C46.3478 23.0151 46.301 22.9602 46.2213 22.9635L45.2883 23.0003C45.1284 23.007 45.0534 23.1336 45.0614 23.3812C45.0688 23.5827 45.0902 23.7432 45.1257 23.8625C45.1618 23.9815 45.2134 24.0778 45.2809 24.1508C45.3479 24.2245 45.4329 24.282 45.534 24.3249C45.6357 24.367 45.7569 24.4098 45.898 24.4541L45.8679 24.7378L44.8307 24.6401L44.731 21.763Z" fill="#F25522"/>
<path d="M11.1674 39.4073L10.5959 40.8851L11.8092 41.8789L10.2318 41.7792L9.63695 43.23L9.24067 41.7203L7.68604 41.6319L9.01109 40.7787L8.61892 39.2715L9.79817 40.2373L11.1674 39.4073Z" fill="#F25522"/>
<path d="M15.0656 43.9232C15.1004 43.7928 15.1246 43.6696 15.1366 43.5545C15.1493 43.4387 15.1474 43.333 15.1306 43.2367C15.1131 43.1395 15.0804 43.0559 15.0322 42.985C14.9846 42.9141 14.9185 42.8585 14.8347 42.8176C14.6615 42.734 14.5102 42.7045 14.3796 42.728C14.2498 42.752 14.1567 42.8203 14.1012 42.9334C14.0611 43.0138 14.045 43.0873 14.0531 43.1543C14.0611 43.2206 14.0865 43.2888 14.1293 43.359C14.1722 43.4299 14.2304 43.5043 14.3048 43.5826C14.379 43.6609 14.4621 43.7493 14.553 43.8483C14.6567 43.9614 14.7497 44.0692 14.8321 44.1716C14.9144 44.2739 14.976 44.3791 15.0175 44.4874C15.0583 44.5958 15.0744 44.7103 15.0663 44.8321C15.0583 44.9532 15.0154 45.0918 14.9392 45.2464C14.8655 45.3949 14.7759 45.516 14.6688 45.6084C14.5625 45.7007 14.4432 45.7657 14.3121 45.8032C14.1802 45.8414 14.0404 45.8513 13.8924 45.8333C13.7438 45.8152 13.5939 45.7691 13.4414 45.6961C13.3309 45.6426 13.2312 45.5777 13.1409 45.5013C13.0512 45.4251 12.9843 45.3334 12.9408 45.2277C12.8598 45.2404 12.7801 45.2477 12.6993 45.2498C12.6189 45.251 12.5399 45.2457 12.4609 45.2337C12.4764 45.1119 12.5024 44.9954 12.5399 44.8823C12.5768 44.7699 12.6235 44.6568 12.679 44.5436C12.7172 44.4666 12.7568 44.3918 12.7983 44.3195C12.8391 44.2479 12.8846 44.1756 12.9348 44.1039L13.2259 44.2444C13.1778 44.3429 13.1416 44.4487 13.1168 44.5617C13.0921 44.6755 13.0873 44.7879 13.102 44.8998C13.1168 45.0122 13.1569 45.1165 13.2218 45.2143C13.2861 45.312 13.3832 45.3916 13.511 45.4532C13.6275 45.5093 13.7319 45.5441 13.8235 45.5575C13.9152 45.5703 13.9962 45.5662 14.0678 45.5455C14.1394 45.5248 14.2003 45.4907 14.2511 45.4431C14.302 45.3963 14.3442 45.3401 14.3764 45.2745C14.4278 45.1708 14.4432 45.0704 14.4245 44.9746C14.4052 44.879 14.3442 44.7805 14.2424 44.6801C14.0913 44.5295 13.9547 44.387 13.8322 44.2525C13.7104 44.1187 13.614 43.9814 13.5437 43.843C13.4735 43.7044 13.436 43.5619 13.4307 43.4159C13.4247 43.2694 13.4641 43.1114 13.5478 42.9422C13.6107 42.8144 13.6923 42.7105 13.792 42.6322C13.8924 42.5532 14.0015 42.4984 14.1201 42.4676C14.2392 42.4369 14.3635 42.4295 14.4941 42.4462C14.6246 42.463 14.7525 42.5018 14.8775 42.5627C14.988 42.6156 15.0843 42.6865 15.166 42.7761C15.2478 42.8652 15.2992 42.9742 15.3213 43.102C15.3836 43.0587 15.4552 43.0325 15.5375 43.0244C15.6192 43.0158 15.6954 43.0177 15.7671 43.0304C15.7415 43.1945 15.6894 43.3691 15.6112 43.5545C15.5329 43.7392 15.4539 43.9119 15.3749 44.0724L15.0656 43.9232Z" fill="#F25522"/>
<path d="M15.6118 46.5498L15.6773 46.3515C16.0059 46.4572 16.214 46.3784 16.3018 46.1141L17.0071 43.9824C17.0386 43.8887 16.9891 43.8205 16.8599 43.779C16.7616 43.7475 16.6718 43.7369 16.5896 43.7468C16.5079 43.7569 16.4296 43.7864 16.3559 43.8359C16.2817 43.8854 16.2101 43.9536 16.1411 44.0407C16.0722 44.1277 16.0012 44.2334 15.9289 44.3559L15.6492 44.2187L16.1284 43.2148C16.2067 43.2536 16.2937 43.2925 16.3895 43.33C16.4851 43.368 16.5615 43.3961 16.6184 43.4143L18.4915 44.0165C18.5606 44.0386 18.6467 44.0634 18.7506 44.0895C18.8535 44.1155 18.9479 44.1357 19.035 44.1491L18.6923 45.1817L18.41 45.1174C18.4761 44.8639 18.4848 44.661 18.4353 44.5097C18.3858 44.3579 18.2506 44.2468 18.0291 44.1758C17.8932 44.1316 17.8122 44.1512 17.7848 44.2327L17.0787 46.3644C16.9917 46.6281 17.1156 46.8139 17.4502 46.9217L17.3852 47.1199L15.6118 46.5498Z" fill="#F25522"/>
<path d="M18.6411 47.4612L18.6759 47.2557C18.9711 47.3032 19.1351 47.2323 19.1666 47.0428L19.5306 44.8705C19.5714 44.6255 19.4328 44.4783 19.1143 44.4274L19.1505 44.2119L21.9767 44.6637L21.8556 45.6293L21.5511 45.606C21.5518 45.4213 21.5316 45.2767 21.4922 45.1717C21.4526 45.0665 21.3971 44.9856 21.3255 44.9293C21.2546 44.8724 21.1682 44.8316 21.0678 44.8076C20.9674 44.7835 20.855 44.7607 20.7306 44.7413C20.6222 44.7232 20.5358 44.7259 20.4716 44.7473C20.4073 44.7687 20.3698 44.8081 20.3604 44.8664L20.2166 45.7244C20.2038 45.802 20.2346 45.8476 20.3102 45.8589C20.3892 45.8716 20.4622 45.8789 20.5298 45.8796C20.5967 45.8796 20.6583 45.8676 20.7152 45.8416C20.7721 45.8147 20.8223 45.7707 20.8665 45.7071C20.9105 45.6441 20.948 45.5544 20.9775 45.4379L21.2626 45.4842L21.0438 46.7906L20.758 46.7443C20.7673 46.6326 20.7661 46.5403 20.7539 46.468C20.7426 46.3957 20.7198 46.3388 20.6844 46.296C20.6496 46.2538 20.6021 46.2211 20.5418 46.1976C20.4815 46.1748 20.4073 46.1548 20.3196 46.1366C20.2059 46.1293 20.143 46.1642 20.1296 46.2425L19.9763 47.1572C19.9502 47.3138 20.0601 47.4117 20.3063 47.4511C20.5064 47.4833 20.669 47.4932 20.7942 47.4819C20.9193 47.4699 21.0243 47.4384 21.1106 47.3861C21.197 47.3352 21.2713 47.2638 21.3335 47.1733C21.3957 47.083 21.4634 46.9725 21.5357 46.844L21.8093 46.9283L21.5016 47.919L18.6411 47.4612Z" fill="#F25522"/>
<path d="M23.6949 45.4462L23.2946 46.3925C23.2573 46.4715 23.2384 46.521 23.2384 46.5412C23.2384 46.5679 23.29 46.5806 23.3932 46.5806L24.0069 46.5813C24.087 46.5813 24.1266 46.5746 24.1266 46.5619C24.1266 46.5451 24.0958 46.4562 24.0336 46.2941L23.6949 45.4462ZM24.0778 47.9982L24.079 47.7953C24.1259 47.7886 24.1748 47.7826 24.2263 47.776C24.2786 47.7693 24.3247 47.7619 24.3668 47.7539C24.4083 47.7451 24.4425 47.7357 24.4693 47.7237C24.496 47.7124 24.5094 47.7002 24.5094 47.6869C24.5094 47.6701 24.5047 47.6514 24.4974 47.63C24.4886 47.6079 24.4799 47.5844 24.47 47.5577L24.2544 46.9534C24.2411 46.9166 24.2082 46.8912 24.1547 46.8765C24.1018 46.8617 24.0469 46.8537 23.9901 46.8537L23.2619 46.853C23.1548 46.853 23.0899 46.8864 23.0664 46.952L22.9032 47.4573C22.8965 47.4741 22.8919 47.4921 22.8884 47.5123C22.8845 47.5323 22.8831 47.5537 22.8831 47.5765C22.8817 47.7057 23.0229 47.77 23.3054 47.77L23.3048 47.9982L22.1416 47.9975L22.143 47.7693C22.3297 47.7564 22.4682 47.644 22.5591 47.4326L23.7591 44.6338L24.2229 44.698L25.3681 47.6033C25.3814 47.6394 25.4028 47.6689 25.433 47.6922C25.4625 47.7156 25.4966 47.7338 25.5348 47.7472C25.5728 47.7605 25.6117 47.7705 25.6518 47.7792C25.6914 47.7873 25.7294 47.7933 25.7662 47.7967L25.7649 48.0001L24.0778 47.9982Z" fill="#F25522"/>
<path d="M28.4951 47.5796L28.4603 47.3741C28.6471 47.3421 28.738 47.3099 28.7327 47.2772C28.7293 47.2576 28.7159 47.2282 28.6918 47.1888C28.6685 47.1494 28.6282 47.0992 28.57 47.0388L27.7382 46.1622L27.5749 46.3662C27.5447 46.4084 27.5213 46.4493 27.5046 46.4887C27.4878 46.5288 27.4784 46.5757 27.4777 46.6292L27.5775 47.2196C27.5942 47.3179 27.6398 47.3861 27.714 47.425C27.7877 47.4644 27.9055 47.4699 28.0661 47.4423L28.1009 47.6472L26.4131 47.9383L26.3782 47.7329C26.6734 47.682 26.8046 47.5575 26.7703 47.3587L26.3963 45.1522C26.3615 44.944 26.1842 44.8671 25.8662 44.9221L25.8301 44.7072L27.5381 44.4127L27.5742 44.6276C27.2917 44.6764 27.1687 44.8049 27.2041 45.0131L27.3895 46.1066L28.2809 44.9127C28.3418 44.835 28.382 44.7761 28.4 44.734C28.4189 44.6925 28.4228 44.6409 28.4122 44.5787C28.4014 44.5171 28.2842 44.5051 28.0615 44.5438L28.0253 44.3291L29.3838 44.0947L29.4192 44.305C29.3324 44.3296 29.2587 44.3558 29.1991 44.3826C29.1396 44.41 29.0833 44.4448 29.0298 44.4876C28.9764 44.5297 28.922 44.5854 28.8679 44.6536C28.8136 44.7213 28.7461 44.8076 28.6664 44.912L28.204 45.5344L29.5136 46.8661C29.5993 46.9518 29.6898 47.0161 29.7847 47.0582C29.8798 47.1003 30.0043 47.1084 30.1582 47.0817L30.193 47.2871L28.4951 47.5796Z" fill="#F25522"/>
<path d="M34.1859 45.7527L34.0989 45.5634C34.396 45.4282 34.5031 45.2696 34.4195 45.0861L34.0038 44.176C33.967 44.1746 33.9195 44.1813 33.8613 44.1946C33.8037 44.208 33.7381 44.2315 33.6653 44.2644L33.1198 44.5126C33.0074 44.5635 32.9171 44.6264 32.8487 44.7013L33.2644 45.6109C33.348 45.7942 33.526 45.8237 33.7991 45.6993L33.8854 45.8886L32.2712 46.6227L32.1848 46.4334C32.4906 46.2941 32.6018 46.1329 32.5181 45.9496L31.6193 43.9819C31.5115 43.7442 31.304 43.6954 30.9975 43.8347L30.9072 43.6366L32.5215 42.903L32.6118 43.1005C32.3394 43.2249 32.2571 43.4057 32.3663 43.6438L32.7029 44.3814C32.755 44.3754 32.8052 44.3653 32.8533 44.3507C32.9017 44.336 32.9565 44.3151 33.0168 44.2877L33.5628 44.0394C33.7201 43.9678 33.8191 43.9082 33.8599 43.8607L33.5214 43.1192C33.4122 42.8809 33.2095 42.8295 32.9123 42.9647L32.822 42.7664L34.4275 42.0371L34.5178 42.2352C34.2421 42.3602 34.1578 42.5417 34.2661 42.7786L35.1651 44.7468C35.2487 44.9302 35.4288 44.9589 35.7044 44.8339L35.7915 45.0225L34.1859 45.7527Z" fill="#F25522"/>
<path d="M37.8896 43.4121C38.0342 43.311 38.1305 43.1973 38.18 43.0715C38.2295 42.9456 38.2429 42.8111 38.2202 42.6665C38.1975 42.5233 38.1452 42.3721 38.063 42.2135C37.9806 42.0548 37.8808 41.8929 37.7638 41.7283C37.6547 41.5749 37.5382 41.4324 37.4145 41.3013C37.2906 41.1701 37.1601 41.067 37.0235 40.9935C36.887 40.9198 36.7444 40.8836 36.5945 40.8857C36.4453 40.8878 36.2887 40.9458 36.1254 41.061C35.9755 41.1667 35.8792 41.2832 35.835 41.411C35.7915 41.5388 35.7841 41.674 35.815 41.8172C35.8443 41.9597 35.9025 42.1071 35.9882 42.2596C36.0738 42.4115 36.1724 42.5656 36.2834 42.7222C36.4045 42.8921 36.5284 43.0434 36.6555 43.1765C36.7826 43.309 36.9132 43.4107 37.047 43.4803C37.1801 43.5507 37.3167 43.5827 37.456 43.5781C37.5951 43.5726 37.7397 43.5178 37.8896 43.4121ZM38.4404 41.2069C38.6037 41.4358 38.7101 41.6634 38.7617 41.8902C38.8125 42.1163 38.8151 42.336 38.7716 42.5467C38.7276 42.7569 38.6398 42.9557 38.5079 43.1411C38.3768 43.3264 38.2074 43.4918 38.0006 43.6369C37.8046 43.7755 37.6024 43.8786 37.3936 43.9461C37.1849 44.0145 36.9767 44.0378 36.7693 44.0157C36.5618 43.9943 36.3589 43.9222 36.1616 43.799C35.9635 43.6758 35.7781 43.4931 35.6061 43.2509C35.432 43.0059 35.3169 42.7703 35.2628 42.5442C35.208 42.3178 35.2032 42.103 35.2487 41.8996C35.2936 41.6961 35.3832 41.5068 35.5184 41.3313C35.6522 41.156 35.8203 40.9974 36.0218 40.8555C36.2205 40.7157 36.428 40.6133 36.6447 40.547C36.8616 40.4814 37.0765 40.4599 37.2879 40.482C37.5002 40.5048 37.7049 40.5744 37.9029 40.6916C38.1003 40.8094 38.2797 40.9808 38.4404 41.2069Z" fill="#F25522"/>
<path d="M40.0983 38.1648C39.9124 37.9815 39.7015 38.0068 39.4666 38.2424L39.3114 38.0892L40.1607 37.2393L40.3159 37.3917C40.1232 37.5845 40.1204 37.7726 40.3065 37.9566L41.3593 38.9933C41.4965 39.1278 41.6076 39.263 41.6939 39.3995C41.7796 39.5354 41.8277 39.6766 41.8371 39.8239C41.8471 39.9711 41.815 40.125 41.7407 40.2857C41.6672 40.4457 41.5387 40.6175 41.3552 40.8017C41.2168 40.9401 41.0694 41.0486 40.9142 41.1269C40.759 41.2052 40.6056 41.2521 40.4538 41.2681C40.3019 41.2849 40.1554 41.2694 40.0127 41.2227C39.8701 41.1757 39.7423 41.0961 39.6292 40.985L38.3924 39.7671C38.242 39.6183 38.0571 39.6533 37.8383 39.8721L37.6831 39.7187L38.9165 38.4846L39.0724 38.6373C38.8536 38.8561 38.8195 39.0396 38.9706 39.1881L40.1192 40.3191C40.1948 40.3934 40.2784 40.463 40.37 40.5279C40.4619 40.5929 40.5582 40.6384 40.6586 40.6638C40.7583 40.6898 40.8614 40.6912 40.9678 40.6665C41.0735 40.6424 41.1785 40.5781 41.2824 40.4743C41.4871 40.2689 41.5781 40.0662 41.5546 39.8647C41.5313 39.6639 41.4109 39.4564 41.194 39.243L40.0983 38.1648Z" fill="#F25522"/>
<path d="M42.2032 36.2029C42.0807 36.1467 41.9629 36.1025 41.8505 36.0703C41.7388 36.0383 41.6329 36.0222 41.5345 36.0228C41.4355 36.0228 41.3466 36.0403 41.2676 36.0751C41.1879 36.1099 41.121 36.1647 41.0655 36.2397C40.951 36.395 40.8941 36.5375 40.8941 36.6688C40.8941 36.8005 40.945 36.903 41.0475 36.9766C41.1196 37.0294 41.19 37.0575 41.2568 37.0609C41.3245 37.0649 41.3968 37.0515 41.4744 37.022C41.552 36.9919 41.6363 36.9479 41.7273 36.8882C41.8184 36.8293 41.9214 36.7637 42.0365 36.6909C42.1671 36.6091 42.2908 36.5368 42.4073 36.474C42.5238 36.4104 42.6396 36.3682 42.7539 36.3468C42.869 36.3254 42.9855 36.3293 43.1046 36.3581C43.2238 36.3869 43.353 36.4512 43.4921 36.5529C43.6266 36.6499 43.7298 36.759 43.8021 36.8788C43.8744 36.9986 43.9172 37.1259 43.9306 37.261C43.9446 37.3962 43.9292 37.534 43.8843 37.676C43.8394 37.8179 43.7666 37.957 43.6662 38.0935C43.5925 38.1919 43.5103 38.2789 43.4185 38.354C43.3261 38.4281 43.2238 38.4783 43.1108 38.5032C43.1087 38.5834 43.1013 38.663 43.0887 38.742C43.0758 38.821 43.0558 38.8979 43.0297 38.973C42.9119 38.9368 42.8008 38.8912 42.6958 38.8357C42.5906 38.7802 42.487 38.7153 42.3852 38.6409C42.3156 38.5907 42.2486 38.5393 42.1844 38.4871C42.1208 38.4341 42.0573 38.3773 41.9958 38.3164L42.1885 38.0553C42.2767 38.1196 42.3746 38.1739 42.4823 38.2167C42.5906 38.2602 42.7011 38.2842 42.8156 38.289C42.9293 38.2936 43.0403 38.2722 43.1488 38.2261C43.2566 38.1792 43.3535 38.0982 43.438 37.9837C43.5149 37.8794 43.5684 37.7836 43.5979 37.6967C43.6273 37.609 43.6381 37.5287 43.6308 37.4557C43.6227 37.3822 43.5999 37.3166 43.5631 37.259C43.5256 37.2007 43.4767 37.1505 43.4178 37.1077C43.3242 37.0402 43.2278 37.0073 43.1294 37.0094C43.0311 37.0121 42.9227 37.0542 42.8041 37.1365C42.6275 37.259 42.4614 37.3681 42.3062 37.4644C42.151 37.5609 41.9976 37.6318 41.8477 37.6765C41.6973 37.7214 41.5493 37.7341 41.4028 37.7147C41.2575 37.6947 41.1076 37.6297 40.9549 37.5187C40.8393 37.4356 40.7523 37.338 40.692 37.2268C40.6325 37.1157 40.5977 36.9992 40.5883 36.8781C40.5796 36.7563 40.595 36.634 40.6351 36.5094C40.676 36.3849 40.7375 36.2665 40.8205 36.1541C40.8928 36.0551 40.9812 35.9733 41.0841 35.9091C41.188 35.8441 41.305 35.8121 41.4362 35.8128C41.4042 35.7444 41.3913 35.6703 41.398 35.5885C41.4047 35.5068 41.4201 35.4326 41.4456 35.3643C41.6043 35.4179 41.7676 35.4989 41.9368 35.6065C42.1061 35.715 42.2627 35.8214 42.4073 35.9266L42.2032 36.2029Z" fill="#F25522"/>
<path d="M44.7391 36.4445L44.5544 36.3481C44.6951 36.0844 44.6803 35.9085 44.5102 35.8195L42.5547 34.7941C42.3345 34.679 42.1485 34.7628 41.9967 35.0465L41.8032 34.9447L43.1511 32.4277L44.0331 32.8453L43.9119 33.1244C43.7367 33.0661 43.5921 33.0387 43.479 33.0433C43.3659 33.0474 43.2701 33.0742 43.1932 33.1237C43.1156 33.1732 43.0493 33.2415 42.9938 33.3279C42.9376 33.4148 42.88 33.514 42.8204 33.625C42.7688 33.7213 42.7428 33.803 42.7421 33.8707C42.7421 33.9375 42.7683 33.9851 42.8204 34.0125L43.5927 34.4174C43.6623 34.4535 43.7159 34.4388 43.7521 34.3711C43.7894 34.3009 43.8189 34.2347 43.8417 34.171C43.8645 34.1081 43.8725 34.0459 43.8658 33.9844C43.8592 33.9228 43.833 33.8619 43.7869 33.7996C43.7406 33.7387 43.6678 33.6759 43.5667 33.6116L43.7026 33.3572L44.8784 33.9736L44.7425 34.2279C44.6382 34.1845 44.5491 34.1564 44.4768 34.145C44.4038 34.133 44.3416 34.1369 44.2901 34.1564C44.238 34.1765 44.191 34.2106 44.1496 34.2601C44.1088 34.3089 44.0646 34.3725 44.0197 34.4501C43.9755 34.5539 43.9883 34.6249 44.0586 34.6617L44.8823 35.0933C45.0237 35.1669 45.1527 35.0946 45.2699 34.8752C45.3657 34.6972 45.4279 34.5472 45.4566 34.4254C45.4868 34.3043 45.49 34.1952 45.4693 34.0975C45.4479 34.0004 45.4044 33.908 45.3382 33.821C45.2719 33.7341 45.1888 33.6363 45.0891 33.528L45.2586 33.2964L46.1044 33.8974L44.7391 36.4445Z" fill="#F25522"/>
<path d="M43.6738 28.5297L45.2579 28.369L45.616 26.8418L46.2235 28.2868L47.7943 28.1583L46.6097 29.1936L47.2188 30.6138L45.8636 29.8239L44.6804 30.8533L45.0277 29.3703L43.6738 28.5297Z" fill="#F25522"/>
<path d="M8.13516 10.9587L8.858 11.4847L8.3949 12.1212L7.67206 11.5945L6.94323 12.5958L6.5598 12.3167L7.28863 11.3154L6.79126 10.9541L6.22314 11.7343L5.8397 11.4547L6.40783 10.6743L5.96341 10.351L5.3115 11.2459L4.94023 10.9748L5.86643 9.70253C5.79345 9.55467 5.71121 9.39808 5.62075 9.2348C5.52909 9.07084 5.44 8.92281 5.35176 8.78901L5.83628 8.12305C5.92931 8.25566 6.02234 8.40215 6.11537 8.56354C6.2084 8.72408 6.28807 8.88067 6.35421 9.03264L6.66945 8.6002L7.04089 8.87073L6.42651 9.71452L6.87093 10.0385L7.41764 9.28757L7.80124 9.56667L7.25505 10.3176L7.75173 10.6789L8.47388 9.68711L8.858 9.9662L8.13516 10.9587ZM5.10608 10.4341C4.98769 10.4213 4.85645 10.3959 4.71254 10.3584C4.56931 10.3209 4.42882 10.2801 4.2909 10.2366L4.76685 9.58346C4.89671 9.6263 5.02984 9.6657 5.1657 9.70185C5.30225 9.73868 5.4388 9.76747 5.57534 9.78888L5.10608 10.4341ZM6.81799 12.8099C7.0068 13.0374 7.18618 13.2751 7.3575 13.5206L6.82947 14.2455C6.66945 13.9904 6.49949 13.7414 6.32011 13.4978C6.14073 13.2549 5.9473 13.0213 5.73982 12.7966L6.21834 12.1393C6.42993 12.3581 6.63005 12.5817 6.81799 12.8099ZM5.55256 12.6473C5.34645 12.6359 5.13829 12.6105 4.92738 12.5716C4.71665 12.5329 4.51654 12.488 4.32705 12.4364L4.84909 11.7203C5.04114 11.7732 5.24262 11.8193 5.45353 11.8582C5.66426 11.8971 5.8678 11.9252 6.06517 11.9432L5.55256 12.6473ZM4.44561 11.893C4.24207 11.8662 4.04196 11.8308 3.84527 11.7873C3.64841 11.7431 3.4531 11.6942 3.2583 11.6387L3.77691 10.926C3.96966 10.9842 4.16309 11.0363 4.35789 11.0833C4.55269 11.13 4.75074 11.1676 4.95154 11.1977L4.44561 11.893Z" fill="#F25522"/>
<path d="M11.3083 6.46032C11.2662 6.40875 11.218 6.40549 11.1639 6.44969L9.60516 7.72661C9.58374 7.7446 9.5697 7.77081 9.56233 7.80696C9.55565 7.84243 9.56096 7.87052 9.57775 7.89125L10.433 8.93465C10.4517 8.95795 10.4772 8.97543 10.5086 8.98605C10.5401 8.99684 10.5703 8.99016 10.6004 8.96531L12.1583 7.68909C12.1912 7.66236 12.2066 7.63289 12.2059 7.60136C12.2046 7.57001 12.1919 7.53918 12.1663 7.50782L11.3083 6.46032ZM9.08912 5.86341C9.1508 6.10961 9.20168 6.35187 9.23972 6.58881C9.27792 6.82645 9.30876 7.0747 9.33018 7.33238L11.2247 5.7798C11.2763 5.73748 11.3332 5.70887 11.3961 5.69465C11.4582 5.6794 11.5192 5.67802 11.5789 5.69002C11.6284 5.70081 11.6758 5.71881 11.7214 5.74365C11.7668 5.76901 11.8064 5.80241 11.8405 5.84336L12.914 7.15369C12.9855 7.24141 13.011 7.33906 12.991 7.44614C12.9836 7.50371 12.9641 7.55854 12.932 7.61011C12.8998 7.66236 12.8597 7.70845 12.8109 7.74871L10.5147 9.6299C10.4498 9.68353 10.3842 9.71488 10.3206 9.7243C10.2557 9.73441 10.1935 9.72705 10.1332 9.70357C10.0823 9.68541 10.0328 9.658 9.98465 9.62185C9.93702 9.58519 9.89419 9.54424 9.85616 9.49746L9.07713 8.5471L8.62276 8.91923C8.63338 8.69564 8.6375 8.48011 8.63339 8.27468C8.63013 8.06858 8.62002 7.86315 8.60392 7.65893C8.58798 7.45488 8.56451 7.25014 8.53436 7.04454C8.5042 6.83912 8.46805 6.62565 8.42796 6.40549L7.37652 7.26608L7.07275 6.89532L10.611 3.99609L10.915 4.36685L9.08912 5.86341Z" fill="#F25522"/>
<path d="M16.4739 4.61587C16.4658 4.59771 16.4477 4.58299 16.4209 4.57099C16.3949 4.55968 16.3721 4.55831 16.3527 4.56687L14.5497 5.40553C14.5377 5.41153 14.5257 5.42695 14.5142 5.45231C14.5029 5.47783 14.5002 5.49788 14.5075 5.5133L14.7418 6.01649C14.7512 6.03722 14.7712 6.05196 14.8021 6.06001C14.8329 6.06738 14.861 6.06549 14.8857 6.05401L16.6699 5.22409C16.6894 5.21552 16.7021 5.20011 16.7095 5.17801C16.7168 5.15659 16.7161 5.13654 16.7074 5.11838L16.4739 4.61587ZM16.253 2.39853C16.2068 2.49019 16.1185 2.56592 15.9887 2.62606L12.9395 4.04432C12.7903 4.1132 12.6644 4.12451 12.5614 4.07636C12.465 4.03696 12.382 3.94118 12.3125 3.79058L12.0654 3.26049L12.7696 2.93326L12.9911 3.40852C13.0052 3.43867 13.0259 3.45667 13.0533 3.46198C13.0807 3.46797 13.1088 3.46335 13.1376 3.45067L13.9134 3.08985L13.5592 2.32829L14.2821 1.99232L14.636 2.75387L15.4546 2.37318C15.4699 2.36582 15.4827 2.34971 15.4927 2.32504C15.5028 2.30088 15.5014 2.27604 15.4901 2.25205L15.2672 1.77147L15.9666 1.44629L16.2422 2.03977C16.3039 2.17306 16.3072 2.29214 16.253 2.39853ZM14.4145 4.30594C14.4078 4.41576 14.3972 4.52884 14.3818 4.64585C14.3671 4.76304 14.3496 4.87955 14.3302 4.99519L16.4564 4.00611C16.5964 3.94118 16.7235 3.92114 16.8386 3.94461C16.8988 3.95729 16.9517 3.98128 16.9973 4.01691C17.0427 4.05289 17.0816 4.10514 17.1136 4.1747L17.451 4.8996C17.5072 5.02073 17.5152 5.13055 17.4763 5.22958C17.4376 5.32792 17.3519 5.40896 17.2186 5.47047L14.7164 6.6343C14.5798 6.69718 14.4567 6.71791 14.3463 6.69581C14.2266 6.66377 14.1328 6.57331 14.0638 6.42476L13.8765 6.02198L13.2106 6.33174C13.3257 6.05744 13.4146 5.78159 13.4756 5.5025C13.5371 5.22409 13.5827 4.95049 13.6108 4.67944L12.7595 5.07555L12.5635 4.6546L16.7021 2.72989L16.8981 3.15085L14.4145 4.30594Z" fill="#F25522"/>
<path d="M21.0234 2.85662L20.9504 2.45913L21.3064 2.39351L21.2595 2.13789L20.9343 2.19734L20.864 1.80929L21.1892 1.74966L21.1404 1.48461L20.33 1.63247L20.3788 1.89751L20.704 1.83875L20.775 2.22681L20.4498 2.28643L20.488 2.49716C20.5361 2.4886 20.5909 2.47507 20.6519 2.45776C20.7121 2.4396 20.7676 2.42092 20.8171 2.40156L20.8901 2.79974C20.6867 2.87461 20.4751 2.94366 20.2557 3.00722C20.0369 3.07147 19.8119 3.12697 19.583 3.1758L19.5128 2.79237C19.563 2.77626 19.6252 2.75896 19.6975 2.73874C19.7705 2.71801 19.8368 2.69796 19.8969 2.67654L19.846 2.39609L19.5563 2.44971L19.486 2.06079L19.7751 2.00802L19.7263 1.74298L19.3495 1.81185L19.2733 1.39433L20.3206 1.20226L20.2711 0.932595L19.3168 1.10649L19.247 0.723055L20.2015 0.548297L20.1493 0.263895L20.9021 0.125977L20.955 0.411236L21.8579 0.245909L21.9282 0.629339L21.0246 0.794676L21.0741 1.06503L22.1223 0.873658L22.1978 1.2905L21.7541 1.37222L21.8029 1.63796L22.1283 1.57833L22.1992 1.96656L21.8739 2.02601L21.9208 2.28112L22.3645 2.20009L22.4374 2.59825L21.0234 2.85662ZM19.1915 1.41368C19.2104 1.5355 19.2277 1.66125 19.2445 1.79043C19.2611 1.91893 19.2765 2.04623 19.2919 2.16993C19.308 2.29449 19.32 2.40962 19.3295 2.5167L18.9888 2.5789C18.9781 2.46582 18.9661 2.344 18.9513 2.21482C18.9366 2.08564 18.9219 1.95782 18.9078 1.83138C18.8938 1.70545 18.8777 1.58296 18.8597 1.46457C18.8415 1.34618 18.8242 1.24029 18.8074 1.14932L19.1374 1.0885C19.1547 1.18342 19.1729 1.29187 19.1915 1.41368ZM22.7152 4.26409L21.8639 4.41999C21.7668 4.43747 21.6859 4.4414 21.6203 4.4313C21.5547 4.42136 21.4992 4.40063 21.4543 4.36774C21.3665 4.29955 21.3064 4.1731 21.273 3.98961L21.1786 3.47374L20.8848 3.5272C20.8855 3.62897 20.8848 3.73005 20.8841 3.83165C20.8834 3.9341 20.8721 4.03381 20.8514 4.13284C20.8359 4.2233 20.8111 4.31085 20.7763 4.39515C20.7422 4.47961 20.6967 4.56254 20.6405 4.64358L19.6961 4.81627C19.7824 4.72581 19.8582 4.63073 19.921 4.53102C19.9846 4.4313 20.0376 4.32901 20.0783 4.2233C20.1111 4.13216 20.1338 4.04049 20.1453 3.94678C20.1566 3.85306 20.1566 3.75815 20.1465 3.66238L19.6044 3.7614L19.5282 3.34319L22.5211 2.79631L22.5981 3.21401L21.9061 3.34044L22.0065 3.89127C22.0104 3.91063 22.0205 3.92606 22.0366 3.93616C22.0525 3.94679 22.0693 3.95089 22.0868 3.94747L22.7312 3.82976L22.7152 4.26409ZM17.8684 2.78295C17.843 2.70002 17.8135 2.59962 17.7815 2.48175C17.7493 2.36405 17.7159 2.24154 17.6825 2.11373C17.6482 1.98661 17.6162 1.8588 17.5853 1.7303C17.5552 1.60249 17.5284 1.48804 17.5063 1.38696L17.837 1.32596C17.8577 1.42105 17.8831 1.53156 17.9133 1.658C17.9441 1.78444 17.9754 1.91293 18.0083 2.04417C18.0411 2.17524 18.074 2.30048 18.106 2.42024C18.1389 2.53931 18.1677 2.6404 18.1937 2.72418L17.8684 2.78295ZM19.2585 4.55123C19.1547 4.37373 19.0651 4.19315 18.9888 4.01103C18.9727 4.17636 18.9534 4.33827 18.9313 4.49623C18.9085 4.65489 18.8777 4.81353 18.8395 4.97287L18.1481 5.09932C18.2211 4.81817 18.2734 4.56185 18.3054 4.32902C18.3376 4.09601 18.3537 3.86317 18.3537 3.62897C18.3542 3.43622 18.3429 3.24005 18.3208 3.04131C18.2987 2.84188 18.266 2.62447 18.2232 2.38889L17.91 0.672861L18.5444 0.557039L18.9118 2.56741C18.9292 2.6625 18.944 2.75759 18.956 2.85388C18.968 2.94965 18.9794 3.04405 18.9894 3.13709L19.2217 3.09493C19.399 3.55992 19.6125 4.00846 19.8621 4.44072L19.2585 4.55123Z" fill="#F25522"/>
<path d="M25.956 3.07468L25.8542 4.45455L25.043 4.3951L25.1448 3.01437L23.2295 2.87388L23.265 2.39604L25.1796 2.53653L25.264 1.39548L24.3745 1.32986C24.3558 1.3888 24.3351 1.44962 24.3109 1.51318C24.2868 1.57675 24.2635 1.63842 24.2393 1.69856C24.2158 1.75818 24.1932 1.81438 24.1718 1.86595C24.1504 1.91821 24.1295 1.9636 24.1088 2.00181L23.2776 1.94081C23.3244 1.82705 23.3746 1.70268 23.4282 1.56613C23.4824 1.42958 23.536 1.28839 23.5888 1.14174C23.6417 0.995935 23.6926 0.846027 23.7428 0.692688C23.7923 0.53952 23.8351 0.388232 23.8706 0.24089L24.6656 0.299146C24.6448 0.391492 24.6221 0.485897 24.5974 0.582355C24.5732 0.679327 24.5486 0.775093 24.5237 0.870009L25.2981 0.926895L25.3663 0L26.1775 0.0596263L26.1092 0.986511L27.694 1.1037L27.6599 1.57143L26.0751 1.45493L25.9908 2.59615L27.8533 2.73321L27.8178 3.21174L25.956 3.07468Z" fill="#F25522"/>
<path d="M32.1145 4.91655L31.7785 5.91026L31.0925 5.67879L32.5106 1.47986L33.1966 1.71201L32.9953 2.30773L33.6316 2.52326L33.4858 2.95347L32.85 2.73879L32.6305 3.38727L33.1524 3.56322L33.0052 3.99891L32.4832 3.82296L32.2616 4.48086L32.9469 4.71301L32.8005 5.14801L32.1145 4.91655ZM31.2318 4.3731C31.1869 4.37036 31.1393 4.36573 31.0897 4.35904C30.9827 4.56584 30.865 4.75584 30.7358 4.9306C30.6073 5.10518 30.4546 5.26109 30.2794 5.39901L29.5238 5.14339C29.6763 5.01952 29.8169 4.88503 29.9454 4.74042C30.0733 4.59531 30.1884 4.43255 30.2895 4.25265C30.1969 4.24255 30.1041 4.23055 30.0111 4.2165C29.918 4.20245 29.8269 4.18566 29.7373 4.1663L29.8879 3.72119C29.995 3.74329 30.102 3.76402 30.2105 3.78269C30.3182 3.80222 30.424 3.81627 30.5276 3.82689C30.5785 3.73129 30.6234 3.63552 30.6628 3.54043C30.7031 3.44483 30.7378 3.34581 30.7685 3.24404L30.2766 3.07733L30.424 2.64232L30.9359 2.81503L31.1535 2.17117L30.537 1.96301L30.47 2.16175L30.1469 2.05279L29.8764 2.85255C29.9346 2.85512 29.9936 2.8558 30.0525 2.85649C30.1113 2.85717 30.1689 2.85649 30.2252 2.85444L30.0698 3.3136C30.0157 3.31959 29.9581 3.32233 29.8959 3.32096C29.833 3.3189 29.7748 3.31771 29.7198 3.31703L29.2848 4.60388C29.2468 4.71764 29.1805 4.79867 29.0861 4.84819C28.991 4.90044 28.8839 4.90575 28.7648 4.86635L28.1431 4.65613L28.1859 4.18567L28.4945 4.28932C28.5272 4.3008 28.5614 4.29874 28.5955 4.284C28.6303 4.26927 28.6538 4.24322 28.6665 4.2057L28.9723 3.3016C28.8244 3.30023 28.6745 3.29081 28.5226 3.27076L28.6778 2.8116C28.7528 2.81897 28.8277 2.82633 28.9034 2.83233C28.979 2.8385 29.054 2.84039 29.1289 2.83713L29.4709 1.82458L29.0479 1.68203L29.1985 1.23623L29.6215 1.37946L29.8865 0.59375L30.5624 0.821955L30.2974 1.60767L30.5999 1.71013L30.6662 1.51601L31.302 1.73086L31.5021 1.13926L32.178 1.36747L31.5383 3.26134C31.5008 3.37116 31.4619 3.48167 31.4218 3.59064C31.381 3.69977 31.3368 3.80823 31.2893 3.91531C31.3502 3.93261 31.4257 3.94409 31.5162 3.9494L31.3723 4.37566C31.3241 4.37703 31.2772 4.37635 31.2318 4.3731Z" fill="#F25522"/>
</svg>
