<svg width="132" height="24" viewBox="0 0 132 24" fill="none" xmlns="http://www.w3.org/2000/svg">
<path fill-rule="evenodd" clip-rule="evenodd" d="M34.7808 0.397498C35.1662 0.36535 35.2999 0.397752 35.4435 0.558138C35.5227 0.646546 35.5988 0.674079 35.6927 0.648364C35.7681 0.627707 35.8019 0.578699 35.7694 0.537326C35.7373 0.49655 35.7483 0.457578 35.7941 0.450659C35.9109 0.43298 36.3276 0.610101 36.3627 0.692408C36.3787 0.729994 36.4704 0.7769 36.5664 0.796577C36.7286 0.829892 36.7275 0.844813 36.5507 1.00903C36.3797 1.16777 36.376 1.1962 36.5143 1.28999C36.6478 1.38044 36.7024 1.38504 36.9267 1.32449C37.069 1.28608 37.2492 1.20181 37.3273 1.1372C37.5351 0.965299 37.6627 0.96704 37.7376 1.14274C37.787 1.25832 37.8483 1.29602 37.9844 1.29445C38.1215 1.29285 38.1817 1.33057 38.2327 1.44997C38.3696 1.77065 38.5005 1.8656 38.8061 1.86585C39.0763 1.86605 39.1024 1.88115 39.2636 2.12877C39.3577 2.27328 39.4149 2.43117 39.3907 2.47964C39.3315 2.59813 39.4397 2.83743 39.5608 2.85626C39.6144 2.8646 39.6742 2.90891 39.6938 2.95476C39.7511 3.08893 40.2989 3.06302 40.6929 2.9075C40.7912 2.86872 41.0257 2.78872 41.2138 2.72982C41.5128 2.63614 41.5453 2.60974 41.4722 2.51949C41.3411 2.35759 41.3784 2.22653 41.5561 2.22447C41.6583 2.22328 41.729 2.17813 41.7612 2.09346C41.8348 1.90006 42.3737 1.74216 42.888 1.76337C43.1981 1.77614 43.3246 1.76092 43.5139 1.68806C43.7318 1.60413 43.779 1.60507 44.0966 1.69989C44.3581 1.77794 44.5185 1.79149 44.7556 1.75562C45.1765 1.69192 45.3563 1.79138 45.23 2.018C45.1255 2.20548 45.272 2.32045 45.587 2.29846C45.6915 2.29116 45.8335 2.31863 45.9027 2.35955C45.988 2.41003 46.1193 2.42015 46.3113 2.3911C46.5693 2.35206 46.9237 2.41479 46.9628 2.50641C46.9709 2.5255 47.0767 2.58149 47.1978 2.6308C47.4305 2.72555 47.549 2.88118 47.405 2.90297C47.2876 2.92072 47.3689 3.08827 47.5051 3.10946C47.5658 3.11891 47.6363 3.08776 47.662 3.04019C47.6876 2.99267 47.7621 2.94569 47.8276 2.93578C48.0214 2.90645 48.0254 2.81672 47.8369 2.73015C47.7399 2.68565 47.637 2.59404 47.6082 2.5266C47.5526 2.3962 47.5654 2.39064 48.361 2.19974C48.5821 2.14669 48.8256 2.1213 49.0051 2.1326C49.2686 2.14924 49.3036 2.13968 49.4078 2.02275C49.584 1.82486 49.9043 1.84503 50.2793 2.07753C50.5312 2.23386 50.6164 2.25871 50.7545 2.21608C51.0991 2.1097 51.6427 2.29591 51.8578 2.59403C51.8917 2.641 52.0334 2.69059 52.1726 2.70426C52.3118 2.71789 52.4336 2.7477 52.4433 2.77042C52.453 2.79319 52.5524 2.82267 52.6642 2.83598C52.8199 2.85446 52.8473 2.84964 52.7811 2.81533C52.6564 2.75065 52.7945 2.52281 52.975 2.4955C53.1436 2.46998 53.3599 2.5733 53.4168 2.70651C53.4755 2.84408 53.7156 2.91811 54.0691 2.90753C54.5037 2.89459 54.5345 2.85172 54.19 2.7393L53.9065 2.64673L54.1841 2.53214C54.4518 2.42166 54.4561 2.41317 54.3051 2.29454C54.1767 2.19374 54.1643 2.14525 54.2366 2.02574C54.3544 1.83077 54.6042 1.77764 54.9058 1.88328C55.8035 2.19789 55.7607 2.17354 55.7959 2.39006C55.8272 2.58219 55.8467 2.59628 56.1229 2.62687C56.3316 2.64995 56.4151 2.68552 56.4111 2.74969C56.4072 2.81425 56.4803 2.84475 56.6671 2.8565C56.9715 2.8757 57.4716 3.04087 57.512 3.13559C57.5291 3.17558 57.7315 3.20156 58.0335 3.20245C58.305 3.20327 58.5496 3.22329 58.5771 3.24696C58.6085 3.27389 58.7582 3.25782 58.9779 3.20391C59.2754 3.13097 59.3152 3.10584 59.2394 3.03853C59.1639 2.97143 59.1884 2.95568 59.3981 2.93624C59.6212 2.91559 59.6403 2.89954 59.588 2.77692C59.5347 2.65207 59.5563 2.63529 59.8456 2.57773L60.1614 2.51483L59.769 2.37158C59.4108 2.24073 59.3623 2.20103 59.2119 1.91452C59.0365 1.58051 59.0457 1.15401 59.2298 1.08231C59.2859 1.06053 59.3338 0.990948 59.3365 0.927694C59.3414 0.811312 59.5783 0.691708 59.7508 0.718537C59.8026 0.726622 59.8365 0.76494 59.8261 0.803763C59.8145 0.847416 59.9186 0.886674 60.0988 0.906641C60.4786 0.948681 60.6603 1.06111 60.6745 1.26281C60.6816 1.36339 60.72 1.42019 60.7753 1.41182C60.9162 1.39049 61.0501 1.79634 60.9506 1.94301C60.8296 2.12138 60.968 2.22468 61.2243 2.14724C61.4664 2.07412 61.8554 2.08943 62.1602 2.18401C62.2875 2.22353 62.5081 2.27738 62.6504 2.30365C62.8109 2.33331 62.9271 2.39371 62.9566 2.46293C62.9828 2.52424 63.0439 2.56842 63.0923 2.56108C63.258 2.53601 63.3288 2.66247 63.2303 2.80758C63.1378 2.94384 63.1231 2.94863 62.9842 2.88763C62.7786 2.79726 62.7018 2.89704 62.8321 3.08503C62.937 3.23628 62.9528 3.23921 63.7524 3.2547C64.4094 3.26742 64.6466 3.25204 64.9845 3.17473C65.2148 3.12208 65.4107 3.09669 65.4199 3.11832C65.4291 3.13996 65.6524 3.19404 65.9161 3.23847C66.3095 3.30473 66.4813 3.30621 66.8749 3.24665C67.2112 3.19575 67.3467 3.15647 67.3291 3.11502C67.2929 3.03026 67.078 2.97399 66.8957 3.00158C66.7042 3.03056 66.548 2.92274 66.6504 2.83225C66.6915 2.79587 66.7095 2.72929 66.6903 2.68429C66.6683 2.6328 66.7187 2.5929 66.8263 2.57662C66.9203 2.56239 67.006 2.57121 67.0166 2.5962C67.0522 2.67955 67.2229 2.61477 67.2288 2.5157C67.2321 2.46199 67.2728 2.41228 67.3194 2.40523C67.3659 2.39819 67.395 2.42645 67.3839 2.46805C67.3729 2.50963 67.3936 2.53915 67.4299 2.53366C67.4662 2.52816 67.6667 2.57108 67.8752 2.62908C68.1606 2.70841 68.3067 2.72075 68.4648 2.67891C68.6108 2.64032 68.7528 2.64559 68.929 2.69619C69.2217 2.78021 69.2458 2.80791 69.1218 2.91749C68.9168 3.09871 68.9886 3.18882 69.3635 3.22082C69.5603 3.23758 69.7824 3.2421 69.8571 3.23079C69.9318 3.21949 70.015 3.2292 70.0419 3.25233C70.0708 3.27709 70.2 3.26503 70.3555 3.22302C70.5658 3.16627 70.6104 3.12923 70.5733 3.04229C70.5476 2.98212 70.4639 2.92985 70.3873 2.92616C70.1638 2.91532 70.108 2.67361 70.3068 2.57778C70.4001 2.53279 70.5483 2.43886 70.6359 2.36903L70.7952 2.24211L71.0913 2.35455C71.4195 2.4793 71.5309 2.47972 71.6438 2.35663C71.8043 2.18162 72.2378 2.34845 72.3188 2.61634C72.3416 2.6919 72.444 2.75189 72.6141 2.78938C73.2562 2.93089 73.4737 3.01666 73.531 3.15091C73.5901 3.28949 73.7238 3.3234 73.9391 3.25434C74.1347 3.19159 74.3136 2.85293 74.241 2.68272C74.1863 2.55474 74.2159 2.50261 74.3962 2.40855C74.5187 2.34472 74.6037 2.27976 74.5848 2.26422C74.566 2.24873 74.3989 2.2087 74.2133 2.17529C74.0278 2.14192 73.8498 2.09187 73.8179 2.06409C73.7859 2.03637 73.9019 1.93173 74.0755 1.83157C74.3504 1.67311 74.3847 1.62545 74.3404 1.46368C74.2671 1.1968 74.4138 0.866548 74.6363 0.796916C75.052 0.6669 75.202 0.671205 75.2633 0.814868C75.3036 0.909265 75.3957 0.96296 75.5679 0.992542C75.7037 1.01583 75.8147 1.06 75.8146 1.09064C75.8145 1.12124 75.923 1.19059 76.056 1.2447C76.2576 1.32687 76.3223 1.33083 76.4473 1.2688C76.5475 1.21908 76.6212 1.20701 76.6701 1.23237C76.8143 1.30713 76.7061 1.47861 76.4477 1.58531C76.3029 1.64506 76.193 1.71414 76.2035 1.73877C76.2141 1.76345 76.1253 1.79836 76.0064 1.81637C75.759 1.85381 75.6788 1.99822 75.8847 2.03529C75.9603 2.0489 76.1832 2.02412 76.3799 1.98018C76.8371 1.87814 77.2966 1.95496 77.3786 2.14717C77.408 2.21598 77.399 2.29074 77.3586 2.31331C77.2158 2.39302 77.3554 2.50834 77.6406 2.54656C77.8411 2.57345 77.9444 2.62018 77.9782 2.6994C78.0284 2.81702 78.2858 2.87809 78.4591 2.81358C78.5175 2.79184 78.5736 2.81542 78.5977 2.87173C78.6222 2.92917 78.583 2.97474 78.4979 2.9876C78.3208 3.01441 78.1871 3.17312 78.2366 3.29786C78.274 3.39231 78.577 3.50729 78.7303 3.4853C78.7737 3.47907 79.0608 3.50064 79.3682 3.53328C79.6757 3.56591 79.953 3.57822 79.9846 3.56057C80.0991 3.49665 80.5824 3.56596 80.5863 3.64685C80.5916 3.75927 81.2334 3.89162 81.4241 3.81966C81.5052 3.78905 81.745 3.66527 81.9572 3.54453C82.4086 3.2876 82.4671 3.27309 82.5946 3.38638C82.6472 3.43309 82.7316 3.45665 82.7823 3.43863C82.9671 3.37296 82.8525 3.26727 82.4342 3.11768C82.1989 3.03353 81.9899 2.92742 81.9697 2.88185C81.9142 2.7569 82.2761 2.46737 82.5195 2.44195C82.8251 2.41008 83.6734 2.59881 83.6454 2.69246C83.5908 2.87539 83.6532 3.0141 83.8071 3.05163C84.01 3.10115 84.0526 3.19272 83.9004 3.25201C83.7804 3.2987 83.7887 3.44492 83.9102 3.42653C83.9474 3.42091 84.1135 3.30825 84.2794 3.17616C84.5382 2.97007 84.5614 2.92707 84.4433 2.87315C84.1357 2.73288 83.934 2.59494 83.9646 2.54599C83.9824 2.51746 84.1042 2.47788 84.2351 2.45807C84.5676 2.40775 84.689 2.25875 84.6642 1.93096C84.6315 1.49543 84.9774 1.27316 85.5073 1.38936C85.7056 1.43284 85.7496 1.46953 85.7557 1.59653C85.7641 1.76974 85.9499 1.90825 86.1362 1.88006C86.204 1.86981 86.3471 1.90441 86.4543 1.95696C86.6228 2.03959 86.6437 2.07654 86.6084 2.22993C86.5747 2.37685 86.5906 2.41102 86.7006 2.42887C86.8902 2.45965 86.9221 2.44993 87.0517 2.32214C87.22 2.15605 87.3804 2.15302 87.599 2.31188C87.7051 2.38896 87.8791 2.46583 87.9857 2.4827C88.1007 2.50095 88.2007 2.5629 88.2315 2.63512C88.2974 2.78937 88.424 2.8886 88.5339 2.87196C88.5809 2.86486 88.7166 2.78693 88.8358 2.69879C89.0925 2.50869 89.136 2.1866 88.9376 1.94266C88.8635 1.85141 88.8206 1.74367 88.8424 1.7033C88.8653 1.66074 88.7758 1.55681 88.6294 1.45611C88.3528 1.26588 88.3742 1.16012 88.6818 1.19668C88.7827 1.20866 89.0141 1.18429 89.196 1.14248C89.4718 1.07917 89.5812 1.07998 89.8528 1.14751C90.2252 1.24012 90.3873 1.45166 90.1509 1.53664C89.9585 1.60577 89.6323 1.86701 89.6593 1.93032C89.6716 1.95918 89.8351 2.04476 90.0225 2.12057C90.3983 2.27247 90.4641 2.42877 90.1357 2.38972C89.8741 2.35863 89.8657 2.36227 89.7791 2.54438C89.7123 2.68493 89.722 2.71361 89.8502 2.75333C89.9609 2.78771 90.0498 2.77969 90.1992 2.72191C90.3717 2.6551 90.4384 2.65817 90.6799 2.74389C90.8341 2.79865 91.0292 2.83304 91.1135 2.82029C91.4876 2.76367 91.6712 2.95594 91.409 3.12997C91.2916 3.20794 91.2611 3.28126 91.3102 3.36769C91.3848 3.49904 91.7274 3.69506 91.8499 3.67652C91.8893 3.67056 92.0441 3.57983 92.1939 3.47496C92.4326 3.30777 92.4563 3.26028 92.3866 3.09018C92.3028 2.88609 92.4877 2.60386 92.8183 2.43092C93.0327 2.31884 93.6064 2.23749 93.9015 2.2774C94.2349 2.32246 94.2503 2.31722 94.3339 2.13044C94.384 2.01859 94.3736 1.95451 94.3014 1.93214C94.2429 1.914 94.1793 1.86232 94.1601 1.81733C94.114 1.70948 94.0118 1.72921 93.9274 1.86222C93.8467 1.98929 93.5575 2.04254 93.1793 1.99991C93.0288 1.98296 92.841 1.97872 92.762 1.99049C92.6831 2.00229 92.5444 1.98893 92.4537 1.96085C92.2496 1.89753 92.129 1.65054 92.2902 1.62613C92.3535 1.61656 92.4574 1.55729 92.5211 1.49443C92.6493 1.36801 92.8571 1.31865 93.0326 1.37308C93.0955 1.39259 93.4151 1.37859 93.7426 1.34198C94.3805 1.27061 94.7078 1.29617 94.8571 1.42885C94.9092 1.47515 95.0121 1.49751 95.0903 1.47953C95.2805 1.43576 95.3587 1.52035 95.1736 1.56946C94.9417 1.63096 94.9201 1.67545 94.9849 1.95858C95.0349 2.17734 95.0888 2.24661 95.2895 2.35078C95.4238 2.42036 95.5524 2.52143 95.5754 2.57534C95.6004 2.63401 95.7017 2.67882 95.8277 2.68699C96.091 2.70404 96.4924 2.80548 96.5161 2.86098C96.5259 2.88393 96.46 3.01016 96.3697 3.1415C96.1899 3.4029 96.1938 3.64959 96.3779 3.65556C96.4528 3.65801 96.4699 3.6231 96.4266 3.5565C96.368 3.46647 96.3973 3.44757 96.6628 3.40415C97.0801 3.33591 97.151 3.28275 97.0718 3.09714C97.024 2.98515 97.039 2.94006 97.1215 2.94726C97.1865 2.95296 97.3124 2.95999 97.4012 2.963C97.49 2.96597 97.5818 3.01299 97.605 3.06753C97.6289 3.12339 97.8312 3.22201 98.0691 3.29365C98.377 3.38641 98.4974 3.45248 98.5148 3.53844C98.5352 3.63942 98.5773 3.6524 98.8106 3.62968C99.0426 3.60709 99.1327 3.63439 99.425 3.81597C99.6134 3.93295 99.8075 4.03489 99.8563 4.04245C99.9051 4.05006 99.9389 4.0959 99.9314 4.14432C99.9236 4.19358 100.01 4.26868 100.126 4.31477C100.295 4.38146 100.355 4.38311 100.436 4.32343C100.492 4.28283 100.564 4.2579 100.597 4.26801C100.629 4.27813 100.842 4.2021 101.071 4.09905C101.49 3.90972 101.76 3.8402 101.904 3.88472C101.947 3.89813 102.203 3.86843 102.472 3.81877C102.763 3.76504 102.993 3.74494 103.04 3.76914C103.181 3.84244 103.718 3.7218 104.096 3.53194C104.447 3.35559 104.479 3.34798 104.727 3.38361C105.03 3.42712 105.337 3.36147 105.801 3.15409C105.977 3.07551 106.197 2.99648 106.289 2.97848C106.381 2.96049 106.477 2.89282 106.502 2.82807C106.531 2.7527 106.621 2.69918 106.753 2.67917C106.867 2.66199 106.968 2.61392 106.979 2.57233C106.99 2.53075 107.058 2.48781 107.13 2.47691C107.229 2.46205 107.283 2.50833 107.349 2.66226C107.423 2.83587 107.488 2.88163 107.772 2.95977C108.117 3.0549 108.37 3.05308 108.432 2.95502C108.451 2.92424 108.533 2.89358 108.613 2.88694C108.855 2.86688 109.18 2.74418 109.298 2.6284C109.41 2.51752 109.589 2.45443 109.532 2.54581C109.5 2.59701 109.853 2.72097 110.182 2.77427C110.351 2.80168 110.348 2.80707 110.137 2.84153C109.804 2.89609 109.802 2.97513 110.13 3.06168C110.432 3.14127 110.685 3.13367 110.741 3.0433C110.76 3.01391 110.869 2.97566 110.983 2.95829C111.173 2.92952 111.2 2.94477 111.279 3.1302C111.35 3.29608 111.333 3.35303 111.187 3.43856C111.089 3.49625 110.966 3.53696 110.915 3.52902C110.757 3.50444 110.572 3.60666 110.611 3.6972C110.642 3.76982 110.712 3.77343 111.064 3.72023L111.48 3.65724L111.665 3.93166C111.767 4.08261 111.894 4.29556 111.947 4.40486C112.002 4.51642 112.093 4.60494 112.157 4.60657C112.275 4.60963 112.575 4.37712 112.595 4.267C112.604 4.2165 112.688 4.20895 112.98 4.23231C113.354 4.26214 113.52 4.2523 114.473 4.14404C114.878 4.09804 115.039 4.10373 115.273 4.17237C115.51 4.24227 115.611 4.24528 115.813 4.18841C116.046 4.12252 116.077 4.12921 116.339 4.30249C116.562 4.44984 116.7 4.49227 117.032 4.51549C117.497 4.54793 117.883 4.50392 118.107 4.39286C118.292 4.30092 118.483 4.33755 118.635 4.49412C118.783 4.64706 118.575 5.09961 118.286 5.25531C118.023 5.39658 118.031 5.4718 118.316 5.54997C118.576 5.62108 118.656 5.79463 118.471 5.88644C118.263 5.98925 118.26 6.11296 118.462 6.21205C118.822 6.38834 119.38 6.17218 119.154 5.94426C119.077 5.86597 119.096 5.85685 119.368 5.84685C119.624 5.83743 119.672 5.85375 119.703 5.96212C119.723 6.03227 119.863 6.147 120.018 6.2204C120.171 6.29305 120.307 6.37713 120.32 6.4073C120.367 6.51793 120.733 6.70411 120.909 6.70696C121.008 6.70859 121.201 6.6787 121.336 6.64052C121.538 6.58358 121.63 6.58728 121.847 6.66107C122.062 6.73402 122.153 6.73807 122.329 6.68241C122.678 6.57218 122.966 6.55721 123.159 6.63943C123.374 6.7307 123.613 6.66147 123.554 6.52481C123.525 6.45663 123.571 6.42404 123.729 6.40017C123.906 6.37331 123.951 6.38956 123.997 6.49627C124.056 6.6348 124.441 6.77621 124.666 6.74216C124.846 6.71487 124.986 6.86809 124.932 7.03368C124.908 7.10769 124.913 7.24054 124.945 7.32896C125.001 7.48768 125.006 7.48906 125.365 7.43917C125.753 7.38543 126.659 7.45539 126.967 7.56273C127.065 7.59696 127.24 7.61067 127.355 7.59323C127.47 7.57581 127.761 7.59704 128.002 7.64041C128.243 7.68378 128.494 7.71117 128.559 7.70128C128.624 7.69138 128.706 7.69782 128.74 7.71562C128.775 7.73336 128.985 7.74749 129.207 7.74699C129.555 7.7462 129.635 7.73174 129.777 7.64323C129.868 7.58667 130.034 7.52647 130.146 7.50945C130.345 7.47938 130.348 7.48229 130.259 7.61401C130.17 7.74532 130.174 7.74985 130.408 7.76079C130.541 7.767 130.704 7.76372 130.772 7.75352C130.908 7.73283 130.9 7.72417 131.026 8.0054C131.167 8.3207 131.166 8.3233 130.867 8.44634C130.668 8.52861 130.554 8.55218 130.475 8.52754C130.293 8.47115 130.071 8.52919 129.975 8.65831C129.864 8.80776 130.031 8.8841 130.225 8.77314C130.509 8.61194 131.057 8.8124 130.998 9.05547C130.962 9.20366 130.687 9.27499 130.402 9.2103C130.187 9.16162 130.149 9.16571 130.01 9.25288C129.924 9.30593 129.867 9.37882 129.883 9.4149C129.898 9.45099 129.875 9.48585 129.832 9.49241C129.788 9.49898 129.738 9.58762 129.72 9.68939C129.702 9.79121 129.647 9.90993 129.598 9.95324C129.549 9.99656 129.529 10.0776 129.552 10.1333C129.624 10.3011 129.486 10.3734 129.163 10.3376C129.008 10.3205 128.867 10.3194 128.849 10.3353C128.807 10.3728 128.804 10.7119 128.845 10.8151C128.889 10.9262 128.969 10.9018 129.236 10.6947C129.363 10.596 129.496 10.5109 129.532 10.5055C129.628 10.491 129.801 10.7432 129.899 11.0401C129.978 11.2792 129.961 11.3261 129.704 11.5656C129.548 11.7103 129.373 11.8359 129.314 11.8449C129.255 11.8538 129.212 11.9376 129.218 12.031C129.235 12.2619 129.105 12.3638 128.779 12.3779C128.269 12.3999 128.182 12.6595 128.624 12.8395C128.887 12.9468 129.103 13.2205 129.018 13.341C128.969 13.4119 128.918 13.4168 128.611 13.3799L128.261 13.3378L128.115 13.491C127.932 13.6823 127.753 13.6773 127.56 13.4756C127.386 13.2953 127.089 13.2713 127.079 13.4369C127.075 13.4947 127.003 13.5493 126.912 13.5632C126.719 13.5923 126.343 13.485 126.302 13.3893C126.264 13.2991 126.207 13.3121 125.993 13.4602C125.758 13.6236 125.712 13.6265 125.348 13.5009C125.074 13.4064 125.016 13.4035 124.851 13.476C124.576 13.5968 124.323 13.5799 124.086 13.4251L123.877 13.2879L123.721 13.4172C123.524 13.5798 123.251 13.5834 122.994 13.4268C122.776 13.2939 122.739 13.296 122.524 13.4532C122.361 13.5732 122.434 13.6876 122.626 13.6126C122.738 13.5693 123.262 13.6065 123.376 13.6658C123.413 13.6851 123.555 13.6841 123.691 13.6634C123.827 13.6428 124.099 13.6551 124.295 13.6906C124.581 13.7425 124.69 13.7404 124.846 13.6798C125.005 13.6181 125.104 13.6178 125.382 13.6781C125.671 13.7407 125.774 13.7392 126.055 13.6689C126.271 13.6146 126.393 13.6027 126.407 13.6347C126.438 13.7074 126.784 13.8244 126.911 13.8052C126.971 13.796 127.082 13.7542 127.156 13.7123C127.265 13.6512 127.344 13.6465 127.552 13.6887C127.926 13.7646 127.955 13.9022 127.628 14.0506C127.303 14.1982 127.117 14.2319 127.082 14.1497C127.067 14.1161 126.968 14.0647 126.862 14.0356C126.683 13.9867 126.66 13.9899 126.561 14.077C126.387 14.2312 126.504 14.3832 126.792 14.3777C126.929 14.375 127.187 14.4161 127.365 14.4689C127.651 14.5535 127.766 14.5561 128.33 14.4915C129.53 14.354 129.575 14.3468 129.553 14.2924C129.541 14.2632 129.556 14.2174 129.587 14.1905C129.618 14.1637 129.652 14.2103 129.662 14.2942C129.684 14.4594 129.702 14.4633 130.317 14.4295C130.526 14.4181 130.661 14.4364 130.679 14.4786C130.695 14.5156 130.807 14.5862 130.928 14.6355C131.209 14.7498 131.277 14.9082 131.108 15.057C130.932 15.2125 130.858 15.2176 130.52 15.0976C130.304 15.021 130.157 15.007 129.926 15.0408C129.757 15.0655 129.532 15.067 129.425 15.0441C129.174 14.9904 128.945 15.0259 128.919 15.1225C128.908 15.1643 128.812 15.2369 128.706 15.2836C128.479 15.383 128.506 15.5106 128.792 15.6903C128.933 15.779 129.047 15.8043 129.201 15.7811C129.389 15.7526 129.418 15.7663 129.449 15.8992C129.503 16.1264 129.198 16.2052 127.921 16.2945C127.354 16.3342 126.803 16.3519 126.695 16.3341C126.284 16.266 124.304 16.2928 124.219 16.3676C124.2 16.3839 124.262 16.4209 124.355 16.4499C124.507 16.497 124.516 16.5156 124.441 16.6256C124.393 16.6967 124.401 16.8201 124.459 16.9184L124.56 17.0882L125.011 17.02C125.405 16.9603 125.48 16.9639 125.617 17.0488C125.702 17.1022 125.851 17.1404 125.947 17.1338C126.495 17.0961 126.502 17.0979 126.634 17.3306C126.706 17.4581 126.725 17.561 126.677 17.571C126.631 17.5805 126.502 17.6055 126.39 17.6265C126.097 17.6814 126.12 17.7843 126.43 17.8076C126.576 17.8185 126.738 17.8492 126.79 17.8758C126.842 17.9024 127.07 17.9809 127.297 18.0503C127.807 18.2067 127.903 18.3484 127.535 18.4041C127.324 18.436 127.264 18.4782 127.183 18.6508C127.064 18.9072 126.896 18.9402 126.643 18.7567C126.422 18.5962 126.34 18.5937 126.244 18.7446C126.147 18.8973 125.894 18.9172 125.577 18.7972C125.401 18.7307 125.223 18.7056 125.08 18.7272C124.864 18.7598 124.437 18.666 124.312 18.5586C124.263 18.5167 124.209 18.5244 124.045 18.5964C123.875 18.6714 123.799 18.6796 123.598 18.6451C123.465 18.6223 123.314 18.5664 123.263 18.5209C123.183 18.4497 123.121 18.4497 122.815 18.5203C122.491 18.5953 122.438 18.593 122.193 18.4924C121.952 18.3936 121.899 18.3908 121.674 18.4642C121.487 18.5249 121.368 18.5353 121.209 18.5049C121.013 18.4675 120.982 18.475 120.837 18.5952C120.749 18.6678 120.712 18.7526 120.754 18.7854C120.808 18.8273 120.851 18.8264 120.901 18.7822C121.107 18.6006 121.65 18.7128 121.924 18.9932C122.033 19.1058 122.107 19.2332 122.087 19.2764C122.067 19.3197 122.069 19.4595 122.091 19.5874C122.125 19.7837 122.166 19.8313 122.353 19.8939C122.535 19.9546 122.565 19.9877 122.52 20.0777C122.454 20.2094 122.007 20.2938 121.711 20.2304C121.604 20.2075 121.449 20.1983 121.367 20.21C121.116 20.2453 121.248 20.3507 121.594 20.3924C122.152 20.4595 122.46 20.8655 122.006 20.9342C121.941 20.944 121.895 20.9691 121.904 20.9899C121.938 21.069 122.047 21.0615 122.242 20.9667C122.353 20.9127 122.505 20.8591 122.58 20.8476C122.737 20.8236 123.058 20.9232 123.094 21.0068C123.109 21.0426 123.21 21.044 123.367 21.0107C123.637 20.9533 124.009 21.0179 124.057 21.1305C124.073 21.1677 124.184 21.1966 124.305 21.1945C124.774 21.1866 125.08 21.4366 124.677 21.4977C124.584 21.5117 124.493 21.5473 124.475 21.5767C124.413 21.6756 124.103 21.6822 123.832 21.5903C123.567 21.5004 123.561 21.5007 123.34 21.6164C123.038 21.7754 122.912 21.7866 122.685 21.6752C122.518 21.5934 122.451 21.5906 122.196 21.6547C121.93 21.7215 121.879 21.7174 121.688 21.614C121.571 21.5508 121.381 21.4892 121.266 21.4771C121.151 21.4651 120.931 21.4085 120.778 21.3514L120.5 21.2475L120.228 21.3791C119.907 21.5338 119.643 21.873 119.713 22.0385C119.76 22.1468 119.741 22.1564 119.452 22.1727L118.83 22.2078C118.623 22.2196 118.133 22.3263 118.047 22.2253C117.962 22.1243 117.501 22.0425 117.176 22.0707C117.02 22.0844 116.832 22.0692 116.759 22.037C116.679 22.0018 116.467 21.9959 116.227 22.0222C115.942 22.0535 115.751 22.0425 115.562 21.9836C115.388 21.9298 115.201 21.9156 115.022 21.9426C114.863 21.9668 114.613 21.9546 114.421 21.9131C114.169 21.8584 114.036 21.8578 113.841 21.9105C113.67 21.9566 113.53 21.9636 113.411 21.9322C113.313 21.9064 113.093 21.8909 112.921 21.8976C112.748 21.9044 112.551 21.8966 112.481 21.8803C112.333 21.8455 112.245 21.6856 112.364 21.6675C112.41 21.6607 112.472 21.6052 112.503 21.5442C112.547 21.456 112.524 21.4228 112.392 21.3819C112.241 21.335 112.208 21.3427 112.013 21.4703C111.753 21.6405 111.356 21.7542 111.175 21.7101C111.102 21.6923 110.62 21.7289 110.105 21.7915C109.59 21.8542 109.089 21.8961 108.993 21.8846C108.897 21.8732 108.668 21.9008 108.483 21.946C107.591 22.1709 105.719 22.5047 105.37 22.0412C105.02 21.5776 102.906 22.2144 102.061 22.1025C102.061 21.8894 102.385 21.8542 102.383 21.5343C102.382 21.3191 102.127 21.1362 101.88 21.1736C101.791 21.1871 101.626 21.2665 101.513 21.3501C101.202 21.5803 100.868 21.5829 100.771 21.356C100.736 21.2747 100.679 21.2586 100.513 21.2838C100.334 21.3108 100.308 21.3376 100.355 21.4476C100.425 21.6099 100.239 21.6931 99.9273 21.6396C99.8018 21.618 99.5289 21.6262 99.3207 21.6577C99.0638 21.6966 98.9173 21.6955 98.8644 21.6545C98.8214 21.6212 98.6426 21.5722 98.4669 21.5454C98.2912 21.5188 98.1785 21.4922 98.2165 21.4863C98.2545 21.4805 98.2593 21.462 98.2272 21.4454C98.1496 21.4051 97.0791 21.6331 96.9945 21.708C96.9075 21.7848 97.2862 21.8584 97.6704 21.8394C97.8282 21.8316 98.04 21.8541 98.1412 21.8894C98.2586 21.9304 98.439 21.9363 98.6404 21.9058C98.8472 21.8745 99.0223 21.8813 99.1492 21.9256C99.5692 22.151 100.237 22.5687 99.5504 22.4369C99.3501 22.4204 99.2983 22.4327 99.2364 22.5115C99.1935 22.5662 98.9895 22.6465 98.7508 22.7024C98.2317 22.8242 98.2077 22.9596 98.6917 23.0361C98.6917 23.2006 98.2523 23.1889 98.0326 23.1624C97.5054 23.2635 96.6028 23.08 96.2175 22.9756C96.2444 22.8742 95.9999 22.8248 95.9015 22.9118C95.842 22.9644 95.7931 22.9707 95.6924 22.939C95.5871 22.9058 95.5869 22.8806 95.6917 22.8121C95.9405 22.6495 95.7353 22.5706 95.0168 22.5528C94.3585 22.5364 94.3385 22.5387 94.2594 22.6395C94.188 22.7305 94.2115 22.757 94.4539 22.859C94.7622 22.9887 94.8458 23.0992 94.6834 23.1624C94.6239 23.1856 94.5783 23.2684 94.582 23.3464C94.5864 23.439 94.5205 23.5147 94.3919 23.5644C94.2836 23.6063 94.2077 23.6703 94.2232 23.7067C94.2665 23.808 94.0673 23.9526 93.8363 23.9876C93.6194 24.0204 93.5929 24.0017 93.5158 23.7612C93.4508 23.5582 93.0847 23.4897 92.78 23.6235C92.6039 23.7008 92.5553 23.7056 92.4655 23.6546C92.3212 23.5726 91.6536 23.69 91.5018 23.8242C91.3573 23.9519 91.1933 23.926 91.1996 23.7765C91.2063 23.6173 90.9783 23.6553 90.8573 23.8336C90.753 23.9874 90.5041 24.0454 90.3426 23.9537C90.208 23.8771 90.2065 23.5309 90.3402 23.3917C90.3927 23.3372 90.3998 23.2958 90.3562 23.2998C90.1128 23.3216 89.677 23.4215 89.6224 23.468C89.5367 23.5411 89.0232 23.6152 88.9317 23.5678C88.8913 23.5469 88.831 23.545 88.7975 23.5637C88.7641 23.5823 88.634 23.5733 88.5082 23.5437C88.307 23.4962 88.2835 23.4711 88.3119 23.3347C88.3374 23.2118 88.3141 23.1723 88.1993 23.1443C87.9999 23.0956 87.9825 23.0173 88.1428 22.8897C88.3452 22.7284 88.2646 22.6478 87.7425 22.4895C87.2264 22.3331 86.7368 22.054 86.7686 21.9343C86.799 21.8334 86.2564 21.7823 85.9813 21.7694C85.6978 21.7458 85.563 21.8681 85.5027 21.8772C85.2752 21.9116 84.4912 21.5658 84.4203 21.3998C84.4059 21.3659 84.1293 21.2872 83.8057 21.2248C83.1513 21.0986 82.8503 21.1337 82.6064 21.3648C82.5346 21.4329 82.3366 21.6169 82.1664 21.7738C81.89 22.0287 82.5444 22.0275 82.7032 22.0341C82.8905 22.1182 82.4893 22.1516 82.4836 22.2851C82.4733 22.5315 81.3776 22.2411 81.0601 22.0341C80.8179 21.8763 80.8145 21.614 81.0534 21.5091C81.2906 21.405 81.2683 21.3414 81.0083 21.3808C80.8779 21.4005 80.7575 21.3766 80.6625 21.3122C80.4893 21.1947 80.1286 21.2294 79.874 21.388C79.7271 21.4795 79.7265 21.4962 79.8686 21.546C79.9561 21.5767 80.0779 21.654 80.1395 21.7179C80.2504 21.8328 80.2471 21.8347 79.8303 21.8978C79.5985 21.9328 79.2158 21.9562 78.9797 21.9496C78.6004 21.9391 78.5619 21.9277 78.6485 21.8511C78.7025 21.8035 78.7361 21.7403 78.7235 21.7105C78.7108 21.6809 78.7687 21.6181 78.8521 21.5711C78.9997 21.488 78.9921 21.4822 78.5724 21.3567C78.259 21.263 78.1175 21.2449 78.0554 21.2903C78.0084 21.3246 77.881 21.3538 77.7724 21.355C77.6637 21.3563 77.4813 21.3856 77.3668 21.4201C77.2096 21.4676 77.1759 21.5065 77.2287 21.5795C77.2671 21.6326 77.3477 21.6714 77.4078 21.6656C77.4679 21.6598 77.5446 21.6536 77.5784 21.6519C77.612 21.6501 77.5697 21.706 77.4843 21.776C77.3512 21.8852 77.3489 21.9314 77.4683 22.0989C77.5934 22.2745 77.1548 22.1765 77.0661 22.5969C77.0559 22.6453 76.9579 22.6507 76.6639 22.6191C76.2414 22.5737 76.0503 22.6148 75.8735 22.7893C75.8047 22.8572 75.6493 22.9187 75.4835 22.9438C75.258 22.9779 75.1782 22.9637 75.0437 22.8652C74.9533 22.7991 74.8472 22.7498 74.8081 22.7557C74.7689 22.7617 74.683 22.7011 74.6172 22.6212C74.4906 22.4675 74.4524 22.5524 74.1517 22.5856C74.0615 22.5956 73.9316 22.5718 73.8631 22.5329C73.6001 22.3834 73.2457 22.3177 73.0679 22.3855C72.9303 22.438 72.8354 22.4273 72.5682 22.3294C72.2787 22.2233 72.1913 22.2161 71.8539 22.27C71.4849 22.329 71.4579 22.3247 71.1759 22.1609C70.9224 22.0137 70.8973 21.9818 70.992 21.9278C71.0524 21.8935 71.1497 21.8578 71.2083 21.8485C71.2668 21.8393 71.2964 21.7885 71.2739 21.7357C71.2371 21.6497 71.2017 21.6479 70.9302 21.7192C70.6412 21.7949 70.5321 21.8706 70.414 22.0769C70.3569 22.1766 69.9134 22.2679 69.6746 22.2292C69.5259 22.2052 69.0781 22.3465 69.1048 22.409C69.1136 22.4297 69.0477 22.525 68.9585 22.6207C68.8692 22.7165 68.7886 22.6918 68.8303 22.7242C68.9463 22.8141 68.7912 22.6311 68.1837 22.7242C67.6876 22.8002 67.6324 22.8189 67.6634 22.9007C67.7022 23.0025 67.3764 22.8817 67.1169 22.8112C67.0275 22.7869 66.8021 22.7863 66.616 22.81C66.3305 22.8463 66.3757 22.9744 66.0534 22.8489C65.7181 22.7182 65.6279 22.7063 65.3147 22.7511C65.025 22.7925 64.985 22.8375 64.7569 22.7511C64.4368 22.63 64.5556 22.682 64.6922 22.5473C64.7447 22.4956 64.5539 22.5627 64.5499 22.4801C64.5341 22.1507 63.5102 22.1196 62.9924 22.4329C62.8138 22.5409 62.7495 22.5542 62.4403 22.5473C62.1532 22.5408 62.1618 22.4644 61.9121 22.6323C61.7035 22.7725 61.3087 22.8798 61.0067 22.7727C60.8882 22.7306 60.1985 22.9267 59.707 22.8427C59.4743 22.7637 59.4124 22.6783 59.261 22.7727C59.0469 22.9059 58.6663 22.9525 58.2911 22.8421C57.9842 22.7518 57.4182 22.5125 57.095 22.7242C55.3654 23.1951 54.6725 22.2068 53.513 22.5975C52.3535 22.9881 52.7596 22.5347 52.3448 22.5975C52.1216 22.6312 52.0538 22.9768 51.7629 22.8421C51.7222 22.6733 51.4415 22.9522 51.2844 22.976C51.025 23.0152 50.8222 22.9508 50.6138 22.7629C50.4814 22.6437 50.0256 22.4269 49.7585 22.5533C49.1346 22.8486 48.7992 22.9647 48.4653 22.8036C48.2282 22.6892 47.4114 22.4944 46.0407 22.6303C45.5881 22.8036 45.9639 22.4365 45.6505 22.4839C45.5123 22.5048 45.1644 22.7645 45.0363 22.5533C45.0013 22.3059 44.6391 22.5718 44.4185 22.5533C43.974 22.5162 42.2822 22.8979 42.1286 22.833C42.0401 22.7956 41.9296 22.7326 41.8829 22.6932C41.7804 22.6061 41.6029 22.6273 41.3856 22.7524C41.1045 22.9142 40.9104 22.9271 40.504 22.8109C40.0347 22.6767 39.9698 22.5669 40.2581 22.3947C40.5346 22.2296 40.47 22.1754 40.0382 22.2103C39.7515 22.2334 38.9526 22.5602 38.7343 22.4361C38.495 22.3001 37.5526 22.5825 37.1157 22.6187C35.9519 22.7149 36.5376 22.3102 35.8894 22.5032C35.5796 22.5954 35.4453 22.843 35.273 22.8497C35.1007 22.8563 34.7036 22.7822 34.6114 22.7717C34.455 22.7539 34.4525 22.7418 34.5739 22.5892C34.7118 22.416 34.6573 22.3715 34.3031 22.3684C34.135 22.3669 34.1051 22.3842 34.1389 22.4633C34.1616 22.5164 34.2132 22.5414 34.2536 22.5189C34.294 22.4963 34.3357 22.4981 34.3463 22.5229C34.3569 22.5477 34.2854 22.5956 34.1874 22.6294C34.0894 22.6632 33.8505 22.4567 33.6889 22.4374C33.5208 22.4174 33.4942 22.3545 33.3009 22.3989C32.9904 22.4703 32.8823 22.3619 32.816 22.4586C32.732 22.581 32.9016 22.6001 32.6671 22.6971C32.378 22.8166 32.3184 22.8185 32.1416 22.714C32.0464 22.6577 32.0538 22.6052 32.1755 22.4747C32.3539 22.2833 32.1988 22.3398 31.9813 22.2867C31.8976 22.2662 31.8126 22.2111 31.7926 22.1642C31.7695 22.11 31.5958 22.082 31.4905 22.0979C31.3638 22.1171 31.4269 22.1768 31.4349 22.3313C31.4442 22.5094 31.4136 22.5423 31.1789 22.6063C30.9986 22.6556 30.9953 22.3362 30.8971 22.3058C30.8173 22.281 30.6747 22.2725 30.5801 22.2868C30.2671 22.3342 30.2297 22.2529 30.2943 22.1567L30.2297 22.1182L30.1327 22.0797C29.8889 22.1364 30.0933 22.1851 29.9086 22.2068C29.6801 22.2337 29.7613 22.3844 29.4236 22.3608H29.1003C28.8804 22.3646 28.0718 22.0545 28.1951 22.2261C28.3575 22.4521 27.8726 22.44 27.6271 22.4586C27.4851 22.4693 27.2529 22.3593 27.2253 22.5148C27.1844 22.7442 27.0787 22.7683 26.8748 22.7992C26.7972 22.8109 26.6216 22.7831 26.4845 22.7373C26.3419 22.6897 26.1397 22.6685 26.0118 22.6879C25.8889 22.7065 25.6236 22.704 25.4221 22.6824C25.1036 22.6481 25.0301 22.6552 24.8576 22.7369C24.6369 22.8415 24.4955 22.8481 24.1448 22.7702C23.9972 22.7374 23.837 22.7383 23.7239 22.7724C23.586 22.8141 23.4462 22.7981 23.1532 22.7072C22.7976 22.5969 22.7485 22.5942 22.5643 22.6751C22.3538 22.7675 22.3335 22.7644 22.0074 22.591C21.8652 22.5154 21.0678 22.5552 20.6868 22.6569C20.5452 22.6948 20.3578 22.7672 20.2702 22.818C20.0899 22.9226 19.7356 22.9121 19.6881 22.8008C19.6553 22.7239 19.0805 22.5756 18.9134 22.6009C18.7737 22.622 18.7199 22.5535 18.8288 22.4927C18.9609 22.419 18.8175 22.2341 18.6089 22.2093C18.3624 22.1799 18.3236 22.2114 18.3667 22.4052C18.424 22.6626 18.3938 22.6943 18.072 22.7145C17.7093 22.7372 17.2344 22.9344 16.9351 23.1865C16.6956 23.3882 16.5307 23.4317 16.2409 23.3698C16.1143 23.3427 15.9521 23.3525 15.7755 23.3977C15.5334 23.4598 15.4552 23.4511 15.0408 23.3158C14.6396 23.1849 14.5378 23.1724 14.2865 23.2235C14.1266 23.256 13.8453 23.363 13.6613 23.4612C13.2618 23.6746 13.2059 23.6854 12.8588 23.6175C12.6101 23.5688 12.5728 23.5731 12.3485 23.6761C12.0492 23.8136 11.839 23.8084 11.7764 23.6618C11.7375 23.5706 11.6337 23.5422 11.2099 23.5068C10.9052 23.4814 10.6786 23.4343 10.6608 23.3928C10.6442 23.3539 10.663 23.3172 10.7024 23.3113C10.7419 23.3053 10.7949 23.2457 10.8204 23.1788C10.8871 23.0035 11.526 22.8619 11.5886 23.0085C11.6255 23.095 11.813 23.116 11.8957 23.0429C11.9432 23.0009 11.8749 22.9313 11.6739 22.817C11.4026 22.6625 11.3888 22.6423 11.4619 22.5069C11.5499 22.3441 11.669 22.3083 11.8683 22.3849C12.0661 22.4609 12.3149 22.4062 12.5447 22.2361C12.7708 22.0688 12.9239 22.0576 13.1913 22.1887C13.4043 22.2932 13.6053 22.2752 13.7801 22.136C13.8972 22.0427 13.9199 22.0408 14.1439 22.1051C14.2753 22.1428 14.4237 22.1675 14.4738 22.1599C14.5239 22.1523 14.6765 22.0095 14.813 21.8425C15.0738 21.5233 15.1633 21.4821 15.4634 21.5432C15.6028 21.5716 15.649 21.6169 15.6545 21.7302C15.6652 21.9532 15.8134 21.9347 16.0359 21.6825C16.1449 21.5591 16.2806 21.451 16.3375 21.4424C16.4947 21.4186 16.7122 21.5156 16.6188 21.5677C16.4935 21.6377 16.6554 21.9254 16.8246 21.9336C16.9806 21.9411 17.2956 21.6719 17.2516 21.5686C17.2094 21.4697 17.423 21.3626 17.6708 21.3584C17.8953 21.3546 17.9093 21.3657 17.9443 21.5764L17.9811 21.7985L18.1238 21.6468C18.2022 21.5633 18.3072 21.4406 18.3568 21.3741C18.4281 21.2789 18.4996 21.2523 18.6932 21.2491C19.0043 21.2438 19.2591 21.4 19.1442 21.5254C19.1001 21.5734 19.0937 21.6219 19.1299 21.6332C19.1662 21.6444 19.2478 21.5934 19.3113 21.5199C19.665 21.11 19.6529 21.118 19.8742 21.1444C20.0364 21.1637 20.1011 21.2106 20.162 21.3532C20.2648 21.5942 20.4221 21.5418 20.4826 21.2466C20.5397 20.968 20.7669 20.8991 21.1933 21.0313L21.4905 21.1235L21.5924 20.9986C21.7195 20.8429 21.8453 20.8227 22.1948 20.9019C22.4706 20.9643 22.5258 21.0486 22.457 21.3026C22.4438 21.3511 22.4685 21.3855 22.5119 21.3789C22.5553 21.3724 22.6302 21.2422 22.6783 21.0897C22.7306 20.9237 22.8286 20.7907 22.9225 20.7583C23.2051 20.6608 22.9796 20.6067 22.5456 20.6679C22.3137 20.7006 21.9837 20.7118 21.8125 20.6927C21.5764 20.6664 21.4653 20.6759 21.3524 20.7319C21.241 20.7871 21.1328 20.7979 20.9219 20.7745C20.7638 20.757 20.4613 20.7742 20.2327 20.8136C20.0086 20.8523 19.6871 20.8741 19.5183 20.8621C19.2754 20.8449 19.1819 20.8569 19.0702 20.9198C18.9583 20.9828 18.8494 20.9967 18.5465 20.9865C18.2579 20.9768 18.1262 20.9924 18.0098 21.0502C17.8988 21.1053 17.7634 21.1261 17.5265 21.1245C17.1788 21.122 16.2655 21.204 15.7648 21.2826C15.6006 21.3083 15.3306 21.3268 15.1648 21.3237C14.9989 21.3207 14.6409 21.3453 14.3693 21.3784C13.6145 21.4706 12.7592 21.4882 12.7268 21.4122C12.7193 21.3945 12.7785 21.3174 12.8583 21.2408L13.0036 21.1014L13.1026 21.2673C13.2285 21.4782 13.3983 21.4579 13.7466 21.1903C14.0391 20.9658 14.0417 20.9191 13.7661 20.8436C13.5849 20.7941 13.5514 20.7986 13.3401 20.9006C13.0445 21.0434 13.0103 21.047 12.7224 20.9652C12.5068 20.904 12.4468 20.9075 12.1545 20.9988C11.8705 21.0874 11.7911 21.0937 11.5498 21.0465C11.3066 20.9989 11.2368 21.0046 10.9876 21.0927C10.7347 21.1821 10.6793 21.1859 10.4911 21.1275L10.2792 21.0618L10.4961 20.9563C10.6154 20.8982 10.799 20.7704 10.9041 20.6723C11.0091 20.5742 11.1589 20.4843 11.2368 20.4725C11.4205 20.4447 11.7223 20.5507 11.7686 20.6593C11.7988 20.73 11.8416 20.7127 12.0247 20.5563C12.1455 20.4529 12.274 20.3639 12.3101 20.3584C12.3463 20.353 12.5318 20.3823 12.7222 20.4236C13.0453 20.4936 13.077 20.492 13.1914 20.4009C13.3559 20.2699 13.5494 20.2471 13.8929 20.3183C14.1611 20.3738 14.1897 20.371 14.3454 20.274C14.5626 20.1387 14.6873 20.1233 15.0278 20.19C15.3291 20.2489 15.4132 20.2264 16.1141 19.899C16.39 19.7701 16.5174 19.7524 16.6906 19.8189C16.7999 19.861 16.9257 19.8515 17.2622 19.7761C17.5788 19.7051 17.7715 19.688 17.9866 19.7118C18.1735 19.7325 18.3716 19.7195 18.5335 19.6758C18.6968 19.6316 18.917 19.6176 19.1508 19.6364C19.4108 19.6572 19.5517 19.6463 19.6458 19.5979C19.7371 19.5509 19.8719 19.5363 20.0867 19.5502C20.4492 19.5737 20.7513 19.5367 20.7238 19.4722C20.6959 19.407 20.8987 19.3861 21.215 19.4218C21.531 19.4574 21.7638 19.4322 21.8107 19.3573C21.8429 19.3057 21.5355 18.9623 21.4664 18.9728C21.4468 18.9757 21.3109 19.0507 21.1645 19.1394C21.018 19.2281 20.8656 19.3056 20.8258 19.3117C20.7859 19.3177 20.6666 19.2595 20.5604 19.1825C20.3898 19.0584 20.1622 19.0091 20.2032 19.1051C20.2216 19.1482 19.8269 19.366 19.6943 19.3861C19.6424 19.394 19.5035 19.3279 19.3855 19.2393C19.1733 19.0798 18.993 19.0409 19.0465 19.1661C19.0617 19.2018 18.9918 19.2881 18.8912 19.3579C18.6855 19.5006 18.3742 19.5039 18.3093 19.3642C18.2896 19.3216 18.2004 19.2557 18.1113 19.2179C17.9561 19.1521 17.9479 19.1557 17.9167 19.3059C17.8525 19.6143 17.3119 19.6411 17.0877 19.3469C16.9267 19.1357 16.6668 19.1329 16.7567 19.3434C16.9086 19.6994 16.2159 19.8088 15.9573 19.4695C15.7975 19.2598 15.5363 19.2552 15.6253 19.4638C15.6916 19.619 15.5555 19.7356 15.2861 19.7545C15.0809 19.7689 14.9921 19.7293 14.7733 19.526C14.5916 19.3572 14.4734 19.3888 14.4658 19.6083C14.4621 19.7126 14.3989 19.8109 14.3174 19.839C14.107 19.9116 13.7914 19.8564 13.7409 19.7382C13.7166 19.6813 13.6249 19.6035 13.537 19.5651C13.3631 19.4892 13.3502 19.5042 13.3539 19.7792C13.3577 20.0689 12.7662 20.08 12.5485 19.7943C12.3872 19.5828 12.1252 19.5765 12.2148 19.7863C12.2844 19.9494 12.1446 20.0565 11.8255 20.0845C11.62 20.1025 11.561 20.0811 11.4628 19.9528C11.3168 19.7618 11.2064 19.7029 11.0412 19.7279C10.9519 19.7414 10.9403 19.7725 11.0035 19.8286C11.1398 19.9497 11.0207 20.1268 10.7917 20.1436C10.6404 20.1547 10.5729 20.1203 10.4759 19.9828C10.3104 19.7481 10.2155 19.7077 9.93087 19.7508C9.69825 19.786 9.51482 19.9049 9.57599 19.9809C9.72862 20.1703 9.52 20.1997 9.27691 20.023C9.04807 19.8567 8.75331 19.8147 8.4087 19.8994C8.26674 19.9343 7.97159 19.9667 7.75281 19.9714C7.38637 19.9794 7.34614 19.9902 7.24013 20.1091C7.12833 20.2347 7.12086 20.2363 6.96555 20.1705C6.8777 20.1333 6.7997 20.0914 6.79222 20.0775C6.78466 20.0636 6.6342 20.0389 6.45774 20.0226C6.15429 19.9946 6.12936 19.9993 5.99458 20.1099C5.91629 20.1741 5.84312 20.2054 5.83205 20.1794C5.82097 20.1535 5.76019 20.1401 5.69695 20.1496C5.63371 20.1592 5.50035 20.1385 5.40061 20.1037C5.22818 20.0436 5.2299 20.0325 5.43475 19.8808C5.69249 19.6901 5.8796 19.6516 5.99315 19.7661C6.0391 19.8124 6.13065 19.8421 6.19663 19.8321C6.34704 19.8093 6.90482 19.4955 6.88354 19.4457C6.87487 19.4253 6.75296 19.3757 6.61259 19.3355C6.38417 19.2699 6.33335 19.2721 6.12687 19.3568C5.85347 19.4689 5.70556 19.4568 5.64607 19.3174C5.58857 19.1827 5.40161 19.1299 5.12874 19.1712C4.67811 19.2393 4.43168 19.0201 4.7987 18.8775C4.95359 18.8173 5.06391 18.8021 5.19541 18.8226C5.32607 18.8431 5.39774 18.8333 5.44901 18.788C5.48831 18.7532 5.61047 18.7112 5.72046 18.6945C5.83053 18.6779 6.01219 18.6043 6.12419 18.531C6.34374 18.3873 6.52001 18.3808 6.57694 18.5142C6.60957 18.5907 6.79204 18.6291 6.98423 18.6001C7.02705 18.5936 7.09708 18.5016 7.13992 18.3957C7.25615 18.1082 7.64527 18.0471 7.8017 18.2917C7.90507 18.4532 7.91318 18.4595 8.00343 18.4458C8.05043 18.4387 8.07549 18.4015 8.05911 18.3631C7.99818 18.2204 8.20238 18.0286 8.45628 17.9902C8.70975 17.9518 8.72575 17.9128 8.55684 17.7452C8.44053 17.6298 8.34567 17.64 8.1656 17.7877C8.08981 17.85 7.95564 17.9231 7.86754 17.9503C7.71029 17.9988 7.62897 17.9603 7.27892 17.6713C7.23069 17.6315 7.11715 17.5955 7.02665 17.5913C6.93617 17.5871 6.79986 17.5647 6.72388 17.5414C6.55325 17.4893 6.51216 17.4928 5.34737 17.6584C4.82846 17.7323 4.22461 17.8045 4.00552 17.819C3.63159 17.8437 3.59886 17.8557 3.47225 18.0148C3.29583 18.2364 3.1222 18.2562 2.88231 18.0818C2.7003 17.9496 2.51362 17.9468 2.56927 18.0772C2.60696 18.1655 2.30422 18.389 2.1063 18.4189C1.8518 18.4575 1.65153 18.3604 1.586 18.1668C1.55463 18.0741 1.43552 17.9321 1.32151 17.8513C1.12383 17.7113 1.12012 17.6973 1.24311 17.5543C1.31414 17.4717 1.34893 17.3496 1.32049 17.283C1.26262 17.1474 1.36058 17.0321 1.55962 17.0013C1.63244 16.9901 1.80306 16.8881 1.93893 16.7746C2.08931 16.649 2.27185 16.5553 2.40534 16.5351C2.65582 16.4972 2.65682 16.4944 2.46578 16.3649C2.25236 16.2202 2.42474 15.9999 2.7953 15.9438C3.07364 15.9017 3.64478 15.6945 3.62302 15.6435C3.61669 15.6287 3.48945 15.5704 3.34024 15.5139C3.03868 15.3997 2.97547 15.3234 3.10578 15.231C3.20912 15.1576 3.60015 15.1636 3.63234 15.239C3.68597 15.3647 3.84387 15.2034 3.80625 15.0614C3.7682 14.9177 3.41335 14.6407 3.29097 14.6592C3.26388 14.6633 3.12462 14.761 2.98152 14.8764C2.83848 14.9916 2.71517 15.0811 2.70743 15.0751C2.69967 15.0691 2.59861 15.0098 2.48266 14.9435C2.20505 14.7844 2.17696 14.6979 2.37172 14.6013C2.50197 14.5366 2.59888 14.5305 2.88893 14.5684C3.18997 14.6078 3.28243 14.6011 3.47956 14.5251C3.68162 14.4473 3.75458 14.4437 4.01837 14.4983C4.29371 14.5553 4.35007 14.5516 4.59474 14.46C4.84044 14.368 4.89548 14.3646 5.1808 14.4237C5.51605 14.4932 5.58461 14.5496 5.46378 14.6563C5.40783 14.7058 5.43232 14.7361 5.56027 14.7758C5.65464 14.8051 5.73993 14.848 5.74982 14.8712C5.75973 14.8944 5.80629 14.9076 5.85329 14.9005C5.9608 14.8842 5.86587 14.6564 5.72095 14.5829C5.64673 14.5452 5.64494 14.4959 5.71524 14.4265C5.84199 14.3014 6.06639 14.264 6.37377 14.3168C6.5868 14.3534 6.62947 14.3468 6.8403 14.2449C6.96793 14.1833 7.05946 14.1027 7.04372 14.0659C7.01119 13.9896 6.87106 13.9964 6.82088 14.0767C6.80249 14.106 6.65415 14.1503 6.49126 14.1749C6.16293 14.2246 5.9822 14.1367 5.86941 13.8725C5.81254 13.7392 5.79769 13.7362 5.52829 13.8026C5.19565 13.8847 5.0081 13.8034 5.25144 13.6827C5.48942 13.5645 5.32514 13.5047 4.92809 13.5648C4.56967 13.619 4.56668 13.6182 4.31163 13.4024C4.17071 13.2831 3.94704 13.1493 3.81471 13.1051C3.39854 12.9661 3.51866 12.877 4.21643 12.8074C4.5468 12.7744 4.87211 12.7192 4.93933 12.6846C5.05025 12.6275 5.04537 12.6144 4.88606 12.5412C4.66801 12.4411 4.48625 12.4646 4.41726 12.6018C4.34324 12.749 4.14605 12.7634 3.79964 12.6469C3.44879 12.5289 3.38702 12.5328 3.24572 12.6813C3.12659 12.8066 2.89974 12.8191 2.66346 12.7135C2.41671 12.6033 2.17661 12.5954 1.96022 12.6904C1.79396 12.7634 1.71256 12.7664 1.39539 12.7114C1.19159 12.676 0.925692 12.6414 0.804515 12.6344L0.584114 12.6216L0.746985 12.4469C0.836545 12.3509 1.00983 12.2425 1.13206 12.2062C1.2543 12.1699 1.47273 12.0707 1.61749 11.9859C1.98645 11.7696 2.17357 11.7306 2.26106 11.8516C2.32903 11.9456 2.5108 11.972 2.47248 11.8822C2.4623 11.8584 2.58324 11.8049 2.74124 11.7635C3.06411 11.6788 3.30948 11.7117 3.36737 11.8473C3.3874 11.8942 3.43268 11.9283 3.46787 11.9229C3.61602 11.9004 4.30758 11.6097 4.3155 11.5666C4.32327 11.5241 3.92087 11.2809 3.5772 11.1203C3.47018 11.0704 3.45548 11.033 3.50945 10.948C3.57032 10.852 3.53567 10.8256 3.21167 10.7216C2.86481 10.6102 2.84965 10.5971 2.93001 10.4786C3.00867 10.3628 3.00016 10.3516 2.81681 10.3298C2.55554 10.2987 2.45608 10.0604 2.627 9.87465L2.75446 9.73609L2.9383 9.81167C3.21007 9.92339 3.56015 9.87732 3.70889 9.71039C3.81412 9.59223 3.85455 9.57847 3.99532 9.61285C4.08551 9.63486 4.17118 9.68064 4.18568 9.71459C4.20019 9.74858 4.31493 9.77462 4.44074 9.77246C4.60903 9.76964 4.70007 9.73694 4.78522 9.64868C4.93634 9.49222 5.06474 9.47719 5.32934 9.58491C5.59079 9.69142 5.8003 9.66794 5.94487 9.51595C6.07388 9.3804 6.28474 9.33896 6.39815 9.42689C6.44342 9.46199 6.58264 9.4955 6.7076 9.50136C6.89279 9.51001 6.9565 9.48851 7.05199 9.38504C7.20432 9.21993 7.19583 9.20728 6.91615 9.18424C6.70972 9.16719 6.66814 9.13608 6.58181 8.93383L6.48323 8.70286L6.16879 8.7655C5.88359 8.82225 5.85757 8.84187 5.88949 8.9759C5.94945 9.22786 5.49873 9.29989 5.30275 9.06968L5.19404 8.94199L5.14329 9.09826C5.0874 9.27021 4.76083 9.40377 4.49868 9.36191C4.41208 9.34807 4.2843 9.25143 4.21093 9.14433C4.13839 9.03831 4.0045 8.91434 3.91346 8.8688C3.76666 8.79536 3.75903 8.76637 3.84608 8.61288C3.90006 8.51767 4.02542 8.34416 4.12474 8.22728C4.30492 8.01528 4.30585 8.0149 4.5136 8.07936C4.7791 8.16169 4.79741 8.38323 4.54197 8.42188C4.36439 8.44876 4.34205 8.52259 4.50392 8.54778C4.63655 8.5684 4.9634 8.3718 5.23692 8.10692L5.46844 7.88265L5.73381 7.92823C5.87978 7.95327 5.99129 8.00369 5.98153 8.0403C5.94475 8.17858 6.16291 8.12975 6.34152 7.95969C6.57673 7.73574 6.77208 7.70506 6.97048 7.86083C7.15632 8.00675 7.30029 7.99406 7.50406 7.8139C7.84846 7.50961 8.43335 7.21754 8.88314 7.12523C9.12608 7.0754 9.3488 7.04707 9.37823 7.06231C9.40758 7.07756 9.6538 7.07165 9.92536 7.04923C10.5353 6.99888 11.3065 7.00076 11.3286 7.05262C11.3377 7.07389 11.4903 7.08407 11.6679 7.0753C11.8455 7.06652 12.0716 7.07217 12.1705 7.08779C12.3112 7.11009 12.4429 7.08289 12.7767 6.9628C13.0112 6.87841 13.3714 6.78397 13.5773 6.75292C14.0933 6.67507 14.8974 6.61637 15.0306 6.64687C15.0913 6.66072 15.6011 6.60806 16.1634 6.52978C17.2474 6.37889 17.2635 6.37235 17.0086 6.18448C16.932 6.12805 16.9576 6.10752 17.1387 6.08012C17.42 6.03754 17.5852 6.14726 17.4102 6.26053C17.2332 6.37519 17.3858 6.4298 17.7354 6.3769C18.0736 6.32571 18.1412 6.23066 17.9288 6.10497C17.7207 5.98183 17.7544 5.79341 17.9908 5.75763C18.2168 5.72343 18.5646 5.88751 18.6398 6.06376C18.6803 6.15866 18.7499 6.17938 19.0247 6.17819C19.2092 6.17742 19.3719 6.1664 19.3863 6.15372C19.4006 6.141 19.2796 6.06778 19.1172 5.99098C18.9549 5.91414 18.8029 5.80631 18.7794 5.75127C18.7388 5.6561 18.4881 5.61334 18.3107 5.67124C18.2675 5.68537 18.1092 5.65562 17.959 5.6052C17.8003 5.55194 17.5952 5.5272 17.4697 5.54619C17.3027 5.57146 17.2303 5.55212 17.1514 5.46129C17.0953 5.39659 16.9589 5.2864 16.8484 5.21632C16.6742 5.10595 16.6565 5.07094 16.7155 4.95352C16.7759 4.83339 16.7562 4.80217 16.5405 4.67723C16.4006 4.59616 16.2985 4.49007 16.3 4.42738C16.3032 4.30028 16.698 4.06629 16.9819 4.02333C17.251 3.9826 17.8505 4.21455 17.9246 4.38803C17.9585 4.46747 18.1147 4.45239 18.3995 4.34224C18.535 4.2898 18.5852 4.23066 18.5548 4.15936C18.5186 4.07446 18.5735 4.03411 18.8379 3.95162C19.1804 3.84467 19.4996 3.81514 19.5305 3.88754C19.5405 3.91081 19.6831 3.93876 19.8476 3.94963C20.0976 3.96609 20.1582 3.99427 20.2166 4.12125C20.2797 4.2583 20.3109 4.2695 20.5354 4.23553C20.8131 4.19349 20.9469 4.26086 20.8329 4.3852C20.7864 4.43582 20.6771 4.46838 20.5462 4.47063C20.3895 4.47326 20.2921 4.51503 20.1705 4.63175C19.96 4.83392 19.9909 4.89345 20.3417 4.96209C20.586 5.00989 20.7218 5.00067 21.2841 4.898C22.13 4.74362 22.2531 4.6575 21.9137 4.4578C21.7849 4.38207 21.6593 4.29245 21.6345 4.25861C21.575 4.17748 22.1024 3.78365 22.365 3.71319C22.4785 3.68276 22.7542 3.59826 22.9777 3.52549C23.5386 3.34282 23.6847 3.32864 23.9812 3.42795C24.22 3.50794 24.2746 3.5065 24.739 3.40768C25.1207 3.32645 25.287 3.31139 25.4398 3.34425C25.6956 3.39926 25.9559 3.36195 26.1307 3.24516C26.2231 3.18337 26.4832 3.12025 26.9254 3.05232C27.5762 2.95229 27.5857 2.95254 27.8755 3.07445C28.0365 3.14216 28.2407 3.19878 28.3292 3.20024C28.5837 3.20435 29.3273 2.95597 29.5005 2.80898C29.6558 2.67725 29.915 2.63869 29.9587 2.74086C29.974 2.77681 30.0961 2.76535 30.3533 2.70378C30.6622 2.62989 30.7726 2.62532 31 2.67679C31.2234 2.72741 31.3399 2.72325 31.6285 2.65416C31.9068 2.58761 32.0527 2.58029 32.3086 2.62009C32.5421 2.65641 32.7067 2.65125 32.8896 2.60189C33.03 2.56396 33.2018 2.54633 33.2714 2.56264C33.341 2.57897 33.5375 2.58735 33.708 2.58124C33.8787 2.57515 34.1376 2.59489 34.2837 2.62515C34.5314 2.67645 34.5636 2.67283 34.7646 2.57104C35.0882 2.40721 35.4942 2.06813 35.4607 1.98969C35.4445 1.9517 35.3647 1.90435 35.2835 1.88452C35.2022 1.86469 34.9958 1.77217 34.8248 1.67897C34.5613 1.53533 34.5114 1.47886 34.4983 1.30909C34.4896 1.19892 34.424 0.965713 34.3523 0.790913C34.2102 0.444359 34.2094 0.445164 34.7808 0.397498ZM35.7869 1.27428C35.7426 1.28098 35.6977 1.266 35.687 1.241C35.6764 1.216 35.7276 1.18647 35.8009 1.17539C35.8741 1.16431 35.9191 1.17927 35.9007 1.20867C35.8823 1.23806 35.8311 1.26758 35.7869 1.27428ZM36.1364 2.17282C36.0563 2.16892 35.9774 2.13445 35.9611 2.09614C35.9272 2.01674 36.2226 1.95534 36.3416 2.01706C36.4521 2.07433 36.3111 2.1813 36.1364 2.17282ZM37.2532 2.16521C37.0341 2.19837 37.0015 2.08021 37.1965 1.95883C37.4113 1.825 37.5741 1.80467 37.5497 1.9147C37.5178 2.05922 37.4227 2.13955 37.2532 2.16521ZM19.3878 5.73473C19.2573 5.67807 19.1639 5.62148 19.18 5.60902C19.1962 5.59656 19.3965 5.54528 19.6253 5.49508C19.9845 5.41624 20.1072 5.41306 20.5251 5.47156C20.8113 5.51166 21.1159 5.59794 21.271 5.68286C21.6495 5.89028 21.6494 5.9383 21.2698 5.97798C20.9735 6.00899 20.9406 5.99964 20.8476 5.85753C20.7425 5.69703 20.3832 5.54074 20.1875 5.57035C20.0554 5.59035 20.1117 5.76442 20.2973 5.90935C20.4479 6.02693 20.3404 6.09298 20.0013 6.09137C19.8531 6.09068 19.7636 6.05206 19.7067 5.9641C19.6617 5.8946 19.5182 5.79138 19.3878 5.73473ZM21.4297 5.47599C21.3515 5.45691 21.3008 5.41996 21.3171 5.39394C21.3566 5.33082 21.4803 5.31481 21.5697 5.36118C21.6955 5.42642 21.588 5.51464 21.4297 5.47599ZM26.837 4.80598C26.743 4.82021 26.6535 4.8024 26.6381 4.76635C26.599 4.67459 26.7106 4.62484 26.8552 4.66968C27.0361 4.72577 27.0293 4.77688 26.837 4.80598ZM27.7009 4.86878C27.6633 4.87447 27.6177 4.80516 27.5996 4.71477C27.5815 4.62437 27.6112 4.54541 27.6656 4.53925C28.0031 4.5012 28.1604 4.62627 27.8916 4.71896C27.8044 4.74905 27.7411 4.79273 27.7511 4.81604C27.7611 4.83936 27.7384 4.8631 27.7009 4.86878ZM41.834 2.63509C41.7768 2.60534 41.7418 2.56185 41.7565 2.5384C41.7943 2.47795 41.9201 2.46578 42.0124 2.51365C42.0555 2.53606 42.0565 2.58472 42.0146 2.62179C41.957 2.6727 41.9129 2.67599 41.834 2.63509ZM30.1411 4.49152C30.0401 4.47458 30.0365 4.45731 30.1236 4.40611C30.263 4.32414 30.6172 4.27015 30.8069 4.30197C30.8878 4.31552 31.116 4.30241 31.3141 4.27287C31.5734 4.23417 31.7351 4.23956 31.891 4.29221C32.2841 4.4248 32.1631 4.55735 31.6991 4.5022C31.5523 4.48475 31.4649 4.50431 31.3266 4.58554C31.2198 4.64824 31.0163 4.70521 30.8294 4.72468C30.5631 4.7525 30.4937 4.73833 30.3905 4.63522C30.323 4.56787 30.2108 4.50323 30.1411 4.49152ZM28.6178 4.72663C28.4949 4.70619 28.4906 4.6946 28.5853 4.6389C28.7242 4.55721 28.8782 4.53264 28.9659 4.57815C29.0706 4.63246 28.7847 4.75441 28.6178 4.72663ZM29.7246 4.70768C29.5661 4.73167 29.331 4.68078 29.3036 4.61656C29.2844 4.57171 29.3581 4.56312 29.6285 4.57857C29.8797 4.59296 29.9407 4.67497 29.7246 4.70768ZM22.3541 5.91986C22.0408 5.96727 21.9799 5.93516 22.0645 5.76695C22.151 5.59506 22.5416 5.61327 22.6182 5.79279C22.6452 5.85596 22.5851 5.88489 22.3541 5.91986ZM23.4436 5.79532C23.3155 5.8257 23.2587 5.8188 23.2667 5.77371C23.2731 5.73722 23.3633 5.6873 23.467 5.66269C23.5952 5.63231 23.6519 5.63921 23.6439 5.6843C23.6375 5.72079 23.5474 5.77072 23.4436 5.79532ZM7.27779 9.07232C7.32479 9.0652 7.33322 8.98903 7.2965 8.903C7.23122 8.75006 7.28949 8.65531 7.42329 8.6968C7.46011 8.70826 7.52783 8.80552 7.57367 8.91292C7.63625 9.05954 7.70326 9.11379 7.84242 9.13033C8.29604 9.18424 8.6126 9.00231 8.5048 8.74975C8.47096 8.67049 8.48174 8.59981 8.52874 8.5927C8.57575 8.58559 8.64755 8.65639 8.68824 8.75001C8.7763 8.95228 8.87031 9.00714 9.11038 8.99621C9.24228 8.99019 9.29387 9.01857 9.30818 9.10495C9.33398 9.26173 9.28153 9.29826 9.01336 9.3103C8.86917 9.31673 8.7222 9.27569 8.6096 9.19756L8.4326 9.07469L8.29951 9.22692C8.1923 9.34959 8.11981 9.37991 7.92578 9.3832C7.79345 9.38542 7.67871 9.37216 7.67083 9.3537C7.66293 9.33521 7.55945 9.28458 7.44084 9.24118C7.20504 9.15489 7.14481 9.09244 7.27779 9.07232ZM49.7505 2.64478C49.6098 2.66607 49.4891 2.66798 49.4821 2.6491C49.4752 2.63022 49.5167 2.55968 49.5744 2.49235C49.6557 2.39765 49.7176 2.37518 49.8484 2.39283C49.9413 2.40539 50.0334 2.45319 50.0529 2.499C50.0725 2.54486 50.17 2.5814 50.2696 2.58026C50.4661 2.57795 50.5807 2.71269 50.4049 2.73929C50.3456 2.74825 50.2317 2.72195 50.1516 2.68084C50.0588 2.63316 49.9136 2.6201 49.7505 2.64478ZM9.62399 8.81403C9.671 8.80691 9.68327 8.73974 9.65126 8.66475C9.61925 8.58976 9.63151 8.52258 9.67851 8.51547C9.72552 8.50836 9.79715 8.58025 9.83769 8.67524C9.91802 8.86344 10.0772 8.93898 10.3169 8.90271C10.4999 8.87502 10.53 8.91733 10.4238 9.05273C10.3504 9.14618 10.3209 9.14465 9.95843 9.02822C9.56832 8.90292 9.46666 8.83784 9.62399 8.81403ZM11.0641 8.6764C11.1555 8.71837 11.3418 8.74765 11.4782 8.74152C11.6639 8.73312 11.771 8.69291 11.9042 8.58164C12.0816 8.4333 12.0823 8.43315 12.1814 8.52122C12.2422 8.57525 12.382 8.60514 12.5415 8.59827C12.8818 8.58364 12.8874 8.62372 12.5678 8.78313C12.3061 8.91365 12.3051 8.91376 12.1291 8.83293C11.9091 8.73195 11.7403 8.7546 11.6327 8.89948C11.5698 8.98424 11.4926 9.01219 11.313 9.01522C11.1828 9.0174 11.067 8.99748 11.0556 8.9709C11.0443 8.94436 10.9541 8.89438 10.8551 8.85986C10.6865 8.80101 10.6821 8.79092 10.7866 8.69862C10.8911 8.60626 10.9083 8.60486 11.0641 8.6764ZM51.4362 2.64911C51.3649 2.67684 51.308 2.66856 51.2907 2.62793C51.275 2.5912 51.3199 2.55243 51.3904 2.54176C51.4609 2.53109 51.5264 2.54064 51.5359 2.56295C51.5454 2.58527 51.5006 2.62404 51.4362 2.64911ZM5.32546 11.4709C5.18119 11.4416 5.16767 11.4222 5.23768 11.3458C5.37384 11.1974 5.69789 11.1797 5.91013 11.309C6.15163 11.4562 6.17194 11.5127 6.02015 11.6145C5.80999 11.7554 5.60473 11.7603 5.54727 11.6257C5.51911 11.5597 5.41924 11.4901 5.32546 11.4709ZM4.98107 11.5781C5.01048 11.647 4.66741 11.825 4.56582 11.7935C4.53319 11.7834 4.49311 11.7131 4.4768 11.6374C4.44935 11.5096 4.46529 11.5002 4.70022 11.5062C4.83937 11.5098 4.96573 11.5421 4.98107 11.5781ZM6.02619 12.59C5.66925 12.6498 5.48456 12.6046 5.55038 12.4736C5.6211 12.333 5.80242 12.3217 6.06762 12.4415L6.2963 12.5447L6.02619 12.59ZM68.1753 3.2009C68.0542 3.16001 67.9637 3.09372 67.9743 3.05356C68.027 2.85549 68.5072 2.97281 68.4998 3.1819C68.4971 3.25565 68.5033 3.40151 68.5137 3.50605C68.5257 3.62805 68.4837 3.70902 68.3962 3.73222C68.183 3.78877 68.109 3.63271 68.2598 3.44465L68.3957 3.27521L68.1753 3.2009ZM6.10508 13.1205C6.05808 13.1276 5.98713 13.1166 5.9474 13.096C5.90768 13.0754 5.91364 13.0527 5.96064 13.0456C6.00765 13.0385 6.0786 13.0495 6.11832 13.0701C6.15805 13.0907 6.15208 13.1134 6.10508 13.1205ZM7.85738 14.1625C7.82651 14.2119 7.6539 14.2165 7.63343 14.1686C7.62872 14.1575 7.68487 14.1394 7.75811 14.1284C7.83135 14.1173 7.87602 14.1326 7.85738 14.1625ZM4.33485 14.8883C4.26272 14.8992 4.20876 14.8802 4.21472 14.846C4.23396 14.7368 4.56092 14.6937 4.66557 14.7867C4.79381 14.9006 4.72255 15.0144 4.57538 14.9307C4.51521 14.8965 4.4069 14.8774 4.33485 14.8883ZM7.00912 14.7135C6.96871 14.7493 6.65968 14.639 6.62819 14.5776C6.61865 14.5591 6.66602 14.5355 6.73336 14.5254C6.86181 14.5059 7.07758 14.6531 7.00912 14.7135ZM7.90959 14.5828C7.7948 14.5375 7.71226 14.4822 7.72609 14.46C7.79385 14.3517 8.00159 14.3916 8.058 14.5238L8.11835 14.6652L7.90959 14.5828ZM9.18893 14.4158C9.22103 14.5036 9.21354 14.5036 9.09554 14.4149C8.96439 14.3163 8.95874 14.2598 9.08396 14.2987C9.12242 14.3106 9.1696 14.3633 9.18893 14.4158ZM10.314 14.2674C10.3358 14.3185 10.3127 14.3274 10.2271 14.3009C10.163 14.281 10.1151 14.2389 10.1209 14.2075C10.1344 14.1333 10.2754 14.177 10.314 14.2674ZM11.546 14.1696C11.5838 14.2582 11.4236 14.2639 11.28 14.1789C11.2106 14.1378 11.1816 14.0886 11.2156 14.0697C11.2943 14.0257 11.5128 14.0918 11.546 14.1696ZM12.1645 14.1038C12.1437 14.1009 12.1619 14.06 12.2052 14.013C12.2484 13.9659 12.3128 13.9229 12.3482 13.9176C12.4736 13.8986 12.6812 14.0121 12.6609 14.0885C12.6403 14.1656 12.6213 14.1662 12.1645 14.1038ZM13.465 13.9905C13.4212 13.9971 13.3722 13.9719 13.3562 13.9344C13.3131 13.8334 13.6425 13.803 13.7495 13.8981C13.8002 13.9431 13.8201 14.0198 13.7938 14.0686C13.7511 14.1478 13.7352 14.1477 13.6453 14.0678C13.5899 14.0186 13.5088 13.9838 13.465 13.9905ZM14.705 13.9081C14.5851 13.8677 14.5018 13.8108 14.52 13.7818C14.5982 13.6568 14.8056 13.7066 14.8741 13.867L14.923 13.9816L14.705 13.9081ZM15.9627 13.7337C16.1032 13.8789 16.0539 13.9109 15.8732 13.7919C15.7934 13.7394 15.7572 13.6803 15.7926 13.6605C15.828 13.6407 15.9046 13.6737 15.9627 13.7337ZM85.0804 3.43379C84.9819 3.52083 84.9703 3.52057 84.9317 3.43031C84.8834 3.317 84.9895 3.23669 85.107 3.29767C85.1512 3.32055 85.1392 3.38183 85.0804 3.43379ZM17.2095 13.7076C17.3069 13.7582 17.2649 13.8386 17.1584 13.8055C17.1235 13.7947 17.1001 13.7576 17.1065 13.723C17.1157 13.6725 17.1358 13.6694 17.2095 13.7076ZM17.7108 13.8802C17.6638 13.8873 17.5929 13.8763 17.5531 13.8557C17.5134 13.8351 17.5194 13.8124 17.5664 13.8053C17.6134 13.7981 17.6843 13.8092 17.724 13.8298C17.7638 13.8504 17.7578 13.8731 17.7108 13.8802ZM18.9457 13.8143C18.8921 13.8059 18.8444 13.7901 18.8396 13.7791C18.8349 13.768 18.8695 13.7532 18.9166 13.7461C18.9636 13.739 19.0113 13.7548 19.0226 13.7813C19.0338 13.8077 18.9992 13.8226 18.9457 13.8143ZM90.9563 3.5049C90.8533 3.61716 90.6571 3.62865 90.6129 3.52503C90.5882 3.46718 90.6311 3.42551 90.7308 3.41043C90.9479 3.37757 91.0383 3.41546 90.9563 3.5049ZM95.4535 3.66064C95.3169 3.76037 95.1584 3.73007 95.1 3.59309C95.0434 3.46052 95.1328 3.43784 95.3766 3.52296C95.5345 3.57799 95.5438 3.59468 95.4535 3.66064ZM8.88529 17.8769C8.95511 17.8663 9.10463 17.7893 9.2176 17.7057C9.47768 17.5131 9.50405 17.5105 9.68297 17.6594C9.86912 17.8144 10.151 17.7817 10.3635 17.5806C10.5571 17.3976 10.6279 17.3886 10.8027 17.5253C10.8806 17.5861 10.9941 17.6437 11.0549 17.6531C11.1833 17.673 11.4556 17.5518 11.5167 17.4474C11.5824 17.3351 11.7985 17.3277 11.9335 17.4332C12.1071 17.5687 12.2895 17.5624 12.5961 17.4101L12.8621 17.2779L13.0464 17.3937C13.2292 17.5087 13.2288 17.5099 12.9856 17.5467C12.804 17.5742 12.7164 17.625 12.6474 17.743C12.532 17.94 12.4697 17.9519 12.3267 17.8041C12.1131 17.5836 11.7796 17.6129 11.5023 17.8768L11.3098 18.0599L11.1676 17.9153C10.9742 17.7185 10.6262 17.7433 10.3893 17.9709C10.2521 18.1026 10.2045 18.1208 10.1159 18.0759C10.0569 18.0459 9.99272 17.9857 9.97329 17.9421C9.94694 17.8827 9.86713 17.8735 9.65604 17.9054C9.34403 17.9526 9.1978 18.0468 9.24926 18.1673C9.28034 18.2401 9.16984 18.3498 9.09346 18.322C9.07538 18.3154 8.99257 18.2169 8.90949 18.1031C8.78726 17.9356 8.78266 17.8924 8.88529 17.8769ZM107.194 2.92611C106.997 2.99395 106.891 2.98086 106.944 2.8954C106.987 2.82679 107.054 2.81475 107.234 2.84381C107.339 2.86093 107.33 2.87889 107.194 2.92611ZM13.5633 17.4036C13.6931 17.3562 13.7924 17.3011 13.7839 17.2812C13.7754 17.2613 13.8148 17.227 13.8714 17.205C13.9333 17.1809 14.034 17.2118 14.124 17.2825C14.2632 17.3919 14.2594 17.4023 14.0695 17.431C13.9394 17.4507 13.8313 17.5153 13.7716 17.6092C13.72 17.6901 13.6683 17.7681 13.6565 17.7824C13.6169 17.8307 13.4195 17.6997 13.3731 17.5944C13.3399 17.5189 13.3925 17.4661 13.5633 17.4036ZM109.263 3.01971C109.187 3.00108 109.113 2.95763 109.098 2.92322C109.065 2.84659 109.249 2.81318 109.417 2.86521C109.6 2.92204 109.456 3.06676 109.263 3.01971ZM104.399 3.74371C104.322 3.74002 104.25 3.71589 104.239 3.69007C104.214 3.62972 104.614 3.56817 104.709 3.6178C104.801 3.66521 104.585 3.75275 104.399 3.74371ZM14.5784 17.5422C14.487 17.4477 14.5098 17.4119 14.7406 17.288C15.031 17.132 15.1603 17.0954 15.1883 17.161C15.1981 17.1839 15.2433 17.2315 15.2887 17.2668C15.3472 17.3122 15.3209 17.3384 15.1983 17.357C15.1031 17.3714 14.9724 17.451 14.9076 17.5339C14.7768 17.7014 14.7336 17.7025 14.5784 17.5422ZM15.8176 17.2633C15.8796 17.2539 15.965 17.2083 16.0075 17.1619C16.1043 17.0564 16.2264 17.0353 16.2616 17.1178C16.2764 17.1524 16.2159 17.2031 16.1271 17.2305C16.0263 17.2617 15.9685 17.3359 15.973 17.4288C15.9815 17.6071 15.8713 17.6382 15.7341 17.4964C15.6203 17.379 15.6528 17.2882 15.8176 17.2633ZM18.5246 16.8778C18.4711 16.8695 18.419 16.8434 18.409 16.8199C18.3989 16.7963 18.4291 16.7713 18.4762 16.7642C18.5232 16.7571 18.5752 16.7831 18.5919 16.8221C18.6085 16.861 18.5782 16.8861 18.5246 16.8778ZM19.574 16.849C19.4386 16.8017 19.4165 16.7719 19.4769 16.7185C19.5924 16.6164 19.6384 16.6216 19.8095 16.7559C19.9923 16.8995 19.8641 16.9502 19.574 16.849ZM6.50395 18.7695C6.45695 18.7766 6.4054 18.7518 6.38939 18.7143C6.37339 18.6768 6.39875 18.6403 6.44576 18.6332C6.49276 18.626 6.54431 18.6509 6.56032 18.6884C6.57632 18.7259 6.55096 18.7624 6.50395 18.7695ZM20.6924 16.7895C20.5066 16.7541 20.484 16.7323 20.5406 16.6432C20.5772 16.5856 20.646 16.5328 20.6936 16.5258C20.7758 16.5137 21.0808 16.685 21.1135 16.7618C21.1386 16.8206 20.9278 16.8345 20.6924 16.7895ZM21.8616 16.6884C21.494 16.6801 21.476 16.6704 21.6092 16.5527C21.7516 16.4268 21.9274 16.4211 22.0981 16.5368C22.2976 16.6721 22.2583 16.6973 21.8616 16.6884ZM106.852 3.85167C106.735 3.98017 106.548 3.98215 106.493 3.85548C106.458 3.77331 106.491 3.73492 106.611 3.71676C106.829 3.68374 106.946 3.74926 106.852 3.85167ZM23.0429 16.5569C22.7452 16.602 22.6408 16.5746 22.7318 16.4754C22.8261 16.3726 23.0854 16.34 23.1862 16.4182C23.309 16.5135 23.3051 16.5172 23.0429 16.5569ZM23.983 16.463C23.9387 16.4697 23.8938 16.4547 23.8832 16.4298C23.8725 16.4048 23.9238 16.3752 23.997 16.3641C24.0702 16.3531 24.1152 16.368 24.0968 16.3974C24.0784 16.4268 24.0273 16.4563 23.983 16.463ZM109.682 3.6391C109.585 3.65374 109.497 3.64528 109.486 3.62029C109.476 3.59529 109.522 3.56646 109.59 3.5562C109.658 3.54595 109.746 3.55442 109.785 3.57502C109.825 3.59562 109.778 3.62446 109.682 3.6391ZM8.9126 19.0825C9.13436 19.0965 9.22611 19.0791 9.42565 18.9854C9.73825 18.8385 9.73772 18.8385 10.0389 18.9391C10.2649 19.0146 10.3379 19.0143 10.6741 18.9364C10.965 18.869 11.0871 18.8612 11.1957 18.9029C11.3653 18.9681 11.5174 18.9493 11.8611 18.8206C12.0827 18.7377 12.1475 18.7321 12.3249 18.7806C12.5232 18.8349 12.6413 18.8177 13.0616 18.6733C13.1669 18.6371 13.3078 18.64 13.4693 18.6819C13.6051 18.717 13.7653 18.7266 13.8254 18.7032C14.166 18.5706 14.2945 18.5601 14.5802 18.6417L14.8774 18.7265L14.7004 18.8169C14.4673 18.9359 14.3323 18.955 14.1417 18.8958C13.9485 18.8359 13.6731 18.8762 13.431 18.9997C13.2697 19.0819 13.2162 19.086 12.9709 19.0352C12.7173 18.9827 12.6658 18.9874 12.3752 19.0901C12.0953 19.189 12.0347 19.1963 11.8685 19.1508C11.6514 19.0913 11.3645 19.1236 11.1459 19.2321C11.0288 19.2902 10.9536 19.2961 10.8146 19.2581C10.627 19.2067 10.2438 19.2491 9.99027 19.3492C9.89966 19.385 9.71803 19.3943 9.52132 19.3732C9.25873 19.345 9.14882 19.3561 8.91825 19.434C8.65485 19.5231 8.61919 19.5227 8.37425 19.4269C8.23003 19.3706 8.10484 19.3109 8.09597 19.2944C8.08708 19.2778 8.20641 19.2196 8.36121 19.1649C8.57774 19.0884 8.70475 19.0694 8.9126 19.0825ZM7.02213 19.4293L7.25982 19.3145C7.54675 19.1759 7.49619 19.1818 7.80173 19.2522C8.04853 19.309 8.05101 19.3123 7.91697 19.403C7.73383 19.5269 7.538 19.551 7.25593 19.4845L7.02213 19.4293ZM15.3344 18.7774C15.0923 18.739 15.0648 18.6895 15.2259 18.5814C15.389 18.4721 15.4188 18.4691 15.6271 18.5418C15.8541 18.621 15.8608 18.6454 15.6803 18.735C15.5721 18.7887 15.4784 18.8001 15.3344 18.7774ZM16.7615 18.6023C16.6048 18.6633 16.3445 18.5999 16.3692 18.5068C16.3969 18.4028 16.5993 18.3872 16.7517 18.4774C16.8551 18.5386 16.8572 18.565 16.7615 18.6023ZM17.8298 18.4983C17.7211 18.5063 17.6041 18.4789 17.5698 18.4375C17.4982 18.3513 17.6801 18.3076 17.8679 18.3658C18.0631 18.4264 18.047 18.4825 17.8298 18.4983ZM18.9787 18.4212C18.8517 18.4305 18.7669 18.4044 18.7431 18.3487C18.6977 18.2424 18.8247 18.1893 18.9969 18.2428C19.2073 18.308 19.1974 18.4052 18.9787 18.4212ZM22.5282 19.3229C22.3822 19.3292 22.2156 19.3197 22.1582 19.3019C22.0885 19.2803 22.1314 19.2005 22.2863 19.0636C22.511 18.8651 22.5254 18.8601 22.6983 18.9204C22.8516 18.9739 22.8715 19.0067 22.8356 19.1472C22.7981 19.294 22.7655 19.3127 22.5282 19.3229ZM23.325 19.1556C23.1313 19.0906 23.1001 19.0642 23.1991 19.0493C23.2714 19.0383 23.4094 18.9747 23.5058 18.9079L23.6809 18.7864L23.9265 18.8684C24.2106 18.9633 24.5445 18.929 24.7237 18.7864C24.8408 18.6931 24.8641 18.6914 25.0986 18.7587C25.3085 18.819 25.4023 18.8171 25.6832 18.7466C26.0362 18.6581 26.5651 18.6633 26.6046 18.7557C26.6163 18.7831 26.4887 18.8539 26.321 18.9132C26.0837 18.997 25.9691 19.0153 25.8035 18.9956C25.676 18.9804 25.4646 19.002 25.2757 19.0493C25.0587 19.1038 24.8683 19.1182 24.6641 19.0956C24.4517 19.0721 24.2565 19.0882 23.9751 19.1524C23.6248 19.2323 23.5545 19.2326 23.325 19.1556ZM115.279 5.45323C115.235 5.45986 115.155 5.42621 115.101 5.37842C115.001 5.28916 115.068 5.16718 115.196 5.20684C115.304 5.24019 115.37 5.43935 115.279 5.45323ZM116.239 5.499C115.977 5.46792 115.88 5.33873 116.065 5.26686C116.272 5.18636 116.323 5.1929 116.475 5.31953C116.655 5.46977 116.566 5.5379 116.239 5.499ZM27.2474 18.823C27.0713 18.85 26.9185 18.8517 26.9078 18.8267C26.8831 18.7688 27.2274 18.7167 27.4206 18.7491C27.5299 18.7674 27.4855 18.7863 27.2474 18.823ZM116.962 5.42372L117.119 5.3115C117.36 5.13965 117.505 5.1407 117.579 5.31477C117.667 5.52083 117.61 5.55064 117.261 5.48219L116.962 5.42372ZM14.4623 21.0021C14.4253 20.9154 14.4566 20.8417 14.55 20.7953C14.7474 20.6974 14.832 20.6894 14.9982 20.7533C15.1187 20.7996 15.1094 20.8298 14.9361 20.9545C14.6613 21.1522 14.532 21.1652 14.4623 21.0021ZM15.6508 20.9138C15.5892 20.8591 15.5948 20.7884 15.6662 20.718C15.7966 20.5893 15.8439 20.5774 16.014 20.6301C16.1942 20.686 16.1951 20.7348 16.0185 20.8644C15.8182 21.0114 15.7682 21.0181 15.6508 20.9138ZM16.978 20.8601C16.8285 20.885 16.6759 20.7197 16.7619 20.6259C16.8794 20.4978 17.2438 20.4846 17.2958 20.6066C17.3285 20.6831 17.1406 20.833 16.978 20.8601ZM18.0307 20.7265C17.8762 20.7499 17.8058 20.5743 17.9359 20.49C18.1002 20.3836 18.1509 20.3774 18.3211 20.4428C18.4381 20.4878 18.4327 20.5139 18.2877 20.6051C18.1927 20.6648 18.077 20.7195 18.0307 20.7265ZM19.0067 20.5736C18.9001 20.4904 18.8885 20.4498 18.9594 20.4093C19.2235 20.2585 19.6665 20.3363 19.4547 20.4963C19.2172 20.6757 19.1519 20.687 19.0067 20.5736ZM20.5386 20.4185C20.4029 20.5177 20.1412 20.5036 20.1347 20.3967C20.1281 20.29 20.3497 20.23 20.5152 20.2936C20.6142 20.3316 20.6194 20.3596 20.5386 20.4185ZM21.5226 20.4151C21.4067 20.4335 21.2464 20.3222 21.2897 20.2532C21.3365 20.1781 21.5301 20.1645 21.6878 20.2251C21.8057 20.2705 21.8122 20.2901 21.7251 20.3397C21.6673 20.3727 21.5762 20.4065 21.5226 20.4151ZM22.6729 20.2508C22.6561 20.3431 22.478 20.3849 22.4438 20.3046C22.4269 20.265 22.474 20.2234 22.5483 20.2122C22.6228 20.2009 22.6789 20.2183 22.6729 20.2508ZM23.6279 20.7874C23.3874 20.7221 23.3857 20.6919 23.6164 20.5906C23.8743 20.4773 23.9639 20.4671 24.0582 20.5402C24.1043 20.576 24.0688 20.6496 23.9723 20.7187C23.8222 20.8262 23.7924 20.8321 23.6279 20.7874ZM11.9187 22.7444C11.7327 22.6816 11.7095 22.6569 11.7924 22.6097C11.9492 22.5203 12.0173 22.5226 12.1446 22.6213C12.3229 22.7596 12.1856 22.8344 11.9187 22.7444ZM14.8914 22.6652C14.7963 22.5931 14.6968 22.5211 14.6701 22.5052C14.6434 22.4892 14.7006 22.4643 14.7973 22.4496C14.9851 22.4212 15.3275 22.5904 15.3033 22.6997C15.2777 22.8152 15.0655 22.7975 14.8914 22.6652ZM14.1458 22.8184C14.1801 22.8986 13.9901 22.9125 13.9013 22.8362C13.87 22.8093 13.9054 22.7781 13.9798 22.7669C14.0542 22.7556 14.1289 22.7788 14.1458 22.8184ZM16.3556 22.5667C16.4576 22.6387 16.4273 22.7273 16.3128 22.6918C16.2788 22.6813 16.2517 22.6328 16.2527 22.584C16.2541 22.4992 16.2587 22.4985 16.3556 22.5667ZM17.5354 22.6067C17.4495 22.6107 17.3671 22.5853 17.3521 22.5502C17.3215 22.4785 17.4549 22.4151 17.5648 22.4491C17.7089 22.4938 17.6892 22.5995 17.5354 22.6067ZM19.7641 22.327C19.7144 22.3345 19.6649 22.3202 19.6542 22.2952C19.6436 22.2702 19.6518 22.2472 19.6725 22.2441C19.6933 22.2409 19.7427 22.2552 19.7824 22.2758C19.8222 22.2964 19.8139 22.3195 19.7641 22.327ZM113.39 9.15278C113.241 9.29326 113.099 9.31356 113.051 9.20126C113.036 9.16663 113.091 9.06817 113.173 8.98246L113.322 8.8266L113.429 8.92103C113.506 8.99008 113.496 9.05239 113.39 9.15278ZM114.064 9.17751C114.089 9.10261 114.156 9.00705 114.213 8.96509C114.365 8.85431 114.425 8.85753 114.528 8.98207C114.591 9.05792 114.575 9.14049 114.478 9.2421C114.358 9.3677 114.311 9.3849 114.178 9.35233C114.049 9.32091 114.028 9.28821 114.064 9.17751ZM123.739 8.04368C123.513 8.07784 123.507 8.07404 123.531 7.90583C123.558 7.70801 123.639 7.68343 123.993 7.76503C124.239 7.82188 124.242 7.82514 124.108 7.91587C124.032 7.96686 123.866 8.02436 123.739 8.04368ZM115.58 9.32636C115.427 9.49772 115.226 9.42105 115.217 9.18773C115.211 9.06445 115.258 9.00848 115.393 8.97677C115.546 8.94057 115.585 8.95524 115.633 9.06813C115.664 9.14207 115.641 9.25827 115.58 9.32636ZM124.975 7.87464C124.944 7.92608 124.844 7.91574 124.588 7.83463L124.243 7.72538L124.482 7.68932C124.746 7.64935 125.043 7.7609 124.975 7.87464ZM116.402 9.3785C116.354 9.26656 116.325 9.13914 116.337 9.09528C116.36 9.00671 116.798 8.91919 116.914 8.97968C116.954 9.00028 116.944 9.02351 116.893 9.0313C116.841 9.03908 116.765 9.14616 116.724 9.26931C116.616 9.5878 116.507 9.62474 116.402 9.3785ZM117.529 9.36601C117.492 9.34695 117.469 9.2894 117.477 9.23811C117.493 9.13103 117.966 8.99307 118.005 9.08392C118.018 9.11442 117.985 9.15655 117.931 9.17759C117.877 9.19857 117.806 9.33294 117.774 9.47618C117.738 9.63268 117.677 9.72474 117.619 9.70695C117.562 9.68917 117.538 9.62217 117.56 9.53902C117.579 9.46292 117.566 9.38509 117.529 9.36601ZM119.088 9.28298C119.028 9.4015 118.714 9.46585 118.672 9.36809C118.656 9.33123 118.745 9.25187 118.87 9.19177C119.11 9.07572 119.178 9.10402 119.088 9.28298ZM123.559 8.77243C124.046 8.69878 124.231 8.6519 124.283 8.58871C124.325 8.5377 124.498 8.48032 124.715 8.44486C125.018 8.39542 125.082 8.40003 125.114 8.47362C125.135 8.52188 125.109 8.55481 125.057 8.5468C125.006 8.53874 124.91 8.5792 124.844 8.6367C124.778 8.69416 124.635 8.79337 124.525 8.85713C124.302 8.98692 124.304 9.07798 124.531 9.13336C124.763 9.18996 124.943 9.66113 124.781 9.78958C124.607 9.92847 124.406 9.94605 124.192 9.84111C123.989 9.74131 124.003 9.64122 124.247 9.44655C124.434 9.29798 124.362 9.13016 124.113 9.13304C123.718 9.1376 123.602 9.28711 123.672 9.69863C123.711 9.92341 123.564 10.1019 123.386 10.0468C123.286 10.0157 123.328 10.0716 123.484 10.1776C123.598 10.2545 123.605 10.3141 123.523 10.4909C123.354 10.8546 123.033 10.9038 123.094 10.5566C123.122 10.3986 123.099 10.3376 122.993 10.2828C122.887 10.2286 122.845 10.1285 122.809 9.85148C122.768 9.53308 122.787 9.47906 122.969 9.39098C123.169 9.29447 123.169 9.28744 122.99 9.17465C122.671 8.97394 122.791 8.88861 123.559 8.77243ZM122.101 9.27917C122.171 9.22262 122.213 9.13865 122.194 9.09252C122.157 9.00744 122.196 8.99106 122.406 9.00319C122.579 9.01322 122.72 9.39261 122.577 9.46583C122.514 9.49824 122.458 9.58942 122.453 9.66856C122.445 9.77762 122.392 9.81992 122.235 9.84375C122.092 9.86545 122.03 9.85242 122.034 9.80155C122.038 9.76107 122.025 9.6501 122.006 9.55497C121.987 9.45979 122.029 9.33569 122.101 9.27917ZM125.134 8.91195C125.012 8.83978 125.015 8.81312 125.151 8.72787C125.408 8.5682 125.593 8.56877 125.838 8.7299C126.047 8.86674 126.09 8.87335 126.432 8.82151C126.712 8.77919 126.849 8.78471 127.001 8.84434C127.38 8.99397 127.875 8.82167 127.626 8.62683C127.473 8.50787 127.536 8.41915 127.78 8.40771C127.892 8.40246 127.987 8.4544 128.08 8.57251C128.325 8.8818 128.479 8.96469 128.798 8.96032C129.035 8.95708 129.113 8.98167 129.179 9.08159C129.225 9.15055 129.34 9.24449 129.433 9.29041C129.586 9.36536 129.592 9.38596 129.491 9.49234C129.429 9.55746 129.37 9.69326 129.361 9.79408C129.347 9.954 129.309 9.98484 129.063 10.0357C128.661 10.1189 128.389 9.93975 128.601 9.73095C128.651 9.68132 128.678 9.57752 128.661 9.50021C128.634 9.37484 128.608 9.36447 128.422 9.40422C128.178 9.45642 128.048 9.59237 128.108 9.73249C128.171 9.88192 128.018 9.96725 127.738 9.93857C127.412 9.90528 127.346 9.78713 127.556 9.61551C127.766 9.44408 127.697 9.31416 127.407 9.33544C127.168 9.35291 126.926 9.52237 126.976 9.6379C127.063 9.8426 126.778 9.99167 126.477 9.89845C126.335 9.85426 126.347 9.61686 126.498 9.48287C126.663 9.33755 126.531 9.24421 126.206 9.276C126.022 9.29399 125.913 9.27934 125.893 9.23389C125.877 9.19548 125.731 9.12635 125.57 9.08025C125.408 9.03413 125.212 8.9584 125.134 8.91195ZM120.92 9.82853C120.883 9.80937 120.932 9.68228 121.028 9.54607C121.124 9.40982 121.239 9.29296 121.282 9.28635C121.395 9.26929 121.394 9.29531 121.273 9.49222C121.214 9.58827 121.181 9.70267 121.2 9.74642C121.235 9.82982 121.035 9.88837 120.92 9.82853ZM119.822 9.84605C119.568 9.88443 119.563 9.87197 119.753 9.68971C119.925 9.52379 120.001 9.49781 120.041 9.59116C120.098 9.72478 120.02 9.81611 119.822 9.84605ZM129.01 8.64911C128.963 8.65623 128.916 8.64282 128.906 8.61928C128.896 8.59574 128.921 8.55806 128.961 8.53549C129.002 8.51293 129.049 8.52638 129.065 8.56533C129.082 8.60428 129.057 8.642 129.01 8.64911ZM125.173 9.87517C125.023 9.75354 125.01 9.71937 125.092 9.6722C125.225 9.5966 125.257 9.59348 125.464 9.63568C125.677 9.67908 125.771 9.94596 125.575 9.95319C125.482 9.95667 125.482 9.99143 125.574 10.0986C125.903 10.4829 125.915 10.516 125.793 10.7107C125.681 10.8904 125.649 10.9057 125.351 10.9222C125.174 10.932 124.953 10.9115 124.859 10.8766C124.694 10.8152 124.686 10.8167 124.618 10.9238C124.548 11.0342 124.548 11.0342 124.342 10.9484C124.077 10.8378 124.076 10.8319 124.248 10.5816C124.345 10.4407 124.361 10.3419 124.297 10.2849C124.183 10.1836 124.303 10.1522 124.506 10.2301C124.589 10.2622 124.675 10.3707 124.711 10.4893C124.769 10.6778 124.79 10.6909 124.981 10.662C125.095 10.6448 125.238 10.5814 125.299 10.5211C125.389 10.432 125.383 10.3961 125.269 10.3281C125.153 10.26 125.148 10.2241 125.241 10.1331C125.34 10.0346 125.332 10.0041 125.173 9.87517ZM121.052 10.6755C121.011 10.7396 120.974 10.7474 120.869 10.7148C120.764 10.6821 120.767 10.6484 120.884 10.545C121.024 10.4212 121.032 10.4196 121.067 10.5057C121.087 10.5551 121.081 10.6315 121.052 10.6755ZM122.051 10.7183C121.926 10.7373 121.926 10.6028 122.052 10.554C122.213 10.4912 122.243 10.4879 122.262 10.5315C122.282 10.5786 122.139 10.705 122.051 10.7183ZM126.562 10.576C126.664 10.4922 126.672 10.4336 126.593 10.3517C126.526 10.2828 126.521 10.2354 126.578 10.2267C126.706 10.2074 126.873 10.3925 126.854 10.5322C126.834 10.6801 126.671 10.8468 126.562 10.8299C126.418 10.8075 126.418 10.6943 126.562 10.576ZM120.47 13.4735C120.4 13.4842 120.334 13.4737 120.324 13.4502C120.299 13.3929 120.415 13.3316 120.499 13.3576C120.617 13.3942 120.602 13.4535 120.47 13.4735ZM127.488 12.5566C127.444 12.5633 127.399 12.5483 127.388 12.5233C127.378 12.4983 127.429 12.4688 127.502 12.4577C127.575 12.4466 127.62 12.4616 127.602 12.491C127.584 12.5204 127.532 12.5499 127.488 12.5566ZM71.464 21.5188C71.3876 21.5303 71.2383 21.4392 71.2047 21.3605C71.184 21.3119 71.298 21.2875 71.3992 21.3189C71.5025 21.351 71.5525 21.5054 71.464 21.5188ZM118.662 15.2235C118.49 15.1393 118.475 15.1153 118.564 15.065C118.833 14.9115 119.098 15.0078 118.951 15.2059L118.864 15.3227L118.662 15.2235ZM121.14 15.3558C121.046 15.3702 120.727 15.2489 120.702 15.1886C120.676 15.1285 121.064 15.0555 121.156 15.1032C121.233 15.1434 121.221 15.3436 121.14 15.3558ZM119.949 15.3427C119.902 15.3498 119.854 15.3351 119.844 15.3101C119.833 15.2851 119.863 15.2589 119.91 15.2518C119.957 15.2446 120.004 15.2593 120.015 15.2843C120.025 15.3093 119.996 15.3355 119.949 15.3427ZM122.279 15.2601C122.313 15.3404 122.123 15.3543 122.034 15.278C122.003 15.2511 122.038 15.2199 122.113 15.2087C122.187 15.1974 122.262 15.2206 122.279 15.2601ZM102.417 18.2861C102.233 18.3139 102.122 18.3112 102.142 18.2793C102.195 18.1935 102.525 18.1657 102.868 18.218C103.044 18.2446 103.28 18.2523 103.394 18.2351C103.507 18.2179 103.633 18.2209 103.673 18.2419C103.714 18.2628 103.772 18.2661 103.802 18.2491C103.832 18.2322 103.997 18.2395 104.169 18.2654C104.34 18.2913 104.585 18.297 104.714 18.2779C105.11 18.2192 105.223 18.262 105.133 18.4373C105.068 18.5655 105.048 18.5749 105.004 18.4995C104.975 18.4506 104.949 18.3946 104.947 18.375C104.941 18.3299 104.73 18.3602 104.668 18.415C104.642 18.4377 104.473 18.4808 104.291 18.511C104.024 18.5552 103.934 18.5482 103.826 18.4746C103.752 18.4245 103.623 18.3937 103.54 18.4062C103.457 18.4187 103.239 18.3863 103.057 18.3341C102.816 18.265 102.642 18.252 102.417 18.2861ZM76.0166 22.2137C76.0438 22.1895 76.0428 22.1153 76.0144 22.0487C75.9756 21.9579 76.0091 21.9169 76.1488 21.8842C76.3424 21.8388 76.4345 21.8988 76.2927 21.9779C76.2429 22.0057 76.2596 22.0865 76.3356 22.1863C76.4643 22.3551 76.3683 22.5132 76.1571 22.4803C76.0399 22.4621 75.9433 22.279 76.0166 22.2137ZM75.288 22.2648C75.0933 22.4369 74.7095 22.4107 74.8695 22.2363C74.954 22.1441 75.0769 22.1168 75.2673 22.1477C75.3718 22.1647 75.3758 22.1872 75.288 22.2648ZM116.84 16.5367C116.947 16.6396 116.939 16.7097 116.825 16.6743C116.792 16.6639 116.757 16.6056 116.749 16.5447L116.734 16.434L116.84 16.5367ZM127.083 15.3288C126.857 15.5515 126.595 15.475 126.575 15.1802C126.56 14.9719 126.802 14.9266 127.031 15.0946C127.175 15.1995 127.182 15.2311 127.083 15.3288ZM106.406 18.6274C106.208 18.6871 106.201 18.6828 106.138 18.4738C106.102 18.3555 106.086 18.247 106.102 18.2326C106.118 18.2182 106.253 18.234 106.402 18.2678C106.595 18.3115 106.733 18.3109 106.883 18.2657C107.045 18.2168 107.159 18.2219 107.383 18.2878C107.626 18.3593 107.721 18.3611 107.958 18.299C108.221 18.2299 108.261 18.2348 108.509 18.3668C108.656 18.445 108.788 18.5143 108.802 18.5206C108.816 18.527 108.896 18.494 108.979 18.4474C109.158 18.3461 109.268 18.3679 109.248 18.5008C109.237 18.5678 109.128 18.6232 108.892 18.681C108.528 18.7702 108.434 18.7613 108.326 18.6273C108.226 18.5027 107.705 18.5109 107.543 18.6396C107.449 18.7148 107.392 18.7283 107.296 18.6986C107.228 18.6774 107.161 18.6351 107.148 18.6045C107.118 18.5337 106.671 18.5475 106.406 18.6274ZM118.057 16.5936C118.194 16.7545 118.127 16.8836 117.937 16.8247C117.859 16.8004 117.842 16.7394 117.879 16.6183L117.931 16.4463L118.057 16.5936ZM127.777 15.5061C127.659 15.422 127.643 15.3631 127.699 15.2155C127.74 15.1061 127.829 15.021 127.917 15.0078C128.138 14.9742 128.3 15.3948 128.12 15.5379C127.976 15.6525 127.983 15.6532 127.777 15.5061ZM118.93 16.844C118.975 16.8041 118.988 16.7154 118.959 16.6469C118.891 16.4887 119.02 16.411 119.135 16.5403C119.432 16.8732 119.386 17.0034 118.994 16.94C118.877 16.9212 118.865 16.9016 118.93 16.844ZM120.271 16.9873C120.115 17.0109 120.094 16.9943 120.083 16.8358C120.076 16.7379 120.093 16.5885 120.119 16.5038L120.167 16.3498L120.341 16.6009C120.536 16.883 120.524 16.949 120.271 16.9873ZM121.364 16.967C121.234 16.9868 121.205 16.9626 121.185 16.8128C121.171 16.7151 121.197 16.6 121.242 16.5572C121.309 16.4931 121.354 16.5058 121.497 16.6294C121.692 16.7981 121.642 16.925 121.364 16.967ZM122.355 16.8292C122.33 16.7332 122.321 16.6147 122.336 16.5659C122.377 16.4324 122.456 16.4445 122.643 16.6123C122.835 16.7844 122.792 16.9445 122.545 16.982C122.431 16.9991 122.392 16.9673 122.355 16.8292ZM90.1418 21.6049C90.1226 21.5599 90.1426 21.4916 90.1862 21.4531C90.2952 21.3567 90.4039 21.3485 90.6973 21.4144C90.8833 21.4561 91.0207 21.4523 91.2243 21.3998C91.5146 21.3248 91.6702 21.3585 91.738 21.511C91.7821 21.6103 91.4589 21.6672 91.1842 21.6084C91.0773 21.5855 90.8068 21.5938 90.5833 21.6268C90.2498 21.676 90.1705 21.672 90.1418 21.6049ZM109.838 18.621C110.129 18.632 110.173 18.621 110.316 18.5033C110.518 18.3362 110.614 18.3245 110.883 18.4341C111.048 18.5011 111.151 18.5091 111.293 18.4661C111.55 18.3885 111.951 18.4127 112.063 18.5127C112.131 18.5734 112.266 18.5857 112.591 18.561C112.897 18.5379 113.124 18.5554 113.35 18.6195C113.637 18.7014 113.655 18.7166 113.524 18.7615C113.444 18.7891 113.319 18.8408 113.247 18.8763C113.032 18.9829 112.959 18.9725 112.865 18.8218C112.79 18.7031 112.734 18.6817 112.539 18.6988C112.41 18.7101 112.199 18.77 112.071 18.8318C111.863 18.9323 111.831 18.9374 111.768 18.8806C111.729 18.8457 111.664 18.7875 111.623 18.7512C111.562 18.6973 111.474 18.7027 111.137 18.7808C110.749 18.8706 110.716 18.8702 110.574 18.7737C110.439 18.6825 110.374 18.6787 109.975 18.7389C109.661 18.7865 109.506 18.7889 109.452 18.7472C109.334 18.6561 109.483 18.6075 109.838 18.621ZM123.862 16.924C123.698 17.0435 123.552 17.0117 123.455 16.8355C123.403 16.7403 123.408 16.6243 123.468 16.5507C123.585 16.4075 123.642 16.4263 123.831 16.6701C123.933 16.8025 123.941 16.8661 123.862 16.924ZM92.3041 21.6285C92.0029 21.6336 91.9814 21.59 92.231 21.4804C92.4738 21.3738 92.5575 21.3605 92.658 21.4127C92.7961 21.4843 92.5669 21.624 92.3041 21.6285ZM93.6274 21.6484C93.4151 21.6805 93.3255 21.6419 93.4069 21.5531C93.4885 21.4642 93.6717 21.4282 93.7737 21.4811C93.8785 21.5354 93.8029 21.6218 93.6274 21.6484ZM94.7326 21.7028C94.7281 21.6924 94.6904 21.6574 94.6487 21.625C94.5513 21.5495 94.7366 21.4767 94.9544 21.5049C95.0869 21.5221 95.107 21.5436 95.0493 21.6065C94.983 21.6787 94.7523 21.749 94.7326 21.7028ZM114.435 18.8375C114.25 18.9463 114.031 18.9561 113.989 18.8574C113.946 18.7587 114.147 18.7049 114.397 18.7479C114.528 18.7705 114.532 18.7804 114.435 18.8375ZM116.367 18.8884C116.347 18.8405 116.297 18.7754 116.256 18.7439C116.171 18.6776 116.381 18.409 116.478 18.4606C116.563 18.5058 116.556 18.9527 116.47 18.9656C116.434 18.9711 116.388 18.9364 116.367 18.8884ZM96.1268 21.7186C95.9618 21.7298 95.828 21.7113 95.8125 21.6751C95.7761 21.5897 96.1567 21.537 96.3297 21.6035C96.511 21.6732 96.4724 21.6951 96.1268 21.7186ZM117.606 18.6971C117.553 18.705 117.476 18.6405 117.434 18.5537C117.343 18.3663 117.398 18.3491 117.731 18.4603C117.921 18.5238 118.067 18.5305 118.344 18.4885C118.652 18.4419 118.746 18.4504 118.952 18.5437C119.167 18.6408 119.24 18.6459 119.566 18.5869C119.77 18.55 119.951 18.5272 119.968 18.5361C119.986 18.5451 120.111 18.6034 120.246 18.6658L120.493 18.7791L120.169 18.8872C119.836 18.9979 119.689 18.9858 119.624 18.8424C119.587 18.7606 119.305 18.7737 119.006 18.8711C118.694 18.9725 118.584 18.9666 118.532 18.8454C118.497 18.7633 117.851 18.6599 117.606 18.6971ZM115.306 18.8706C115.23 18.9002 115.186 18.896 115.193 18.8596C115.207 18.7852 115.385 18.7184 115.41 18.7782C115.421 18.8026 115.374 18.8441 115.306 18.8706ZM92.7901 23.0331C92.6377 23.0561 92.3944 22.8759 92.3635 22.7171C92.3346 22.568 92.523 22.4943 92.5817 22.6319C92.6054 22.6875 92.6976 22.7477 92.7866 22.7659C92.9795 22.8052 92.9822 23.004 92.7901 23.0331ZM93.3703 22.655C93.297 22.6661 93.2283 22.6547 93.2177 22.6297C93.207 22.6047 93.2344 22.5788 93.2787 22.5721C93.3229 22.5654 93.3916 22.5768 93.4313 22.5974C93.471 22.618 93.4435 22.6439 93.3703 22.655ZM102.906 21.5506C102.7 21.5818 102.569 21.526 102.592 21.4166C102.611 21.3267 102.985 21.2827 103.083 21.3588C103.2 21.4493 103.138 21.5154 102.906 21.5506ZM90.7702 23.2904C90.4963 23.3318 90.3989 23.2793 90.6026 23.2C90.6705 23.1735 90.7332 23.1526 90.742 23.1533C90.7506 23.1541 90.8103 23.1578 90.8744 23.1615C91.0909 23.1741 91.0284 23.2513 90.7702 23.2904ZM109.24 20.4953C109.193 20.5025 109.122 20.4914 109.082 20.4708C109.042 20.4502 109.048 20.4275 109.095 20.4204C109.142 20.4133 109.213 20.4244 109.253 20.445C109.293 20.4656 109.287 20.4882 109.24 20.4953ZM91.3762 23.4406C91.2668 23.4572 91.2044 23.2135 91.3018 23.1502C91.4213 23.0724 91.7554 23.0405 91.7826 23.1043C91.8114 23.1718 91.5113 23.4202 91.3762 23.4406ZM112.316 20.1749C112.178 20.1958 112.168 20.188 112.198 20.0758C112.222 19.9851 112.328 19.9566 112.434 20.0119C112.532 20.0626 112.467 20.152 112.316 20.1749ZM104.111 21.561C103.916 21.5893 103.741 21.5349 103.735 21.4441C103.729 21.3518 103.924 21.2703 104.054 21.3106C104.18 21.3496 104.224 21.5447 104.111 21.561ZM118.913 19.4184C118.83 19.398 118.753 19.3633 118.744 19.3414C118.724 19.2943 118.84 19.2707 118.939 19.3016C118.978 19.3135 119.022 19.3531 119.038 19.3895C119.06 19.4431 119.037 19.4486 118.913 19.4184ZM113.467 20.1942C113.42 20.2013 113.373 20.1867 113.362 20.1617C113.352 20.1367 113.382 20.1104 113.429 20.1033C113.476 20.0962 113.523 20.1109 113.533 20.1359C113.544 20.1608 113.514 20.1871 113.467 20.1942ZM111.881 20.6883C111.944 20.6856 111.982 20.627 111.967 20.5544C111.937 20.4081 111.978 20.3933 112.253 20.4521C112.36 20.475 112.595 20.4715 112.775 20.4442C113.045 20.4033 113.129 20.4128 113.255 20.4982C113.389 20.5896 113.388 20.6153 113.245 20.7174C113.043 20.8617 112.941 20.8789 112.897 20.7762C112.851 20.6674 112.361 20.6361 112.056 20.7223C111.902 20.7657 111.804 20.773 111.791 20.7421C111.779 20.7152 111.82 20.6909 111.881 20.6883ZM120.206 19.5218C120.151 19.5705 120.091 19.5601 119.975 19.4815C119.859 19.403 119.838 19.3585 119.893 19.3099C119.948 19.2612 120.008 19.2716 120.124 19.3502C120.24 19.4287 120.261 19.4732 120.206 19.5218ZM121.425 19.7402C121.241 19.6832 121.114 19.5982 121.057 19.4943C121.01 19.4069 121.009 19.321 121.057 19.3034C121.208 19.2472 121.422 19.3732 121.566 19.6036L121.706 19.8272L121.425 19.7402ZM113.87 20.7069C113.704 20.6726 113.562 20.6302 113.555 20.6126C113.547 20.5951 113.675 20.5514 113.838 20.5156C114.056 20.4679 114.218 20.4678 114.447 20.515C114.622 20.5512 114.881 20.561 115.037 20.5373C115.216 20.5102 115.416 20.5236 115.597 20.5747C115.909 20.6629 116.222 20.6718 116.457 20.5993C116.571 20.5638 116.647 20.5808 116.748 20.6651C116.868 20.7655 116.862 20.7885 116.688 20.8648C116.509 20.9431 116.455 20.94 116.092 20.8309C115.72 20.7187 115.681 20.717 115.504 20.8047C115.4 20.8563 115.299 20.8919 115.279 20.8838C115.259 20.8756 115.125 20.8142 114.981 20.7472C114.748 20.6385 114.69 20.6331 114.445 20.6973C114.235 20.7525 114.1 20.7547 113.87 20.7069ZM108.759 21.409C108.68 21.4052 108.612 21.394 108.607 21.3842C108.592 21.3474 108.763 21.3434 108.832 21.379C108.873 21.4002 108.842 21.413 108.759 21.409ZM111.055 21.5754C111.008 21.5826 110.956 21.5577 110.94 21.5202C110.924 21.4827 110.949 21.4462 110.996 21.4391C111.043 21.432 111.095 21.4568 111.111 21.4943C111.127 21.5318 111.102 21.5683 111.055 21.5754ZM117.332 20.7706C117.66 20.7209 117.689 20.7056 117.645 20.6023C117.59 20.4733 117.682 20.4412 117.884 20.5191C118.072 20.5914 117.991 20.7987 117.729 20.9135C117.556 20.9896 117.5 20.9894 117.252 20.9125L116.971 20.8253L117.332 20.7706ZM120.693 20.3568C120.498 20.3289 120.331 20.2876 120.321 20.2651C120.301 20.2173 120.337 20.2127 120.727 20.2136C121.061 20.2144 121.149 20.2449 121.089 20.3402C121.057 20.3919 120.965 20.3958 120.693 20.3568ZM118.652 20.7192C118.59 20.664 118.608 20.6157 118.71 20.565C118.792 20.5244 118.878 20.4883 118.901 20.4847C118.985 20.472 119.273 20.5819 119.294 20.6344C119.317 20.6936 118.856 20.9271 118.657 20.9572C118.491 20.9823 118.466 20.9073 118.62 20.8473C118.7 20.8162 118.711 20.7716 118.652 20.7192ZM120.043 20.9455C119.709 20.9299 119.66 20.8001 119.932 20.6537C120.216 20.5014 120.217 20.5014 120.493 20.6508C120.624 20.7218 120.791 20.7827 120.864 20.7862C121.032 20.7944 121.19 20.5885 121.084 20.4996C121.033 20.4562 121.102 20.4611 121.281 20.5137C121.508 20.5804 121.558 20.622 121.564 20.749C121.569 20.859 121.524 20.9104 121.406 20.9283C121.314 20.9421 121.174 20.986 121.094 21.0259C120.978 21.0835 120.881 21.0839 120.622 21.0279C120.444 20.9892 120.183 20.9521 120.043 20.9455Z" fill="#EA5505"/>
</svg>
