<svg width="304" height="61" viewBox="0 0 304 61" fill="none" xmlns="http://www.w3.org/2000/svg">
<path d="M32.0026 21.5119L32.0046 21.518C32.044 21.4942 32.0834 21.469 32.1247 21.4453L35.1082 19.7905C35.2541 19.7117 35.3349 19.6153 35.3707 19.5108C38.4607 17.6687 41.6355 15.7838 41.9965 15.5884C42.2544 15.4526 42.4993 15.3203 42.7355 15.1901C44.1142 14.4369 44.8734 14.0209 47.133 14.0209H52.0156C56.5887 14.0209 60.8878 12.2399 64.1216 9.0081L60.7101 5.59654C58.3889 7.91769 55.3009 9.1974 52.0156 9.1974H47.133C43.6406 9.1974 42.004 10.0909 40.4209 10.9562C40.2079 11.0728 39.9868 11.195 39.754 11.3171C39.4229 11.4908 36.9205 12.9719 34.4025 14.4722C33.6528 12.7488 32.3595 11.351 30.577 10.3943C28.5199 9.29181 26.5046 9.14389 26.284 9.13228L13.549 9.12825C10.2833 9.12825 7.213 7.85661 4.90396 5.54758L1.396 9.05555C4.64197 12.303 8.95815 14.0896 13.549 14.0896H26.0316C26.284 14.1173 27.3466 14.2612 28.3386 14.8271C29.2377 15.338 29.792 16.0382 30.0383 16.9807H29.8924L16.5698 24.3656C15.3749 25.028 14.6333 26.2865 14.6333 27.651V35.1087C14.6333 36.4616 15.3653 37.7135 16.5425 38.3804C17.7178 39.0447 19.1691 39.025 20.3307 38.3289L28.6006 33.3378L35.1082 29.4552L43.3196 24.4742L43.2267 30.3285L36.1749 34.4736L36.2087 40.2083L45.8099 34.5958C47.2653 33.7618 48.186 32.1999 48.2118 30.5219L48.3122 24.19C48.34 22.4529 47.4212 20.8339 45.9143 19.9662C44.408 19.0984 42.5482 19.1181 41.0595 20.0136L35.1082 23.6125V20.9283L30.1211 23.7225V26.6136L19.6224 32.9339V28.3764L32.0026 21.5119Z" fill="#EA5505"/>
<path d="M30.1211 48.1744C30.1211 49.2865 29.3028 49.6808 28.952 49.7994C28.5991 49.9175 27.7116 50.0952 27.0392 49.2078L25.077 46.6105L29.1372 44.2797L29.1039 38.5475L21.7658 42.7592C20.7345 43.3509 20.0071 44.3605 19.7683 45.5261C19.53 46.6933 19.8062 47.9063 20.522 48.8564L23.0597 52.2129C24.3652 53.9424 26.3092 54.889 28.3562 54.889C29.0781 54.889 29.8137 54.7703 30.5371 54.528C33.3136 53.5971 35.1082 51.1028 35.1082 48.1744V30.575L30.1211 33.5503V48.1744Z" fill="#EA5505"/>
<path d="M30.9846 60.2646C14.3691 60.2646 0.851562 46.7472 0.851562 30.1336C0.851562 24.1682 2.59266 18.4022 5.88205 13.4585L7.34299 14.4308C4.24492 19.0867 2.60628 24.5155 2.60628 30.1336C2.60628 45.7789 15.3373 58.5099 30.9846 58.5099C46.632 58.5099 59.363 45.7789 59.363 30.1336C59.363 25.2273 58.0908 20.3942 55.6874 16.1542L57.2134 15.2885C59.7673 19.7924 61.1182 24.9254 61.1182 30.1336C61.1182 46.7472 47.6002 60.2646 30.9846 60.2646Z" fill="#EA5505"/>
<path d="M13.973 7.41677L12.9199 6.01237C18.1655 2.07833 24.4106 0 30.9848 0C37.2577 0 43.2721 1.90871 48.3753 5.51967L47.3601 6.95335C42.5542 3.55341 36.8927 1.75524 30.9848 1.75524C24.7947 1.75524 18.9106 3.71344 13.973 7.41677Z" fill="#EA5505"/>
<path d="M90.8166 8.73071C90.3795 7.97118 89.9598 7.08593 89.5629 6.06908C89.163 5.05224 88.7975 4.04488 88.4635 3.03974H94.4C94.7085 3.99298 95.0514 4.95574 95.4228 5.92068C95.7963 6.88855 96.2137 7.82498 96.6764 8.73071H90.8166ZM100.802 28.9989V35.57H95.0171V28.9989H85.9195V25.5097H95.0171V20.9921H87.9269V17.5058H95.0171V13.4677H86.8845V10.0868H98.4491C99.015 9.01289 99.5859 7.84837 100.166 6.60052C100.742 5.35268 101.239 4.17575 101.65 3.0763H107.702C107.316 4.20134 106.848 5.38924 106.297 6.63709C105.743 7.88493 105.157 9.03628 104.54 10.0868H108.472V13.4677H100.802V17.5058H107.624V20.9921H100.802V25.5097H109.823V28.9989H100.802ZM79.2885 11.1175C78.5692 9.79581 77.9149 8.45659 77.3242 7.09689C76.7299 5.73793 76.1787 4.36142 75.6648 2.96518H82.1416C82.6299 4.36142 83.1577 5.73793 83.7235 7.09689C84.2886 8.45659 84.9173 9.79581 85.611 11.1175H79.2885ZM84.1088 29.1817C83.5693 31.2863 82.9384 33.3792 82.2184 35.4582H75.6283C76.4507 33.4025 77.1926 31.3177 77.8637 29.1992C78.5319 27.0829 79.0831 24.9213 79.5202 22.7195H85.497C85.111 24.9213 84.6483 27.0771 84.1088 29.1817ZM79.597 20.9577C78.7746 19.6843 78.0238 18.3392 77.341 16.9174C76.6619 15.4985 76.0618 14.1161 75.5508 12.7681H82.0641C82.5781 14.1388 83.1782 15.535 83.8573 16.9546C84.5372 18.3736 85.2514 19.7099 85.9963 20.9577H79.597Z" fill="white"/>
<path d="M140.471 20.9577C140.471 20.4664 140.214 20.2237 139.7 20.2237H124.894C124.689 20.2237 124.485 20.31 124.28 20.481C124.072 20.6521 123.972 20.8348 123.972 21.0293V30.9434C123.972 31.1634 124.034 31.3776 124.163 31.5859C124.292 31.7943 124.497 31.8973 124.78 31.8973H139.583C139.895 31.8973 140.117 31.806 140.26 31.6232C140.4 31.4404 140.471 31.2007 140.471 30.9068V20.9577ZM130.639 7.2255C129.843 8.91342 129.003 10.5238 128.115 12.0546C127.23 13.5817 126.245 15.1329 125.165 16.6973H143.17C143.658 16.6973 144.115 16.8004 144.537 17.0087C144.963 17.217 145.314 17.4941 145.599 17.8369C145.828 18.1308 146.017 18.4532 146.156 18.8077C146.299 19.1645 146.368 19.5387 146.368 19.9298V32.374C146.368 33.208 146.059 33.882 145.445 34.3959C145.137 34.6898 144.769 34.9099 144.346 35.0553C143.92 35.2045 143.478 35.2754 143.015 35.2754H121.196C120.577 35.2754 120.063 35.1525 119.651 34.9099C119.243 34.6642 118.92 34.3331 118.689 33.9164C118.484 33.5735 118.33 33.1912 118.227 32.7599C118.123 32.3345 118.072 31.8973 118.072 31.458V22.4255H113.755C114.859 21.2004 115.879 19.9956 116.819 18.8077C117.758 17.6228 118.655 16.4122 119.517 15.1753C120.379 13.9392 121.202 12.6657 121.985 11.355C122.77 10.0465 123.558 8.66779 124.355 7.2255H114.372V3.69907H147.987V7.2255H130.639Z" fill="white"/>
<path d="M179.216 27.3463C179.216 27.2001 179.144 27.0459 179.005 26.8865C178.862 26.7294 178.716 26.649 178.562 26.649H163.95C163.847 26.649 163.718 26.7147 163.565 26.8492C163.411 26.9859 163.333 27.1146 163.333 27.2345V31.3121C163.333 31.4839 163.422 31.6411 163.602 31.7895C163.781 31.9349 163.976 32.0088 164.181 32.0088H178.639C178.794 32.0088 178.927 31.9488 179.044 31.826C179.159 31.7039 179.216 31.5694 179.216 31.421V27.3463ZM184.612 11.889C184.022 12.3546 183.199 12.5856 182.145 12.5856H157.434C156.226 12.5856 155.352 12.2691 154.813 11.6317C154.299 11.0695 154.041 10.1755 154.041 8.95029V4.65628H159.747V8.51094C159.747 8.75657 159.83 8.93932 159.998 9.06213C160.164 9.18494 160.364 9.24488 160.595 9.24488H166.88V3.07657H172.739V9.24488H179.37C179.498 9.24488 179.633 9.17616 179.775 9.04239C179.916 8.90788 179.987 8.74194 179.987 8.54822V4.65628H185.655V9.46492C185.655 10.541 185.307 11.3495 184.612 11.889ZM166.458 18.9024C166.072 19.6107 165.646 20.333 165.183 21.0669C164.721 21.8008 164.244 22.5231 163.756 23.2344H180.989C182.12 23.2344 183.033 23.491 183.728 24.0049C184.088 24.2731 184.362 24.5992 184.555 24.9786C184.747 25.3587 184.844 25.8295 184.844 26.3924V32.2661C184.844 33.2456 184.561 34.0023 183.996 34.5417C183.43 35.082 182.608 35.3502 181.529 35.3502H161.251C160.147 35.3502 159.259 35.1046 158.59 34.6163C157.897 34.0278 157.551 33.1345 157.551 31.9349V28.668H152.154C153.773 27.2001 155.218 25.6328 156.489 23.9676C157.762 22.3031 158.913 20.6159 159.941 18.9024H153.039V15.487H186.58V18.9024H166.458Z" fill="white"/>
<path d="M214.644 23.1219V20.1496H217.305V18.2395H214.876V15.3381H217.305V13.3563H211.252V15.3381H213.682V18.2395H211.252V19.8185C211.612 19.8185 212.023 19.7951 212.485 19.7439C212.948 19.6957 213.373 19.6357 213.759 19.5611V22.5364C212.191 22.8054 210.572 23.0247 208.902 23.1965C207.228 23.3675 205.532 23.4794 203.813 23.5276V20.6635C204.198 20.6153 204.667 20.5663 205.218 20.5151C205.772 20.4661 206.28 20.4062 206.743 20.3324V18.2395H204.584V15.3381H206.743V13.3563H203.927V10.2348H211.754V8.21648H204.622V5.35235H211.754V3.22217H217.383V5.35235H224.13V8.21648H217.383V10.2348H225.207V13.3563H221.892V15.3381H224.322V18.2395H221.892V20.1496H225.207V23.1219H214.644ZM225.015 35.5324H218.653C217.933 35.5324 217.343 35.452 216.883 35.2926C216.42 35.1355 216.046 34.9096 215.764 34.6157C215.224 34.0017 214.952 33.0111 214.952 31.6405V27.7851H212.756C212.628 28.519 212.494 29.2559 212.351 29.9898C212.211 30.7238 211.997 31.4343 211.715 32.1171C211.483 32.7538 211.189 33.3532 210.829 33.9161C210.47 34.4812 210.033 35.0185 209.519 35.5324H202.462C203.208 34.9951 203.876 34.4074 204.467 33.7706C205.058 33.1339 205.572 32.4599 206.009 31.7516C206.369 31.1405 206.652 30.5037 206.857 29.8414C207.062 29.1813 207.191 28.4964 207.243 27.7851H203.196V24.6644H225.555V27.7851H220.39V31.8971C220.39 32.0455 220.441 32.1683 220.544 32.2655C220.646 32.3627 220.761 32.411 220.892 32.411H225.709L225.015 35.5324ZM203.311 10.2721C203.285 11.1771 203.245 12.1084 203.196 13.0624C203.145 14.0186 203.091 14.9521 203.042 15.8717C202.991 16.7884 202.925 17.6393 202.848 18.4222H200.303C200.381 17.591 200.452 16.697 200.515 15.743C200.581 14.7898 200.643 13.8475 200.709 12.9162C200.772 11.9856 200.817 11.0806 200.844 10.1983C200.869 9.31812 200.883 8.53301 200.883 7.84805H203.35C203.35 8.5586 203.336 9.36711 203.311 10.2721ZM191.937 18.4222C191.86 17.7877 191.786 17.0223 191.706 16.129C191.631 15.235 191.552 14.3044 191.477 13.3387C191.397 12.3709 191.335 11.4059 191.283 10.438C191.232 9.46944 191.191 8.60757 191.169 7.84805H193.636C193.658 8.5586 193.699 9.38976 193.75 10.3437C193.802 11.2999 193.859 12.2736 193.925 13.2649C193.987 14.2554 194.058 15.2036 194.136 16.1086C194.213 17.0143 194.29 17.7877 194.367 18.4222H191.937ZM199.647 33.0367C199.133 31.6171 198.724 30.1982 198.416 28.7763C198.082 29.9525 197.728 31.0973 197.354 32.2114C196.982 33.3247 196.551 34.433 196.064 35.5324H190.897C191.797 33.5989 192.517 31.8115 193.056 30.1726C193.596 28.5336 194.019 26.8684 194.327 25.1783C194.584 23.7842 194.767 22.3514 194.867 20.8835C194.969 19.4157 195.021 17.7994 195.021 16.0376V3.22217H199.764V18.2395C199.764 18.95 199.744 19.6584 199.707 20.3696C199.667 21.0802 199.621 21.7769 199.572 22.4625H201.306C201.974 26.0606 202.925 29.5841 204.159 33.0367H199.647Z" fill="white"/>
<path d="M250.153 25.4349V35.6062H244.176V25.4349H230.067V21.9114H244.176V13.5047H237.623C237.52 13.9447 237.398 14.4038 237.254 14.8812C237.115 15.3578 236.974 15.8235 236.832 16.2745C236.692 16.7284 236.555 17.151 236.426 17.5421C236.298 17.9339 236.169 18.276 236.041 18.5706H229.913C230.193 17.7139 230.495 16.7716 230.818 15.743C231.138 14.7152 231.455 13.6501 231.763 12.5478C232.071 11.4461 232.366 10.3211 232.648 9.16974C232.931 8.01911 233.163 6.89408 233.343 5.7917H239.202C239.099 6.4774 238.985 7.18282 238.857 7.90507C238.728 8.62731 238.599 9.34153 238.471 10.0521H244.176V3.22217H250.153V10.0521H261.832V13.5047H250.153V21.9114H263.876V25.4349H250.153Z" fill="white"/>
<path d="M297.263 27.8227V35.5327H291.941V2.96518H297.263V7.59106H302.198V10.9318H297.263V15.9634H301.31V19.3414H297.263V24.4447H302.58V27.8227H297.263ZM289.842 26.115C289.519 26.2006 289.179 26.281 288.82 26.3548C288.563 28.0427 288.189 29.6473 287.7 31.1634C287.212 32.6825 286.518 34.1248 285.618 35.4954H279.759C280.53 34.2732 281.193 33.0056 281.744 31.6978C282.297 30.3871 282.715 28.985 282.997 27.4915C282.329 27.6399 281.655 27.7737 280.976 27.8965C280.293 28.0193 279.616 28.1166 278.948 28.1911V24.7385C279.745 24.6413 280.544 24.5302 281.341 24.4074C282.138 24.2875 282.906 24.1391 283.654 23.9673C283.783 23.1851 283.871 22.4139 283.922 21.6544C283.974 20.8948 283.988 20.1244 283.963 19.3414H280.145V15.9634H284.117V10.9691H279.337V12.5115H276.829V18.7164C277.24 18.5965 277.652 18.4679 278.063 18.3312C278.474 18.1966 278.874 18.057 279.256 17.9079V21.4716C278.9 21.6434 278.5 21.7947 278.063 21.9285C277.626 22.0659 277.215 22.1946 276.829 22.3145V32.3031C276.829 33.1825 276.561 33.9047 276.019 34.4676C275.478 35.0554 274.747 35.35 273.823 35.35H269.005L268.194 31.9719H270.584C270.842 31.9719 271.073 31.8806 271.278 31.6978C271.483 31.5121 271.586 31.2753 271.586 30.9807V23.9673C270.559 24.3102 269.491 24.593 268.388 24.8131V21.2523C268.925 21.1295 269.468 21.0008 270.008 20.8634C270.544 20.7326 271.073 20.5666 271.586 20.37V12.5115H268.312V9.06186H271.586V2.96518H276.829V9.06186H279.183V7.5567H284.117V2.96518H289.36V17.6513C289.36 18.511 289.345 19.367 289.32 20.2238C289.294 21.0805 289.242 21.9373 289.165 22.794C289.628 22.7684 290.182 22.6712 290.824 22.5001V25.8036C290.49 25.9264 290.162 26.0295 289.842 26.115Z" fill="white"/>
<path d="M200.395 50.475C200.318 50.0868 200.221 49.7323 200.103 49.4099C199.986 49.0897 199.844 48.8127 199.673 48.5817C199.504 48.3477 199.31 48.1679 199.09 48.0422C198.87 47.9135 198.625 47.8507 198.353 47.8507C197.79 47.8507 197.354 47.9647 197.043 48.1935C196.731 48.4245 196.574 48.7213 196.574 49.0927C196.574 49.3558 196.629 49.57 196.737 49.7352C196.843 49.9012 196.999 50.0495 197.203 50.1811C197.405 50.312 197.657 50.4319 197.953 50.5466C198.25 50.6578 198.581 50.7864 198.95 50.9319C199.37 51.0971 199.752 51.263 200.103 51.429C200.452 51.5942 200.752 51.7945 201 52.0255C201.246 52.2594 201.44 52.5423 201.574 52.8735C201.712 53.2046 201.78 53.622 201.78 54.1301C201.78 54.6155 201.7 55.0497 201.54 55.4291C201.38 55.8092 201.149 56.1316 200.855 56.3999C200.558 56.666 200.203 56.8714 199.79 57.011C199.375 57.1543 198.921 57.2252 198.428 57.2252C198.067 57.2252 197.719 57.1799 197.385 57.0944C197.051 57.0052 196.754 56.8517 196.503 56.6258C196.309 56.7625 196.106 56.8824 195.898 56.9913C195.689 57.0966 195.472 57.1858 195.249 57.2508C195.132 56.9138 195.049 56.5717 195.001 56.2259C194.953 55.8801 194.929 55.5234 194.929 55.155C194.929 54.9013 194.935 54.6528 194.953 54.4101C194.964 54.1674 194.992 53.9218 195.029 53.6674H195.977C195.977 53.9875 196.021 54.3128 196.103 54.644C196.183 54.9751 196.317 55.2778 196.503 55.5548C196.689 55.8319 196.929 56.0578 197.225 56.2318C197.519 56.4087 197.88 56.4942 198.296 56.4942C198.673 56.4942 198.993 56.4547 199.25 56.3714C199.507 56.2888 199.715 56.1747 199.878 56.0293C200.038 55.8831 200.155 55.7149 200.226 55.5263C200.301 55.3348 200.338 55.1352 200.338 54.9211C200.338 54.5811 200.25 54.2953 200.075 54.0672C199.898 53.8384 199.613 53.6586 199.216 53.5219C198.622 53.3165 198.076 53.1162 197.582 52.9166C197.086 52.7163 196.657 52.4795 196.292 52.2024C195.929 51.9253 195.643 51.5971 195.441 51.217C195.235 50.8405 195.132 50.3719 195.132 49.8178C195.132 49.4011 195.212 49.0239 195.375 48.6899C195.534 48.3536 195.749 48.0707 196.023 47.8368C196.295 47.605 196.611 47.4252 196.977 47.3053C197.339 47.1825 197.728 47.1226 198.136 47.1226C198.493 47.1226 198.839 47.1884 199.17 47.3192C199.501 47.4508 199.778 47.6708 200.001 47.9822C200.106 47.7878 200.263 47.6277 200.469 47.502C200.672 47.377 200.875 47.2826 201.08 47.2256C201.226 47.6906 201.315 48.2191 201.349 48.8075C201.383 49.3924 201.4 49.9494 201.4 50.475H200.395Z" fill="white"/>
<path d="M204.33 57.0049V56.3945C205.341 56.3945 205.846 55.983 205.846 55.1693V48.5814C205.846 48.2875 205.646 48.1414 205.249 48.1414C204.947 48.1414 204.687 48.1933 204.469 48.2956C204.249 48.3987 204.062 48.55 203.899 48.7554C203.738 48.9586 203.605 49.2152 203.493 49.5208C203.379 49.8263 203.279 50.1831 203.193 50.5917L202.288 50.4601L202.699 47.2254C202.95 47.2619 203.227 47.2934 203.527 47.3109C203.83 47.3306 204.067 47.3423 204.244 47.3423H210.001C210.215 47.3423 210.475 47.3306 210.786 47.3109C211.098 47.2934 211.38 47.2619 211.631 47.2254V50.4177L210.786 50.4886C210.74 49.7211 210.578 49.1494 210.298 48.77C210.021 48.3899 209.544 48.202 208.864 48.202C208.445 48.202 208.236 48.327 208.236 48.5814V55.1693C208.236 55.983 208.753 56.3945 209.781 56.3945V57.0049H204.33Z" fill="white"/>
<path d="M212.551 57.005V56.3946C213.425 56.3946 213.865 56.1117 213.865 55.5459V49.0757C213.865 48.3476 213.391 47.9821 212.448 47.9821V47.3424H220.818L220.932 50.1978L220.044 50.2724C219.956 49.738 219.83 49.3272 219.664 49.0384C219.499 48.7526 219.299 48.5442 219.068 48.4134C218.834 48.2818 218.568 48.2043 218.265 48.1787C217.962 48.1561 217.628 48.1415 217.26 48.1415C216.937 48.1415 216.692 48.1875 216.518 48.2789C216.34 48.3732 216.255 48.507 216.255 48.6787V51.2344C216.255 51.4654 216.366 51.5824 216.589 51.5824C216.823 51.5824 217.038 51.5685 217.231 51.537C217.426 51.5114 217.597 51.4456 217.748 51.3426C217.897 51.2402 218.022 51.086 218.119 50.8828C218.217 50.6803 218.28 50.4032 218.308 50.0523H219.153V53.9443H218.308C218.28 53.6131 218.231 53.3478 218.163 53.1416C218.094 52.9391 218 52.7819 217.88 52.6767C217.757 52.5677 217.603 52.4961 217.42 52.4566C217.234 52.4194 217.011 52.3938 216.749 52.385C216.418 52.4135 216.255 52.5451 216.255 52.779V55.5035C216.255 55.9714 216.617 56.2031 217.348 56.2031C217.94 56.2031 218.413 56.1571 218.768 56.0657C219.122 55.9714 219.413 55.8317 219.636 55.6431C219.859 55.4516 220.038 55.2118 220.176 54.9209C220.31 54.6292 220.452 54.2783 220.598 53.8697L221.429 53.9874L221.021 57.005H212.551Z" fill="white"/>
<path d="M226.311 49.4987L225.161 52.2831C225.052 52.5171 224.998 52.6625 224.998 52.7196C224.998 52.797 225.149 52.8365 225.449 52.8365H227.242C227.476 52.8365 227.593 52.8168 227.593 52.7795C227.593 52.7313 227.502 52.4681 227.316 51.9915L226.311 49.4987ZM227.476 57.0055V56.409C227.613 56.3893 227.756 56.3688 227.908 56.3491C228.059 56.3293 228.193 56.3089 228.313 56.2833C228.435 56.2606 228.536 56.2321 228.612 56.1977C228.693 56.1634 228.73 56.1261 228.73 56.0866C228.73 56.0376 228.718 55.9836 228.693 55.9207C228.67 55.8578 228.642 55.7862 228.612 55.7094L227.974 53.9301C227.933 53.8219 227.836 53.7474 227.679 53.705C227.525 53.6589 227.365 53.6392 227.199 53.6392H225.072C224.761 53.6392 224.569 53.7364 224.503 53.9301L224.038 55.4185C224.015 55.4667 224.004 55.5179 223.992 55.5749C223.984 55.6349 223.979 55.6977 223.979 55.7664C223.979 56.1466 224.389 56.3344 225.218 56.3344V57.0055H221.82V56.3344C222.365 56.2979 222.767 55.9667 223.03 55.3439L226.485 47.1083L227.842 47.2969L231.237 55.841C231.277 55.9463 231.34 56.0318 231.425 56.1005C231.514 56.1692 231.614 56.2233 231.725 56.2635C231.837 56.3008 231.951 56.3322 232.068 56.3578C232.185 56.3805 232.297 56.3973 232.405 56.409V57.0055H227.476Z" fill="white"/>
<path d="M239.299 57.005V56.3946C239.853 56.3946 240.13 56.3457 240.13 56.2484C240.13 56.1885 240.104 56.0971 240.056 55.9714C240.007 55.8434 239.915 55.6775 239.779 55.475L237.812 52.5166L237.243 53.0246C237.135 53.1336 237.049 53.2388 236.98 53.3477C236.912 53.453 236.864 53.5846 236.835 53.7418V55.5035C236.835 55.7945 236.931 56.0145 237.126 56.1658C237.32 56.3171 237.657 56.3946 238.131 56.3946V57.005H233.131V56.3946C234.007 56.3946 234.445 56.0971 234.445 55.5035V48.9156C234.445 48.2928 233.974 47.9821 233.031 47.9821V47.3424H238.088V47.9821C237.252 47.9821 236.835 48.2928 236.835 48.9156V52.1796L239.984 49.1612C240.195 48.9697 240.341 48.8154 240.413 48.7043C240.487 48.5932 240.524 48.4448 240.524 48.2591C240.524 48.0764 240.193 47.9821 239.53 47.9821V47.3424H243.554V47.9675C243.294 47.996 243.068 48.0362 242.883 48.0844C242.7 48.1334 242.52 48.2072 242.346 48.3045C242.171 48.3988 241.989 48.5333 241.798 48.7043C241.609 48.8725 241.372 49.0896 241.092 49.3527L239.459 50.9259L242.577 55.4465C242.783 55.7374 243.011 55.9684 243.263 56.1373C243.516 56.3084 243.871 56.3946 244.328 56.3946V57.005H239.299Z" fill="white"/>
<path d="M255.055 57.005V56.3946C256.006 56.3946 256.483 56.0971 256.483 55.5035V52.559C256.386 52.5107 256.252 52.4705 256.081 52.4362C255.912 52.4026 255.709 52.385 255.478 52.385H253.728C253.368 52.385 253.054 52.442 252.782 52.559V55.5035C252.782 56.0971 253.217 56.3946 254.093 56.3946V57.005H248.919V56.3946C249.899 56.3946 250.39 56.0971 250.39 55.5035V49.1327C250.39 48.3673 249.899 47.9821 248.919 47.9821V47.3424H254.093V47.9821C253.217 47.9821 252.782 48.3673 252.782 49.1385V51.5224C252.928 51.5743 253.071 51.6057 253.217 51.6255C253.365 51.6452 253.533 51.6569 253.728 51.6569H255.478C255.983 51.6569 256.318 51.6167 256.483 51.537V49.1385C256.483 48.3673 256.006 47.9821 255.055 47.9821V47.3424H260.199V47.9821C259.315 47.9821 258.873 48.3673 258.873 49.1327V55.5035C258.873 56.0971 259.315 56.3946 260.199 56.3946V57.005H255.055Z" fill="white"/>
<path d="M266.644 56.4943C267.158 56.4943 267.58 56.3861 267.911 56.1661C268.242 55.949 268.503 55.6463 268.691 55.2611C268.88 54.878 269.011 54.4241 269.085 53.9043C269.156 53.3816 269.193 52.8253 269.193 52.231C269.193 51.6769 269.156 51.1374 269.085 50.6118C269.011 50.084 268.877 49.6184 268.677 49.2097C268.477 48.8018 268.197 48.4707 267.837 48.225C267.48 47.9765 267.006 47.8508 266.424 47.8508C265.89 47.8508 265.462 47.9677 265.141 48.2024C264.822 48.4363 264.576 48.7506 264.405 49.1447C264.236 49.5387 264.125 49.9897 264.07 50.5007C264.016 51.0117 263.991 51.5519 263.991 52.1141C263.991 52.7281 264.028 53.302 264.105 53.8385C264.185 54.3729 264.322 54.8385 264.522 55.2326C264.722 55.6266 264.99 55.9351 265.33 56.1602C265.673 56.3832 266.109 56.4943 266.644 56.4943ZM271.686 52.1228C271.686 52.9481 271.555 53.6762 271.292 54.31C271.03 54.9409 270.67 55.4723 270.207 55.9036C269.745 56.3371 269.199 56.6661 268.574 56.8883C267.946 57.1113 267.267 57.2253 266.527 57.2253C265.827 57.2253 265.17 57.1281 264.559 56.9402C263.948 56.7516 263.411 56.4548 262.954 56.052C262.497 55.6463 262.141 55.1295 261.875 54.4986C261.615 53.8678 261.483 53.1134 261.483 52.2398C261.483 51.3545 261.609 50.595 261.864 49.9583C262.115 49.3216 262.466 48.796 262.917 48.3851C263.371 47.9706 263.905 47.668 264.522 47.4736C265.139 47.2798 265.807 47.1797 266.527 47.1797C267.235 47.1797 267.903 47.2857 268.531 47.494C269.156 47.7024 269.704 48.0138 270.17 48.4275C270.639 48.8413 271.007 49.3559 271.278 49.9722C271.55 50.5892 271.686 51.3063 271.686 52.1228Z" fill="white"/>
<path d="M281.101 49.1327C281.101 48.3673 280.615 47.9821 279.645 47.9821V47.3424H283.157V47.9821C282.36 47.9821 281.963 48.3673 281.963 49.1327V53.4786C281.963 54.0415 281.909 54.5554 281.8 55.0152C281.695 55.4779 281.498 55.872 281.213 56.1973C280.924 56.5196 280.539 56.774 280.053 56.9539C279.568 57.1337 278.945 57.2251 278.188 57.2251C277.615 57.2251 277.086 57.1425 276.606 56.9824C276.124 56.8223 275.71 56.603 275.367 56.3201C275.022 56.0372 274.75 55.7002 274.559 55.3061C274.362 54.9121 274.265 54.4837 274.265 54.0188V48.9156C274.265 48.2928 273.814 47.9821 272.911 47.9821V47.3424H278.011V47.9821C277.109 47.9821 276.655 48.2928 276.655 48.9156V53.6533C276.655 53.964 276.683 54.2813 276.738 54.6066C276.792 54.9326 276.892 55.2265 277.043 55.4889C277.195 55.7521 277.403 55.9684 277.674 56.1373C277.94 56.3084 278.289 56.3946 278.719 56.3946C279.568 56.3946 280.176 56.16 280.547 55.695C280.915 55.2265 281.101 54.5466 281.101 53.6533V49.1327Z" fill="white"/>
<path d="M289.528 50.475C289.45 50.0868 289.353 49.7323 289.236 49.4099C289.119 49.0897 288.977 48.8127 288.805 48.5817C288.634 48.3477 288.442 48.1679 288.222 48.0422C288.003 47.9135 287.757 47.8507 287.486 47.8507C286.923 47.8507 286.486 47.9647 286.175 48.1935C285.864 48.4245 285.707 48.7213 285.707 49.0927C285.707 49.3558 285.761 49.57 285.867 49.7352C285.975 49.9012 286.129 50.0495 286.335 50.1811C286.538 50.312 286.789 50.4319 287.086 50.5466C287.38 50.6578 287.714 50.7864 288.083 50.9319C288.502 51.0971 288.885 51.263 289.236 51.429C289.585 51.5942 289.885 51.7945 290.133 52.0255C290.379 52.2594 290.572 52.5423 290.707 52.8735C290.844 53.2046 290.912 53.622 290.912 54.1301C290.912 54.6155 290.833 55.0497 290.67 55.4291C290.513 55.8092 290.282 56.1316 289.988 56.3999C289.69 56.666 289.336 56.8714 288.922 57.011C288.508 57.1543 288.054 57.2252 287.56 57.2252C287.2 57.2252 286.852 57.1799 286.518 57.0944C286.181 57.0052 285.887 56.8517 285.635 56.6258C285.441 56.7625 285.238 56.8824 285.03 56.9913C284.822 57.0966 284.604 57.1858 284.382 57.2508C284.264 56.9138 284.182 56.5717 284.134 56.2259C284.085 55.8801 284.062 55.5234 284.062 55.155C284.062 54.9013 284.068 54.6528 284.082 54.4101C284.096 54.1674 284.125 53.9218 284.162 53.6674H285.11C285.11 53.9875 285.153 54.3128 285.236 54.644C285.316 54.9751 285.449 55.2778 285.635 55.5548C285.821 55.8319 286.061 56.0578 286.355 56.2318C286.652 56.4087 287.012 56.4942 287.429 56.4942C287.806 56.4942 288.126 56.4547 288.382 56.3714C288.64 56.2888 288.848 56.1747 289.011 56.0293C289.17 55.8831 289.287 55.7149 289.359 55.5263C289.434 55.3348 289.47 55.1352 289.47 54.9211C289.47 54.5811 289.382 54.2953 289.208 54.0672C289.031 53.8384 288.745 53.6586 288.348 53.5219C287.754 53.3165 287.209 53.1162 286.715 52.9166C286.218 52.7163 285.789 52.4795 285.424 52.2024C285.058 51.9253 284.776 51.5971 284.57 51.217C284.368 50.8405 284.264 50.3719 284.264 49.8178C284.264 49.4011 284.345 49.0239 284.505 48.6899C284.667 48.3536 284.881 48.0707 285.156 47.8368C285.427 47.605 285.744 47.4252 286.11 47.3053C286.472 47.1825 286.86 47.1226 287.269 47.1226C287.626 47.1226 287.972 47.1884 288.303 47.3192C288.634 47.4508 288.911 47.6708 289.134 47.9822C289.239 47.7878 289.396 47.6277 289.602 47.502C289.805 47.377 290.007 47.2826 290.213 47.2256C290.358 47.6906 290.447 48.2191 290.481 48.8075C290.515 49.3924 290.533 49.9494 290.533 50.475H289.528Z" fill="white"/>
<path d="M292.34 57.005V56.3946C293.214 56.3946 293.654 56.1117 293.654 55.5459V49.0757C293.654 48.3476 293.18 47.9821 292.238 47.9821V47.3424H300.604L300.721 50.1978L299.833 50.2724C299.745 49.738 299.619 49.3272 299.454 49.0384C299.288 48.7526 299.088 48.5442 298.856 48.4134C298.622 48.2818 298.357 48.2043 298.054 48.1787C297.752 48.1561 297.418 48.1415 297.049 48.1415C296.729 48.1415 296.481 48.1875 296.307 48.2789C296.13 48.3732 296.041 48.507 296.041 48.6787V51.2344C296.041 51.4654 296.155 51.5824 296.378 51.5824C296.612 51.5824 296.826 51.5685 297.018 51.537C297.215 51.5114 297.386 51.4456 297.538 51.3426C297.686 51.2402 297.812 51.086 297.908 50.8828C298.005 50.6803 298.068 50.4032 298.097 50.0523H298.943V53.9443H298.097C298.068 53.6131 298.02 53.3478 297.951 53.1416C297.886 52.9391 297.788 52.7819 297.668 52.6767C297.546 52.5677 297.391 52.4961 297.209 52.4566C297.024 52.4194 296.801 52.3938 296.538 52.385C296.206 52.4135 296.041 52.5451 296.041 52.779V55.5035C296.041 55.9714 296.407 56.2031 297.138 56.2031C297.728 56.2031 298.203 56.1571 298.557 56.0657C298.911 55.9714 299.202 55.8317 299.425 55.6431C299.647 55.4516 299.827 55.2118 299.965 54.9209C300.099 54.6292 300.242 54.2783 300.387 53.8697L301.218 53.9874L300.81 57.005H292.34Z" fill="white"/>
<path d="M78.2234 57.0344V56.3772C79.2658 56.3772 79.7885 56.1747 79.7885 55.769V52.8135L77.238 48.5904C76.7387 47.768 76.1729 47.3564 75.5508 47.3564V46.6685H80.7564V47.3564C80.0166 47.3564 79.6452 47.4968 79.6452 47.779C79.6452 47.882 79.7285 48.0648 79.8967 48.3243L81.9443 51.7199L83.8515 48.3418C83.9027 48.1847 83.9319 47.9763 83.9319 47.7161C83.9319 47.4763 83.5233 47.3564 82.7126 47.3564V46.6685H86.4788V47.3564C85.9159 47.3564 85.5051 47.5282 85.2448 47.8733L82.3982 52.7506V55.8319C82.3982 56.1974 82.8975 56.3772 83.9005 56.3772V57.0344H78.2234Z" fill="#EA5505"/>
<path d="M92.0157 56.4887C92.5669 56.4887 93.0209 56.3718 93.3747 56.1349C93.7292 55.901 94.0092 55.5779 94.2117 55.1641C94.4142 54.7526 94.5546 54.2672 94.6313 53.7079C94.7117 53.1509 94.7512 52.5515 94.7512 51.9147C94.7512 51.3204 94.7117 50.7407 94.6313 50.1757C94.5546 49.6128 94.4091 49.1106 94.1949 48.6734C93.9807 48.2334 93.6802 47.8825 93.2979 47.6142C92.9097 47.3488 92.4039 47.2172 91.7789 47.2172C91.208 47.2172 90.7481 47.34 90.4053 47.5915C90.0595 47.8422 89.7971 48.1793 89.6144 48.6018C89.4316 49.0243 89.3117 49.5104 89.2547 50.0587C89.1977 50.607 89.1692 51.1837 89.1692 51.789C89.1692 52.4484 89.2086 53.0625 89.2941 53.6363C89.3775 54.2131 89.5259 54.7102 89.7401 55.1327C89.9543 55.5552 90.2423 55.8864 90.6078 56.1291C90.9704 56.3688 91.4419 56.4887 92.0157 56.4887ZM97.4245 51.7971C97.4245 52.6823 97.2842 53.4652 97.0013 54.1414C96.7191 54.8213 96.3302 55.3922 95.8368 55.8549C95.3426 56.3177 94.7599 56.6715 94.086 56.912C93.412 57.1488 92.6809 57.2687 91.8871 57.2687C91.1392 57.2687 90.4367 57.1686 89.7773 56.9661C89.1231 56.7607 88.5492 56.4434 88.058 56.0121C87.5697 55.5779 87.1844 55.0245 86.9015 54.3476C86.6186 53.6677 86.479 52.86 86.479 51.9228C86.479 50.9747 86.6128 50.1581 86.8847 49.4761C87.1559 48.7933 87.5353 48.2312 88.0178 47.7852C88.5032 47.343 89.0778 47.0169 89.7401 46.8086C90.4024 46.6003 91.1166 46.4972 91.8871 46.4972C92.6495 46.4972 93.3667 46.609 94.0407 46.8313C94.7117 47.0572 95.2966 47.3912 95.7995 47.8342C96.2988 48.2765 96.6935 48.8277 96.9874 49.49C97.2783 50.1523 97.4245 50.9206 97.4245 51.7971Z" fill="#EA5505"/>
<path d="M107.055 48.5904C107.055 47.768 106.532 47.3564 105.491 47.3564V46.6685H109.26V47.3564C108.406 47.3564 107.978 47.768 107.978 48.5904V53.2506C107.978 53.8559 107.921 54.4071 107.807 54.9013C107.692 55.3947 107.481 55.8172 107.173 56.1659C106.864 56.5168 106.45 56.7888 105.93 56.9796C105.407 57.174 104.742 57.2683 103.929 57.2683C103.315 57.2683 102.747 57.1828 102.233 57.011C101.716 56.8399 101.273 56.6031 100.901 56.3004C100.533 55.9978 100.245 55.6345 100.034 55.212C99.8254 54.7894 99.7223 54.3296 99.7223 53.8303V48.3557C99.7223 47.6905 99.2369 47.3564 98.269 47.3564V46.6685H103.74V47.3564C102.772 47.3564 102.287 47.6905 102.287 48.3557V53.4392C102.287 53.7733 102.315 54.1125 102.372 54.4641C102.429 54.8121 102.541 55.1264 102.703 55.4093C102.863 55.6893 103.089 55.9232 103.377 56.106C103.663 56.2858 104.037 56.3772 104.497 56.3772C105.407 56.3772 106.062 56.1286 106.459 55.6264C106.858 55.1264 107.055 54.3983 107.055 53.4392V48.5904Z" fill="#EA5505"/>
<path d="M118.846 57.2223L112.199 50.2323V54.6586C112.199 55.8063 112.733 56.3772 113.795 56.3772V57.0344H109.903V56.3772C110.777 56.3772 111.217 55.8063 111.217 54.6586V47.8733C111.217 47.5282 110.706 47.3564 109.683 47.3564V46.6685H112.639L118.501 52.9538V48.9354C118.501 47.882 117.976 47.3564 116.922 47.3564V46.6685H120.8V47.3564C119.852 47.3564 119.378 47.882 119.378 48.9354V57.0826L118.846 57.2223Z" fill="#EA5505"/>
<path d="M130.4 57.2088C130.192 57.1232 129.994 57.0085 129.806 56.863C129.618 56.7175 129.458 56.5662 129.32 56.409C128.955 56.6803 128.535 56.8915 128.064 57.0428C127.587 57.1942 127.102 57.2687 126.602 57.2687C125.049 57.2687 123.846 56.8345 122.996 55.9639C122.148 55.0925 121.722 53.7818 121.722 52.0317C121.722 51.2291 121.814 50.4893 121.996 49.8131C122.179 49.1332 122.462 48.5506 122.847 48.0594C123.232 47.5711 123.727 47.1887 124.326 46.9117C124.926 46.6346 125.637 46.4972 126.459 46.4972C126.699 46.4972 126.953 46.5118 127.225 46.5432C127.496 46.5747 127.764 46.6229 128.024 46.6916C128.284 46.7604 128.532 46.8488 128.767 46.957C129.001 47.0688 129.206 47.1997 129.383 47.3569C129.646 46.9519 130.009 46.6799 130.477 46.5432C130.866 47.4088 131.057 48.6449 131.057 50.2495H129.946C129.686 49.1873 129.332 48.4249 128.884 47.9651C128.435 47.5082 127.827 47.2801 127.053 47.2801C126.534 47.2801 126.105 47.3971 125.771 47.631C125.44 47.8657 125.174 48.1734 124.983 48.5535C124.789 48.9337 124.657 49.3701 124.583 49.8672C124.509 50.3613 124.474 50.8636 124.474 51.3745C124.474 51.8431 124.489 52.3716 124.521 52.9543C124.552 53.5361 124.646 54.0844 124.803 54.5961C124.961 55.1071 125.203 55.5384 125.537 55.8864C125.871 56.2351 126.339 56.409 126.945 56.409C127.581 56.409 128.059 56.2577 128.375 55.9522C128.692 55.6437 128.852 55.1181 128.852 54.3702C128.852 53.3848 128.327 52.8914 127.274 52.8914V52.2342H132.307V52.8914C131.399 52.8914 130.948 53.2452 130.948 53.9565V57.2088H130.4Z" fill="#EA5505"/>
<path d="M143.55 50.0295C143.467 49.6121 143.361 49.2327 143.236 48.887C143.113 48.5441 142.959 48.2473 142.776 47.9959C142.593 47.7473 142.384 47.5536 142.15 47.4191C141.916 47.2824 141.651 47.2166 141.362 47.2166C140.757 47.2166 140.286 47.3394 139.951 47.585C139.62 47.8277 139.452 48.1501 139.452 48.547C139.452 48.827 139.512 49.058 139.626 49.2356C139.74 49.4126 139.906 49.5719 140.126 49.7123C140.343 49.8548 140.612 49.9835 140.931 50.1034C141.248 50.2262 141.605 50.3636 142.002 50.5201C142.45 50.6977 142.862 50.8746 143.236 51.0515C143.612 51.2284 143.933 51.4426 144.198 51.6941C144.463 51.9455 144.669 52.2482 144.815 52.602C144.963 52.9587 145.034 53.4076 145.034 53.95C145.034 54.4727 144.949 54.9347 144.778 55.3433C144.604 55.7519 144.361 56.097 144.044 56.3857C143.724 56.6708 143.344 56.8909 142.901 57.0422C142.459 57.1935 141.971 57.2681 141.439 57.2681C141.054 57.2681 140.68 57.222 140.32 57.1277C139.96 57.0342 139.646 56.8682 139.375 56.6284C139.166 56.7739 138.949 56.9055 138.727 57.0195C138.501 57.1336 138.27 57.2279 138.03 57.2995C137.905 56.9369 137.815 56.5685 137.764 56.1971C137.713 55.8287 137.688 55.4464 137.688 55.0494C137.688 54.7782 137.693 54.5121 137.71 54.2526C137.724 53.9895 137.753 53.7241 137.796 53.4529H138.813C138.813 53.7987 138.855 54.1466 138.943 54.5012C139.033 54.855 139.178 55.1803 139.375 55.4778C139.572 55.7775 139.832 56.0173 140.149 56.2059C140.465 56.3945 140.851 56.4881 141.299 56.4881C141.705 56.4881 142.045 56.4427 142.322 56.3543C142.598 56.2658 142.824 56.143 142.993 55.9859C143.167 55.8316 143.293 55.6489 143.37 55.4493C143.447 55.2431 143.487 55.029 143.487 54.798C143.487 54.4354 143.392 54.1298 143.204 53.8842C143.019 53.6386 142.71 53.4441 142.285 53.2986C141.648 53.0786 141.063 52.8615 140.531 52.648C140 52.436 139.541 52.1795 139.15 51.8827C138.758 51.5851 138.453 51.2343 138.233 50.8256C138.016 50.4206 137.905 49.9206 137.905 49.327C137.905 48.8782 137.99 48.4732 138.164 48.1128C138.335 47.7532 138.567 47.4505 138.858 47.199C139.15 46.9512 139.492 46.7597 139.883 46.6281C140.275 46.4995 140.688 46.4344 141.125 46.4344C141.511 46.4344 141.882 46.5024 142.236 46.6457C142.59 46.7853 142.887 47.0221 143.127 47.3562C143.241 47.1479 143.41 46.9768 143.627 46.8394C143.846 46.7056 144.066 46.6055 144.283 46.5426C144.441 47.0426 144.538 47.6077 144.575 48.2386C144.609 48.8701 144.629 49.4666 144.629 50.0295H143.55Z" fill="#EA5505"/>
<path d="M147.771 57.0345V56.3773C148.856 56.3773 149.398 55.9401 149.398 55.0636V47.9962C149.398 47.6848 149.184 47.5283 148.756 47.5283C148.433 47.5283 148.153 47.5824 147.919 47.6935C147.685 47.8025 147.482 47.9647 147.311 48.1848C147.139 48.4048 146.994 48.6789 146.874 49.0072C146.751 49.3354 146.646 49.7185 146.552 50.1549L145.583 50.0152L146.02 46.5429C146.291 46.586 146.588 46.6175 146.911 46.6372C147.234 46.6569 147.491 46.6686 147.677 46.6686H153.853C154.084 46.6686 154.364 46.6569 154.698 46.6372C155.032 46.6175 155.335 46.586 155.606 46.5429V49.967L154.698 50.0438C154.647 49.2214 154.473 48.6073 154.175 48.2023C153.879 47.7937 153.365 47.5912 152.634 47.5912C152.186 47.5912 151.963 47.7279 151.963 47.9962V55.0636C151.963 55.9401 152.514 56.3773 153.619 56.3773V57.0345H147.771Z" fill="#EA5505"/>
<path d="M161.906 56.4887C162.459 56.4887 162.914 56.3718 163.268 56.1349C163.621 55.901 163.901 55.5779 164.104 55.1641C164.307 54.7526 164.447 54.2672 164.527 53.7079C164.604 53.1509 164.641 52.5515 164.641 51.9147C164.641 51.3204 164.604 50.7407 164.527 50.1757C164.447 49.6128 164.301 49.1106 164.087 48.6734C163.873 48.2334 163.573 47.8825 163.187 47.6142C162.802 47.3488 162.297 47.2172 161.671 47.2172C161.1 47.2172 160.64 47.34 160.294 47.5915C159.952 47.8422 159.689 48.1793 159.506 48.6018C159.324 49.0243 159.204 49.5104 159.147 50.0587C159.09 50.607 159.061 51.1837 159.061 51.789C159.061 52.4484 159.101 53.0625 159.184 53.6363C159.27 54.2131 159.418 54.7102 159.632 55.1327C159.846 55.5552 160.135 55.8864 160.498 56.1291C160.863 56.3688 161.334 56.4887 161.906 56.4887ZM167.317 51.7971C167.317 52.6823 167.177 53.4652 166.894 54.1414C166.611 54.8213 166.223 55.3922 165.729 55.8549C165.235 56.3177 164.649 56.6715 163.979 56.912C163.305 57.1488 162.574 57.2687 161.78 57.2687C161.031 57.2687 160.326 57.1686 159.669 56.9661C159.013 56.7607 158.441 56.4434 157.95 56.0121C157.46 55.5779 157.077 55.0245 156.794 54.3476C156.511 53.6677 156.371 52.86 156.371 51.9228C156.371 50.9747 156.506 50.1581 156.777 49.4761C157.048 48.7933 157.425 48.2312 157.911 47.7852C158.396 47.343 158.97 47.0169 159.632 46.8086C160.294 46.6003 161.009 46.4972 161.78 46.4972C162.542 46.4972 163.259 46.609 163.933 46.8313C164.604 47.0572 165.189 47.3912 165.692 47.8342C166.192 48.2765 166.586 48.8277 166.879 49.49C167.171 50.1523 167.317 50.9206 167.317 51.7971Z" fill="#EA5505"/>
<path d="M177.462 57.2223L170.817 50.2323V54.6586C170.817 55.8063 171.35 56.3772 172.413 56.3772V57.0344H168.521V56.3772C169.395 56.3772 169.831 55.8063 169.831 54.6586V47.8733C169.831 47.5282 169.32 47.3564 168.301 47.3564V46.6685H171.257L177.119 52.9538V48.9354C177.119 47.882 176.593 47.3564 175.54 47.3564V46.6685H179.418V47.3564C178.47 47.3564 177.995 47.882 177.995 48.9354V57.0826L177.462 57.2223Z" fill="#EA5505"/>
<path d="M180.449 57.0344V56.3772C181.389 56.3772 181.857 56.0745 181.857 55.4722V48.5304C181.857 47.7475 181.351 47.3564 180.34 47.3564V46.6685H189.316L189.442 49.7322L188.488 49.8126C188.393 49.2381 188.259 48.7958 188.082 48.4902C187.902 48.1818 187.691 47.9588 187.439 47.8163C187.191 47.6766 186.903 47.5933 186.58 47.5677C186.257 47.5421 185.898 47.5282 185.501 47.5282C185.155 47.5282 184.889 47.5765 184.704 47.6766C184.515 47.776 184.421 47.9193 184.421 48.105V50.8434C184.421 51.0949 184.541 51.2169 184.781 51.2169C185.032 51.2169 185.261 51.2031 185.469 51.1716C185.678 51.1402 185.863 51.0685 186.023 50.9604C186.186 50.8514 186.317 50.6862 186.423 50.4691C186.528 50.2491 186.594 49.9523 186.626 49.5751H187.534V53.7499H186.626C186.594 53.3961 186.543 53.1103 186.468 52.891C186.397 52.6739 186.294 52.505 186.166 52.391C186.034 52.2769 185.869 52.1994 185.672 52.157C185.475 52.1139 185.235 52.0883 184.952 52.0795C184.599 52.1081 184.421 52.2513 184.421 52.4992V55.4232C184.421 55.9232 184.813 56.1747 185.595 56.1747C186.229 56.1747 186.74 56.1257 187.12 56.0263C187.499 55.9261 187.808 55.7777 188.05 55.5723C188.29 55.3691 188.482 55.1125 188.627 54.7982C188.773 54.4868 188.925 54.1103 189.081 53.6732L189.972 53.7989L189.535 57.0344H180.449Z" fill="#EA5505"/>
</svg>
